<svg width="418" height="130" viewBox="0 0 418 130" fill="none" xmlns="http://www.w3.org/2000/svg">
<rect width="417" height="129" transform="translate(0.498962 0.5)" fill="#F8F8F8"/>
<path d="M171.194 64.9987C168.138 64.9987 166.058 63.7667 166.058 61.7987C166.058 59.8627 168.138 58.6147 171.194 58.6147C174.218 58.6147 176.314 59.8627 176.314 61.7987C176.314 63.7667 174.218 64.9987 171.194 64.9987ZM171.194 59.9427C169.114 59.9427 167.754 60.6467 167.754 61.7987C167.754 62.9667 169.066 63.6707 171.194 63.6707C173.258 63.6707 174.618 62.9667 174.618 61.7987C174.618 60.6467 173.242 59.9427 171.194 59.9427ZM177.786 67.5907H174.522V72.5347H172.842V67.5907H169.546V72.5347H167.866V67.5907H164.666V66.2307H177.77L177.786 67.5907ZM191.317 61.3987H179.493V60.0707H184.597V58.2787H186.245V60.0707H191.317V61.3987ZM191.989 69.6387V70.9987H178.901V69.6387H182.197V67.0947C181.173 66.6307 180.597 65.8947 180.597 64.9347C180.597 63.2067 182.453 62.1987 185.397 62.1987C188.357 62.1987 190.213 63.2067 190.213 64.9347C190.213 65.8947 189.653 66.5987 188.629 67.0947V69.6387H191.989ZM185.397 63.4787C183.397 63.4787 182.277 63.9747 182.277 64.9347C182.277 65.8947 183.397 66.3907 185.397 66.3907C187.397 66.3907 188.533 65.8947 188.533 64.9347C188.533 63.9747 187.397 63.4787 185.397 63.4787ZM183.829 69.6387H186.997V67.5587C186.501 67.6387 185.989 67.6707 185.397 67.6707C184.821 67.6707 184.325 67.6387 183.829 67.5587V69.6387ZM206.559 65.2707H204.335V72.5507H202.671V58.0867H204.335V63.8947H206.559V65.2707ZM198.127 60.3107H201.503V61.6547H193.039V60.3107H196.479V58.2947H198.127V60.3107ZM197.327 62.6787C199.375 62.6787 200.911 64.0707 200.911 66.0547C200.911 68.0387 199.375 69.4307 197.327 69.4307C195.231 69.4307 193.743 68.0387 193.743 66.0547C193.743 64.0707 195.231 62.6787 197.327 62.6787ZM197.327 68.0707C198.495 68.0707 199.343 67.2707 199.343 66.0547C199.343 64.8387 198.495 64.0387 197.327 64.0387C196.159 64.0387 195.311 64.8387 195.311 66.0547C195.311 67.2707 196.159 68.0707 197.327 68.0707ZM219.226 58.0867V72.5347H217.562V58.0867H219.226ZM212.666 62.2627C212.666 64.6787 214.154 67.1427 216.41 68.1187L215.498 69.4147C213.818 68.6627 212.538 67.1107 211.85 65.2387C211.21 67.2387 209.914 68.9827 208.218 69.7827L207.274 68.4707C209.514 67.4627 211.002 64.7107 211.002 62.2627V60.8867H207.786V59.5267H215.882V60.8867H212.666V62.2627ZM237.963 61.2227V62.5827H235.915V65.2387H234.267V58.0867H235.915V61.2227H237.963ZM232.395 62.2147C232.395 64.1827 230.779 65.5747 228.603 65.5747C226.427 65.5747 224.811 64.1827 224.811 62.2147C224.811 60.2467 226.427 58.8547 228.603 58.8547C230.779 58.8547 232.395 60.2467 232.395 62.2147ZM226.411 62.2147C226.411 63.4147 227.371 64.2147 228.603 64.2147C229.835 64.2147 230.795 63.4147 230.795 62.2147C230.795 60.9987 229.867 60.1987 228.603 60.1987C227.339 60.1987 226.411 60.9987 226.411 62.2147ZM234.411 66.8067H237.227V68.0067H229.979V66.8067H232.811V65.6227H234.411V66.8067ZM227.627 70.8067C228.459 70.7587 229.339 70.6467 230.235 70.3427L230.507 71.6547C229.163 72.1027 227.947 72.1667 226.779 72.1667H226.027V66.7267H227.627V70.8067ZM233.611 68.4547C235.211 68.4547 236.331 69.2547 236.331 70.5027C236.331 71.7507 235.211 72.5507 233.611 72.5507C232.011 72.5507 230.875 71.7507 230.875 70.5027C230.875 69.2547 232.011 68.4547 233.611 68.4547ZM233.611 71.3987C234.331 71.3987 234.875 71.0627 234.875 70.5027C234.875 69.9267 234.331 69.6067 233.611 69.6067C232.859 69.6067 232.331 69.9267 232.331 70.5027C232.331 71.0627 232.859 71.3987 233.611 71.3987ZM245.382 64.4067C242.262 64.4067 240.23 63.3027 240.23 61.4627C240.23 59.6227 242.262 58.5347 245.382 58.5347C248.502 58.5347 250.534 59.6227 250.534 61.4627C250.534 63.3027 248.502 64.4067 245.382 64.4067ZM245.382 59.8627C243.254 59.8627 241.926 60.4387 241.926 61.4627C241.926 62.4867 243.254 63.0787 245.382 63.0787C247.51 63.0787 248.822 62.4867 248.822 61.4627C248.822 60.4387 247.51 59.8627 245.382 59.8627ZM251.91 65.5747V66.9187H238.838V65.5747H251.91ZM242.15 70.9187H250.454V72.2627H240.486V68.0547H242.15V70.9187ZM268.039 58.0707V72.5667H266.375V58.0707H268.039ZM260.343 59.1427C262.503 59.1427 264.071 61.1267 264.071 64.2307C264.071 67.3667 262.503 69.3347 260.343 69.3347C258.215 69.3347 256.631 67.3667 256.631 64.2307C256.631 61.1267 258.215 59.1427 260.343 59.1427ZM260.343 60.6307C259.063 60.6307 258.215 61.9747 258.215 64.2307C258.215 66.5507 259.063 67.8627 260.343 67.8627C261.623 67.8627 262.487 66.5507 262.487 64.2307C262.487 61.9747 261.623 60.6307 260.343 60.6307ZM282.257 58.0707V72.5667H280.593V58.0707H282.257ZM277.921 59.4467V68.9987H271.137V59.4467H277.921ZM272.753 60.7587V67.6707H276.305V60.7587H272.753ZM296.476 58.0867V72.5347H294.812V58.0867H296.476ZM289.916 62.2627C289.916 64.6787 291.404 67.1427 293.66 68.1187L292.748 69.4147C291.068 68.6627 289.788 67.1107 289.1 65.2387C288.46 67.2387 287.164 68.9827 285.468 69.7827L284.524 68.4707C286.764 67.4627 288.252 64.7107 288.252 62.2627V60.8867H285.036V59.5267H293.132V60.8867H289.916V62.2627ZM310.711 58.0867V65.8467H309.063V58.0867H310.711ZM302.919 58.7427C305.127 58.7427 306.743 60.1187 306.743 62.1027C306.743 64.0867 305.127 65.4627 302.919 65.4627C300.695 65.4627 299.079 64.0867 299.079 62.1027C299.079 60.1187 300.695 58.7427 302.919 58.7427ZM302.919 60.1027C301.575 60.1027 300.695 60.8867 300.695 62.1027C300.695 63.3187 301.575 64.1027 302.919 64.1027C304.215 64.1027 305.143 63.3187 305.143 62.1027C305.143 60.8867 304.215 60.1027 302.919 60.1027ZM302.903 66.5187V68.1187H309.079V66.5187H310.711V72.3587H301.271V66.5187H302.903ZM302.903 71.0307H309.079V69.3987H302.903V71.0307ZM324.962 58.0867V72.5347H323.314V58.0867H324.962ZM315.506 67.4787C317.57 67.4627 319.666 67.2867 321.986 66.8227L322.162 68.1987C319.65 68.7107 317.362 68.8867 315.106 68.8867H313.874V59.4947H315.506V67.4787ZM340.684 64.9987H338.428V72.5507H336.78V58.0707H338.428V63.6387H340.684V64.9987ZM329.468 67.6227C331.772 67.6227 333.58 67.4947 335.58 67.1587L335.756 68.5187C333.58 68.9027 331.612 68.9987 329.004 68.9987H327.82V59.4467H334.54V60.7907H329.468V67.6227Z" fill="#00368E"/>
<path fill-rule="evenodd" clip-rule="evenodd" d="M114.656 38.0234H84.7212C81.9598 38.0234 79.7212 40.262 79.7212 43.0234V87.5767C79.7212 90.3381 81.9598 92.5767 84.7212 92.5767H123.883C126.645 92.5767 128.883 90.3381 128.883 87.5767V49.63L114.656 38.0234Z" fill="#DDEBF6"/>
<path d="M112.576 47.4545L114.645 38.0586L129.613 50.1352L118.882 53.3229C115.231 54.4077 111.756 51.1744 112.576 47.4545Z" fill="#BFD7EC"/>
<path d="M89.7857 60.4883H107.371" stroke="#BFD7EC" stroke-width="1.5" stroke-linecap="round"/>
<path d="M89.7857 70.1172H114.645" stroke="#BFD7EC" stroke-width="1.5" stroke-linecap="round"/>
<path d="M133.106 36.5L75.499 94.1055" stroke="#00368E" stroke-width="4" stroke-linecap="round"/>
<g opacity="0.6">
<path fill-rule="evenodd" clip-rule="evenodd" d="M136.7 87.4581C135.992 88.0308 135.09 88.3739 134.109 88.3739C131.831 88.3739 129.985 86.5277 129.985 84.2504C129.985 81.9731 131.831 80.127 134.109 80.127C135.09 80.127 135.992 80.47 136.7 81.0427C137.408 80.47 138.31 80.127 139.291 80.127C141.569 80.127 143.415 81.9731 143.415 84.2504C143.415 86.5277 141.569 88.3739 139.291 88.3739C138.31 88.3739 137.408 88.0308 136.7 87.4581Z" fill="url(#paint0_radial_3455_10444)"/>
<path d="M135.091 87.1475C133.353 87.1475 132.128 85.9218 132.128 84.2505C132.128 82.5792 133.353 81.3535 135.091 81.3535C136.83 81.3535 138.033 82.5792 138.033 84.2505V84.7185H133.52C133.699 85.5207 134.311 85.9441 135.091 85.9441C135.682 85.9441 136.116 85.777 136.395 85.4204H137.81C137.398 86.4678 136.395 87.1475 135.091 87.1475ZM133.554 83.66H136.629C136.417 82.9246 135.816 82.5569 135.091 82.5569C134.345 82.5569 133.765 82.9357 133.554 83.66Z" fill="#00368E"/>
<path d="M129.54 87.1475C128.136 87.1475 127.256 86.401 127.222 85.3759H128.559C128.57 85.7436 128.893 85.9887 129.54 85.9887C130.219 85.9887 130.509 85.7101 130.509 85.3759C130.509 84.9525 130.019 84.8968 129.428 84.8188C128.581 84.7073 127.334 84.5625 127.334 83.2143C127.334 82.0889 128.191 81.3535 129.517 81.3535C130.866 81.3535 131.69 82.1112 131.724 83.0806H130.409C130.375 82.7463 130.063 82.5123 129.54 82.5123C128.96 82.5123 128.671 82.7909 128.671 83.114C128.671 83.5374 129.172 83.6043 129.763 83.6822C130.498 83.7825 131.846 83.9274 131.846 85.2979C131.846 86.4121 130.944 87.1475 129.54 87.1475Z" fill="#00368E"/>
<path d="M123.974 87.1475C122.236 87.1475 121.01 85.9218 121.01 84.2505C121.01 82.5792 122.236 81.3535 123.974 81.3535C125.712 81.3535 126.938 82.5792 126.938 84.2505C126.938 85.9218 125.712 87.1475 123.974 87.1475ZM123.974 85.9107C124.943 85.9107 125.59 85.2199 125.59 84.2505C125.59 83.2811 124.943 82.5903 123.974 82.5903C123.005 82.5903 122.347 83.2811 122.347 84.2505C122.347 85.2199 123.005 85.9107 123.974 85.9107Z" fill="#00368E"/>
<path d="M116.065 87.0026V83.8048C116.065 82.1446 117.046 81.3535 118.483 81.3535C119.921 81.3535 120.89 82.1446 120.89 83.8271V83.8605H119.575V83.8048C119.575 82.9134 119.129 82.5903 118.483 82.5903C117.837 82.5903 117.391 82.9134 117.391 83.8048V87.0026H116.065Z" fill="#00368E"/>
<path d="M112.606 87.1475C110.868 87.1475 109.642 85.9218 109.642 84.2505C109.642 82.5792 110.868 81.3535 112.606 81.3535C114.344 81.3535 115.57 82.5792 115.57 84.2505C115.57 85.9218 114.344 87.1475 112.606 87.1475ZM112.606 85.9107C113.575 85.9107 114.222 85.2199 114.222 84.2505C114.222 83.2811 113.575 82.5903 112.606 82.5903C111.637 82.5903 110.979 83.2811 110.979 84.2505C110.979 85.2199 111.637 85.9107 112.606 85.9107Z" fill="#00368E"/>
<path d="M103.707 87.0026V84.1391C103.707 82.3006 104.799 81.3535 106.426 81.3535C108.053 81.3535 109.145 82.2895 109.145 84.1391V87.0026H107.819V84.1391C107.819 83.0917 107.262 82.5903 106.426 82.5903C105.59 82.5903 105.033 83.0917 105.033 84.1391V87.0026H103.707Z" fill="#00368E"/>
<path d="M100.896 87.1475C99.4922 87.1475 98.612 86.401 98.5786 85.3759H99.9156C99.9268 85.7436 100.25 85.9887 100.896 85.9887C101.576 85.9887 101.866 85.7101 101.866 85.3759C101.866 84.9525 101.375 84.8968 100.785 84.8188C99.9379 84.7073 98.69 84.5625 98.69 83.2143C98.69 82.0889 99.5479 81.3535 100.874 81.3535C102.222 81.3535 103.047 82.1112 103.08 83.0806H101.765C101.732 82.7463 101.42 82.5123 100.896 82.5123C100.317 82.5123 100.027 82.7909 100.027 83.114C100.027 83.5374 100.528 83.6043 101.119 83.6822C101.854 83.7825 103.203 83.9274 103.203 85.2979C103.203 86.4121 102.3 87.1475 100.896 87.1475Z" fill="#00368E"/>
</g>
<defs>
<radialGradient id="paint0_radial_3455_10444" cx="0" cy="0" r="1" gradientUnits="userSpaceOnUse" gradientTransform="translate(140.439 84.9827) rotate(93.7817) scale(9.87209 16.1533)">
<stop offset="0.29142" stop-color="#C5D2FF"/>
<stop offset="1" stop-color="#82B5FF"/>
</radialGradient>
</defs>
</svg>
