<svg width="418" height="130" viewBox="0 0 418 130" fill="none" xmlns="http://www.w3.org/2000/svg">
<g clip-path="url(#clip0_3590_10732)">
<rect width="417" height="129" transform="translate(0.498962 0.5)" fill="#F8F8F8"/>
<path d="M71.4894 22.6914C71.4894 44.8692 57.6064 62.7324 40.6062 62.7324C23.6059 62.7324 9.7229 44.8692 9.7229 22.6914C9.7229 0.513586 23.6059 -17.3496 40.6062 -17.3496C57.6064 -17.3496 71.4894 0.513586 71.4894 22.6914Z" fill="#F0F0F0" stroke="#BFD7EC" stroke-width="0.5"/>
<path d="M251.167 118.493C246.244 140.118 228.742 154.454 212.166 150.68C195.59 146.907 186.018 126.407 190.941 104.783C195.864 83.1582 213.366 68.8223 229.942 72.5959C246.518 76.3695 256.089 96.8687 251.167 118.493Z" fill="#F0F0F0" stroke="#BFD7EC" stroke-width="0.5"/>
<path d="M436.112 115.485C431.189 137.11 413.687 151.446 397.111 147.672C380.535 143.899 370.963 123.399 375.886 101.775C380.809 80.1504 398.311 65.8145 414.887 69.5881C431.463 73.3617 441.035 93.8609 436.112 115.485Z" fill="#F0F0F0" stroke="#BFD7EC" stroke-width="0.5"/>
<path d="M321.915 86.4816C322.8 108.594 306.756 127.162 286.115 127.988C265.474 128.815 247.997 111.59 247.111 89.4773C246.226 67.3649 262.27 48.7971 282.911 47.9705C303.552 47.1438 321.029 64.3692 321.915 86.4816Z" fill="#F0F0F0" stroke="#BFD7EC" stroke-width="0.5"/>
<path d="M354.797 108.921C355.24 119.99 352.352 130.134 347.336 137.584C342.319 145.035 335.188 149.779 327.137 150.101C319.087 150.424 311.599 146.266 306.003 139.24C300.407 132.214 296.717 122.334 296.273 111.264C295.83 100.195 298.719 90.0513 303.735 82.6006C308.751 75.1497 315.882 70.406 323.933 70.0836C331.983 69.7612 339.471 73.9194 345.067 80.9453C350.663 87.9711 354.354 97.851 354.797 108.921Z" fill="#F0F0F0" stroke="#BFD7EC" stroke-width="0.5"/>
<path d="M384.135 75.8291C384.479 84.4065 382.56 92.2495 379.194 97.9949C375.826 103.743 371.031 107.362 365.622 107.579C360.212 107.795 355.143 104.572 351.326 99.111C347.511 93.6531 344.972 85.9886 344.628 77.4112C344.285 68.8338 346.203 60.9908 349.569 55.2453C352.937 49.4971 357.732 45.8783 363.142 45.6616C368.551 45.445 373.621 48.6687 377.437 54.1293C381.252 59.5872 383.792 67.2516 384.135 75.8291Z" fill="#F0F0F0" stroke="#BFD7EC" stroke-width="0.5"/>
<path d="M130.088 35.4259C130.088 54.9075 113.74 70.7151 93.5547 70.7151C73.3699 70.7151 57.0217 54.9075 57.0217 35.4259C57.0217 15.9443 73.3699 0.136719 93.5547 0.136719C113.74 0.136719 130.088 15.9443 130.088 35.4259Z" fill="#F0F0F0" stroke="#BFD7EC" stroke-width="0.5"/>
<path d="M184.661 31.2281C182.977 42.1774 178.177 51.5764 171.791 57.9232C165.406 64.2701 157.448 67.5536 149.428 66.32C141.409 65.0863 134.806 59.5627 130.623 51.5899C126.44 43.6172 124.688 33.2103 126.372 22.2609C128.057 11.3116 132.856 1.91265 139.242 -4.4342C145.628 -10.7811 153.586 -14.0646 161.605 -12.8309C169.624 -11.5972 176.227 -6.07371 180.41 1.89912C184.593 9.87186 186.346 20.2788 184.661 31.2281Z" fill="#F0F0F0" stroke="#BFD7EC" stroke-width="0.5"/>
<path d="M50.6061 14.0215L50.2624 14.5215C50.1374 14.5632 50.0332 14.584 49.9499 14.584C49.8666 14.584 49.7832 14.5736 49.6999 14.5527C49.6166 14.5319 49.5228 14.5215 49.4186 14.5215C49.4186 14.4798 49.3874 14.3652 49.3249 14.1777C49.2624 13.9902 49.2311 13.8861 49.2311 13.8652C49.2311 13.7402 49.2728 13.6569 49.3561 13.6152C49.4395 13.5527 49.5124 13.4798 49.5749 13.3965C49.6374 13.3757 49.6895 13.3652 49.7311 13.3652C49.7936 13.3444 49.8561 13.334 49.9186 13.334C50.0228 13.334 50.1374 13.3548 50.2624 13.3965L50.6061 14.0215ZM50.6061 17.1777C50.5853 17.2611 50.5749 17.3861 50.5749 17.5527C50.5749 17.7819 50.4707 17.9486 50.2624 18.0527C50.0749 18.1361 49.8874 18.1986 49.6999 18.2402C49.5749 18.1986 49.4916 18.1465 49.4499 18.084C49.4291 18.0215 49.3666 17.9486 49.2624 17.8652C49.2624 17.7611 49.2416 17.6777 49.1999 17.6152C49.1791 17.5319 49.1686 17.4382 49.1686 17.334C49.3561 17.1465 49.4916 16.9382 49.5749 16.709C49.6166 16.7507 49.6478 16.7819 49.6686 16.8027C49.6895 16.8236 49.7311 16.8548 49.7936 16.8965C49.8978 16.8965 50.002 16.8652 50.1061 16.8027L50.6061 17.1777ZM50.6374 21.2715C50.5957 21.4382 50.5332 21.6048 50.4499 21.7715C50.3666 21.9382 50.2103 22.0215 49.9811 22.0215C49.8353 22.0215 49.7103 21.9798 49.6061 21.8965C49.502 21.7923 49.3874 21.6986 49.2624 21.6152C49.3041 21.4694 49.3145 21.3652 49.2936 21.3027C49.2728 21.2402 49.3041 21.1152 49.3874 20.9277C49.5332 20.9069 49.6061 20.8548 49.6061 20.7715C49.627 20.6673 49.7207 20.6257 49.8874 20.6465C49.9082 20.6465 49.9291 20.6569 49.9499 20.6777C49.9707 20.6777 50.002 20.6777 50.0436 20.6777C50.1061 20.6777 50.1582 20.6569 50.1999 20.6152L50.5124 20.8027C50.5124 20.8444 50.4916 20.9069 50.4499 20.9902C50.4707 21.0319 50.502 21.084 50.5436 21.1465C50.5853 21.1882 50.6166 21.2298 50.6374 21.2715ZM50.6061 24.709C50.6061 24.7507 50.6061 24.7923 50.6061 24.834C50.627 24.8757 50.6374 24.9173 50.6374 24.959C50.5332 25.1048 50.4395 25.2298 50.3561 25.334C50.2936 25.4173 50.2416 25.5111 50.1999 25.6152C50.1374 25.6361 50.0436 25.6465 49.9186 25.6465C49.6686 25.6465 49.4916 25.5632 49.3874 25.3965C49.3041 25.209 49.2311 25.0215 49.1686 24.834C49.2728 24.7298 49.377 24.6152 49.4811 24.4902C49.5853 24.3652 49.7207 24.3027 49.8874 24.3027C49.9707 24.3027 50.0957 24.3236 50.2624 24.3652C50.3457 24.3861 50.4186 24.4069 50.4811 24.4277C50.5228 24.4486 50.5645 24.4798 50.6061 24.5215C50.6895 24.6048 50.6895 24.6673 50.6061 24.709ZM50.6061 28.7715C50.5645 28.8757 50.4916 28.9486 50.3874 28.9902C50.3041 29.0319 50.2416 29.1048 50.1999 29.209H49.8249C49.6166 29.209 49.4707 29.1569 49.3874 29.0527C49.3249 28.9277 49.2416 28.7819 49.1374 28.6152C49.1999 28.4694 49.2936 28.3236 49.4186 28.1777C49.5645 28.0319 49.7207 27.959 49.8874 27.959C49.9916 27.959 50.0957 27.9902 50.1999 28.0527L50.3249 28.0215C50.3666 28.1465 50.4186 28.2715 50.4811 28.3965C50.5436 28.5007 50.5853 28.6257 50.6061 28.7715ZM50.5749 32.2402C50.5749 32.3236 50.5645 32.3965 50.5436 32.459C50.5436 32.5215 50.5541 32.5944 50.5749 32.6777C50.4707 32.7194 50.3666 32.7819 50.2624 32.8652C50.1582 32.9486 50.0541 32.9902 49.9499 32.9902C49.7416 32.9902 49.5853 32.9486 49.4811 32.8652C49.377 32.7819 49.2624 32.6673 49.1374 32.5215V32.3965C49.1374 32.2715 49.127 32.1882 49.1061 32.1465C49.1061 32.1048 49.1061 32.0736 49.1061 32.0527C49.127 32.0111 49.1686 31.9798 49.2311 31.959C49.2936 31.9173 49.3978 31.8548 49.5436 31.7715C49.5853 31.7507 49.627 31.7298 49.6686 31.709C49.7311 31.6882 49.7832 31.6777 49.8249 31.6777C50.0749 31.6777 50.3041 31.7819 50.5124 31.9902C50.5541 32.1152 50.5749 32.1986 50.5749 32.2402ZM34.1999 16.459C34.1999 16.6257 34.1374 16.7611 34.0124 16.8652C33.9082 16.9486 33.8249 17.0527 33.7624 17.1777C33.5332 17.1152 33.3145 17.084 33.1061 17.084C32.9186 16.8548 32.8249 16.6569 32.8249 16.4902C32.8249 16.3861 32.8457 16.2923 32.8874 16.209C32.9499 16.1257 33.0124 16.0527 33.0749 15.9902C33.1791 15.9694 33.2728 15.9486 33.3561 15.9277C33.4395 15.8861 33.5332 15.8652 33.6374 15.8652C33.7416 15.8652 33.8249 15.8965 33.8874 15.959C33.9707 16.0007 34.0541 16.0423 34.1374 16.084C34.1374 16.1465 34.1478 16.209 34.1686 16.2715C34.1895 16.334 34.1999 16.3965 34.1999 16.459ZM36.2936 18.6777C36.2728 18.8027 36.2624 18.9173 36.2624 19.0215C36.2832 19.1257 36.2416 19.2194 36.1374 19.3027C36.0332 19.3444 35.9291 19.3757 35.8249 19.3965C35.7416 19.4173 35.6478 19.4486 35.5436 19.4902L35.0749 19.3965C35.0541 19.3132 35.0228 19.2298 34.9811 19.1465C34.9395 19.0632 34.9186 18.9798 34.9186 18.8965C34.9186 18.7715 34.9499 18.6569 35.0124 18.5527C35.0957 18.4486 35.1686 18.3444 35.2311 18.2402C35.2936 18.2194 35.3561 18.1986 35.4186 18.1777C35.502 18.1569 35.5749 18.1465 35.6374 18.1465C35.6999 18.1465 35.752 18.1569 35.7936 18.1777C35.8561 18.1986 35.9186 18.2194 35.9811 18.2402C36.0228 18.3027 36.0645 18.3757 36.1061 18.459C36.1686 18.5423 36.2311 18.6152 36.2936 18.6777ZM31.8561 14.1152C31.8145 14.2402 31.752 14.3652 31.6686 14.4902C31.6061 14.5944 31.5749 14.7194 31.5749 14.8652C31.4082 14.9694 31.252 15.0215 31.1061 15.0215C31.0228 15.0215 30.9395 15.0111 30.8561 14.9902C30.7728 14.9694 30.6895 14.9486 30.6061 14.9277C30.5645 14.8236 30.5124 14.7194 30.4499 14.6152C30.3874 14.5111 30.3457 14.3965 30.3249 14.2715C30.3666 14.1673 30.4186 14.084 30.4811 14.0215C30.5645 13.959 30.6478 13.8757 30.7311 13.7715H31.1999C31.3249 13.7715 31.4395 13.8236 31.5436 13.9277C31.6478 14.0111 31.752 14.0736 31.8561 14.1152ZM38.2936 21.209C38.252 21.3965 38.2103 21.5423 38.1686 21.6465C38.1478 21.7507 38.0749 21.8757 37.9499 22.0215H37.6999C37.6582 22.0215 37.627 22.0319 37.6061 22.0527C37.5853 22.0527 37.5541 22.0527 37.5124 22.0527C37.3874 22.0527 37.2936 22.0319 37.2311 21.9902C37.1895 21.9486 37.1478 21.8965 37.1061 21.834C37.0853 21.7715 37.0541 21.709 37.0124 21.6465C36.9916 21.5632 36.9395 21.5007 36.8561 21.459C36.8978 21.334 36.9499 21.2194 37.0124 21.1152C37.0957 20.9902 37.1791 20.8757 37.2624 20.7715C37.3249 20.7507 37.3874 20.7298 37.4499 20.709C37.5124 20.6882 37.5749 20.6777 37.6374 20.6777C37.7207 20.6777 37.8041 20.6986 37.8874 20.7402C37.9707 20.7611 38.0541 20.7819 38.1374 20.8027C38.1374 20.9694 38.1895 21.1048 38.2936 21.209ZM40.3249 24.0527C40.3249 24.1777 40.2311 24.3132 40.0436 24.459C39.8561 24.584 39.7103 24.6465 39.6061 24.6465C39.4811 24.6465 39.3561 24.6152 39.2311 24.5527C39.127 24.4694 39.0228 24.4069 38.9186 24.3652C38.9186 24.0319 39.0332 23.6986 39.2624 23.3652C39.5124 23.3652 39.6791 23.3236 39.7624 23.2402C39.8666 23.3444 39.9811 23.4694 40.1061 23.6152C40.252 23.7402 40.3249 23.8861 40.3249 24.0527ZM42.3561 26.8027C42.3145 26.9069 42.2416 26.9798 42.1374 27.0215C42.0541 27.0632 41.9916 27.1361 41.9499 27.2402H41.6686C41.5645 27.2402 41.4811 27.2298 41.4186 27.209C41.3561 27.1673 41.2832 27.1257 41.1999 27.084C41.1582 27.0215 41.1166 26.9694 41.0749 26.9277C41.0541 26.8652 41.002 26.8132 40.9186 26.7715V26.584C41.002 26.4382 41.1061 26.3027 41.2311 26.1777C41.3561 26.0319 41.502 25.959 41.6686 25.959C41.752 25.959 41.8145 25.9798 41.8561 26.0215C41.8978 26.0632 41.9707 26.0632 42.0749 26.0215C42.2416 26.2715 42.3353 26.5319 42.3561 26.8027ZM44.1686 28.8652C44.2103 28.9486 44.2311 29.0215 44.2311 29.084C44.2311 29.1882 44.1686 29.334 44.0436 29.5215C43.9186 29.709 43.7936 29.7923 43.6686 29.7715L43.4811 29.7402C43.2728 29.6361 43.1166 29.5423 43.0124 29.459C42.9291 29.3548 42.8874 29.1986 42.8874 28.9902C42.9916 28.8236 43.0749 28.6882 43.1374 28.584C43.1999 28.4798 43.3353 28.4069 43.5436 28.3652C43.6478 28.4069 43.7832 28.459 43.9499 28.5215C44.1374 28.584 44.2103 28.6986 44.1686 28.8652ZM46.1999 31.2715C46.1374 31.4382 46.1061 31.6048 46.1061 31.7715C46.002 31.8132 45.9082 31.8861 45.8249 31.9902C45.7416 32.0944 45.627 32.1465 45.4811 32.1465C45.377 32.1465 45.2936 32.1257 45.2311 32.084C45.1686 32.0423 45.0853 32.0007 44.9811 31.959C44.9395 31.8548 44.8874 31.7715 44.8249 31.709C44.7832 31.6257 44.7207 31.5319 44.6374 31.4277C44.7207 31.3652 44.7936 31.3027 44.8561 31.2402C44.9395 31.1569 45.0332 31.1048 45.1374 31.084C45.3041 30.9798 45.4603 30.9277 45.6061 30.9277C45.752 30.9277 45.8561 30.9694 45.9186 31.0527C46.002 31.1152 46.0957 31.1882 46.1999 31.2715ZM50.4186 36.084C50.4186 36.1882 50.3874 36.2819 50.3249 36.3652C50.2832 36.4486 50.252 36.5423 50.2311 36.6465C50.1478 36.6882 50.0645 36.7298 49.9811 36.7715C49.8978 36.834 49.8041 36.8652 49.6999 36.8652C49.2624 36.8652 49.0436 36.6048 49.0436 36.084C49.0436 35.8132 49.1582 35.6673 49.3874 35.6465C49.6374 35.6048 49.8561 35.5632 50.0436 35.5215C50.1061 35.6257 50.1791 35.709 50.2624 35.7715C50.3666 35.834 50.4186 35.9382 50.4186 36.084ZM48.0749 33.9277C48.0749 34.0319 48.0645 34.1257 48.0436 34.209C48.0228 34.2923 48.002 34.3861 47.9811 34.4902C47.8561 34.4902 47.7728 34.5215 47.7311 34.584C47.6895 34.6257 47.6166 34.6465 47.5124 34.6465C47.4291 34.6465 47.3249 34.6257 47.1999 34.584C47.0749 34.5423 46.9707 34.5007 46.8874 34.459C46.8249 34.3132 46.7936 34.1465 46.7936 33.959C46.7936 33.7507 46.8666 33.6048 47.0124 33.5215C47.1791 33.4173 47.3457 33.3652 47.5124 33.3652C47.5957 33.3652 47.6999 33.3861 47.8249 33.4277L48.0749 33.6777V33.9277ZM31.8561 18.1777C31.7311 18.2819 31.6061 18.3861 31.4811 18.4902C31.3561 18.5944 31.2103 18.6465 31.0436 18.6465C30.9395 18.6465 30.8457 18.6152 30.7624 18.5527C30.6999 18.4902 30.6166 18.4486 30.5124 18.4277C30.5124 18.3236 30.502 18.2402 30.4811 18.1777C30.4603 18.0944 30.4395 18.0007 30.4186 17.8965L30.6374 17.4277C30.7416 17.4277 30.8457 17.4173 30.9499 17.3965C31.0541 17.3757 31.1582 17.3652 31.2624 17.3652H31.3874C31.4499 17.4277 31.5124 17.4902 31.5749 17.5527C31.6582 17.5944 31.7311 17.6465 31.7936 17.709C31.7936 17.7507 31.7832 17.8027 31.7624 17.8652C31.7624 17.9277 31.7624 17.9798 31.7624 18.0215C31.7832 18.0632 31.7936 18.0944 31.7936 18.1152C31.8145 18.1152 31.8353 18.1361 31.8561 18.1777ZM31.9186 21.9902C31.8353 22.0319 31.7624 22.0736 31.6999 22.1152C31.6582 22.1569 31.627 22.2298 31.6061 22.334H31.2936H30.7311C30.6895 22.2923 30.6478 22.2194 30.6061 22.1152C30.5853 22.0111 30.5541 21.959 30.5124 21.959C30.4916 21.959 30.502 21.8757 30.5436 21.709C30.5645 21.6257 30.5957 21.5423 30.6374 21.459C30.6166 21.3965 30.627 21.3236 30.6686 21.2402C30.7103 21.1777 30.752 21.1257 30.7936 21.084C30.8561 21.0215 30.9603 20.9902 31.1061 20.9902C31.1895 20.9902 31.2624 21.0007 31.3249 21.0215C31.3874 21.0215 31.4603 21.0215 31.5436 21.0215C31.6061 21.084 31.6478 21.1569 31.6686 21.2402C31.6895 21.3236 31.7416 21.3757 31.8249 21.3965C31.8874 21.584 31.9186 21.7819 31.9186 21.9902ZM31.8561 24.709C31.8353 24.8757 31.8041 25.0527 31.7624 25.2402C31.7416 25.4069 31.6791 25.5736 31.5749 25.7402C31.4916 25.7402 31.4082 25.7507 31.3249 25.7715C31.2416 25.7715 31.1582 25.7715 31.0749 25.7715C30.8666 25.7715 30.6895 25.709 30.5436 25.584C30.5436 25.5007 30.5332 25.4173 30.5124 25.334C30.4916 25.2507 30.4811 25.1569 30.4811 25.0527C30.4811 24.8861 30.5541 24.7402 30.6999 24.6152C30.8666 24.4902 31.0332 24.4277 31.1999 24.4277C31.3666 24.4277 31.4811 24.4694 31.5436 24.5527C31.627 24.6152 31.7311 24.6673 31.8561 24.709ZM31.9499 28.7402C31.9499 28.9694 31.9082 29.1361 31.8249 29.2402C31.7416 29.3236 31.6166 29.4486 31.4499 29.6152C31.3874 29.6152 31.3249 29.6152 31.2624 29.6152C31.2207 29.5944 31.1686 29.5736 31.1061 29.5527C31.0853 29.5527 31.0332 29.5736 30.9499 29.6152C30.8874 29.5527 30.8145 29.4798 30.7311 29.3965C30.6478 29.2923 30.5957 29.1882 30.5749 29.084C30.5749 29.0423 30.5645 29.0007 30.5436 28.959C30.5436 28.9173 30.5436 28.8652 30.5436 28.8027C30.5436 28.7194 30.5541 28.6465 30.5749 28.584C30.6166 28.5215 30.6374 28.4486 30.6374 28.3652C30.7624 28.3444 30.877 28.3236 30.9811 28.3027C31.1061 28.2819 31.2207 28.2715 31.3249 28.2715C31.4291 28.2715 31.5436 28.2923 31.6686 28.334C31.7103 28.3965 31.752 28.4694 31.7936 28.5527C31.8353 28.6152 31.8874 28.6777 31.9499 28.7402ZM31.9186 32.6465V32.8965C31.7728 33.084 31.6374 33.1986 31.5124 33.2402C31.3874 33.2611 31.2103 33.2715 30.9811 33.2715C30.9186 33.2715 30.8561 33.2611 30.7936 33.2402C30.752 33.2194 30.7103 33.1986 30.6686 33.1777V32.8652C30.627 32.7819 30.6061 32.7298 30.6061 32.709C30.7103 32.4798 30.7936 32.3027 30.8561 32.1777C30.9186 32.0527 31.0957 31.9902 31.3874 31.9902C31.5541 31.9902 31.6791 32.0632 31.7624 32.209C31.8666 32.334 31.9186 32.4798 31.9186 32.6465ZM31.9811 36.459C31.9186 36.5632 31.8666 36.6673 31.8249 36.7715C31.8041 36.8757 31.7728 36.9798 31.7311 37.084C31.6478 37.1048 31.5749 37.1152 31.5124 37.1152C31.4499 37.1361 31.377 37.1465 31.2936 37.1465C31.2103 37.1465 31.127 37.1361 31.0436 37.1152C30.9811 37.1152 30.9082 37.1152 30.8249 37.1152C30.7832 37.0111 30.7311 36.8965 30.6686 36.7715C30.6061 36.6465 30.5749 36.5215 30.5749 36.3965C30.5749 36.3548 30.5749 36.334 30.5749 36.334C30.5957 36.3132 30.6061 36.2819 30.6061 36.2402C30.6686 36.1361 30.7728 36.0423 30.9186 35.959C31.0853 35.8548 31.2207 35.8027 31.3249 35.8027C31.4707 35.8027 31.6166 35.8757 31.7624 36.0215C31.9082 36.1465 31.9811 36.2923 31.9811 36.459Z" fill="#94C6F1"/>
<path d="M320.191 93.7188C320.191 93.8854 320.129 94.0312 320.004 94.1562C319.879 94.2604 319.744 94.3125 319.598 94.3125C319.494 94.3125 319.389 94.2917 319.285 94.25C319.202 94.1875 319.108 94.125 319.004 94.0625C318.962 93.9792 318.931 93.9062 318.91 93.8438C318.889 93.7812 318.879 93.7083 318.879 93.625C318.879 93.3958 318.994 93.2292 319.223 93.125C319.473 93.0208 319.681 92.9479 319.848 92.9062C319.889 92.9688 319.931 93.0521 319.973 93.1562C320.035 93.2396 320.087 93.2917 320.129 93.3125C320.15 93.3958 320.16 93.4688 320.16 93.5312C320.181 93.5938 320.191 93.6562 320.191 93.7188ZM320.129 97.0938C319.962 97.2188 319.837 97.3333 319.754 97.4375C319.691 97.5208 319.546 97.5625 319.316 97.5625C319.254 97.5625 319.16 97.5 319.035 97.375C318.91 97.25 318.848 97.1458 318.848 97.0625C318.827 96.8125 318.858 96.6042 318.941 96.4375C319.025 96.25 319.181 96.1562 319.41 96.1562C319.598 96.1562 319.723 96.2083 319.785 96.3125C319.869 96.3958 319.962 96.4896 320.066 96.5938V96.75C320.066 96.7917 320.077 96.8542 320.098 96.9375C320.119 97 320.129 97.0521 320.129 97.0938ZM320.191 100.031C320.15 100.26 320.098 100.438 320.035 100.562C319.994 100.667 319.9 100.771 319.754 100.875C319.629 100.875 319.504 100.875 319.379 100.875C319.254 100.854 319.129 100.833 319.004 100.812C318.962 100.646 318.921 100.5 318.879 100.375C318.858 100.229 318.827 100.073 318.785 99.9062C318.806 99.9062 318.837 99.9062 318.879 99.9062C318.921 99.9062 318.952 99.8958 318.973 99.875C319.035 99.7708 319.087 99.6979 319.129 99.6562C319.191 99.5938 319.296 99.5625 319.441 99.5625C319.65 99.5625 319.796 99.5833 319.879 99.625C319.983 99.6667 320.087 99.8021 320.191 100.031ZM334.441 116.25C334.4 116.375 334.306 116.521 334.16 116.688C334.035 116.875 333.9 116.969 333.754 116.969C333.671 116.969 333.587 116.948 333.504 116.906C333.441 116.885 333.369 116.875 333.285 116.875C333.223 116.771 333.16 116.656 333.098 116.531C333.035 116.427 333.004 116.323 333.004 116.219C333.004 116.115 333.046 116.01 333.129 115.906C333.212 115.802 333.285 115.719 333.348 115.656C333.389 115.656 333.431 115.656 333.473 115.656C333.535 115.635 333.598 115.625 333.66 115.625C333.764 115.625 333.848 115.646 333.91 115.688C333.994 115.729 334.087 115.75 334.191 115.75C334.212 115.917 334.296 116.083 334.441 116.25ZM320.066 103.219C320.066 103.448 320.046 103.604 320.004 103.688C319.983 103.75 319.91 103.885 319.785 104.094C319.535 104.094 319.264 104.021 318.973 103.875C318.931 103.792 318.889 103.719 318.848 103.656C318.827 103.573 318.816 103.49 318.816 103.406V103.188C318.921 103.083 319.025 103 319.129 102.938C319.254 102.854 319.389 102.812 319.535 102.812C319.619 102.812 319.723 102.833 319.848 102.875C319.869 102.938 319.889 103.01 319.91 103.094C319.931 103.156 319.983 103.198 320.066 103.219ZM331.879 116.625C331.712 116.667 331.608 116.698 331.566 116.719C331.546 116.74 331.473 116.792 331.348 116.875C330.973 116.833 330.702 116.677 330.535 116.406C330.556 116.24 330.608 116.042 330.691 115.812C330.879 115.625 331.077 115.531 331.285 115.531C331.431 115.531 331.535 115.594 331.598 115.719C331.681 115.823 331.754 115.927 331.816 116.031V116.375C331.816 116.417 331.837 116.5 331.879 116.625ZM320.223 106.719C320.223 106.823 320.191 106.917 320.129 107C320.087 107.083 320.066 107.177 320.066 107.281C319.941 107.323 319.816 107.354 319.691 107.375C319.566 107.396 319.431 107.417 319.285 107.438C319.181 107.333 319.087 107.219 319.004 107.094C318.921 106.948 318.879 106.792 318.879 106.625C318.879 106.583 318.879 106.542 318.879 106.5C318.9 106.438 318.91 106.385 318.91 106.344C319.014 106.26 319.119 106.198 319.223 106.156C319.327 106.115 319.4 106.031 319.441 105.906L320.035 106.219C320.16 106.385 320.223 106.552 320.223 106.719ZM329.254 116.219C329.254 116.302 329.244 116.375 329.223 116.438C329.202 116.5 329.191 116.573 329.191 116.656C329.108 116.698 329.025 116.74 328.941 116.781C328.879 116.844 328.796 116.875 328.691 116.875C328.525 116.875 328.369 116.833 328.223 116.75C328.098 116.667 328.035 116.531 328.035 116.344C328.035 116.198 328.056 116.073 328.098 115.969C328.16 115.865 328.212 115.729 328.254 115.562C328.379 115.604 328.473 115.625 328.535 115.625C328.577 115.625 328.629 115.615 328.691 115.594C328.775 115.552 328.837 115.521 328.879 115.5C328.941 115.604 329.014 115.719 329.098 115.844C329.202 115.969 329.254 116.094 329.254 116.219ZM326.473 116.125C326.473 116.208 326.462 116.281 326.441 116.344C326.421 116.406 326.4 116.479 326.379 116.562C326.316 116.625 326.244 116.667 326.16 116.688C326.077 116.729 326.035 116.802 326.035 116.906L325.379 116.75C325.316 116.646 325.254 116.552 325.191 116.469C325.15 116.365 325.139 116.26 325.16 116.156V115.938C325.264 115.833 325.379 115.74 325.504 115.656C325.65 115.573 325.806 115.531 325.973 115.531C326.056 115.531 326.181 115.552 326.348 115.594C326.389 115.698 326.421 115.792 326.441 115.875C326.462 115.938 326.473 116.021 326.473 116.125ZM320.223 109.625C320.223 109.75 320.212 109.875 320.191 110C320.191 110.125 320.181 110.25 320.16 110.375C320.077 110.458 319.983 110.542 319.879 110.625C319.796 110.688 319.691 110.719 319.566 110.719C319.337 110.719 319.181 110.646 319.098 110.5C319.035 110.354 318.941 110.26 318.816 110.219V110.031C318.816 109.927 318.837 109.833 318.879 109.75C318.941 109.667 318.983 109.573 319.004 109.469C319.108 109.448 319.212 109.438 319.316 109.438C319.421 109.417 319.514 109.365 319.598 109.281C319.702 109.323 319.806 109.396 319.91 109.5C320.014 109.583 320.119 109.625 320.223 109.625ZM323.473 116.219C323.473 116.26 323.462 116.302 323.441 116.344C323.441 116.385 323.441 116.427 323.441 116.469C323.337 116.552 323.244 116.635 323.16 116.719C323.077 116.802 322.962 116.844 322.816 116.844C322.65 116.844 322.504 116.76 322.379 116.594C322.254 116.448 322.191 116.292 322.191 116.125C322.191 115.917 322.275 115.75 322.441 115.625C322.504 115.625 322.566 115.615 322.629 115.594C322.712 115.573 322.796 115.562 322.879 115.562H323.16C323.223 115.667 323.285 115.771 323.348 115.875C323.431 115.958 323.473 116.073 323.473 116.219ZM320.223 113.531C320.119 113.635 320.014 113.75 319.91 113.875C319.806 113.979 319.671 114.031 319.504 114.031C319.379 114.031 319.254 113.99 319.129 113.906C319.004 113.823 318.921 113.719 318.879 113.594C318.879 113.49 318.879 113.365 318.879 113.219C318.9 113.073 318.973 112.979 319.098 112.938C319.202 112.854 319.296 112.792 319.379 112.75C319.462 112.688 319.577 112.656 319.723 112.656C319.91 112.76 320.025 112.896 320.066 113.062C320.108 113.208 320.16 113.365 320.223 113.531ZM320.066 116.812C319.962 116.854 319.858 116.906 319.754 116.969C319.65 117.052 319.535 117.094 319.41 117.094C319.244 117.094 319.098 117.021 318.973 116.875C318.869 116.729 318.816 116.573 318.816 116.406C318.816 116.26 318.869 116.135 318.973 116.031C319.077 115.927 319.171 115.823 319.254 115.719C319.421 115.76 319.556 115.802 319.66 115.844C319.785 115.865 319.91 115.927 320.035 116.031C320.035 116.156 320.035 116.292 320.035 116.438C320.056 116.562 320.066 116.688 320.066 116.812Z" fill="#94C6F1"/>
<path d="M363.886 66.7168C363.886 66.8001 363.876 66.873 363.855 66.9355C363.855 66.998 363.855 67.071 363.855 67.1543C363.73 67.196 363.595 67.2376 363.449 67.2793C363.324 67.321 363.199 67.3418 363.074 67.3418C362.949 67.2793 362.834 67.2064 362.73 67.123C362.626 67.0189 362.574 66.8939 362.574 66.748C362.574 66.623 362.605 66.5189 362.668 66.4355C362.73 66.3522 362.782 66.2585 362.824 66.1543C362.949 66.1126 363.043 66.0918 363.105 66.0918C363.272 66.0918 363.418 66.1439 363.543 66.248C363.668 66.3314 363.782 66.4251 363.886 66.5293V66.7168ZM364.011 69.2793C363.97 69.3835 363.938 69.4772 363.918 69.5605C363.897 69.623 363.886 69.7064 363.886 69.8105C363.782 69.873 363.678 69.9355 363.574 69.998C363.47 70.0397 363.355 70.0605 363.23 70.0605C363.063 70.0605 362.938 70.0293 362.855 69.9668C362.772 69.8835 362.709 69.7897 362.668 69.6855C362.647 69.5814 362.626 69.4772 362.605 69.373C362.605 69.248 362.595 69.1335 362.574 69.0293C362.699 68.9876 362.803 68.9355 362.886 68.873C362.991 68.8105 363.105 68.7793 363.23 68.7793C363.376 68.8626 363.511 68.9355 363.636 68.998C363.782 69.0397 363.907 69.1335 364.011 69.2793ZM363.855 72.373C363.855 72.5605 363.793 72.7168 363.668 72.8418C363.501 72.9043 363.345 72.9355 363.199 72.9355H363.011C362.907 72.8522 362.813 72.7689 362.73 72.6855C362.647 72.6022 362.605 72.498 362.605 72.373C362.605 72.3314 362.616 72.2793 362.636 72.2168C362.657 72.1543 362.678 72.1022 362.699 72.0605C362.803 72.0189 362.907 71.9772 363.011 71.9355C363.116 71.873 363.22 71.8418 363.324 71.8418C363.428 71.8418 363.511 71.873 363.574 71.9355C363.657 71.998 363.751 72.0501 363.855 72.0918V72.373ZM363.793 74.998C363.793 75.2272 363.772 75.4043 363.73 75.5293C363.709 75.6543 363.647 75.8105 363.543 75.998C363.376 75.9772 363.241 75.9772 363.136 75.998C363.032 75.998 362.897 75.9668 362.73 75.9043C362.73 75.7793 362.709 75.6647 362.668 75.5605C362.626 75.4355 362.605 75.321 362.605 75.2168V74.998C362.688 74.9564 362.772 74.9147 362.855 74.873C362.938 74.8314 363.022 74.8105 363.105 74.8105C363.251 74.8105 363.366 74.8418 363.449 74.9043C363.553 74.9668 363.668 74.998 363.793 74.998ZM363.793 78.3418C363.793 78.446 363.751 78.5397 363.668 78.623C363.605 78.7064 363.553 78.8001 363.511 78.9043C363.345 78.946 363.209 78.9668 363.105 78.9668C362.938 78.9668 362.793 78.9043 362.668 78.7793C362.543 78.6335 362.48 78.4772 362.48 78.3105C362.48 78.2064 362.511 78.123 362.574 78.0605C362.636 77.9772 362.709 77.9147 362.793 77.873C362.876 77.8105 362.98 77.7793 363.105 77.7793C363.251 77.7793 363.407 77.8314 363.574 77.9355C363.595 78.0189 363.636 78.0814 363.699 78.123C363.761 78.1647 363.793 78.2376 363.793 78.3418ZM363.824 81.1855C363.824 81.373 363.751 81.5605 363.605 81.748C363.48 81.8105 363.345 81.8418 363.199 81.8418C362.97 81.8418 362.782 81.7689 362.636 81.623C362.595 81.5397 362.574 81.4147 362.574 81.248C362.574 81.1439 362.605 81.0189 362.668 80.873C362.751 80.7064 362.866 80.623 363.011 80.623C363.053 80.623 363.084 80.6335 363.105 80.6543C363.126 80.6543 363.147 80.6543 363.168 80.6543L363.261 80.5293C363.366 80.6335 363.438 80.7064 363.48 80.748C363.543 80.7897 363.636 80.8314 363.761 80.873C363.803 80.998 363.824 81.1022 363.824 81.1855ZM363.98 84.3105C363.834 84.3939 363.699 84.4668 363.574 84.5293C363.449 84.5918 363.303 84.623 363.136 84.623H362.855C362.751 84.5397 362.657 84.4564 362.574 84.373C362.491 84.2897 362.428 84.196 362.386 84.0918C362.47 83.946 362.553 83.821 362.636 83.7168C362.741 83.6126 362.834 83.498 362.918 83.373C362.938 83.3939 362.991 83.4251 363.074 83.4668C363.116 83.4668 363.147 83.4668 363.168 83.4668C363.209 83.446 363.251 83.4355 363.293 83.4355C363.355 83.4355 363.407 83.446 363.449 83.4668C363.511 83.6335 363.626 83.7272 363.793 83.748C363.793 83.8939 363.803 83.998 363.824 84.0605C363.886 84.1022 363.938 84.1855 363.98 84.3105ZM363.793 86.998C363.793 87.1439 363.709 87.248 363.543 87.3105C363.397 87.373 363.272 87.4043 363.168 87.4043C363.063 87.4043 362.97 87.4043 362.886 87.4043C362.824 87.3835 362.751 87.373 362.668 87.373C362.647 87.2689 362.616 87.1751 362.574 87.0918C362.532 87.0085 362.511 86.9147 362.511 86.8105C362.616 86.623 362.699 86.5085 362.761 86.4668C362.824 86.4251 362.918 86.3418 363.043 86.2168C363.126 86.2585 363.199 86.3001 363.261 86.3418C363.324 86.3626 363.407 86.373 363.511 86.373C363.553 86.4772 363.605 86.5814 363.668 86.6855C363.751 86.7897 363.793 86.8939 363.793 86.998ZM363.855 89.5605C363.813 89.6439 363.751 89.7168 363.668 89.7793C363.584 89.8626 363.543 89.9564 363.543 90.0605C363.376 90.1022 363.251 90.123 363.168 90.123C363.001 90.123 362.855 90.071 362.73 89.9668C362.626 89.8835 362.532 89.7793 362.449 89.6543C362.491 89.5501 362.511 89.4668 362.511 89.4043C362.511 89.321 362.511 89.2376 362.511 89.1543C362.616 89.1126 362.72 89.0605 362.824 88.998C362.928 88.9355 363.032 88.9043 363.136 88.9043C363.22 88.9043 363.293 88.9355 363.355 88.998C363.418 89.0397 363.48 89.071 363.543 89.0918C363.605 89.196 363.636 89.2897 363.636 89.373C363.657 89.4564 363.73 89.5189 363.855 89.5605Z" fill="#94C6F1"/>
<path d="M233.208 102.854C233.122 103.177 232.9 103.365 232.54 103.421C232.445 103.374 232.37 103.332 232.315 103.296C232.26 103.26 232.176 103.249 232.065 103.262C232.051 103.151 232.013 103.011 231.95 102.844C231.907 102.681 231.898 102.55 231.925 102.449C232.149 102.336 232.292 102.245 232.354 102.175C232.441 102.09 232.545 102.064 232.665 102.096C232.827 102.139 232.964 102.229 233.078 102.367C233.213 102.511 233.256 102.673 233.208 102.854ZM231.465 105.399C231.378 105.483 231.329 105.546 231.319 105.586C231.334 105.612 231.328 105.675 231.301 105.775C231.258 105.937 231.15 106.059 230.977 106.142C230.83 106.211 230.675 106.224 230.514 106.181C230.373 106.144 230.241 106.033 230.117 105.849C230.014 105.671 229.981 105.511 230.018 105.37C230.045 105.27 230.102 105.177 230.189 105.092C230.276 105.008 230.363 104.923 230.45 104.838C230.511 104.854 230.571 104.87 230.632 104.886C230.717 104.888 230.791 104.896 230.851 104.912C230.992 104.95 231.102 105.022 231.181 105.129C231.286 105.222 231.381 105.312 231.465 105.399ZM229.243 108.656C229.216 108.757 229.172 108.842 229.11 108.912C229.049 108.982 228.987 109.052 228.925 109.122C228.794 109.13 228.678 109.121 228.577 109.094C228.476 109.067 228.363 109.048 228.237 109.036C228.178 108.934 228.108 108.829 228.029 108.722C227.955 108.595 227.934 108.471 227.966 108.35C227.993 108.249 228.034 108.174 228.091 108.124C228.152 108.054 228.204 107.982 228.246 107.907C228.439 107.829 228.606 107.808 228.747 107.846C228.787 107.856 228.825 107.877 228.86 107.908C228.915 107.944 228.97 107.98 229.025 108.016C229.084 108.118 229.143 108.22 229.202 108.322C229.261 108.424 229.275 108.536 229.243 108.656ZM227.298 111.6C227.287 111.64 227.266 111.677 227.235 111.712C227.23 111.732 227.222 111.763 227.211 111.803C227.109 111.862 227.028 111.927 226.966 111.996C226.904 112.066 226.822 112.131 226.721 112.19C226.58 112.153 226.441 112.105 226.306 112.048C226.196 111.975 226.07 111.92 225.929 111.883C225.956 111.782 225.964 111.709 225.955 111.663C225.971 111.603 225.937 111.529 225.852 111.442C225.914 111.372 225.955 111.297 225.977 111.217C226.025 111.035 226.097 110.925 226.194 110.886C226.31 110.853 226.455 110.837 226.626 110.839C226.652 110.825 226.705 110.828 226.785 110.849C226.866 110.871 226.931 110.91 226.981 110.966C227.056 111.007 227.141 111.052 227.237 111.098C227.21 111.199 227.219 111.288 227.263 111.364C227.313 111.42 227.324 111.499 227.298 111.6ZM216.117 98.544C216.09 98.6447 216.03 98.7474 215.938 98.8522C215.851 98.9368 215.747 98.9631 215.626 98.931C215.586 98.9203 215.533 98.917 215.467 98.9211C215.427 98.9105 215.386 98.8998 215.346 98.8891C215.185 98.8463 215.05 98.7458 214.941 98.5876C214.858 98.4146 214.837 98.2475 214.88 98.0864C214.918 97.9455 215.013 97.8306 215.166 97.7419C215.324 97.633 215.473 97.5973 215.614 97.6347C215.735 97.6667 215.828 97.7237 215.892 97.8055C215.977 97.8926 216.064 97.9697 216.154 98.0367C216.172 98.2138 216.159 98.3829 216.117 98.544ZM225.326 114.277C225.243 114.427 225.188 114.553 225.161 114.654C225.145 114.714 225.141 114.81 225.15 114.942L223.998 114.895C224.006 114.703 223.992 114.591 223.957 114.56C223.928 114.509 223.866 114.418 223.772 114.285C223.839 114.195 223.901 114.125 223.957 114.075C224.013 114.026 224.055 113.95 224.081 113.85C224.193 113.836 224.314 113.825 224.446 113.817C224.583 113.789 224.711 113.791 224.832 113.823L224.953 113.855C225.047 113.988 225.089 114.074 225.078 114.114C225.073 114.134 225.155 114.189 225.326 114.277ZM216.455 101.899L215.95 102.218L215.708 102.154C215.507 102.1 215.362 101.997 215.273 101.844C215.259 101.733 215.243 101.632 215.224 101.54C215.205 101.449 215.209 101.353 215.236 101.252C215.252 101.192 215.265 101.142 215.276 101.101C215.312 101.046 215.348 100.991 215.385 100.936C215.485 100.963 215.561 100.962 215.612 100.932C215.683 100.908 215.762 100.896 215.848 100.897C215.923 100.939 215.998 100.98 216.073 101.022C216.148 101.064 216.198 101.12 216.222 101.191L216.404 101.239C216.507 101.417 216.524 101.637 216.455 101.899ZM216.708 105.329C216.681 105.43 216.614 105.52 216.507 105.599C216.42 105.684 216.343 105.771 216.276 105.861C216.195 105.84 216.112 105.828 216.026 105.827C215.961 105.831 215.887 105.823 215.807 105.801C215.626 105.753 215.518 105.671 215.485 105.554C215.451 105.437 215.361 105.327 215.216 105.224C215.299 105.074 215.408 104.909 215.542 104.729C215.701 104.534 215.892 104.466 216.113 104.525C216.275 104.567 216.382 104.65 216.436 104.772C216.515 104.879 216.61 104.969 216.72 105.041C216.728 105.173 216.724 105.269 216.708 105.329ZM223.206 117.271C223.168 117.412 223.083 117.572 222.949 117.752C222.837 117.766 222.726 117.779 222.614 117.793C222.529 117.792 222.435 117.778 222.335 117.751C222.214 117.719 222.101 117.657 221.996 117.564C221.977 117.473 221.963 117.404 221.954 117.359C221.95 117.293 221.903 117.227 221.813 117.16C221.859 117.064 221.894 116.976 221.915 116.896C221.962 116.8 221.999 116.702 222.025 116.602C222.076 116.572 222.17 116.543 222.307 116.515C222.464 116.492 222.563 116.486 222.603 116.496C222.744 116.534 222.857 116.596 222.941 116.683C223.026 116.77 223.123 116.85 223.233 116.923C223.238 116.988 223.232 117.051 223.216 117.112C223.225 117.157 223.222 117.21 223.206 117.271ZM216.751 109.188C216.7 109.218 216.626 109.252 216.53 109.291C216.458 109.315 216.397 109.342 216.346 109.372L216.165 109.323C215.863 109.243 215.669 109.041 215.583 108.716C215.725 108.344 215.948 108.113 216.252 108.021C216.368 108.073 216.496 108.118 216.637 108.155C216.798 108.198 216.877 108.305 216.875 108.477C216.962 108.716 216.921 108.953 216.751 109.188ZM217.449 112.283C217.35 112.494 217.234 112.646 217.101 112.74C216.968 112.835 216.781 112.85 216.54 112.785C216.459 112.764 216.391 112.735 216.336 112.699C216.281 112.663 216.226 112.627 216.171 112.591C216.152 112.499 216.133 112.408 216.114 112.317C216.095 112.226 216.099 112.13 216.126 112.029C216.163 111.888 216.238 111.768 216.351 111.668C216.489 111.554 216.631 111.506 216.778 111.523C216.919 111.56 217.017 111.597 217.072 111.633C217.132 111.649 217.17 111.67 217.184 111.696C217.199 111.721 217.214 111.747 217.229 111.772C217.249 111.777 217.309 111.793 217.41 111.82C217.378 111.941 217.357 112.022 217.346 112.062C217.355 112.107 217.39 112.181 217.449 112.283ZM221.065 120.097C221.017 120.279 220.922 120.394 220.78 120.442C220.658 120.496 220.516 120.501 220.355 120.459C220.174 120.41 220.021 120.338 219.896 120.24C219.847 120.098 219.816 119.971 219.803 119.859C219.794 119.728 219.812 119.582 219.854 119.42C220.033 119.317 220.208 119.266 220.38 119.269C220.557 119.251 220.729 119.211 220.897 119.148C220.915 119.325 220.958 119.487 221.026 119.635C221.095 119.782 221.108 119.936 221.065 120.097ZM217.93 115.709L217.582 116.166L216.785 116.245C216.711 116.118 216.637 115.991 216.563 115.863C216.489 115.736 216.474 115.592 216.516 115.43C216.554 115.29 216.662 115.167 216.84 115.064C217.044 114.945 217.206 114.902 217.327 114.934C217.367 114.945 217.395 114.963 217.41 114.989C217.43 114.994 217.46 115.002 217.5 115.013C217.574 115.14 217.641 115.255 217.7 115.357C217.779 115.464 217.856 115.581 217.93 115.709ZM218.33 118.951C218.293 119.092 218.238 119.218 218.165 119.328C218.098 119.418 217.991 119.497 217.844 119.566C217.738 119.559 217.642 119.555 217.556 119.554C217.49 119.558 217.407 119.547 217.306 119.52C217.246 119.504 217.198 119.481 217.163 119.45C217.128 119.419 217.096 119.378 217.066 119.327L216.959 118.878C217.049 118.622 217.183 118.442 217.361 118.338C217.427 118.334 217.473 118.325 217.498 118.31C217.544 118.301 217.604 118.317 217.679 118.358C217.789 118.43 217.872 118.485 217.927 118.521C217.987 118.537 218.035 118.56 218.07 118.591C218.11 118.602 218.143 118.643 218.167 118.714C218.196 118.765 218.251 118.844 218.33 118.951ZM218.763 122.558C218.715 122.739 218.6 122.849 218.417 122.886C218.249 122.95 218.085 122.96 217.924 122.917C217.843 122.896 217.728 122.844 217.578 122.761C217.564 122.649 217.548 122.548 217.529 122.457C217.51 122.365 217.514 122.269 217.541 122.169C217.583 122.008 217.681 121.883 217.834 121.794C218.007 121.711 218.164 121.688 218.305 121.725C218.426 121.757 218.529 121.774 218.615 121.775C218.643 121.912 218.685 122.041 218.738 122.163C218.792 122.285 218.8 122.417 218.763 122.558Z" fill="#94C6F1"/>
<path d="M416.207 97.6522C416.12 97.7368 416.068 97.8094 416.052 97.8698C416.036 97.9302 416.012 98.0208 415.98 98.1416C415.863 98.1753 415.734 98.2164 415.591 98.2648C415.469 98.3187 415.353 98.3523 415.241 98.3659C415.08 98.3231 414.928 98.2072 414.784 98.0182C414.786 97.8464 414.798 97.7202 414.82 97.6397C414.873 97.4383 414.956 97.2879 415.069 97.1885C415.207 97.0743 415.387 97.0465 415.608 97.1053C415.749 97.1428 415.857 97.2252 415.931 97.3526C416.01 97.4598 416.102 97.5597 416.207 97.6522ZM417.549 100.757C417.447 100.816 417.368 100.87 417.312 100.92C417.326 100.946 417.326 100.988 417.31 101.049C417.299 101.089 417.278 101.127 417.247 101.162C417.182 101.166 417.116 101.17 417.05 101.174C416.984 101.178 416.911 101.169 416.831 101.148C416.529 101.068 416.337 100.855 416.256 100.511C416.405 100.356 416.544 100.199 416.672 100.039C416.801 99.8792 416.986 99.8314 417.228 99.8955C417.347 100.013 417.442 100.146 417.51 100.294C417.579 100.441 417.592 100.596 417.549 100.757ZM413.616 95.9622C413.605 96.0025 413.559 96.0978 413.476 96.2482C413.246 96.3814 413.041 96.4239 412.86 96.3758C412.678 96.3276 412.543 96.2272 412.455 96.0743C412.417 95.8918 412.417 95.7301 412.454 95.5891C412.476 95.5086 412.522 95.4133 412.595 95.3031C412.706 95.2896 412.78 95.2553 412.816 95.2002C412.858 95.125 412.959 95.1088 413.12 95.1516C413.281 95.1943 413.413 95.3049 413.517 95.4832C413.626 95.6415 413.659 95.8011 413.616 95.9622ZM417.741 103.2L417.464 104C417.378 103.998 417.292 103.997 417.206 103.996C417.141 104 417.067 103.991 416.987 103.97C416.886 103.943 416.771 103.891 416.641 103.813C416.536 103.721 416.471 103.639 416.447 103.568C416.428 103.477 416.443 103.341 416.491 103.159C416.512 103.079 416.541 103.011 416.577 102.956C416.613 102.901 416.652 102.836 416.694 102.761C416.856 102.717 416.973 102.684 417.044 102.66C417.135 102.641 417.261 102.653 417.422 102.695C417.436 102.807 417.475 102.903 417.539 102.985C417.609 103.047 417.676 103.118 417.741 103.2ZM410.943 94.7031C410.933 94.7434 410.891 94.8186 410.819 94.9287C410.742 94.9731 410.653 95.0249 410.551 95.084C410.47 95.1485 410.383 95.1902 410.292 95.2091C410.07 95.1503 409.905 95.0418 409.796 94.8836C409.687 94.7254 409.662 94.5355 409.721 94.314L409.761 94.163C409.838 94.1186 409.911 94.0843 409.982 94.0601C410.079 94.021 410.153 93.9867 410.204 93.9572C410.335 93.949 410.431 93.9529 410.492 93.9689C410.592 93.9956 410.668 94.0371 410.717 94.0935C410.787 94.1551 410.87 94.2094 410.965 94.2562C410.944 94.3368 410.935 94.4099 410.939 94.4757C410.963 94.5468 410.965 94.6226 410.943 94.7031ZM417.557 106.449C417.531 106.55 417.487 106.635 417.425 106.705C417.383 106.78 417.349 106.868 417.322 106.969C417.246 107.013 417.149 107.052 417.033 107.086C416.942 107.105 416.846 107.101 416.745 107.074C416.584 107.032 416.469 106.936 416.4 106.789C416.352 106.647 416.349 106.495 416.392 106.334C416.445 106.133 416.574 105.973 416.778 105.854C416.949 105.857 417.056 105.864 417.096 105.874C417.277 105.922 417.435 106.018 417.569 106.162C417.577 106.293 417.573 106.389 417.557 106.449ZM408.108 93.6918C407.965 93.8262 407.844 93.9558 407.746 94.0807C407.668 94.211 407.506 94.2541 407.259 94.2101C407.119 94.0868 407 93.9689 406.9 93.8563C406.826 93.7288 406.816 93.5645 406.87 93.3631C406.886 93.3027 406.93 93.2174 407.002 93.1073C407.114 93.0938 407.225 93.0802 407.336 93.0667C407.468 93.0585 407.594 93.0704 407.715 93.1025C407.876 93.1452 407.973 93.225 408.007 93.3417C408.046 93.4383 408.08 93.555 408.108 93.6918ZM416.685 109.613C416.622 109.769 416.476 109.913 416.247 110.046C416.161 110.045 416.085 110.046 416.02 110.05C415.959 110.034 415.889 110.016 415.808 109.994C415.707 109.968 415.655 109.921 415.651 109.856C415.607 109.779 415.549 109.71 415.48 109.648C415.435 109.572 415.404 109.488 415.385 109.397C415.46 109.115 415.548 108.944 415.65 108.885L416.387 108.79C416.405 108.881 416.427 108.962 416.451 109.033C416.501 109.09 416.571 109.151 416.661 109.218L416.685 109.613ZM405.327 93.083C405.311 93.1435 405.285 93.2012 405.249 93.2563C405.238 93.2965 405.228 93.3368 405.217 93.3771C405.1 93.4108 405.011 93.4625 404.949 93.5324C404.913 93.5874 404.817 93.6265 404.66 93.6495C404.599 93.6334 404.536 93.6275 404.47 93.6316C404.405 93.6357 404.342 93.6297 404.281 93.6137C404.14 93.5762 404.041 93.4636 403.983 93.2758C403.93 93.0679 403.92 92.9035 403.952 92.7827C403.995 92.6216 404.097 92.5195 404.26 92.4763C404.448 92.4184 404.612 92.4082 404.753 92.4456C404.874 92.4777 405.004 92.5553 405.144 92.6786C405.304 92.8073 405.365 92.9421 405.327 93.083ZM415.559 112.03C415.511 112.211 415.405 112.366 415.241 112.495C415.083 112.604 414.903 112.632 414.702 112.578C414.601 112.552 414.501 112.482 414.402 112.369C414.403 112.283 414.369 112.21 414.299 112.148C414.249 112.092 414.199 112.035 414.15 111.979C414.217 111.889 414.256 111.824 414.266 111.784C414.302 111.729 414.324 111.648 414.33 111.542C414.509 111.438 414.674 111.385 414.825 111.382C414.997 111.385 415.184 111.37 415.387 111.337L415.264 111.434C415.404 111.558 415.511 111.64 415.587 111.681C415.595 111.813 415.586 111.929 415.559 112.03ZM402.031 92.4668C401.994 92.6078 401.912 92.7152 401.784 92.7892C401.682 92.8483 401.58 92.9075 401.478 92.9667C401.363 92.9145 401.247 92.8623 401.132 92.81C401.042 92.743 400.97 92.6485 400.916 92.5265C400.756 92.3978 400.695 92.263 400.733 92.1221C400.775 91.961 400.891 91.8515 401.078 91.7935C401.272 91.7155 401.449 91.6978 401.61 91.7406C401.771 91.7834 401.886 91.8785 401.954 92.0261C402.048 92.1588 402.074 92.3057 402.031 92.4668ZM413.71 114.61C413.607 114.756 413.471 114.903 413.302 115.052C413.138 115.181 412.966 115.221 412.785 115.173C412.623 115.13 412.509 115.035 412.44 114.888C412.391 114.745 412.343 114.603 412.295 114.461C412.321 114.36 412.371 114.255 412.443 114.145C412.479 114.09 412.503 114.042 412.513 114.002C412.544 113.967 412.582 113.945 412.628 113.935C412.719 113.916 412.785 113.912 412.825 113.923C413.008 113.885 413.149 113.88 413.25 113.906L413.371 113.939L413.71 114.61ZM401.33 95.3522C401.309 95.4328 401.28 95.5006 401.244 95.5556C401.228 95.616 401.219 95.6892 401.218 95.7751C401.086 95.7833 400.96 95.8143 400.838 95.8681C400.715 95.9219 400.594 95.9328 400.473 95.9007C400.312 95.858 400.197 95.7628 400.129 95.6153C400.065 95.4476 400.055 95.2832 400.098 95.1221C400.146 94.9409 400.251 94.8287 400.414 94.7856C400.581 94.7223 400.756 94.7148 400.937 94.7629C401.038 94.7896 401.12 94.8439 401.185 94.9256C401.269 95.0128 401.331 95.1046 401.37 95.2012L401.33 95.3522ZM410.636 115.961C410.558 116.091 410.48 116.221 410.402 116.351C410.35 116.467 410.275 116.587 410.177 116.712C410.163 116.687 410.125 116.666 410.065 116.65C409.979 116.649 409.903 116.65 409.837 116.654C409.792 116.663 409.728 116.658 409.648 116.636C409.598 116.58 409.536 116.531 409.461 116.489C409.391 116.428 409.331 116.369 409.281 116.312C409.258 116.155 409.271 115.986 409.319 115.805C409.466 115.737 409.569 115.634 409.627 115.499C409.71 115.348 409.862 115.303 410.083 115.361C410.144 115.377 410.229 115.422 410.339 115.494C410.409 115.556 410.463 115.635 410.502 115.731C410.547 115.808 410.591 115.884 410.636 115.961ZM400.416 98.3104C400.354 98.3802 400.312 98.4554 400.291 98.536C400.295 98.6017 400.266 98.6695 400.205 98.7394C400.088 98.773 399.971 98.8067 399.855 98.8404C399.738 98.8741 399.621 98.9078 399.504 98.9415C399.343 98.8987 399.218 98.8009 399.13 98.648C399.041 98.4951 398.978 98.3274 398.94 98.145C399.022 98.0805 399.083 98.0106 399.125 97.9354C399.166 97.8602 399.228 97.7903 399.31 97.7258C399.436 97.7378 399.535 97.7316 399.606 97.7074C399.697 97.6885 399.813 97.6978 399.954 97.7352C400.033 97.8424 400.105 97.937 400.17 98.0188C400.26 98.0857 400.342 98.183 400.416 98.3104ZM399.849 101.296C399.812 101.437 399.765 101.533 399.709 101.582C399.652 101.632 399.598 101.715 399.546 101.83C399.44 101.823 399.321 101.824 399.19 101.832C399.058 101.841 398.962 101.837 398.902 101.821C398.761 101.783 398.671 101.673 398.634 101.491C398.596 101.308 398.59 101.167 398.617 101.066C398.66 100.905 398.75 100.767 398.888 100.653C399.026 100.539 399.186 100.506 399.367 100.554C399.468 100.581 399.565 100.66 399.66 100.793C399.759 100.906 399.844 100.993 399.913 101.055L399.849 101.296ZM407.091 116.281L406.651 116.843C406.474 116.861 406.305 116.848 406.144 116.805C406.083 116.789 406.015 116.76 405.94 116.719C405.88 116.703 405.819 116.687 405.759 116.671L405.772 115.769C406.012 115.596 406.263 115.544 406.525 115.613C406.706 115.661 406.848 115.774 406.952 115.953C406.945 116.059 406.939 116.122 406.934 116.142C406.929 116.162 406.981 116.208 407.091 116.281ZM398.683 103.864L398.701 104.16C398.709 104.292 398.708 104.377 398.697 104.418C398.671 104.518 398.604 104.608 398.496 104.688C398.389 104.767 398.295 104.839 398.213 104.903C398.081 104.912 397.975 104.905 397.895 104.884C397.794 104.857 397.654 104.777 397.474 104.643C397.405 104.495 397.398 104.321 397.451 104.119C397.499 103.938 397.569 103.795 397.662 103.69C397.901 103.603 398.113 103.573 398.3 103.601C398.395 103.648 398.45 103.684 398.465 103.709C398.5 103.74 398.573 103.792 398.683 103.864ZM402.988 115.418C402.93 115.553 402.868 115.623 402.803 115.627C402.757 115.637 402.733 115.727 402.73 115.899C402.624 115.893 402.493 115.901 402.336 115.924C402.199 115.952 402.1 115.958 402.04 115.942C401.919 115.91 401.833 115.79 401.78 115.582C401.722 115.394 401.709 115.24 401.741 115.119C401.779 114.978 401.884 114.866 402.057 114.783C402.25 114.705 402.407 114.682 402.528 114.714L402.769 114.778C402.869 114.891 402.915 115 402.909 115.106C402.928 115.197 402.954 115.301 402.988 115.418ZM398.118 107.82C398.034 107.971 397.917 108.09 397.764 108.179C397.611 108.268 397.443 108.331 397.261 108.369C397.187 108.241 397.087 108.129 396.962 108.031C396.863 107.918 396.835 107.782 396.877 107.62C396.899 107.54 396.917 107.469 396.933 107.409C396.97 107.354 396.998 107.286 397.02 107.206C397.116 107.167 397.223 107.13 397.34 107.097C397.462 107.043 397.573 107.029 397.674 107.056C397.835 107.099 397.947 107.204 398.01 107.372C398.079 107.519 398.115 107.669 398.118 107.82ZM400.021 114.533C399.984 114.674 399.919 114.797 399.827 114.902C399.739 114.987 399.67 115.087 399.618 115.202C399.497 115.17 399.401 115.166 399.33 115.191C399.279 115.22 399.213 115.224 399.132 115.203C398.931 115.149 398.789 115.036 398.705 114.863C398.642 114.695 398.634 114.521 398.683 114.34C398.725 114.179 398.808 114.071 398.93 114.017C399.052 113.964 399.169 113.887 399.282 113.788C399.493 113.887 399.64 113.98 399.725 114.067C399.83 114.159 399.929 114.315 400.021 114.533ZM397.279 110.734C397.237 110.895 397.129 110.974 396.958 110.972C396.876 111.036 396.777 111.086 396.66 111.119C396.563 111.158 396.465 111.164 396.364 111.138C396.283 111.116 396.193 111.049 396.094 110.937L395.952 110.252L396.427 109.926C396.584 109.903 396.743 109.913 396.904 109.955C397.126 110.014 397.27 110.16 397.337 110.394C397.327 110.434 397.313 110.484 397.297 110.545C397.301 110.611 397.295 110.674 397.279 110.734ZM396.455 113.716C396.429 113.817 396.362 113.907 396.254 113.986C396.173 114.051 396.108 114.131 396.062 114.226L395.911 114.186C395.865 114.195 395.809 114.202 395.743 114.206C395.678 114.21 395.625 114.207 395.584 114.196C395.544 114.186 395.469 114.144 395.359 114.072C395.345 113.96 395.321 113.889 395.286 113.859C395.251 113.828 395.212 113.774 395.167 113.698C395.154 113.586 395.152 113.51 395.163 113.47C395.179 113.41 395.17 113.321 395.136 113.204C395.198 113.135 395.267 113.077 395.344 113.033C395.445 112.974 395.552 112.938 395.663 112.924C395.74 112.88 395.849 112.876 395.99 112.914L396.141 112.954C396.215 113.081 396.291 113.198 396.37 113.306C396.47 113.418 396.498 113.555 396.455 113.716Z" fill="#94C6F1"/>
<path d="M167.624 16.907C167.617 16.9691 167.585 17.0598 167.529 17.179L167.151 17.4491L166.965 17.4271C166.882 17.4173 166.799 17.4076 166.717 17.3978C166.657 17.3698 166.576 17.3497 166.472 17.3375C166.422 17.2267 166.372 17.1159 166.322 17.0052C166.293 16.8968 166.286 16.7806 166.301 16.6565C166.547 16.3498 166.794 16.2112 167.042 16.2405C167.104 16.2478 167.165 16.2655 167.225 16.2935C167.287 16.3008 167.338 16.3069 167.38 16.3118C167.453 16.4043 167.514 16.506 167.564 16.6167C167.616 16.7068 167.636 16.8036 167.624 16.907ZM164.614 16.5519C164.599 16.676 164.555 16.7861 164.48 16.8823C164.409 16.9577 164.336 17.0435 164.261 17.1396C164.158 17.1274 164.064 17.1267 163.978 17.1377C163.916 17.1304 163.844 17.1218 163.761 17.112C163.678 17.1023 163.577 17.0694 163.458 17.0134L163.133 16.566C163.226 16.493 163.263 16.4449 163.245 16.4218C163.247 16.4011 163.254 16.339 163.267 16.2356C163.274 16.1735 163.29 16.123 163.316 16.0841L163.663 15.8103C163.787 15.825 163.901 15.8384 164.004 15.8506C164.128 15.8653 164.251 15.8902 164.373 15.9256C164.405 16.0132 164.436 16.1009 164.468 16.1885C164.523 16.2579 164.577 16.3273 164.632 16.3967L164.614 16.5519ZM161.638 16.1693C161.591 16.3945 161.487 16.5606 161.328 16.6676C161.171 16.754 160.978 16.7837 160.751 16.7569C160.709 16.752 160.608 16.7191 160.448 16.6582C160.429 16.6351 160.366 16.5541 160.256 16.4153C160.17 16.2583 160.15 16.1615 160.196 16.125C160.219 16.1068 160.234 16.0666 160.242 16.0045C160.259 15.8597 160.337 15.7326 160.475 15.6231C160.637 15.4953 160.791 15.44 160.936 15.4571C161.039 15.4693 161.119 15.4997 161.176 15.5484C161.234 15.5971 161.313 15.6379 161.414 15.6708C161.466 15.7609 161.498 15.8486 161.509 15.9338C161.54 16.0214 161.583 16.0999 161.638 16.1693ZM158.412 16.0405C158.32 16.1134 158.241 16.1566 158.177 16.17L158.158 16.3252C158.071 16.3568 157.974 16.3768 157.868 16.3853C157.783 16.3962 157.685 16.4266 157.574 16.4765C157.478 16.4022 157.382 16.328 157.286 16.2537C157.192 16.1587 157.087 16.0729 156.97 15.9962C156.982 15.8927 156.984 15.788 156.976 15.6822C156.988 15.5787 157 15.4753 157.012 15.3718C157.144 15.3244 157.266 15.2654 157.379 15.1948C157.513 15.1267 157.647 15.0586 157.781 14.9905L158.252 15.2663C158.276 15.416 158.313 15.5463 158.363 15.6571C158.413 15.7678 158.429 15.8956 158.412 16.0405ZM155.389 15.5265C155.375 15.6506 155.335 15.7193 155.27 15.7327C155.217 15.8313 155.167 15.8988 155.121 15.9353C155.077 15.9511 155.028 16.0083 154.975 16.1069L154.664 16.0703C154.312 16.0288 154.103 15.9411 154.034 15.8072C153.987 15.6757 153.96 15.4627 153.953 15.1682C153.985 15.0671 154.025 14.9984 154.071 14.9619C154.138 14.9278 154.188 14.8603 154.221 14.7593C154.329 14.7301 154.416 14.7089 154.48 14.6955C154.565 14.6846 154.66 14.6852 154.763 14.6974C154.867 14.7096 154.947 14.7401 155.004 14.7888C155.085 14.8192 155.165 14.8497 155.245 14.8801C155.228 15.025 155.246 15.1424 155.298 15.2325C155.373 15.3043 155.404 15.4023 155.389 15.5265ZM158.11 19.4032C157.987 19.5565 157.876 19.7007 157.776 19.8358C157.678 19.9501 157.521 20.0365 157.305 20.0948C157.206 20.0413 157.135 20.0224 157.091 20.0382C157.07 20.0357 157.008 20.0284 156.905 20.0162L156.788 19.9395C156.717 19.8263 156.666 19.7259 156.635 19.6382C156.603 19.5506 156.552 19.4501 156.481 19.3369C156.62 19.2274 156.699 19.0899 156.719 18.9244C156.943 18.804 157.158 18.756 157.365 18.7804C157.427 18.7877 157.478 18.8042 157.517 18.8297C157.579 18.8371 157.64 18.8547 157.699 18.8827C157.754 18.9521 157.778 19.0179 157.77 19.0799C157.786 19.1238 157.802 19.1676 157.818 19.2114C157.834 19.2552 157.861 19.2899 157.9 19.3155C157.939 19.3411 158.009 19.3703 158.11 19.4032ZM152.198 15.3702C152.013 15.5162 151.856 15.6026 151.727 15.6293C151.6 15.6354 151.423 15.6249 151.196 15.5981C150.989 15.5737 150.865 15.4647 150.825 15.2712C150.787 15.057 150.778 14.8671 150.798 14.7016C150.934 14.6128 151.06 14.5227 151.176 14.4315C151.312 14.3427 151.462 14.3184 151.625 14.3586L151.791 14.2838C151.859 14.4177 151.921 14.5194 151.976 14.5888C152.03 14.6582 152.075 14.7263 152.109 14.7933C152.143 14.8602 152.165 14.9363 152.176 15.0215C152.187 15.1067 152.194 15.223 152.198 15.3702ZM157.656 23.2515C157.61 23.288 157.56 23.3555 157.506 23.4541C157.453 23.5527 157.413 23.6214 157.387 23.6604C157.32 23.6944 157.243 23.7272 157.156 23.7589C157.089 23.7929 157.02 23.8373 156.951 23.8921C156.855 23.8178 156.776 23.777 156.714 23.7697C156.652 23.7624 156.57 23.7422 156.469 23.7093C156.399 23.5961 156.344 23.5267 156.305 23.5012C156.287 23.478 156.217 23.4488 156.095 23.4135C156.161 23.2115 156.239 22.99 156.331 22.749C156.424 22.4874 156.616 22.3736 156.906 22.4078C157.154 22.4371 157.31 22.5394 157.373 22.7147C157.457 22.8924 157.551 23.0713 157.656 23.2515ZM148.965 14.7685C148.948 14.9133 148.868 15.0612 148.724 15.2121C148.636 15.2437 148.55 15.265 148.465 15.2759C148.4 15.2892 148.316 15.2898 148.213 15.2776C148.026 15.2557 147.898 15.1881 147.828 15.0749C147.759 14.9409 147.682 14.7955 147.596 14.6384C147.662 14.4364 147.701 14.2837 147.713 14.1802C147.824 14.1304 147.943 14.0921 148.072 14.0654C148.204 14.0179 148.332 14.0015 148.456 14.0162C148.518 14.0235 148.579 14.0412 148.638 14.0692C148.719 14.0996 148.79 14.1185 148.852 14.1259C148.881 14.2342 148.91 14.3425 148.94 14.4508C148.969 14.5592 148.977 14.6651 148.965 14.7685ZM157.162 26.9063C157.059 27.062 156.958 27.2074 156.859 27.3425C156.779 27.48 156.626 27.5353 156.398 27.5085C156.295 27.4963 156.213 27.4762 156.154 27.4482C156.097 27.3995 156.027 27.3702 155.944 27.3605C155.871 27.2679 155.829 27.1791 155.818 27.0939C155.807 27.0087 155.752 26.9393 155.654 26.8857C155.673 26.7202 155.709 26.5985 155.76 26.5206C155.811 26.4427 155.896 26.3478 156.014 26.2359L156.594 26.1156C156.686 26.2312 156.74 26.3006 156.759 26.3238C156.797 26.3493 156.897 26.3926 157.058 26.4535C157.041 26.5983 157.031 26.6811 157.029 26.7018C157.047 26.7249 157.091 26.7931 157.162 26.9063ZM156.699 30.5647C156.682 30.7095 156.642 30.7783 156.58 30.771C156.539 30.7661 156.53 30.8385 156.554 30.9882C156.444 31.0381 156.333 31.0879 156.222 31.1378C156.132 31.1901 156.025 31.2089 155.901 31.1943C155.839 31.187 155.778 31.1693 155.718 31.1413C155.659 31.1133 155.589 31.0841 155.508 31.0536C155.492 31.0098 155.44 30.9197 155.351 30.7834C155.265 30.6263 155.224 30.5271 155.229 30.4857C155.249 30.3202 155.35 30.1748 155.532 30.0495C155.736 29.9266 155.92 29.875 156.085 29.8945C156.168 29.9043 156.263 29.9889 156.37 30.1484C156.5 30.2896 156.614 30.3973 156.71 30.4716L156.699 30.5647ZM156.113 34.4605C156.06 34.559 155.998 34.6357 155.929 34.6904C155.859 34.7452 155.798 34.8218 155.744 34.9204L155.007 34.7704C154.962 34.6183 154.89 34.5154 154.791 34.4618C154.716 34.39 154.678 34.2701 154.677 34.1022C154.8 33.9488 154.91 33.815 155.007 33.7006C155.107 33.5656 155.271 33.5114 155.498 33.5383C155.747 33.5676 155.941 33.6954 156.082 33.9219L156.113 34.4605ZM155.816 38.0441C155.811 38.0855 155.781 38.1658 155.725 38.285C155.656 38.3398 155.554 38.4012 155.42 38.4693C155.304 38.5606 155.195 38.6001 155.091 38.5879C154.988 38.5757 154.918 38.5465 154.881 38.5002C154.866 38.4564 154.794 38.4375 154.668 38.4435C154.597 38.3303 154.525 38.2274 154.452 38.1349C154.403 38.0242 154.386 37.8964 154.403 37.7515C154.42 37.6067 154.484 37.5093 154.595 37.4595C154.708 37.3889 154.802 37.3056 154.876 37.2095L155.125 37.2388C155.228 37.251 155.381 37.29 155.583 37.3557C155.612 37.4641 155.662 37.5749 155.732 37.6881C155.805 37.7806 155.833 37.8993 155.816 38.0441Z" fill="#94C6F1"/>
<path d="M102.764 26.2246C102.653 26.4017 102.553 26.5456 102.465 26.6562C102.398 26.7448 102.288 26.8665 102.133 27.0215H101.934C101.845 27.0215 101.768 27.0215 101.701 27.0215C101.635 26.9993 101.568 26.9993 101.502 27.0215C101.458 26.8887 101.38 26.7891 101.27 26.7227C101.159 26.6341 101.104 26.5124 101.104 26.3574C101.104 26.1139 101.159 25.9701 101.27 25.9258C101.402 25.8815 101.557 25.8372 101.734 25.793C101.867 25.7487 101.978 25.7266 102.066 25.7266C102.111 25.7266 102.21 25.804 102.365 25.959C102.542 26.0918 102.675 26.1803 102.764 26.2246ZM100.174 24C100.174 24.1328 100.119 24.2656 100.008 24.3984C99.9193 24.5091 99.8529 24.6309 99.8087 24.7637C99.5873 24.7194 99.3549 24.6751 99.1114 24.6309C98.8679 24.5645 98.7462 24.3763 98.7462 24.0664C98.7462 23.9779 98.7572 23.9004 98.7794 23.834C98.8236 23.7454 98.8458 23.6569 98.8458 23.5684C99.0671 23.4134 99.2885 23.3359 99.5098 23.3359C99.6205 23.3359 99.7201 23.3691 99.8087 23.4355C99.9193 23.4798 100.03 23.5352 100.141 23.6016C100.141 23.668 100.141 23.7344 100.141 23.8008C100.163 23.8672 100.174 23.9336 100.174 24ZM97.3184 21.9082C97.2963 22.0189 97.2631 22.1296 97.2188 22.2402C97.1967 22.3509 97.1192 22.4284 96.9864 22.4727C96.9864 22.7826 96.8314 22.9375 96.5215 22.9375C96.3887 22.9375 96.2449 22.9043 96.0899 22.8379C96.0456 22.7272 95.9903 22.6276 95.9239 22.5391C95.8575 22.4284 95.8243 22.3177 95.8243 22.207C95.8243 22.1185 95.8464 22.0299 95.8907 21.9414L96.2559 21.6426H96.4551C96.6101 21.6426 96.7761 21.709 96.9532 21.8418L97.3184 21.9082ZM104.324 30.043C104.191 30.2865 103.981 30.4082 103.693 30.4082C103.516 30.4082 103.372 30.3861 103.262 30.3418C103.173 30.2754 103.063 30.1868 102.93 30.0762V29.6445C102.93 29.5339 102.941 29.4453 102.963 29.3789C103.074 29.3125 103.173 29.2461 103.262 29.1797C103.372 29.0911 103.494 29.0469 103.627 29.0469C103.671 29.0469 103.76 29.069 103.893 29.1133C104.07 29.3346 104.158 29.4896 104.158 29.5781C104.158 29.6667 104.214 29.8216 104.324 30.043ZM93.5001 21.8086C93.5001 22.0078 93.3894 22.1517 93.168 22.2402C92.9688 22.3066 92.7917 22.3509 92.6368 22.373C92.504 22.2624 92.3933 22.1738 92.3047 22.1074C92.2383 22.041 92.1166 21.9857 91.9395 21.9414C91.9838 21.875 92.017 21.8086 92.0391 21.7422C92.0834 21.6536 92.1055 21.5762 92.1055 21.5098C92.1055 21.3991 92.2051 21.2884 92.4044 21.1777C92.6257 21.0671 92.7696 20.9564 92.836 20.8457C92.9467 20.9564 93.0463 21.056 93.1348 21.1445C93.2234 21.2109 93.323 21.2773 93.4337 21.3438C93.4337 21.4323 93.4447 21.5098 93.4669 21.5762C93.489 21.6426 93.5001 21.7201 93.5001 21.8086ZM104.955 33.6289C104.778 33.9609 104.501 34.127 104.125 34.127C104.081 34.127 104.025 34.127 103.959 34.127C103.893 34.1048 103.837 34.0938 103.793 34.0938C103.727 33.9831 103.66 33.8724 103.594 33.7617C103.527 33.651 103.494 33.5404 103.494 33.4297C103.494 33.2969 103.538 33.1419 103.627 32.9648C103.738 32.8763 103.859 32.832 103.992 32.832C104.125 32.832 104.247 32.7988 104.357 32.7324C104.468 32.8431 104.634 32.9206 104.856 32.9648L104.955 33.6289ZM104.623 37.6465C104.623 37.7129 104.601 37.8125 104.557 37.9453C104.38 38.1224 104.169 38.2109 103.926 38.2109C103.837 38.2109 103.749 38.1999 103.66 38.1777C103.594 38.1556 103.516 38.1335 103.428 38.1113C103.384 38.0228 103.339 37.9453 103.295 37.8789C103.273 37.7904 103.262 37.6908 103.262 37.5801C103.262 37.5137 103.262 37.4583 103.262 37.4141C103.284 37.3477 103.295 37.2812 103.295 37.2148C103.361 37.1706 103.428 37.1374 103.494 37.1152C103.583 37.0931 103.638 37.0267 103.66 36.916C103.749 36.8717 103.837 36.8496 103.926 36.8496C104.037 36.8496 104.125 36.8828 104.191 36.9492C104.258 37.0156 104.346 37.0599 104.457 37.082C104.501 37.1706 104.535 37.2591 104.557 37.3477C104.601 37.4362 104.623 37.5358 104.623 37.6465ZM89.5489 23.2031C89.3939 23.2917 89.2611 23.3802 89.1505 23.4688C89.0619 23.5573 88.9291 23.6016 88.752 23.6016H88.5528C88.4864 23.5352 88.42 23.4688 88.3536 23.4023C88.2872 23.3359 88.2318 23.2585 88.1876 23.1699C88.1654 23.0814 88.1433 23.015 88.1212 22.9707C88.1212 22.9043 88.1212 22.849 88.1212 22.8047C88.1212 22.7161 88.1433 22.6497 88.1876 22.6055C88.2318 22.5391 88.254 22.4616 88.254 22.373C88.4311 22.2845 88.5749 22.2402 88.6856 22.2402C88.8406 22.2402 88.9734 22.2734 89.084 22.3398C89.2169 22.4062 89.3386 22.4727 89.4493 22.5391V22.7383C89.4493 22.8268 89.4603 22.9154 89.4825 23.0039C89.5046 23.0703 89.5268 23.1367 89.5489 23.2031ZM102.83 41.4316C102.764 41.9186 102.509 42.1621 102.066 42.1621C101.845 42.1621 101.701 42.1068 101.635 41.9961C101.568 41.8633 101.491 41.7194 101.402 41.5645C101.447 41.3874 101.524 41.2214 101.635 41.0664C101.768 40.9115 101.934 40.834 102.133 40.834C102.244 40.834 102.387 40.8783 102.565 40.9668C102.565 41.0996 102.587 41.1882 102.631 41.2324C102.697 41.2546 102.764 41.321 102.83 41.4316ZM86.1954 25.0293C86.1954 25.2728 86.1068 25.4609 85.9297 25.5938C85.7527 25.7266 85.5534 25.793 85.3321 25.793C85.1993 25.793 85.0665 25.7155 84.9337 25.5605C84.8008 25.4056 84.7344 25.2728 84.7344 25.1621C84.7344 25.0072 84.7676 24.8743 84.834 24.7637C84.9226 24.653 85.0222 24.5534 85.1329 24.4648L85.3985 24.4316C85.5756 24.4759 85.7527 24.5423 85.9297 24.6309C86.1068 24.6973 86.1954 24.8301 86.1954 25.0293ZM99.9083 44.6855V45.0176C99.7976 45.0618 99.6758 45.0951 99.543 45.1172C99.4324 45.1393 99.3106 45.1504 99.1778 45.1504C99.0228 45.1504 98.879 45.1061 98.7462 45.0176C98.6355 44.929 98.5248 44.8405 98.4141 44.752C98.5027 44.5527 98.6023 44.3646 98.713 44.1875C98.8458 44.0104 99.0339 43.9219 99.2774 43.9219C99.4545 43.9219 99.5984 44.0104 99.709 44.1875C99.8419 44.3646 99.9083 44.5306 99.9083 44.6855ZM83.838 28.582C83.838 28.6484 83.8269 28.7148 83.8047 28.7812C83.8047 28.8477 83.8047 28.9141 83.8047 28.9805C83.6941 29.0469 83.5723 29.1133 83.4395 29.1797C83.3067 29.224 83.1739 29.2461 83.0411 29.2461C82.9304 29.2461 82.8087 29.224 82.6758 29.1797C82.6316 29.069 82.5873 28.9915 82.543 28.9473C82.4988 28.903 82.4434 28.8255 82.377 28.7148C82.4213 28.4492 82.4988 28.2279 82.6094 28.0508C82.7201 28.0065 82.8308 27.9733 82.9415 27.9512C83.0521 27.929 83.1628 27.918 83.2735 27.918H83.5723C83.6387 28.0286 83.6941 28.1393 83.7383 28.25C83.8047 28.3385 83.838 28.4492 83.838 28.582ZM82.8419 32.3672C82.8419 32.6992 82.7755 32.9759 82.6426 33.1973C82.532 33.4186 82.2885 33.5293 81.9122 33.5293C81.8236 33.4408 81.713 33.3633 81.5801 33.2969C81.4695 33.2083 81.4141 33.0977 81.4141 32.9648C81.4141 32.8763 81.4252 32.7988 81.4473 32.7324C81.4695 32.666 81.4805 32.5996 81.4805 32.5332C81.5912 32.4668 81.7019 32.3783 81.8126 32.2676C81.9232 32.1569 82.0339 32.1016 82.1446 32.1016C82.2553 32.1016 82.3438 32.1458 82.4102 32.2344C82.4766 32.3229 82.6205 32.3672 82.8419 32.3672ZM95.8243 46.3789C95.8243 46.5339 95.8021 46.6445 95.7579 46.7109C95.6693 46.8216 95.5587 46.888 95.4258 46.9102C95.3152 46.9544 95.2045 46.9987 95.0938 47.043C94.9831 46.9544 94.8835 46.888 94.795 46.8438C94.7286 46.8216 94.64 46.7884 94.5294 46.7441C94.5294 46.6777 94.5183 46.6113 94.4962 46.5449C94.4962 46.5007 94.4962 46.4453 94.4962 46.3789C94.4962 46.3125 94.5183 46.2129 94.5626 46.0801C94.6068 46.0137 94.6843 45.9362 94.795 45.8477C94.9057 45.737 95.0053 45.6816 95.0938 45.6816C95.2709 45.6816 95.3705 45.7038 95.3926 45.748C95.4369 45.7923 95.5255 45.8255 95.6583 45.8477C95.7689 46.0247 95.8243 46.2018 95.8243 46.3789ZM82.9747 37.1484V37.2812C82.864 37.4362 82.7755 37.569 82.709 37.6797C82.6648 37.7904 82.532 37.8457 82.3106 37.8457C82.045 37.8457 81.8126 37.7461 81.6133 37.5469C81.5691 37.3698 81.5469 37.2148 81.5469 37.082C81.5469 36.9492 81.5801 36.8385 81.6465 36.75C81.7351 36.6615 81.8126 36.5618 81.879 36.4512C81.9675 36.4954 82.045 36.5065 82.1114 36.4844C82.1999 36.4622 82.2995 36.4622 82.4102 36.4844C82.5209 36.6172 82.6426 36.6947 82.7755 36.7168C82.9083 36.7168 82.9747 36.8607 82.9747 37.1484ZM91.7735 46.5449C91.7735 46.722 91.7071 46.8659 91.5743 46.9766C91.4415 47.1094 91.2865 47.1758 91.1094 47.1758C90.9102 47.1758 90.7663 47.1315 90.6778 47.043C90.5893 46.9766 90.5228 46.888 90.4786 46.7773C90.4343 46.6667 90.4011 46.5449 90.379 46.4121C90.3568 46.2793 90.3015 46.1576 90.213 46.0469C90.3458 46.0247 90.4454 46.0026 90.5118 45.9805C90.5782 45.9583 90.6335 45.9362 90.6778 45.9141C90.7221 45.8919 90.7553 45.8698 90.7774 45.8477C90.8217 45.8034 90.8991 45.7591 91.0098 45.7148C91.209 45.7591 91.3861 45.8587 91.5411 46.0137C91.696 46.1465 91.7735 46.3236 91.7735 46.5449ZM84.4688 41.3984C84.4688 41.5091 84.4467 41.5977 84.4024 41.6641C84.3581 41.7305 84.3139 41.8079 84.2696 41.8965C84.2253 41.9186 84.1368 41.9518 84.004 41.9961C83.8933 42.0404 83.8158 42.0625 83.7715 42.0625C83.7051 42.0625 83.6387 42.0514 83.5723 42.0293C83.5281 41.985 83.4727 41.9629 83.4063 41.9629C83.362 41.9629 83.3288 41.974 83.3067 41.9961C83.2846 41.9961 83.2514 41.9961 83.2071 41.9961C83.1407 41.8411 83.0964 41.7415 83.0743 41.6973C83.0743 41.6309 83.0743 41.5091 83.0743 41.332L83.0079 41.1992L83.3731 40.668C83.3952 40.6901 83.4506 40.7233 83.5391 40.7676C83.5834 40.7676 83.6277 40.7676 83.6719 40.7676C83.7162 40.7454 83.7605 40.7344 83.8047 40.7344C83.8712 40.7344 83.9708 40.7786 84.1036 40.8672C84.2585 40.9557 84.3581 41.0221 84.4024 41.0664C84.4467 41.2435 84.4688 41.3542 84.4688 41.3984ZM87.6563 44.5195C87.6563 44.6523 87.612 44.752 87.5235 44.8184C87.435 44.8848 87.3686 44.9733 87.3243 45.084C87.2357 45.1283 87.1583 45.1615 87.0919 45.1836C87.0255 45.2057 86.948 45.2168 86.8594 45.2168C86.7266 45.2168 86.5938 45.1504 86.461 45.0176C86.3503 44.8848 86.2286 44.7962 86.0958 44.752C86.14 44.5749 86.1843 44.4089 86.2286 44.2539C86.295 44.099 86.3946 43.9551 86.5274 43.8223C86.7266 43.8223 86.959 43.8776 87.2247 43.9883C87.5124 44.099 87.6563 44.276 87.6563 44.5195Z" fill="#94C6F1"/>
<path d="M285.368 70.6934C285.368 70.9121 285.327 71.0898 285.245 71.2266C285.162 71.3633 285.094 71.541 285.039 71.7598H284.383C284.219 71.6504 284.069 71.582 283.932 71.5547C283.795 71.5273 283.727 71.3906 283.727 71.1445C283.727 71.0352 283.741 70.9395 283.768 70.8574C283.795 70.748 283.809 70.6523 283.809 70.5703C283.973 70.3242 284.205 70.2012 284.506 70.2012C284.616 70.2012 284.78 70.2285 284.998 70.2832C285.053 70.3926 285.094 70.4746 285.121 70.5293C285.149 70.584 285.231 70.6387 285.368 70.6934ZM287.664 74.6719C287.61 74.7812 287.514 74.918 287.377 75.082C287.241 75.2188 287.159 75.3281 287.131 75.4102L286.926 75.4922C286.707 75.4922 286.53 75.4512 286.393 75.3691C286.256 75.2871 286.092 75.1777 285.901 75.041C285.955 74.8223 286.01 74.5898 286.065 74.3438C286.147 74.0703 286.338 73.9336 286.639 73.9336C286.912 73.9336 287.131 73.9883 287.295 74.0977C287.487 74.1797 287.61 74.3711 287.664 74.6719ZM289.551 79.9629L289.059 80.5371C288.895 80.5918 288.786 80.6191 288.731 80.6191C288.594 80.6191 288.457 80.5918 288.321 80.5371C288.211 80.4824 288.088 80.4277 287.952 80.373C287.924 80.291 287.897 80.209 287.87 80.127C287.842 80.0449 287.828 79.9492 287.828 79.8398C287.828 79.8125 287.856 79.7168 287.911 79.5527C288.184 79.2793 288.539 79.1426 288.977 79.1426C289.196 79.3613 289.387 79.6348 289.551 79.9629ZM283.399 75.4512C283.399 75.6699 283.303 75.8613 283.112 76.0254C282.92 76.1621 282.715 76.2305 282.496 76.2305C282.387 76.2305 282.278 76.2031 282.168 76.1484C282.114 76.1758 282.059 76.2031 282.004 76.2305C281.95 76.2305 281.895 76.2441 281.84 76.2715C281.813 76.1074 281.772 75.9434 281.717 75.7793C281.69 75.5879 281.676 75.4102 281.676 75.2461C281.676 75.082 281.717 74.9727 281.799 74.918C281.909 74.8359 282.018 74.7266 282.127 74.5898C282.264 74.5898 282.414 74.6035 282.578 74.6309C282.743 74.6309 282.893 74.6309 283.03 74.6309C283.084 74.7676 283.153 74.9043 283.235 75.041C283.344 75.1504 283.399 75.2871 283.399 75.4512ZM291.479 84.3516C291.479 84.4609 291.452 84.5703 291.397 84.6797C291.37 84.7891 291.356 84.8984 291.356 85.0078C291.219 85.0352 291.096 85.0898 290.987 85.1719C290.877 85.2266 290.754 85.2539 290.618 85.2539C290.481 85.2539 290.344 85.2129 290.207 85.1309C290.071 85.0215 289.934 84.9531 289.797 84.9258C289.797 84.8711 289.811 84.8301 289.838 84.8027C289.866 84.748 289.879 84.6934 289.879 84.6387C289.879 84.584 289.866 84.5293 289.838 84.4746C289.811 84.3926 289.784 84.3242 289.756 84.2695C289.893 84.1055 290.043 83.9551 290.207 83.8184C290.371 83.6543 290.563 83.5723 290.782 83.5723C290.973 83.5723 291.137 83.6543 291.274 83.8184C291.411 83.9824 291.479 84.1602 291.479 84.3516ZM292.75 88.9453C292.75 89.3008 292.641 89.5059 292.422 89.5605C292.231 89.5879 292.012 89.6699 291.766 89.8066C291.657 89.6973 291.547 89.6152 291.438 89.5605C291.328 89.5059 291.233 89.4102 291.151 89.2734C291.123 89.1367 291.096 89 291.069 88.8633C291.041 88.6992 291 88.5488 290.946 88.4121C291.11 88.3301 291.274 88.2617 291.438 88.207C291.629 88.125 291.834 88.084 292.053 88.084C292.327 88.084 292.504 88.166 292.586 88.3301C292.696 88.4941 292.75 88.6992 292.75 88.9453ZM294.514 92.2266C294.514 92.4453 294.473 92.6777 294.391 92.9238C294.254 92.9785 294.118 93.0332 293.981 93.0879C293.844 93.1152 293.707 93.1289 293.571 93.1289C293.106 93.1289 292.873 92.8965 292.873 92.4316C292.873 92.3496 292.873 92.2812 292.873 92.2266C292.901 92.1445 292.914 92.0762 292.914 92.0215L293.325 91.5293C293.461 91.584 293.584 91.6113 293.694 91.6113C293.83 91.6113 293.967 91.625 294.104 91.6523C294.295 91.8438 294.432 92.0352 294.514 92.2266ZM281.225 80.0039C281.061 80.168 280.87 80.3184 280.651 80.4551C280.459 80.5918 280.241 80.6602 279.995 80.6602C279.858 80.6602 279.707 80.5781 279.543 80.4141C279.461 80.2227 279.42 80.0176 279.42 79.7988C279.42 79.7168 279.434 79.6348 279.461 79.5527C279.489 79.4707 279.502 79.3887 279.502 79.3066C279.612 79.252 279.707 79.1973 279.789 79.1426C279.899 79.0605 280.022 79.0195 280.159 79.0195C280.268 79.0195 280.364 79.0605 280.446 79.1426C280.555 79.1426 280.651 79.1562 280.733 79.1836C280.815 79.2109 280.897 79.2246 280.979 79.2246C281.034 79.3887 281.061 79.5254 281.061 79.6348C281.088 79.7441 281.143 79.8672 281.225 80.0039ZM288.731 89.7656C288.731 90.0391 288.608 90.2578 288.362 90.4219C288.143 90.4492 287.883 90.5312 287.582 90.668L286.926 90.2168C286.981 90.1074 286.995 90.0117 286.967 89.9297C286.967 89.8203 286.967 89.6973 286.967 89.5605C287.104 89.3145 287.213 89.1504 287.295 89.0684C287.377 88.9863 287.446 88.9453 287.5 88.9453C287.582 88.918 287.651 88.9043 287.705 88.9043C287.787 88.877 287.87 88.8223 287.952 88.7402L288.567 89.0684V89.2734C288.567 89.3555 288.594 89.4375 288.649 89.5195C288.703 89.5742 288.731 89.6562 288.731 89.7656ZM295.745 96.6562C295.662 96.957 295.526 97.1895 295.334 97.3535C295.17 97.4902 294.938 97.5996 294.637 97.6816C294.5 97.5449 294.364 97.4355 294.227 97.3535C294.118 97.2441 294.008 97.1211 293.899 96.9844C293.926 96.875 293.953 96.7793 293.981 96.6973C294.008 96.5879 294.022 96.4648 294.022 96.3281C294.159 96.2734 294.254 96.2051 294.309 96.123C294.364 96.041 294.446 95.959 294.555 95.877C294.719 95.9316 294.883 95.9727 295.047 96C295.211 96.0273 295.375 96.082 295.539 96.1641C295.539 96.3008 295.553 96.3965 295.58 96.4512L295.745 96.6562ZM297.18 100.799C297.125 100.908 297.043 101.004 296.934 101.086C296.852 101.168 296.77 101.236 296.688 101.291C296.469 101.236 296.278 101.209 296.114 101.209C295.95 101.209 295.799 101.195 295.662 101.168C295.635 101.031 295.594 100.895 295.539 100.758C295.512 100.621 295.498 100.484 295.498 100.348C295.498 100.184 295.594 100.047 295.786 99.9375C295.977 99.8281 296.155 99.7734 296.319 99.7734C296.537 99.7734 296.77 99.8145 297.016 99.8965C297.071 100.033 297.098 100.184 297.098 100.348C297.125 100.484 297.153 100.635 297.18 100.799ZM285.162 89.5195C285.162 89.6562 285.149 89.7793 285.121 89.8887C285.121 89.998 285.121 90.1211 285.121 90.2578L284.916 90.3809C284.616 90.4902 284.287 90.5449 283.932 90.5449C283.713 90.3262 283.604 90.1484 283.604 90.0117C283.604 89.8477 283.577 89.6289 283.522 89.3555C283.823 89.0547 284.151 88.9043 284.506 88.9043H284.793C284.848 89.0137 284.903 89.123 284.957 89.2324C285.012 89.3418 285.08 89.4375 285.162 89.5195ZM279.051 85.1309C278.914 85.2129 278.764 85.3086 278.6 85.418C278.463 85.5 278.313 85.541 278.149 85.541C277.93 85.4043 277.752 85.2812 277.616 85.1719C277.479 85.0625 277.411 84.8848 277.411 84.6387L277.328 84.3926C277.629 84.2012 277.834 84.1055 277.944 84.1055C278.08 84.1055 278.299 84.0918 278.6 84.0645L278.764 84.1465C278.901 84.2832 278.969 84.4473 278.969 84.6387C278.969 84.8027 278.996 84.9668 279.051 85.1309ZM281.594 89.8887L281.143 90.4629C281.034 90.5176 280.924 90.5449 280.815 90.5449C280.705 90.5449 280.596 90.5312 280.487 90.5039C280.405 90.4766 280.309 90.4492 280.2 90.4219C280.145 90.3125 280.104 90.2168 280.077 90.1348C280.049 90.0254 279.967 89.9434 279.83 89.8887C279.885 89.6426 279.967 89.4648 280.077 89.3555C280.186 89.2188 280.336 89.0684 280.528 88.9043C280.664 88.959 280.801 88.9863 280.938 88.9863C281.075 88.9863 281.211 89 281.348 89.0273C281.403 89.1641 281.43 89.3145 281.43 89.4785C281.457 89.6152 281.512 89.752 281.594 89.8887ZM277.287 89.1914C277.178 89.3555 277.069 89.5195 276.959 89.6836C276.85 89.8477 276.686 89.9297 276.467 89.9297C276.276 89.9297 276.071 89.8477 275.852 89.6836C275.661 89.5195 275.565 89.3418 275.565 89.1504C275.565 88.9863 275.633 88.8086 275.77 88.6172C275.907 88.3984 276.071 88.2891 276.262 88.2891C276.399 88.2891 276.508 88.3164 276.59 88.3711C276.7 88.4258 276.823 88.4668 276.959 88.4941C277.069 88.6035 277.123 88.7129 277.123 88.8223C277.151 88.9316 277.205 89.0547 277.287 89.1914ZM275.483 93.1289C275.483 93.375 275.373 93.5801 275.155 93.7441C274.936 93.8809 274.717 93.9766 274.498 94.0312C274.307 93.8672 274.075 93.7441 273.801 93.6621C273.801 93.5527 273.787 93.4707 273.76 93.416C273.733 93.334 273.719 93.2383 273.719 93.1289C273.719 92.9922 273.774 92.8555 273.883 92.7188C273.993 92.582 274.088 92.4727 274.17 92.3906C274.553 92.3906 274.895 92.4453 275.196 92.5547C275.25 92.6641 275.291 92.7598 275.319 92.8418C275.346 92.9238 275.387 93.0195 275.442 93.1289H275.483ZM273.76 97.3125C273.76 97.4766 273.678 97.6406 273.514 97.8047C273.35 97.9414 273.186 98.0098 273.022 98.0098C272.912 98.0098 272.803 97.9551 272.694 97.8457C272.557 97.791 272.434 97.709 272.325 97.5996C272.215 97.4902 272.161 97.3672 272.161 97.2305V96.9434C272.243 96.8613 272.311 96.8066 272.366 96.7793C272.448 96.7246 272.502 96.6289 272.53 96.4922H272.899C273.036 96.4922 273.159 96.5195 273.268 96.5742C273.377 96.6016 273.487 96.6426 273.596 96.6973C273.705 96.9707 273.76 97.1758 273.76 97.3125ZM272.571 100.512C272.571 100.594 272.543 100.717 272.489 100.881C272.407 100.963 272.325 101.004 272.243 101.004C272.161 101.004 272.12 101.072 272.12 101.209H271.668C271.45 101.209 271.245 101.141 271.053 101.004C270.889 100.867 270.807 100.689 270.807 100.471C270.807 100.143 270.971 99.8418 271.299 99.5684C271.354 99.5957 271.422 99.623 271.504 99.6504C271.586 99.6777 271.655 99.6914 271.709 99.6914C271.764 99.6914 271.805 99.6914 271.832 99.6914C271.86 99.6641 271.901 99.6504 271.955 99.6504C272.092 99.6504 272.202 99.6914 272.284 99.7734C272.366 99.8281 272.448 99.8828 272.53 99.9375C272.53 100.047 272.53 100.156 272.53 100.266C272.557 100.348 272.571 100.43 272.571 100.512Z" fill="#94C6F1"/>
<path d="M127.686 72.7526C124.63 72.7526 122.55 71.5206 122.55 69.5526C122.55 67.6166 124.63 66.3686 127.686 66.3686C130.71 66.3686 132.806 67.6166 132.806 69.5526C132.806 71.5206 130.71 72.7526 127.686 72.7526ZM127.686 67.6966C125.606 67.6966 124.246 68.4006 124.246 69.5526C124.246 70.7206 125.558 71.4246 127.686 71.4246C129.75 71.4246 131.11 70.7206 131.11 69.5526C131.11 68.4006 129.734 67.6966 127.686 67.6966ZM134.278 75.3446H131.014V80.2886H129.334V75.3446H126.038V80.2886H124.358V75.3446H121.158V73.9846H134.262L134.278 75.3446ZM147.809 69.1526H135.985V67.8246H141.089V66.0326H142.737V67.8246H147.809V69.1526ZM148.481 77.3926V78.7526H135.393V77.3926H138.689V74.8486C137.665 74.3846 137.089 73.6486 137.089 72.6886C137.089 70.9606 138.945 69.9526 141.889 69.9526C144.849 69.9526 146.705 70.9606 146.705 72.6886C146.705 73.6486 146.145 74.3526 145.121 74.8486V77.3926H148.481ZM141.889 71.2326C139.889 71.2326 138.769 71.7286 138.769 72.6886C138.769 73.6486 139.889 74.1446 141.889 74.1446C143.889 74.1446 145.025 73.6486 145.025 72.6886C145.025 71.7286 143.889 71.2326 141.889 71.2326ZM140.321 77.3926H143.489V75.3126C142.993 75.3926 142.481 75.4246 141.889 75.4246C141.313 75.4246 140.817 75.3926 140.321 75.3126V77.3926ZM163.052 73.0246H160.828V80.3046H159.164V65.8406H160.828V71.6486H163.052V73.0246ZM154.62 68.0646H157.996V69.4086H149.532V68.0646H152.972V66.0486H154.62V68.0646ZM153.82 70.4326C155.868 70.4326 157.404 71.8246 157.404 73.8086C157.404 75.7926 155.868 77.1846 153.82 77.1846C151.724 77.1846 150.236 75.7926 150.236 73.8086C150.236 71.8246 151.724 70.4326 153.82 70.4326ZM153.82 75.8246C154.988 75.8246 155.836 75.0246 155.836 73.8086C155.836 72.5926 154.988 71.7926 153.82 71.7926C152.652 71.7926 151.804 72.5926 151.804 73.8086C151.804 75.0246 152.652 75.8246 153.82 75.8246ZM175.719 65.8406V80.2886H174.055V65.8406H175.719ZM169.159 70.0166C169.159 72.4326 170.647 74.8966 172.903 75.8726L171.991 77.1686C170.311 76.4166 169.031 74.8646 168.343 72.9926C167.703 74.9926 166.407 76.7366 164.711 77.5366L163.767 76.2246C166.007 75.2166 167.495 72.4646 167.495 70.0166V68.6406H164.279V67.2806H172.375V68.6406H169.159V70.0166ZM194.455 68.9766V70.3366H192.407V72.9926H190.759V65.8406H192.407V68.9766H194.455ZM188.887 69.9686C188.887 71.9366 187.271 73.3286 185.095 73.3286C182.919 73.3286 181.303 71.9366 181.303 69.9686C181.303 68.0006 182.919 66.6086 185.095 66.6086C187.271 66.6086 188.887 68.0006 188.887 69.9686ZM182.903 69.9686C182.903 71.1686 183.863 71.9686 185.095 71.9686C186.327 71.9686 187.287 71.1686 187.287 69.9686C187.287 68.7526 186.359 67.9526 185.095 67.9526C183.831 67.9526 182.903 68.7526 182.903 69.9686ZM190.903 74.5606H193.719V75.7606H186.471V74.5606H189.303V73.3766H190.903V74.5606ZM184.119 78.5606C184.951 78.5126 185.831 78.4006 186.727 78.0966L186.999 79.4086C185.655 79.8566 184.439 79.9206 183.271 79.9206H182.519V74.4806H184.119V78.5606ZM190.103 76.2086C191.703 76.2086 192.823 77.0086 192.823 78.2566C192.823 79.5046 191.703 80.3046 190.103 80.3046C188.503 80.3046 187.367 79.5046 187.367 78.2566C187.367 77.0086 188.503 76.2086 190.103 76.2086ZM190.103 79.1526C190.823 79.1526 191.367 78.8166 191.367 78.2566C191.367 77.6806 190.823 77.3606 190.103 77.3606C189.351 77.3606 188.823 77.6806 188.823 78.2566C188.823 78.8166 189.351 79.1526 190.103 79.1526ZM201.874 72.1606C198.754 72.1606 196.722 71.0566 196.722 69.2166C196.722 67.3766 198.754 66.2886 201.874 66.2886C204.994 66.2886 207.026 67.3766 207.026 69.2166C207.026 71.0566 204.994 72.1606 201.874 72.1606ZM201.874 67.6166C199.746 67.6166 198.418 68.1926 198.418 69.2166C198.418 70.2406 199.746 70.8326 201.874 70.8326C204.002 70.8326 205.314 70.2406 205.314 69.2166C205.314 68.1926 204.002 67.6166 201.874 67.6166ZM208.402 73.3286V74.6726H195.33V73.3286H208.402ZM198.642 78.6726H206.946V80.0166H196.978V75.8086H198.642V78.6726ZM224.531 65.8246V80.3206H222.867V65.8246H224.531ZM216.835 66.8966C218.995 66.8966 220.563 68.8806 220.563 71.9846C220.563 75.1206 218.995 77.0886 216.835 77.0886C214.707 77.0886 213.123 75.1206 213.123 71.9846C213.123 68.8806 214.707 66.8966 216.835 66.8966ZM216.835 68.3846C215.555 68.3846 214.707 69.7286 214.707 71.9846C214.707 74.3046 215.555 75.6166 216.835 75.6166C218.115 75.6166 218.979 74.3046 218.979 71.9846C218.979 69.7286 218.115 68.3846 216.835 68.3846ZM238.75 65.8246V80.3206H237.086V65.8246H238.75ZM234.414 67.2006V76.7526H227.63V67.2006H234.414ZM229.246 68.5126V75.4246H232.798V68.5126H229.246ZM252.969 65.8406V80.2886H251.305V65.8406H252.969ZM246.409 70.0166C246.409 72.4326 247.897 74.8966 250.153 75.8726L249.241 77.1686C247.561 76.4166 246.281 74.8646 245.593 72.9926C244.953 74.9926 243.657 76.7366 241.961 77.5366L241.017 76.2246C243.257 75.2166 244.745 72.4646 244.745 70.0166V68.6406H241.529V67.2806H249.625V68.6406H246.409V70.0166ZM267.203 65.8406V73.6006H265.555V65.8406H267.203ZM259.411 66.4966C261.619 66.4966 263.235 67.8726 263.235 69.8566C263.235 71.8406 261.619 73.2166 259.411 73.2166C257.187 73.2166 255.571 71.8406 255.571 69.8566C255.571 67.8726 257.187 66.4966 259.411 66.4966ZM259.411 67.8566C258.067 67.8566 257.187 68.6406 257.187 69.8566C257.187 71.0726 258.067 71.8566 259.411 71.8566C260.707 71.8566 261.635 71.0726 261.635 69.8566C261.635 68.6406 260.707 67.8566 259.411 67.8566ZM259.395 74.2726V75.8726H265.571V74.2726H267.203V80.1126H257.763V74.2726H259.395ZM259.395 78.7846H265.571V77.1526H259.395V78.7846ZM281.454 65.8406V80.2886H279.806V65.8406H281.454ZM271.998 75.2326C274.062 75.2166 276.158 75.0406 278.478 74.5766L278.654 75.9526C276.142 76.4646 273.854 76.6406 271.598 76.6406H270.366V67.2486H271.998V75.2326ZM297.177 72.7526H294.921V80.3046H293.273V65.8246H294.921V71.3926H297.177V72.7526ZM285.961 75.3766C288.265 75.3766 290.073 75.2486 292.073 74.9126L292.249 76.2726C290.073 76.6566 288.105 76.7526 285.497 76.7526H284.313V67.2006H291.033V68.5446H285.961V75.3766Z" fill="#00368E"/>
<path d="M172.16 98.0933H171.258V88.2373H172.16V98.0933ZM167.606 91.2403C167.606 92.9123 168.794 94.6173 170.246 95.2333L169.74 95.9593C168.596 95.4313 167.628 94.2983 167.155 92.9453C166.715 94.3753 165.714 95.6513 164.614 96.2013L164.086 95.4753C165.505 94.7933 166.704 92.9453 166.704 91.2403V89.9863H164.416V89.2383H169.927V89.9863H167.606V91.2403ZM180.877 88.2263H181.779V95.7393H180.877V94.7273H178.875V94.0563H180.877V88.2263ZM176.862 92.0653C175.421 92.0653 174.431 91.3943 174.431 90.3383C174.431 89.3043 175.421 88.6223 176.862 88.6223C178.303 88.6223 179.293 89.3043 179.293 90.3383C179.293 91.3943 178.303 92.0653 176.862 92.0653ZM176.862 89.2933C175.927 89.2933 175.289 89.7113 175.289 90.3383C175.289 90.9983 175.927 91.3943 176.862 91.3943C177.797 91.3943 178.435 90.9983 178.435 90.3383C178.435 89.7113 177.797 89.2933 176.862 89.2933ZM176.51 93.4843C175.531 93.5283 174.607 93.5393 173.771 93.5393L173.65 92.7913C175.476 92.7913 177.918 92.7693 180.008 92.5053L180.085 93.1543C179.205 93.2863 178.303 93.3853 177.412 93.4403V95.3873H176.51V93.4843ZM182.032 97.8733H175.058V95.0023H175.96V97.1363H182.032V97.8733ZM191.365 98.1153H190.463V88.2153H191.365V98.1153ZM187.031 95.1453C187.999 95.1013 188.934 95.0573 189.814 94.9363L189.891 95.5963C187.724 95.9153 185.381 95.9703 183.5 95.9703L183.39 95.2113C184.237 95.2113 185.161 95.2113 186.129 95.1783V93.2203H184.116V89.1503H189.11V89.8983H185.007V92.4833H189.154V93.2203H187.031V95.1453ZM201.017 98.0933H200.115V88.2373H201.017V98.0933ZM196.463 91.2403C196.463 92.9123 197.651 94.6173 199.103 95.2333L198.597 95.9593C197.453 95.4313 196.485 94.2983 196.012 92.9453C195.572 94.3753 194.571 95.6513 193.471 96.2013L192.943 95.4753C194.362 94.7933 195.561 92.9453 195.561 91.2403V89.9863H193.273V89.2383H198.784V89.9863H196.463V91.2403ZM213.641 91.1853H212.178V93.1433H211.276V88.2263H212.178V90.4373H213.641V91.1853ZM209.802 91.0643C209.802 92.4173 208.724 93.3413 207.261 93.3413C205.798 93.3413 204.709 92.4173 204.709 91.0643C204.709 89.7113 205.798 88.7873 207.261 88.7873C208.724 88.7873 209.802 89.7113 209.802 91.0643ZM205.589 91.0643C205.589 91.9663 206.304 92.6043 207.261 92.6043C208.196 92.6043 208.922 91.9663 208.922 91.0643C208.922 90.1623 208.196 89.5243 207.261 89.5243C206.304 89.5243 205.589 90.1623 205.589 91.0643ZM213.157 94.2763V94.9473H208.196V94.2763H210.242V93.3853H211.122V94.2763H213.157ZM206.436 97.0923C207.008 97.0593 207.712 96.9823 208.416 96.7623L208.559 97.4773C207.624 97.7853 206.7 97.8403 206.029 97.8403H205.556V94.2103H206.436V97.0923ZM210.682 95.2993C211.738 95.2993 212.508 95.8493 212.508 96.6853C212.508 97.5653 211.749 98.0823 210.682 98.0823C209.615 98.0823 208.856 97.5653 208.856 96.6853C208.856 95.8493 209.626 95.2993 210.682 95.2993ZM210.682 97.4443C211.298 97.4443 211.705 97.1363 211.705 96.6853C211.705 96.2343 211.298 95.9373 210.682 95.9373C210.066 95.9373 209.659 96.2343 209.659 96.6853C209.659 97.1363 210.066 97.4443 210.682 97.4443ZM215.341 91.9333V88.5893H216.243V91.1963H222.051V91.9333H215.341ZM223.074 93.9793H214.131V93.2533H223.074V93.9793ZM222.106 97.1143V97.8513H215.275V94.9693H216.177V97.1143H222.106ZM233.795 98.1153H232.893V88.2263H233.795V98.1153ZM228.592 88.9853C230.055 88.9853 231.1 90.3273 231.1 92.4283C231.1 94.5293 230.055 95.8713 228.592 95.8713C227.129 95.8713 226.084 94.5293 226.084 92.4283C226.084 90.3273 227.129 88.9853 228.592 88.9853ZM228.592 89.7993C227.624 89.7993 226.942 90.8333 226.942 92.4283C226.942 94.0343 227.624 95.0683 228.592 95.0683C229.549 95.0683 230.231 94.0343 230.231 92.4283C230.231 90.8333 229.549 89.7993 228.592 89.7993ZM243.414 98.1153H242.512V88.2263H243.414V98.1153ZM240.444 95.6073H235.912V89.1943H240.444V95.6073ZM236.792 94.8923H239.564V89.9203H236.792V94.8923ZM253.033 98.0933H252.131V88.2373H253.033V98.0933ZM248.479 91.2403C248.479 92.9123 249.667 94.6173 251.119 95.2333L250.613 95.9593C249.469 95.4313 248.501 94.2983 248.028 92.9453C247.588 94.3753 246.587 95.6513 245.487 96.2013L244.959 95.4753C246.378 94.7933 247.577 92.9453 247.577 91.2403V89.9863H245.289V89.2383H250.8V89.9863H248.479V91.2403Z" fill="#5F86BF"/>
<path fill-rule="evenodd" clip-rule="evenodd" d="M201.813 28.4746C199.051 28.4746 196.813 30.7132 196.813 33.4746V50.52C196.813 53.2814 199.051 55.52 201.813 55.52H216.185C218.947 55.52 221.185 53.2814 221.185 50.52V34.2287L214.132 28.4746H201.813Z" fill="#DDEBF6"/>
<path d="M214.021 28.9751L214.126 28.4941L221.547 34.4812L220.327 34.8435C216.676 35.9282 213.201 32.695 214.021 28.9751Z" fill="#BFD7EC"/>
<path d="M201.802 39.6133H210.52" stroke="#BFD7EC" stroke-width="1.5" stroke-linecap="round"/>
<path d="M201.802 44.3867H214.126" stroke="#BFD7EC" stroke-width="1.5" stroke-linecap="round"/>
<path d="M223.279 27.7207L194.719 56.2792" stroke="#00368E" stroke-width="2" stroke-linecap="round"/>
</g>
<defs>
<clipPath id="clip0_3590_10732">
<rect width="417" height="129" fill="white" transform="translate(0.498962 0.5)"/>
</clipPath>
</defs>
</svg>
