<svg width="174" height="83" viewBox="0 0 174 83" fill="none" xmlns="http://www.w3.org/2000/svg">
<path fill-rule="evenodd" clip-rule="evenodd" d="M6 0C2.68629 0 0 2.68629 0 6V77C0 80.3137 2.68629 83 6 83H120.273C120.31 82.6431 120.386 82.2781 120.506 81.908L124.218 70.4529C124.885 68.3959 124.153 66.1435 122.406 64.8702L112.673 57.7801C108.761 54.93 110.777 48.7388 115.617 48.7388H127.618C129.786 48.7388 131.707 47.3421 132.375 45.2801L136.075 33.8627C137.569 29.2512 144.093 29.2511 145.588 33.8627L149.287 45.2801C149.956 47.3421 151.876 48.7388 154.044 48.7388H166.045C170.885 48.7388 172.902 54.93 168.989 57.7801L159.257 64.8702C157.509 66.1435 156.778 68.3959 157.445 70.4529L161.156 81.908C161.276 82.2781 161.353 82.6431 161.389 83H168C171.314 83 174 80.3137 174 77V6C174 2.68629 171.314 0 168 0H6ZM147.292 83L143.775 80.4383C142.021 79.1601 139.642 79.16 137.887 80.4383L134.371 83H147.292Z" fill="#F4F4F4"/>
<path d="M120.675 27.8631C122.168 23.2566 128.667 23.2566 130.16 27.8631L133.875 39.3277C134.543 41.3878 136.457 42.7826 138.618 42.7826H150.64C155.47 42.7826 157.479 48.9807 153.571 51.8277L143.845 58.9131C142.097 60.1863 141.366 62.4432 142.033 64.5033L145.748 75.9679C147.241 80.5744 141.983 84.405 138.075 81.558L128.349 74.4725C126.601 73.1993 124.234 73.1993 122.487 74.4725L112.761 81.558C108.853 84.405 103.595 80.5744 105.087 75.9678L108.802 64.5033C109.47 62.4432 108.738 60.1864 106.991 58.9131L97.2648 51.8277C93.3568 48.9806 95.3652 42.7826 100.196 42.7826H112.218C114.378 42.7826 116.293 41.3878 116.96 39.3277L120.675 27.8631Z" fill="white" fill-opacity="0.5"/>
<path d="M121.366 36.0967L107.321 26.2227" stroke="white" stroke-width="2" stroke-linecap="round"/>
<path d="M127.972 29.6788L118.384 16.4668" stroke="white" stroke-width="2" stroke-linecap="round"/>
<path d="M138.045 26.8359L133.731 11.8828" stroke="white" stroke-width="2" stroke-linecap="round"/>
</svg>
