<svg width="58" height="58" viewBox="0 0 58 58" fill="none" xmlns="http://www.w3.org/2000/svg">
<path opacity="0.5" d="M52.0264 8.00977L44.3293 14.3938" stroke="#4C95FF" stroke-width="3.15" stroke-linecap="round"/>
<path opacity="0.5" d="M51.0264 36.0098L43.6931 29.211" stroke="#4C95FF" stroke-width="3.15" stroke-linecap="round"/>
<path d="M45.0264 22.0098L54.9085 20.4788" stroke="#4C95FF" stroke-width="3.15" stroke-linecap="round"/>
<rect x="33.0244" y="0.00976562" width="5" height="48" rx="2.1" transform="rotate(-0.111156 33.0244 0.00976562)" fill="#5B5B5B"/>
<path d="M33.0244 3.97117L14.2363 12.9954C13.5071 13.3457 13.0439 14.0836 13.0455 14.8925L13.08 32.7055C13.0816 33.5337 13.5698 34.2836 14.3265 34.6202L33.1 42.9711L33.0244 3.97117Z" fill="url(#paint0_linear_8220_17177)"/>
<path d="M0.028484 15.11C0.0262362 13.9502 0.964614 13.0082 2.12441 13.0059L15.0244 12.9809L15.067 34.9808L2.16705 35.0059C1.00725 35.0081 0.0652289 34.0698 0.0629812 32.91L0.028484 15.11Z" fill="url(#paint1_linear_8220_17177)"/>
<path d="M3.02539 35.0098L14.1276 34.9882L20.0699 57.9767L8.96771 57.9983L3.02539 35.0098Z" fill="url(#paint2_linear_8220_17177)"/>
<defs>
<linearGradient id="paint0_linear_8220_17177" x1="23.0244" y1="3.99059" x2="23.1001" y2="42.9905" gradientUnits="userSpaceOnUse">
<stop stop-color="#96C1FF"/>
<stop offset="1" stop-color="#4C95FF"/>
</linearGradient>
<linearGradient id="paint1_linear_8220_17177" x1="7.5244" y1="12.9954" x2="7.56713" y2="34.9954" gradientUnits="userSpaceOnUse">
<stop stop-color="#D8EDFF"/>
<stop offset="1" stop-color="#C7D2F6"/>
</linearGradient>
<linearGradient id="paint2_linear_8220_17177" x1="8.5765" y1="34.999" x2="8.62177" y2="58.3079" gradientUnits="userSpaceOnUse">
<stop stop-color="#AEC2F9"/>
<stop offset="1" stop-color="#98C2FF" stop-opacity="0"/>
</linearGradient>
</defs>
</svg>
