<svg width="19" height="19" viewBox="0 0 19 19" fill="none" xmlns="http://www.w3.org/2000/svg">
<path d="M15.0409 3.16732H13.4575V2.37565C13.4575 2.16569 13.3741 1.96432 13.2256 1.81586C13.0772 1.66739 12.8758 1.58398 12.6659 1.58398C12.4559 1.58398 12.2545 1.66739 12.1061 1.81586C11.9576 1.96432 11.8742 2.16569 11.8742 2.37565V3.16732H7.12419V2.37565C7.12419 2.16569 7.04078 1.96432 6.89231 1.81586C6.74385 1.66739 6.54248 1.58398 6.33252 1.58398C6.12256 1.58398 5.92119 1.66739 5.77273 1.81586C5.62426 1.96432 5.54085 2.16569 5.54085 2.37565V3.16732H3.95752C3.32763 3.16732 2.72354 3.41754 2.27814 3.86294C1.83274 4.30834 1.58252 4.91243 1.58252 5.54232V15.0423C1.58252 15.6722 1.83274 16.2763 2.27814 16.7217C2.72354 17.1671 3.32763 17.4173 3.95752 17.4173H15.0409C15.6707 17.4173 16.2748 17.1671 16.7202 16.7217C17.1656 16.2763 17.4159 15.6722 17.4159 15.0423V5.54232C17.4159 4.91243 17.1656 4.30834 16.7202 3.86294C16.2748 3.41754 15.6707 3.16732 15.0409 3.16732ZM15.8325 15.0423C15.8325 15.2523 15.7491 15.4536 15.6006 15.6021C15.4522 15.7506 15.2508 15.834 15.0409 15.834H3.95752C3.74756 15.834 3.54619 15.7506 3.39773 15.6021C3.24926 15.4536 3.16585 15.2523 3.16585 15.0423V9.50065H15.8325V15.0423ZM15.8325 7.91732H3.16585V5.54232C3.16585 5.33235 3.24926 5.13099 3.39773 4.98253C3.54619 4.83406 3.74756 4.75065 3.95752 4.75065H5.54085V5.54232C5.54085 5.75228 5.62426 5.95364 5.77273 6.10211C5.92119 6.25058 6.12256 6.33398 6.33252 6.33398C6.54248 6.33398 6.74385 6.25058 6.89231 6.10211C7.04078 5.95364 7.12419 5.75228 7.12419 5.54232V4.75065H11.8742V5.54232C11.8742 5.75228 11.9576 5.95364 12.1061 6.10211C12.2545 6.25058 12.4559 6.33398 12.6659 6.33398C12.8758 6.33398 13.0772 6.25058 13.2256 6.10211C13.3741 5.95364 13.4575 5.75228 13.4575 5.54232V4.75065H15.0409C15.2508 4.75065 15.4522 4.83406 15.6006 4.98253C15.7491 5.13099 15.8325 5.33235 15.8325 5.54232V7.91732Z" fill="#898989"/>
</svg>
