<svg width="195" height="206" viewBox="0 0 195 206" fill="none" xmlns="http://www.w3.org/2000/svg">
  <path d="M32.8458 68.1477C33.4305 51.2181 51.4896 40.7565 66.3941 48.7132L77.7738 54.7882C84.4796 58.3681 92.5204 58.3681 99.2262 54.7882L110.606 48.7132C125.51 40.7565 143.57 51.2181 144.154 68.1477L144.601 81.0736C144.864 88.6905 148.884 95.6776 155.327 99.7146L166.26 106.565C180.58 115.538 180.58 136.462 166.26 145.435L155.327 152.285C148.884 156.322 144.864 163.31 144.601 170.926L144.154 183.852C143.57 200.782 125.51 211.244 110.606 203.287L99.2262 197.212C92.5204 193.632 84.4796 193.632 77.7738 197.212L66.3941 203.287C51.4896 211.244 33.4305 200.782 32.8458 183.852L32.3993 170.926C32.1363 163.31 28.1158 156.322 21.6731 152.285L10.7399 145.435C-3.57996 136.462 -3.57995 115.538 10.7399 106.565L21.6732 99.7146C28.1158 95.6776 32.1363 88.6905 32.3993 81.0736L32.8458 68.1477Z" fill="url(#paint0_radial_1945_11965)"/>
  <path d="M64 125.138L82.697 144.5L113 109.5" stroke="white" stroke-width="6" stroke-linecap="round" stroke-linejoin="round"/>
  <path d="M154.586 6L140 33.8036M189 20.1102L159.63 46" stroke="url(#paint1_radial_1945_11965)" stroke-width="12" stroke-linecap="round" stroke-linejoin="round"/>
  <defs>
    <radialGradient id="paint0_radial_1945_11965" cx="0" cy="0" r="1" gradientUnits="userSpaceOnUse" gradientTransform="translate(137.777 140.207) rotate(92.571) scale(191.305 213.148)">
      <stop offset="0.29142" stop-color="#C5D2FF"/>
      <stop offset="1" stop-color="#82B5FF"/>
    </radialGradient>
    <radialGradient id="paint1_radial_1945_11965" cx="0" cy="0" r="1" gradientUnits="userSpaceOnUse" gradientTransform="translate(178.142 29.5519) rotate(92.8466) scale(47.8372 58.9936)">
      <stop offset="0.29142" stop-color="#C5D2FF"/>
      <stop offset="1" stop-color="#82B5FF"/>
    </radialGradient>
  </defs>
</svg>
