<svg width="240" height="258" viewBox="0 0 240 258" fill="none" xmlns="http://www.w3.org/2000/svg">
<g clip-path="url(#clip0_1060_13429)">
<path d="M132.872 57.3906C133.145 55.2157 132.791 53.1223 132.301 51.029C131.566 47.9025 130.695 44.8033 129.607 41.7856C128.981 40.0728 128.164 38.4688 127.212 36.9192C123.157 30.5303 117.795 25.4737 111.427 21.4772C106.42 18.3508 100.922 17.209 95.0711 17.8071C92.7578 18.0517 90.5262 18.677 88.6212 20.1179C88.2946 20.3626 87.9408 20.5801 87.5598 20.7432C87.0155 20.9879 86.3896 20.716 86.0902 20.1723C85.8181 19.6829 85.8997 19.1936 86.3079 18.8401C86.9339 18.2964 87.5598 17.7527 88.2674 17.3449C90.1452 16.2302 92.1863 15.5506 94.3363 15.3331C100.65 14.6806 106.665 15.7681 112.162 19.0304C119.211 23.2444 125.035 28.7632 129.416 35.7502C130.614 37.6532 131.593 39.6378 132.246 41.7856C133.281 45.1567 134.451 48.5278 135.104 52.0077C135.567 54.4001 135.403 56.7653 135.322 59.1577C135.294 60.1908 134.26 60.8433 134.451 61.9308C134.614 62.8279 134.478 63.7523 134.342 64.6494C134.26 65.2203 134.097 65.7641 133.988 66.335C133.907 66.6884 134.07 66.8515 134.396 66.9331C134.968 67.3137 135.376 67.8302 135.376 68.5643C135.376 68.809 135.403 69.0536 135.403 69.2983C135.567 73.5938 135.784 77.8621 135.866 82.1575C135.948 86.5617 136.356 90.8844 137.798 95.0711C138.125 95.9683 138.206 96.8654 137.227 97.4635C136.791 97.7354 136.737 98.116 136.9 98.5238C138.397 102.276 140.629 105.484 143.976 107.849C144.03 107.876 144.139 107.876 144.194 107.876C144.575 107.631 144.629 107.196 144.765 106.816C145.446 104.777 146.344 102.819 147.269 100.889C147.514 100.372 147.786 99.8559 148.085 99.3666C149.12 97.7626 150.29 97.3548 152.086 98.0073C153.801 98.6054 153.801 98.6054 154.916 97.2189C155.025 97.0829 155.107 96.947 155.216 96.8382C156.767 95.2071 157.311 93.3312 157.202 91.0203C156.957 85.3927 157.556 79.8195 158.618 74.3006C158.835 73.1588 159.162 72.0713 159.951 71.1742C161.584 69.3255 163.843 69.5702 165.095 71.6907C165.53 72.4248 165.693 73.2132 165.693 74.056C165.693 75.1162 165.666 76.2037 165.693 77.264C165.857 82.1303 166.047 86.9967 166.238 91.8631C166.265 92.5972 166.483 93.3312 166.455 94.0652C166.401 95.5061 167.245 96.3489 168.415 96.5392C171.354 97.0285 173.205 98.986 175.082 100.971C175.708 101.623 176.362 102.276 176.987 102.928C178.348 104.369 179.029 106.054 179.137 108.039C179.491 113.721 179.6 119.43 179.464 125.112C179.382 127.885 179.818 130.522 180.852 133.105C182.24 136.639 183.601 140.174 184.961 143.708C185.016 144.007 185.125 144.17 185.451 144.034C185.615 144.034 185.778 144.007 185.941 144.034C187.302 144.306 187.656 145.013 187.003 146.073C186.377 147.079 185.506 147.867 184.499 148.411C183.192 149.118 181.859 149.798 180.498 150.341C176.47 151.918 172.307 152.87 168.007 153.332C166.864 153.441 165.693 153.522 164.55 153.169C163.924 152.978 163.543 152.516 163.571 151.918C163.598 151.374 163.87 150.994 164.387 150.803C164.768 150.668 165.231 150.776 165.585 150.233C164.686 145.91 163.816 141.451 162.319 137.156C161.638 135.198 160.577 133.431 159.461 131.691C157.529 128.701 155.325 125.928 152.875 123.345C150.916 121.279 149.337 118.995 147.977 116.521C147.704 116.032 147.541 115.434 147.024 115.108C145.418 116.113 145.418 116.141 143.649 115.678C141.01 114.999 138.37 114.319 135.757 113.585C134.832 113.34 134.097 113.232 133.498 114.292C133.117 114.972 132.382 114.944 131.784 114.455C131.539 114.238 131.294 114.02 131.103 113.748C130.614 113.069 130.096 113.041 129.416 113.476C128.763 113.884 128.11 113.612 127.62 113.123C126.667 112.199 125.742 111.274 124.844 110.296C123.347 108.637 121.905 106.952 120.435 105.266C120.272 105.076 120.054 104.967 119.891 104.831C119.292 104.994 119.455 105.484 119.455 105.837C119.374 108.066 119.755 110.296 120.081 112.498C120.735 116.82 120.462 121.061 119.673 125.303C118.802 129.924 117.795 134.519 116.788 139.113C115.373 145.584 114.557 152.108 113.931 158.688C113.305 165.104 112.788 171.52 112.461 177.936C112.434 178.425 112.407 178.914 112.407 179.431C112.434 180.301 112.679 180.6 113.632 180.6C115.782 180.627 117.904 180.6 119.973 180.6C120.435 179.975 119.864 179.811 119.7 179.512C119.319 178.833 119.564 178.262 119.836 177.637C121.061 175.027 122.313 172.417 123.456 169.752C125.987 163.826 128.491 157.899 130.967 151.973C131.212 151.374 131.539 150.776 131.512 149.988C131.131 149.471 130.423 149.417 129.824 149.281C127.838 148.764 125.824 148.302 123.81 147.813C123.483 147.731 123.157 147.704 122.83 147.595C122.177 147.405 121.578 147.133 121.469 146.345C121.388 145.72 121.742 145.23 122.585 144.904C124.572 144.116 126.613 143.382 128.6 142.62C131.131 141.642 131.022 141.995 130.804 139.304C130.287 133.377 129.77 127.45 128.464 121.632C128.219 120.599 127.892 119.566 127.647 118.533C127.565 118.234 127.538 117.881 127.593 117.582C127.674 117.174 128.001 116.875 128.409 116.712C128.845 116.548 129.226 116.712 129.552 116.983C130.015 117.391 130.205 117.935 130.341 118.506C130.831 120.599 131.403 122.665 131.729 124.786C132.655 130.414 133.199 136.068 133.526 141.778C133.607 143.191 133.444 143.463 132.11 144.034C131.049 144.496 129.96 144.877 128.872 145.285C128.491 145.421 128.083 145.584 128.028 146.127C129.443 146.78 131.022 146.916 132.519 147.324C135.05 147.976 135.267 148.302 134.288 150.722C130.858 159.041 127.457 167.36 123.701 175.543C122.939 177.174 122.313 178.86 121.116 180.301C121.633 180.872 122.231 180.709 122.776 180.709C128.137 180.736 133.526 180.709 138.887 180.709C147.895 180.709 156.903 180.709 165.911 180.709C167.925 180.709 168.224 180.736 167.734 178.534C166.156 171.71 164.714 164.832 163.217 157.981C163.108 157.491 162.999 157.002 163.026 156.513C163.054 155.969 163.435 155.615 163.952 155.507C164.387 155.425 164.768 155.588 165.067 155.915C165.476 156.377 165.585 156.948 165.693 157.491C166.292 160.156 166.945 162.793 167.517 165.457C168.415 169.562 169.286 173.695 170.157 177.8C170.265 178.289 170.402 178.751 170.51 179.241C170.864 180.518 171.027 180.627 172.415 180.681C172.905 180.709 173.395 180.681 173.912 180.681C175.327 180.681 176.715 180.654 178.13 180.681C182.403 180.763 184.58 182.938 184.417 187.179C184.199 192.861 183.9 198.57 183.628 204.252C183.383 209.771 183.138 215.29 182.893 220.836C182.866 221.244 182.893 221.652 182.92 222.059C182.948 222.413 183.192 222.657 183.546 222.685C183.954 222.685 184.39 222.685 184.771 222.603C188.608 221.815 192.228 220.428 195.521 218.308C199.603 215.698 201.481 211.81 201.835 207.107C202.079 204.116 201.698 201.18 201.045 198.271C199.304 190.795 197.344 183.373 195.085 176.033C194.759 174.918 194.405 173.83 194.106 172.716C194.024 172.417 193.942 172.063 193.969 171.737C193.969 171.193 194.323 170.813 194.84 170.65C195.385 170.487 195.847 170.677 196.119 171.139C196.337 171.465 196.446 171.9 196.582 172.281C199.467 181.579 202.188 190.931 204.039 200.5C204.692 203.844 204.61 207.243 203.848 210.587C202.95 214.665 200.719 217.818 197.317 220.156C193.643 222.657 189.588 224.234 185.234 225.077C182.049 225.702 182.621 225.512 182.485 228.339C182.213 233.858 181.913 239.377 181.641 244.896C181.532 246.962 181.505 249.028 181.451 251.095C181.423 251.747 181.451 252.427 181.342 253.079C180.934 256.07 178.865 257.973 175.872 258.163C175.3 258.19 174.701 258.163 174.13 258.163C133.961 258.163 93.792 258.163 53.623 258.163C52.6433 258.163 51.6363 258.217 50.6566 257.946C48.2073 257.293 46.656 255.58 46.4927 253.025C46.3022 250.469 46.1661 247.914 46.0845 245.358C45.9756 242.069 45.8396 238.752 45.5402 235.462C45.6491 235.136 45.6491 234.81 45.4858 234.484C45.1592 226.899 44.8598 219.313 44.5333 211.728C44.5333 211.565 44.5333 211.402 44.506 211.239C44.2067 208.412 44.5333 208.575 41.7029 208.276C41.2947 208.221 40.8865 208.221 40.4783 208.113C38.7637 207.678 37.8656 206.346 38.1106 204.606C38.2739 203.437 38.7365 202.376 39.2264 201.343C40.3966 198.978 41.5941 196.613 42.8459 194.302C43.363 193.323 43.6624 192.344 43.5535 191.23C43.4447 189.925 43.4447 188.593 43.3086 187.288C42.9276 183.4 45.7851 180.6 49.3231 180.709C49.8946 180.736 50.4661 180.654 51.0376 180.6C51.1192 180.6 51.1737 180.518 51.3097 180.41C51.0376 178.207 50.711 175.951 50.4661 173.695C49.0781 160.618 46.2478 147.813 42.601 135.171C42.3833 134.383 42.1111 133.594 41.8934 132.806C41.6757 131.99 41.9206 131.419 42.5194 131.148C43.1997 130.849 43.8529 131.175 44.2339 132.099C44.506 132.697 44.6965 133.323 44.8871 133.975C47.1459 141.397 48.8332 148.982 50.4116 156.567C51.854 163.527 52.6433 170.595 53.4597 177.637C53.5141 178.207 53.5686 178.778 53.5413 179.349C53.4869 180.654 53.4597 180.681 54.7932 180.709C57.5963 180.736 60.4267 180.709 63.2298 180.709C70.2512 180.709 77.2726 180.709 84.294 180.709C84.9472 180.709 85.6275 180.709 86.2807 180.681C87.1516 180.627 87.4237 180.328 87.3149 179.377C87.0971 177.338 86.8794 175.271 86.5801 173.232C85.7636 167.523 84.8655 161.814 84.0763 156.078C83.2326 149.852 82.4434 143.626 81.7086 137.401C81.2188 133.214 80.8105 129.027 80.4567 124.84C80.0757 120.219 80.1029 115.597 80.5384 111.002C80.7561 108.692 81.001 106.408 81.2188 104.097C82.0896 102.248 81.7358 100.644 80.3751 99.1491C79.8308 98.551 79.4498 97.7898 78.9599 97.1101C77.0821 94.3643 75.7486 91.3738 75.0954 88.1114C74.9321 87.2142 74.7144 86.3443 74.5239 85.4743C74.3606 84.7131 73.9524 84.1965 73.1632 83.8703C70.0607 82.6469 68.5639 80.0914 67.6114 77.0737C67.4209 76.4484 67.4753 75.959 67.9107 75.4968C68.4822 74.8715 69.1082 75.1434 69.7069 75.4153C70.1151 76.4756 70.4689 77.6174 70.986 78.6233C71.5031 79.6292 72.1562 80.6079 73.3809 80.9613C73.9796 80.2545 73.3809 79.4661 73.653 78.7864C73.8163 78.3786 74.0341 78.0524 74.4967 77.9436C75.041 77.8077 75.4764 77.998 75.803 78.433C76.1296 78.8408 76.1024 79.3573 76.184 79.8467C76.6739 82.5381 77.1093 85.2024 77.6536 87.8939C78.1435 90.2591 79.0416 92.4612 80.3207 94.5274C82.0624 97.3548 83.9947 100.019 86.1174 102.547C86.4984 102.982 86.9611 103.363 87.0971 103.961C87.2332 104.478 87.0971 104.94 86.6617 105.266C86.3079 105.538 85.8997 105.619 85.5187 105.402C85.1649 105.212 84.8655 104.913 84.4845 104.722C84.158 104.559 83.8042 104.641 83.7497 105.076C83.5864 106.218 83.4504 107.359 83.3143 108.501C82.8244 113.504 82.3618 118.533 82.8789 123.563C83.151 126.2 83.4504 128.81 83.5048 131.447C83.5592 133.105 84.2124 134.274 85.437 135.226C85.9541 135.633 86.444 136.068 86.9883 136.449C91.0977 139.521 95.6698 141.886 100.106 144.415C100.786 144.795 101.33 144.632 101.929 144.279C104.297 142.919 106.583 141.424 108.76 139.793C110.747 138.298 112.597 136.639 114.257 134.791C114.883 134.111 115.319 133.35 115.482 132.425C115.836 130.468 116.326 128.565 116.707 126.607C117.605 121.959 118.013 117.283 117.387 112.579C117.115 110.622 116.979 108.637 116.761 106.68C116.761 106.571 116.544 106.462 116.326 106.245C115.537 107.033 114.747 107.849 113.931 108.637C112.053 110.431 110.012 111.954 107.508 112.688C102.038 114.265 96.8945 113.504 92.1319 110.323C91.7781 110.105 91.4515 109.833 91.1794 109.534C90.7984 109.127 90.7711 108.664 91.0433 108.175C91.3154 107.686 91.8053 107.495 92.2952 107.631C92.7578 107.74 93.2205 108.012 93.6015 108.284C96.5951 110.377 99.9153 111.002 103.48 110.839C105.957 110.731 108.161 109.942 110.148 108.474C111.971 107.142 113.468 105.511 114.911 103.798C117.578 100.617 119.537 96.9742 121.224 93.1953C123.701 87.5676 125.416 81.7225 125.633 75.524C125.633 75.1978 125.66 74.8715 125.742 74.5453C125.878 73.9744 126.477 73.485 126.994 73.5394C127.538 73.5938 127.892 73.92 128.11 74.4094C128.355 74.9531 128.028 75.6871 128.627 76.2581C129.416 74.9531 129.552 73.5394 129.77 72.1801C130.042 70.3042 130.45 68.4283 131.103 66.6612C131.757 64.8941 131.512 62.8823 132.627 61.2239C132.9 60.8433 132.328 60.2452 131.811 60.3268C131.022 60.4355 130.45 60.7617 130.069 61.523C129.198 63.3173 128.681 65.2203 128.246 67.1778C128.137 67.7487 128.028 68.3196 127.865 68.8633C127.674 69.4614 127.076 69.8964 126.586 69.842C126.041 69.7605 125.66 69.4342 125.497 68.9449C125.116 67.8574 124.953 66.7156 124.926 65.5466C124.871 63.1542 125.007 60.7617 125.225 58.3693C125.633 54.0739 124.109 50.4309 121.524 47.1413C121.17 46.7063 120.816 46.4888 120.272 46.8966C119.646 47.3316 119.047 47.1957 118.421 46.8151C115.999 45.347 113.332 44.4498 110.638 43.6342C107.78 42.7643 104.923 41.9487 102.092 41.1059C100.024 40.5078 98.0103 39.8009 96.0236 38.931C92.8122 37.5173 90.2268 35.4511 88.6756 32.2431C88.8117 31.5634 89.0294 30.9653 89.8458 30.8566C90.5262 30.775 90.9072 31.21 91.2338 31.6994C91.3699 31.9169 91.5059 32.1072 91.642 32.3247C92.5945 33.8199 93.8736 34.9346 95.4521 35.7773C97.1938 36.7017 98.99 37.5445 100.895 38.1154C106.637 39.8553 112.516 41.2146 117.986 43.6342C118.176 43.4711 118.312 43.3624 118.421 43.2536C119.483 42.0574 119.891 42.0031 121.061 42.873C122.123 43.6886 122.939 44.7489 123.728 45.782C126.422 49.3706 128.11 53.3126 127.865 57.9072C127.838 58.4781 127.865 59.0218 127.865 59.6743C129.96 58.0703 129.96 58.0703 131.838 58.0431C132.165 58.315 132.192 58.8859 132.791 58.9946C132.872 58.315 132.872 57.8528 132.872 57.3906ZM165.639 117.881L165.666 117.853C164.686 117.473 163.707 118.125 162.754 117.908C161.584 117.636 160.523 117.881 159.407 118.316C157.556 119.022 155.733 118.125 154.944 116.277C154.753 115.842 154.59 115.325 154.535 114.863C154.426 113.857 154.345 112.987 153.093 112.579C152.195 112.307 151.814 111.329 151.514 110.459C151.188 109.426 151.025 108.365 151.188 107.278C151.406 105.728 151.623 104.179 151.868 102.629C151.95 102.031 151.977 101.487 151.651 100.971C151.324 100.427 150.589 100.291 150.208 100.753C150.099 100.889 149.99 100.998 149.909 101.161C148.902 103.146 147.977 105.185 147.269 107.305C146.915 108.393 147.078 109.398 147.623 110.404C148.63 112.199 149.609 114.02 150.589 115.842C151.651 117.799 152.93 119.621 154.481 121.252C156.631 123.535 158.618 125.982 160.441 128.538C163.081 132.208 165.067 136.15 166.074 140.581C166.755 143.572 167.408 146.535 168.088 149.526C168.333 150.559 168.605 150.776 169.667 150.586C173.341 149.934 176.96 149.064 180.417 147.65C181.097 147.378 181.777 147.052 182.458 146.725C182.893 146.535 183.056 146.182 182.92 145.72C182.757 145.176 182.567 144.632 182.349 144.088C181.179 140.989 180.036 137.89 178.811 134.845C177.505 131.583 176.851 128.239 177.015 124.704C177.232 119.349 176.879 113.966 176.688 108.61C176.634 106.979 176.117 105.538 174.892 104.423C174.538 104.097 174.184 103.689 173.749 103.499C173.15 103.227 172.987 103.961 172.579 104.179C172.198 104.369 171.817 104.423 171.381 104.342C170.565 104.206 169.748 104.124 168.932 104.015C167.408 103.825 166.183 104.26 165.285 105.592C164.795 106.354 164.197 107.033 163.652 107.794C162.101 109.969 161.992 112.389 162.482 114.89C162.591 115.407 162.999 115.488 163.435 115.461C163.979 115.434 164.36 115.135 164.605 114.673C165.095 113.775 165.34 112.824 165.231 111.818C165.176 111.22 165.231 110.622 165.748 110.241C166.7 109.562 167.435 108.692 168.115 107.74C168.578 107.06 169.503 107.142 170.021 107.794C170.129 107.93 170.238 108.066 170.293 108.202C170.81 109.317 171.164 110.513 171.953 111.492C172.252 111.872 172.143 112.47 171.762 112.851C171.381 113.259 170.864 113.313 170.402 113.041C169.993 112.797 169.639 112.443 169.258 112.117C168.415 111.383 168.061 111.465 167.871 112.634C167.653 114.047 167.136 115.325 166.537 116.603C166.646 116.929 166.537 117.201 166.374 117.5C165.993 117.255 165.666 117.31 165.639 117.881ZM128.953 110.431C128.981 110.513 129.008 110.595 129.035 110.649C129.062 110.676 129.198 110.676 129.198 110.676C129.253 110.486 129.171 110.404 128.953 110.431C129.09 109.861 128.953 109.29 128.79 108.746C127.076 103.526 127.375 98.1976 128.055 92.8418C128.11 92.5156 128.219 92.2165 128.327 91.8903C128.572 91.2922 129.144 90.966 129.715 91.1291C130.287 91.265 130.532 91.7 130.505 92.2437C130.45 93.5487 130.423 94.8808 130.233 96.1858C129.634 100.264 130.124 104.206 131.212 108.148C131.512 109.208 132.001 109.833 133.145 110.132C137.145 111.166 141.091 112.28 145.065 113.368C145.337 113.449 145.691 113.585 145.935 113.096C144.792 112.09 143.622 111.057 142.425 110.051C140.901 108.773 139.513 107.387 138.234 105.864C136.356 103.635 135.104 101.025 133.988 98.3607C132.246 94.174 130.94 89.8241 130.096 85.3655C129.988 84.7131 129.879 84.0606 130.069 83.4081C130.233 82.8644 130.858 82.4022 131.376 82.4566C131.92 82.511 132.274 82.8916 132.355 83.4081C132.546 84.4684 132.709 85.5287 132.9 86.5617C132.954 86.9695 133.008 87.3773 133.417 87.622C133.417 87.8667 133.417 88.1114 133.471 88.3289C133.498 88.4376 133.58 88.5192 133.634 88.6279C133.689 88.492 133.798 88.3289 133.743 88.2201C133.662 88.0026 133.526 87.8395 133.389 87.6492C133.498 83.979 133.008 73.621 132.6 71.6364C132.328 72.9685 132.138 74.0831 131.893 75.1978C131.457 77.1008 130.641 78.8136 128.953 79.901C128.028 80.4992 127.647 81.2876 127.457 82.2935C126.858 85.5287 125.905 88.6823 124.681 91.7544C123.592 94.4458 122.34 97.0285 120.952 99.5569C120.381 100.59 120.462 101.324 121.224 102.194C123.538 104.885 125.769 107.631 128.3 110.105C128.491 110.241 128.736 110.323 128.953 110.431ZM51.7452 255.254C52.7521 255.771 53.8407 255.553 54.9021 255.553C94.4179 255.553 133.961 255.553 173.477 255.553C174.212 255.553 174.974 255.58 175.708 255.526C176.008 255.499 176.307 255.308 176.606 255.2C178.022 255.091 178.593 254.139 178.784 252.889C178.947 251.829 179.001 250.741 179.056 249.681C179.573 239.051 180.063 228.421 180.553 217.791C181.042 207.569 181.505 197.347 181.995 187.125C182.022 186.717 182.049 186.282 181.995 185.901C181.777 184.352 180.798 183.373 179.219 183.21C178.484 183.128 177.722 183.155 176.987 183.155C167.816 183.155 158.645 183.155 149.473 183.155C116.761 183.155 84.0219 183.155 51.3097 183.155C50.4116 183.155 49.4863 183.128 48.5883 183.21C47.1731 183.373 46.2206 184.406 46.0845 185.847C46.0301 186.418 46.0573 186.989 46.0845 187.587C46.275 192.616 46.4927 197.646 46.7104 202.675C46.8737 206.481 47.0642 210.26 47.2275 214.039C47.6902 223.854 48.1528 233.668 48.6427 243.455C48.7788 246.418 48.9421 249.382 49.0781 252.345C49.1053 253.106 49.3231 253.813 49.8401 254.384C50.3028 254.982 50.9015 255.363 51.7452 255.254ZM99.752 180.518C100.324 180.518 100.895 180.518 101.494 180.518C103.725 180.518 105.957 180.546 108.189 180.518C109.549 180.491 109.685 180.355 109.821 178.942C109.93 177.718 110.039 176.468 110.121 175.244C110.801 164.125 111.645 153.033 113.632 142.049C113.713 141.56 113.768 141.071 113.768 140.581C113.795 140.038 113.223 139.739 112.733 140.038C112.244 140.364 111.808 140.717 111.345 141.071C108.542 143.273 105.576 145.176 102.473 146.916C101.494 147.46 100.677 147.432 99.6976 146.861C95.2071 144.252 90.5806 141.886 86.3351 138.841C86.0086 138.597 85.6548 138.379 85.2738 138.243C85.0833 138.162 84.7567 138.27 84.7567 138.597C84.7567 139.249 84.7567 139.902 84.8383 140.554C85.4098 145.04 85.9541 149.553 86.5801 154.039C87.2876 159.177 88.1041 164.315 88.8389 169.453C89.3015 172.716 89.7098 175.978 90.1996 179.241C90.3629 180.355 90.5262 180.464 91.642 180.491C94.3091 180.546 97.0305 180.518 99.752 180.518ZM165.966 98.986C165.884 98.986 165.612 99.0132 165.367 98.986C163.516 98.6869 162.373 99.6656 161.502 101.079C160.822 102.194 160.223 103.39 159.516 104.505C157.719 107.223 157.23 110.296 156.876 113.422C156.821 114.02 156.903 114.564 157.121 115.108C157.366 115.706 157.91 116.032 158.481 115.923C159.107 115.814 159.57 115.461 159.706 114.863C159.815 114.401 159.788 113.884 159.761 113.395C159.516 110.078 160.577 107.223 162.727 104.75C162.999 104.423 163.298 104.151 163.516 103.798C164.741 101.949 166.51 101.324 168.66 101.46C169.476 101.514 170.32 101.514 171.136 101.514C171.463 101.514 171.653 101.079 171.463 100.78C171.055 100.128 170.456 99.72 169.748 99.421C168.578 98.9588 167.353 99.0132 165.966 98.986ZM163.462 93.4399C163.87 93.0321 163.788 92.6243 163.788 92.2165C163.707 90.3407 163.598 88.4376 163.543 86.5617C163.435 82.8644 163.353 79.167 163.244 75.4697C163.217 74.7356 163.353 73.9744 163.081 73.2675C162.972 72.9685 162.754 72.6694 162.373 72.7238C162.155 72.751 161.883 72.8869 161.747 73.0501C161.312 73.5666 161.23 74.2463 161.094 74.8987C160.196 79.6836 159.733 84.4956 159.679 89.3348C159.679 90.1504 159.679 90.966 159.733 91.8087C159.733 92.135 159.869 92.5156 160.25 92.5156C161.421 92.5428 162.4 93.2768 163.462 93.4399ZM163.217 96.4576C162.673 96.1042 162.482 95.9683 162.264 95.8324C160.196 94.7721 159.897 94.7993 158.536 96.5392C157.556 97.7626 156.631 99.0132 155.733 100.291C153.801 103.01 153.692 106.109 153.828 109.262C153.828 109.426 153.909 109.589 153.991 109.725C154.127 109.888 154.345 110.16 154.508 110.16C154.699 110.132 154.971 109.888 154.998 109.697C155.27 106.979 156.685 104.75 157.937 102.439C158.1 102.14 158.264 101.868 158.4 101.569C159.516 99.5841 160.686 97.5995 163.217 96.4576ZM44.1795 202.023C44.1523 202.023 44.0978 202.023 44.0706 202.023C44.0706 201.044 44.0706 200.038 44.0706 199.06C44.0706 198.815 44.0162 198.543 43.6896 198.57C43.5535 198.57 43.363 198.706 43.3086 198.842C42.6282 200.174 41.9479 201.479 41.3219 202.838C40.9953 203.573 40.2878 204.388 40.8048 205.149C41.4308 206.101 42.601 205.666 43.5535 205.666C43.9345 205.666 44.1523 205.394 44.1795 205.041C44.1795 203.98 44.1795 203.002 44.1795 202.023Z" fill="#7E8389"/>
<path d="M113.686 139.303C113.659 139.357 113.604 139.411 113.604 139.466C113.632 139.52 113.713 139.629 113.741 139.629C113.931 139.547 113.958 139.439 113.822 139.33C113.822 139.303 113.741 139.33 113.686 139.303Z" fill="#7E8389"/>
<path d="M44.5335 235.789C43.962 236.17 43.336 236.251 42.6557 236.197C39.3627 235.925 36.0697 235.626 32.7767 235.463C27.9869 235.218 23.2243 234.865 18.4617 234.348C16.1485 234.103 13.8897 233.668 11.6853 232.989C10.1068 232.499 8.61 231.82 7.19483 230.923C2.86769 228.204 0.663291 224.316 0.527217 219.205C0.418358 214.611 1.34366 210.179 2.84047 205.884C7.79356 191.72 12.9916 177.637 18.2168 163.527C21.5098 154.637 24.9389 145.775 28.6673 137.048C29.0211 136.205 29.3749 135.362 29.7831 134.574C29.9192 134.302 30.1641 134.03 30.4362 133.867C30.79 133.622 31.2255 133.649 31.6065 133.867C32.0147 134.084 32.2596 134.465 32.1508 134.873C31.9875 135.58 31.7425 136.286 31.4432 136.966C24.9389 151.973 19.4415 167.361 13.8352 182.721C10.896 190.795 8.01128 198.87 5.12651 206.944C3.76577 210.696 3.13983 214.584 3.08541 218.58C3.00376 224.044 5.61638 227.633 10.4606 229.808C13.2909 231.086 16.3118 231.575 19.3598 231.874C26.4357 232.635 33.5115 233.016 40.6146 233.424C41.431 233.478 42.2747 233.56 43.0911 233.614C43.6898 233.668 44.2341 233.832 44.6423 234.294C44.6151 234.81 44.5879 235.3 44.5335 235.789Z" fill="#7E8389"/>
<path d="M63.9104 49.5603C62.8491 53.0402 62.1415 56.5744 61.4611 60.1359C60.6447 64.241 59.8827 68.3734 59.2023 72.5057C58.8485 74.5991 58.7669 76.774 58.4675 78.8674C58.0048 82.1569 58.0321 85.4465 58.0321 88.7361C58.0321 90.476 58.1681 92.1888 58.3586 93.9015C58.7396 97.3542 58.7669 100.834 58.4403 104.26C58.1681 106.869 57.6511 109.479 56.372 111.845C56.1542 112.28 56.0454 112.769 55.8821 113.231L55.9365 113.313C55.6372 113.367 55.4739 113.557 55.4739 113.856H55.5011C55.1745 113.911 55.0384 114.128 54.9296 114.4C53.5961 115.923 52.2897 117.499 50.8746 118.995C50.2214 119.702 49.405 120.272 48.5885 120.843C48.2075 121.115 47.7177 121.278 47.255 121.387C46.6291 121.55 46.0576 121.251 45.8126 120.735C45.5677 120.218 45.7038 119.593 46.2753 119.239C47.4183 118.56 48.4525 117.798 49.3778 116.874C50.8474 116.303 51.5822 115.107 52.0176 113.693C54.0043 111.437 55.1745 108.827 55.6644 105.836C56.1542 102.9 56.0998 99.9913 55.991 97.0823C56.0182 95.9133 56.1815 94.7171 55.6372 93.6025C55.6099 92.7869 55.5827 91.9441 55.5555 91.1285C55.2289 83.8425 55.9365 76.6381 57.1068 69.488C58.4947 61.033 60.2909 52.6596 62.5225 44.3949C63.6111 40.4257 64.7269 36.4564 66.4686 32.7047C68.2648 28.8442 70.6325 25.3915 73.7894 22.5369C75.4495 21.0145 77.3001 19.8183 79.4501 19.1114C80.7292 18.7036 82.0355 18.6221 83.369 18.758C83.9949 18.8396 84.4304 19.3289 84.4304 19.927C84.4304 20.5251 84.0221 21.0417 83.4234 21.1504C83.1785 21.1776 82.9336 21.2048 82.6886 21.1776C80.1304 21.0145 78.0621 22.1835 76.1843 23.7331C74.4426 25.1468 73.0002 26.8324 71.6939 28.6539C69.1629 32.2697 67.3667 36.2117 66.3598 40.5344C65.8971 40.9422 65.8427 41.5675 65.7338 42.084C65.2984 44.0686 64.2915 45.9173 64.4003 48.0379L64.4275 48.0107C63.8288 48.3369 63.9649 48.9894 63.9104 49.5603Z" fill="#7E8389"/>
<path d="M71.9933 146.018C71.068 145.094 70.1699 144.876 69.3807 144.469C68.3465 143.952 67.3123 143.463 66.2782 142.946C65.4345 142.538 65.1079 141.859 65.244 140.934C65.5978 138.651 66.0877 136.394 66.7136 134.165C67.9383 129.706 69.6256 125.411 71.3129 121.115C71.449 120.735 71.6395 120.354 71.8572 120.001C72.1838 119.484 72.8097 119.267 73.354 119.484C73.8983 119.702 74.2521 120.3 74.0888 120.871C73.8711 121.578 73.5989 122.284 73.3268 122.964C71.5578 127.395 69.8705 131.881 68.7547 136.53C68.537 137.4 68.3193 138.297 68.156 139.194C67.8294 140.798 67.8294 140.826 69.4351 141.614C71.5034 142.62 73.5989 143.599 75.6945 144.605C76.2116 144.849 76.7286 145.121 77.2457 145.393C77.7084 145.665 77.9533 146.073 77.8989 146.616C77.8717 147.187 77.5179 147.514 77.0008 147.677C76.4565 147.84 75.885 147.948 75.3135 148.057C73.0547 148.465 70.7686 148.873 68.5098 149.308C67.5845 149.498 67.4484 149.77 67.6389 150.722C68.5914 155.669 70.0066 160.481 71.7211 165.212C73.1091 169.018 74.6059 172.77 76.2932 176.44C76.5381 176.956 76.7559 177.5 76.8647 178.071C76.9736 178.588 76.7559 179.05 76.2116 179.267C75.7217 179.485 75.2046 179.458 74.8508 179.05C74.5787 178.751 74.361 178.397 74.1977 178.017C70.3876 169.589 67.0946 160.971 65.244 151.863C65.0535 150.885 64.8902 149.906 64.7542 148.927C64.6181 147.894 64.9991 147.378 66.006 147.16C67.4484 146.861 68.918 146.616 70.3876 146.344C70.7958 146.263 71.1768 146.181 71.9933 146.018Z" fill="#7E8389"/>
<path d="M52.0447 113.668C51.6093 115.108 50.8745 116.278 49.4049 116.848C49.296 116.114 49.5137 115.353 49.1872 114.646C49.1327 114.51 48.9694 114.429 48.8334 114.347C48.5612 114.211 48.3435 114.374 48.2074 114.565C48.0714 114.755 48.0714 115.027 47.9897 115.272C47.391 116.658 46.9556 116.794 45.622 115.87C45.1322 115.516 44.7239 115.516 44.2613 115.761C41.7847 117.066 39.8253 118.887 38.6278 121.443C37.6209 123.618 36.6412 125.793 35.607 127.941C35.3621 128.457 35.0627 128.974 34.7089 129.409C34.3551 129.816 33.838 129.844 33.3482 129.599C32.8311 129.354 32.6678 128.892 32.7767 128.348C32.8583 127.941 33.0216 127.56 33.1849 127.206C34.1102 125.167 35.0627 123.183 35.9608 121.144C37.6209 117.338 40.5057 114.728 44.1796 112.961C44.5606 112.77 44.9417 112.635 45.3227 112.471C45.7309 112.281 45.9486 111.982 46.0575 111.547C46.2752 110.677 46.4657 109.78 46.7378 108.91C48.2346 104.18 50.1669 99.6394 52.5074 95.2623C52.6707 94.9633 52.8339 94.6914 52.9972 94.3924C53.4327 93.6311 54.0858 93.4408 54.9023 93.6311C55.3377 94.5011 55.2016 95.3167 54.739 96.1867C53.8681 97.8451 52.97 99.5034 52.2624 101.216C51.4188 103.228 50.303 105.158 50.0308 107.388H50.0852C49.1599 108.393 49.0511 109.726 48.8062 110.976C48.7245 111.357 49.2688 111.302 49.5682 111.221C49.8131 111.221 50.058 111.221 50.303 111.221C51.8814 111.085 52.1264 111.302 52.1264 112.906C52.1264 113.178 52.0719 113.423 52.0447 113.668Z" fill="#7E8388"/>
<path d="M149.202 176.793C150.1 166.653 151.161 156.839 153.284 147.16C153.883 144.414 154.672 141.723 155.407 139.031C155.624 138.243 155.978 137.482 156.332 136.748C156.604 136.204 157.312 136.041 157.829 136.313C158.319 136.557 158.563 136.992 158.536 137.509C158.509 137.917 158.319 138.297 158.21 138.705C156.277 144.414 155.162 150.341 154.209 156.268C153.093 163.173 152.413 170.16 151.76 177.12C151.705 177.609 151.651 178.126 151.46 178.561C151.243 179.023 150.78 179.295 150.236 179.213C149.691 179.131 149.31 178.778 149.256 178.234C149.147 177.663 149.202 177.093 149.202 176.793Z" fill="#7E8388"/>
<path d="M205.863 9.89637C205.89 10.3857 205.808 10.8751 205.536 11.3101C205.019 12.1529 204.529 12.9956 203.985 13.8384C199.957 20.0369 195.929 26.2626 191.901 32.4612C191.493 33.0865 191.167 33.7389 190.758 34.3642C190.486 34.7992 190.078 35.0439 189.534 35.1255C188.418 35.2886 187.792 34.6905 187.928 33.5758C188.01 32.8146 188.418 32.1893 188.799 31.564C192.146 26.3986 195.494 21.206 198.841 16.0405C200.148 14.0287 201.427 12.0441 202.706 10.0323C202.923 9.67888 203.141 9.32545 203.413 9.0264C203.821 8.56423 204.339 8.26518 204.937 8.53704C205.59 8.75454 205.863 9.27108 205.863 9.89637Z" fill="#00368E"/>
<path d="M174.593 26.834C174.783 25.2844 174.947 23.4901 175.219 21.7229C175.545 19.548 175.817 17.3459 176.171 15.171C176.471 13.3223 176.389 11.3921 176.933 9.57056C177.124 8.94527 177.097 8.26561 177.124 7.61313C177.151 6.85191 177.423 6.17224 177.831 5.54696C178.185 5.00322 178.757 4.86729 179.355 4.97604C179.954 5.0576 180.444 5.49258 180.471 6.11787C180.526 7.01503 180.553 7.93937 180.417 8.80934C180.281 9.62493 180.172 10.4405 180.008 11.2289C179.41 14.2738 179.328 17.4003 178.675 20.4724C178.131 22.9463 177.913 25.5019 177.614 28.003C177.532 28.6827 177.341 29.2808 176.797 29.7158C176.008 30.3954 174.892 30.0692 174.674 29.0633C174.647 28.9002 174.62 28.737 174.62 28.5739C174.566 28.0574 174.593 27.568 174.593 26.834Z" fill="#00368E"/>
<path d="M221.674 38.6871C221.647 39.2308 221.457 39.5571 221.157 39.8561C220.64 40.3999 219.933 40.6717 219.279 40.998C215.388 42.9554 211.469 44.9128 207.577 46.8703C206.488 47.414 205.4 48.0393 204.311 48.6374C203.522 49.0724 202.787 48.8277 202.216 47.9849C201.78 47.3596 201.889 46.5984 202.624 46.0547C203.141 45.6469 203.74 45.3478 204.311 45.0488C208.502 42.9282 212.693 40.8349 216.884 38.7143C217.755 38.2793 218.599 37.7356 219.47 37.3006C220.558 36.7841 221.674 37.5725 221.674 38.6871Z" fill="#00368E"/>
<path d="M194.106 164.288C194.106 165.104 193.725 165.674 193.18 165.756C192.636 165.838 192.201 165.566 191.956 165.131C191.765 164.777 191.629 164.369 191.493 163.989C190.078 159.258 188.69 154.528 187.275 149.77C187.166 149.39 187.057 148.982 187.03 148.574C186.975 147.949 187.329 147.378 187.874 147.215C188.391 147.052 189.044 147.324 189.316 147.894C189.479 148.275 189.588 148.656 189.724 149.063C191.085 153.631 192.446 158.225 193.806 162.793C193.942 163.336 194.024 163.907 194.106 164.288Z" fill="#80858A"/>
<path d="M50.0034 107.441C50.2756 105.212 51.3914 103.282 52.235 101.27C52.9698 99.5572 53.8407 97.8988 54.7116 96.2405C55.1742 95.3705 55.2831 94.5549 54.8749 93.6849C55.147 93.6577 55.3919 93.6034 55.6641 93.5762C56.2084 94.6908 56.0451 95.887 56.0179 97.0561C53.9496 99.8835 52.4255 103.037 51.092 106.245C50.8471 106.789 50.6294 107.278 50.0034 107.441Z" fill="#E8E7E7"/>
<path d="M64.4276 47.9839C64.3187 45.8906 65.3257 44.0147 65.7611 42.0301C65.8972 41.4864 65.9244 40.8883 66.3871 40.4805C66.4959 41.0242 66.3054 41.6767 66.9041 42.0573C66.2782 43.7972 65.6523 45.5372 64.9991 47.2771C64.9175 47.549 64.6181 47.7393 64.4276 47.9839Z" fill="#E8E7E7"/>
<path d="M131.92 57.8528C131.92 57.6897 131.947 57.5537 131.947 57.3906C132.246 57.3906 132.546 57.3906 132.872 57.3906C132.872 57.8528 132.872 58.315 132.872 58.8043C132.274 58.6956 132.246 58.1247 131.92 57.8528Z" fill="#E8E7E7"/>
<path d="M44.5337 235.788C44.5609 235.299 44.5881 234.81 44.6153 234.32C44.9147 234.32 45.2141 234.347 45.5134 234.347C45.6767 234.674 45.6495 235 45.5678 235.326C45.2413 235.489 44.8875 235.625 44.5337 235.788Z" fill="#E8E7E7"/>
<path d="M134.397 66.9067C134.07 66.8523 133.907 66.662 133.989 66.3086C134.125 66.5261 134.261 66.7164 134.397 66.9067Z" fill="#E8E7E7"/>
<path d="M185.506 143.953C185.179 144.089 185.071 143.926 185.016 143.627C185.179 143.736 185.343 143.844 185.506 143.953Z" fill="#E8E7E7"/>
<path d="M55.4736 113.856C55.5008 113.557 55.6369 113.367 55.9363 113.312C55.9363 113.639 55.773 113.802 55.4736 113.856Z" fill="#00368E"/>
<path d="M54.9297 114.374C55.0113 114.102 55.1746 113.884 55.5012 113.83C55.4468 114.156 55.229 114.319 54.9297 114.374Z" fill="#00368E"/>
<path d="M176.606 255.173C176.307 255.281 176.008 255.499 175.708 255.499C174.974 255.58 174.212 255.553 173.477 255.553C133.961 255.553 94.4179 255.553 54.9021 255.553C53.8407 255.553 52.7521 255.798 51.7452 255.254C51.2281 254.112 50.9832 252.916 51.0648 251.638C51.092 250.986 51.1737 250.279 51.0104 249.654C50.3572 246.962 50.6838 244.244 50.5749 241.525C50.5477 240.791 50.6566 240.002 50.4661 239.296C50.0851 237.991 50.1395 236.686 50.1123 235.354C50.0851 233.369 50.33 231.357 49.9762 229.427C49.4863 226.627 49.6769 223.826 49.568 221.053C49.5408 220.401 49.6496 219.694 49.4591 219.069C49.0237 217.601 49.1326 216.133 49.1053 214.637C49.0781 212.653 49.2142 210.641 48.9421 208.711C48.7243 207.134 48.6427 205.612 48.6155 204.035C48.5883 202.295 48.7788 200.528 48.4794 198.842C47.9079 195.553 48.1528 192.263 48.1256 188.973C48.1256 186.907 49.6769 185.439 51.718 185.249C52.2895 185.194 52.861 185.222 53.4597 185.222C94.0641 185.222 134.641 185.222 175.246 185.222C175.817 185.222 176.416 185.194 176.987 185.249C178.92 185.439 180.471 186.853 180.553 188.756C180.661 190.985 180.716 193.242 180.444 195.444C180.226 197.102 180.144 198.706 180.117 200.365C180.09 202.023 180.308 203.708 180.008 205.312C179.464 208.357 179.682 211.402 179.573 214.447C179.546 214.936 179.627 215.48 179.491 215.915C179.029 217.275 179.165 218.688 179.137 220.102C179.11 221.842 179.328 223.609 179.029 225.295C178.484 228.258 178.729 231.221 178.593 234.185C178.566 234.837 178.675 235.544 178.512 236.169C178.049 237.719 178.185 239.268 178.13 240.845C178.076 242.585 178.267 244.352 177.967 246.038C177.695 247.696 177.586 249.327 177.641 250.959C177.641 252.454 177.396 253.868 176.606 255.173Z" fill="#00368E"/>
<path d="M133.444 87.6224C133.063 87.3777 133.009 86.9699 132.927 86.5621C132.764 85.5018 132.601 84.4416 132.383 83.4085C132.274 82.8647 131.947 82.5113 131.403 82.4569C130.886 82.4026 130.26 82.8919 130.097 83.4085C129.906 84.061 130.015 84.7134 130.124 85.3659C130.968 89.8245 132.247 94.1472 134.016 98.3611C135.132 101.025 136.356 103.608 138.261 105.865C139.54 107.387 140.928 108.801 142.452 110.051C143.65 111.057 144.793 112.09 145.963 113.096C145.718 113.585 145.364 113.45 145.092 113.368C141.119 112.308 137.145 111.166 133.172 110.133C132.056 109.834 131.539 109.208 131.24 108.148C130.151 104.206 129.661 100.264 130.26 96.1861C130.451 94.8812 130.478 93.549 130.532 92.2441C130.559 91.7276 130.315 91.2926 129.743 91.1294C129.172 90.9935 128.6 91.3197 128.355 91.8907C128.246 92.1897 128.11 92.516 128.083 92.8422C127.403 98.1708 127.076 103.499 128.818 108.746C129.008 109.29 129.117 109.861 128.981 110.459C128.763 110.35 128.518 110.269 128.355 110.106C125.824 107.632 123.565 104.886 121.279 102.194C120.517 101.324 120.436 100.59 121.007 99.5573C122.395 97.0289 123.647 94.4462 124.736 91.7547C125.96 88.6827 126.913 85.529 127.511 82.2938C127.702 81.2607 128.056 80.4995 129.008 79.9014C130.696 78.814 131.512 77.1284 131.947 75.1982C132.192 74.0835 132.41 72.9689 132.655 71.6367C133.063 73.6485 133.526 84.0066 133.444 87.6496V87.6224Z" fill="#00368E"/>
<path d="M165.966 98.9857C167.354 99.0129 168.606 98.9585 169.776 99.4479C170.483 99.747 171.082 100.155 171.49 100.807C171.681 101.079 171.49 101.541 171.164 101.541C170.347 101.541 169.504 101.541 168.687 101.487C166.564 101.351 164.795 101.976 163.544 103.825C163.326 104.178 163.026 104.45 162.754 104.776C160.632 107.278 159.543 110.132 159.788 113.422C159.815 113.911 159.842 114.428 159.734 114.89C159.597 115.488 159.135 115.841 158.509 115.95C157.91 116.032 157.393 115.705 157.148 115.135C156.903 114.591 156.822 114.047 156.903 113.449C157.23 110.323 157.747 107.25 159.543 104.532C160.278 103.444 160.849 102.248 161.53 101.106C162.401 99.6926 163.544 98.6867 165.394 99.0129C165.612 99.0129 165.857 98.9857 165.966 98.9857Z" fill="#E8E7E7"/>
<path d="M166.592 116.467C167.19 116.168 167.762 115.842 168.442 115.842C169.204 115.842 169.803 116.712 169.476 117.419C169.34 117.718 169.15 117.99 168.959 118.234C167.109 120.708 166.455 123.536 166.537 126.58C166.564 127.233 166.619 127.885 166.592 128.538C166.564 129.109 165.966 129.625 165.421 129.598C164.877 129.571 164.414 129.299 164.305 128.783C164.088 127.994 163.952 127.179 163.924 126.363C163.897 123.943 164.36 121.633 165.285 119.403C165.503 118.887 165.938 118.425 165.693 117.799L165.666 117.826C166.074 117.881 166.238 117.555 166.455 117.31C166.592 117.092 166.7 116.793 166.592 116.467Z" fill="#80858A"/>
<path d="M44.1795 202.022C44.1795 203.001 44.2067 204.007 44.1795 204.986C44.1795 205.339 43.9346 205.638 43.5536 205.611C42.6011 205.611 41.458 206.019 40.8049 205.095C40.2878 204.333 40.9954 203.518 41.322 202.784C41.9207 201.424 42.6283 200.119 43.3086 198.787C43.3631 198.651 43.5536 198.543 43.6896 198.515C44.0162 198.488 44.0434 198.787 44.0707 199.005C44.0707 199.983 44.0707 200.989 44.0707 201.968C44.0979 202.022 44.1251 202.022 44.1795 202.022Z" fill="#F4F4F5"/>
<path d="M133.417 87.6502C133.526 87.8405 133.689 88.0308 133.771 88.2212C133.798 88.3299 133.689 88.493 133.662 88.6289C133.607 88.5202 133.526 88.4386 133.499 88.3299C133.471 88.0852 133.471 87.8405 133.444 87.623L133.417 87.6502Z" fill="#00368E"/>
<path d="M128.954 110.431C129.171 110.404 129.253 110.485 129.199 110.648C129.199 110.648 129.062 110.676 129.035 110.621C129.008 110.594 128.981 110.512 128.954 110.431Z" fill="#00368E"/>
<path d="M113.686 139.303C113.741 139.303 113.795 139.276 113.822 139.303C113.958 139.412 113.904 139.521 113.741 139.602C113.713 139.602 113.632 139.493 113.604 139.439C113.604 139.439 113.659 139.357 113.686 139.303Z" fill="white"/>
<path d="M87.9684 33.3582C88.9481 33.9563 88.8392 34.8807 88.6215 35.7778C87.9956 38.1703 87.0975 40.4811 85.7912 42.6017C84.2127 45.1572 82.2533 47.3593 79.94 49.2624C79.1236 49.942 78.2799 50.6217 77.4635 51.3285C75.7217 52.8238 74.9597 54.7812 74.8781 57.0105C74.7964 58.9951 74.8508 60.9797 75.0958 62.9372C75.4224 65.6558 75.5584 68.3745 74.8781 71.0659C74.5787 72.1806 74.2249 73.2952 73.7623 74.3283C73.1363 75.6876 72.5104 75.742 71.0952 74.6546C71.2585 74.1108 71.3674 73.5399 71.5851 73.0234C72.7553 70.1416 73.1091 67.1783 72.6465 64.079C72.2382 61.306 72.2382 58.4786 72.4832 55.7056C72.6737 53.6122 73.5173 51.7091 75.0141 50.1867C75.6945 49.4798 76.4293 48.8002 77.2185 48.2021C81.709 44.8038 84.8931 40.5355 86.2266 35.0166C86.4443 33.9835 86.8526 33.3311 87.9684 33.3582Z" fill="#7E8388"/>
<path fill-rule="evenodd" clip-rule="evenodd" d="M131.555 52.9331C131.639 53.349 131.723 53.7654 131.811 54.1819C131.952 54.8524 131.945 55.5573 131.937 56.2817V56.282C131.932 56.6736 131.928 57.0708 131.947 57.4714C131.947 57.553 131.94 57.6278 131.933 57.7025C131.927 57.7773 131.92 57.852 131.92 57.9336C131.125 57.9451 130.667 57.9518 130.244 58.0771C129.667 58.248 129.155 58.6396 127.947 59.5648C127.947 59.3398 127.943 59.1277 127.94 58.9229C127.934 58.534 127.929 58.1717 127.947 57.7977C128.191 53.2032 126.504 49.2611 123.81 45.6725C123.021 44.6394 122.204 43.5791 121.143 42.7635C119.973 41.8936 119.564 41.9479 118.503 43.1441C118.423 43.2238 118.329 43.3034 118.209 43.4043L118.209 43.4047L118.209 43.4049L118.207 43.4067C118.164 43.4429 118.118 43.482 118.068 43.5248C114.035 41.741 109.78 40.5335 105.522 39.3249C104.004 38.8941 102.486 38.4631 100.977 38.0059C99.0717 37.435 97.2755 36.5922 95.5337 35.6679C93.9553 34.8251 92.6762 33.7104 91.7237 32.2152C91.6556 32.1064 91.5876 32.0045 91.5196 31.9025C91.4515 31.8006 91.3835 31.6986 91.3154 31.5899C90.9889 31.1005 90.6079 30.6655 89.9275 30.7471C89.1111 30.8558 88.8933 31.4539 88.7573 32.1336C88.3605 32.3758 88.1959 32.7606 88.0319 33.1437C87.9934 33.2337 87.955 33.3235 87.9136 33.4114C86.7978 33.3842 86.3896 34.0367 86.1446 35.0426C84.8111 40.5614 81.627 44.8297 77.1366 48.228C76.3473 48.8261 75.6125 49.5058 74.9322 50.2126C73.4354 51.7351 72.5917 53.6381 72.4012 55.7315C72.1563 58.5045 72.1563 61.3319 72.5645 64.1049C73.0271 67.2042 72.6733 70.1675 71.5031 73.0493C71.358 73.3937 71.2612 73.7622 71.1644 74.1307C71.1161 74.315 71.0677 74.4993 71.0132 74.6805C70.605 74.898 70.224 75.0883 69.8158 75.2786C69.2171 75.0067 68.5911 74.7349 68.0196 75.3602C67.5842 75.8223 67.5298 76.3117 67.7203 76.937C68.6728 79.9547 70.1696 82.5102 73.2721 83.7336C74.0613 84.0598 74.4695 84.5764 74.6328 85.3376C74.6918 85.6071 74.7534 85.8766 74.8152 86.1468C74.953 86.7491 75.0916 87.3554 75.2043 87.9747C75.8575 91.2371 77.191 94.2276 79.0688 96.9734C79.2529 97.2289 79.4217 97.4958 79.5895 97.7614C79.8681 98.2023 80.1442 98.6391 80.484 99.0124C81.8447 100.508 82.1985 102.112 81.3276 103.96C80.5826 104.481 79.9272 105.1 79.2723 105.719C78.7311 106.23 78.1902 106.74 77.5992 107.196C77.3815 107.223 77.191 107.277 77.0005 107.413C76.6195 107.495 76.2385 107.712 75.9119 107.957C75.803 108.025 75.6874 108.093 75.5717 108.161C75.456 108.229 75.3404 108.297 75.2315 108.365L75.2204 108.346C74.1075 109.05 72.8596 109.672 71.5307 110.078C70.1319 110.508 68.6991 110.751 67.2591 110.995L67.259 110.995C66.878 111.06 66.4965 111.125 66.115 111.193C65.3802 111.302 64.6454 111.519 63.9378 111.818C63.2352 111.862 62.568 112.154 61.922 112.436L61.9215 112.436L61.9213 112.436C61.7668 112.504 61.6135 112.571 61.4613 112.634C61.2416 112.678 60.9457 112.757 60.6597 112.834C60.4142 112.899 60.176 112.963 60 113.001L60.0557 112.888C59.8255 112.931 59.5953 112.974 59.3651 113.017C58.4671 113.185 57.5691 113.353 56.6711 113.476C56.6438 113.503 56.6166 113.53 56.5894 113.53C56.3989 113.394 56.1268 113.285 55.8818 113.204C55.9363 113.05 55.9846 112.893 56.033 112.736C56.1298 112.421 56.2266 112.107 56.3717 111.817C57.6508 109.452 58.1679 106.842 58.44 104.232C58.7666 100.807 58.7394 97.3269 58.3584 93.8742C58.1679 92.1614 58.0318 90.4487 58.0318 88.7087L58.0316 88.1893C58.0303 85.0729 58.0289 81.9565 58.4672 78.84C58.6008 77.9061 58.691 76.9559 58.7814 76.004C58.8936 74.8222 59.0061 73.6378 59.202 72.4784C59.8824 68.346 60.6444 64.2137 61.4609 60.1085C62.1412 56.5471 62.8488 53.0128 63.9102 49.533C64.4846 49.1678 64.4578 48.6025 64.4307 48.029L64.4273 47.9562C64.4945 47.8806 64.5669 47.8103 64.638 47.7411C64.7974 47.5862 64.9507 47.4373 65.026 47.2493C65.6791 45.5094 66.3051 43.7694 66.931 42.0295C68.8361 37.5437 71.3126 33.357 74.0885 29.3878C75.803 26.9138 78.1979 25.1467 81.0011 23.9777C81.9264 23.5699 82.9061 23.5699 83.8586 24.0864C85.9541 25.201 87.9408 24.9836 89.8731 23.6242C91.5876 22.428 93.3838 21.5309 95.4521 21.0415C97.5204 20.5793 99.5615 20.6881 101.603 20.8784C102.747 20.9786 103.876 21.2415 105.001 21.5034C105.402 21.5967 105.802 21.6899 106.202 21.7755C107.011 21.9413 107.757 22.2809 108.487 22.6135C108.715 22.7173 108.942 22.8204 109.168 22.9174C112.189 24.2495 115.047 25.9079 117.414 28.2731C117.922 28.7715 118.436 29.2609 118.951 29.7503C119.979 30.729 121.007 31.7077 121.986 32.7589C124.191 35.1241 126.014 37.7612 127.593 40.5614C127.783 40.8997 127.908 41.2708 128.031 41.6365L128.031 41.6369L128.031 41.6374C128.066 41.7417 128.101 41.8455 128.137 41.9479C128.314 42.4515 128.479 42.958 128.644 43.4636L128.645 43.4645C128.988 44.5144 129.329 45.5606 129.77 46.5696C130.683 48.6219 131.117 50.7698 131.555 52.9331ZM65.8524 89.5578C65.9048 89.5543 65.9562 89.5526 66.0061 89.5526C66.0223 89.5526 66.0385 89.5528 66.0545 89.5533C66.0294 89.5521 66.0041 89.5515 65.9785 89.5515C65.9355 89.5515 65.8934 89.5536 65.8524 89.5578ZM85.2311 30.188L85.2466 30.1762C85.2764 30.153 85.3046 30.1278 85.3313 30.1012C85.3111 30.1183 85.2918 30.1347 85.2738 30.1505C85.2596 30.1616 85.2453 30.1742 85.2311 30.188ZM92.8178 27.8529C92.7661 27.7437 92.7279 27.6217 92.7038 27.4856C92.7028 27.4758 92.7017 27.466 92.7006 27.4561C92.7015 27.4656 92.7024 27.4752 92.7034 27.4847C92.7275 27.6212 92.7659 27.7435 92.8178 27.8529ZM102.503 22.4203C102.348 22.0908 102.042 21.8191 101.657 21.7492C101.631 21.7446 101.604 21.7398 101.576 21.7349C101.603 21.7392 101.63 21.7436 101.657 21.7484C102.042 21.8183 102.348 22.0904 102.503 22.4203Z" fill="#00368E"/>
<path d="M63.9102 49.561C63.9646 48.9901 63.8013 48.3648 64.4272 47.957C64.4545 48.5551 64.5361 49.1532 63.9102 49.561Z" fill="#E8E7E7"/>
<path d="M50.0037 107.442C50.6296 107.279 50.8473 106.789 51.0923 106.246C52.453 103.038 53.9498 99.884 56.0181 97.0566C56.127 99.9928 56.1814 102.902 55.6916 105.811C55.2017 108.801 54.0315 111.411 52.0448 113.668C52.072 113.423 52.0992 113.178 52.0992 112.934C52.072 111.33 51.8543 111.112 50.2758 111.248C50.0309 111.275 49.7859 111.248 49.541 111.248C49.5682 110.596 49.5682 109.943 49.8676 109.345C50.167 108.72 50.1125 108.067 50.0581 107.415L50.0037 107.442Z" fill="#00368E"/>
<path d="M50.0582 107.441C50.1126 108.094 50.1671 108.746 49.8677 109.372C49.5684 109.997 49.5956 110.649 49.5411 111.275C49.2146 111.329 48.6975 111.383 48.7791 111.03C49.0241 109.779 49.1329 108.447 50.0582 107.441Z" fill="#E8E7E7"/>
<path d="M102.392 98.4959C100.623 98.6047 98.9358 98.2241 97.3301 97.5716C95.7788 96.9463 94.4453 95.9948 93.4928 94.5539C93.0574 93.8742 92.6491 93.1402 91.9688 92.6237C91.615 92.3518 91.5878 91.8896 91.7783 91.4818C92.0232 90.9653 92.5131 90.8565 93.0301 90.9653C93.6017 91.1012 94.1459 91.2643 94.7175 91.4003C99.0446 92.4605 103.372 92.4605 107.699 91.2372C108.815 90.9109 109.876 90.4487 110.91 89.9594C111.291 89.7963 111.645 89.606 112.053 89.5244C112.489 89.4428 112.87 89.6331 113.087 90.0409C113.251 90.34 113.36 90.7478 113.087 90.9653C112.053 91.8081 111.89 93.0858 111.264 94.1461C109.631 96.8376 107.1 98.0338 104.107 98.4959C103.562 98.5503 102.964 98.4959 102.392 98.4959ZM96.1054 94.2005C97.7383 95.9132 99.5345 96.1851 101.303 96.457C103.317 96.756 105.25 96.3482 107.046 95.3695C107.889 94.9073 108.76 94.4452 109.06 93.1674C107.563 93.4664 106.202 93.8471 104.841 94.0102C103.453 94.1733 102.038 94.1733 100.65 94.2005C99.2623 94.2277 97.9016 94.2005 96.1054 94.2005Z" fill="#80858A"/>
<path d="M86.7707 60.1641C89.3289 60.3 91.7238 60.735 94.0098 61.7409C94.4453 61.9312 94.8807 62.2031 95.2617 62.5021C95.5611 62.774 95.6972 63.1818 95.5611 63.6168C95.3978 64.1333 94.9896 64.4052 94.4725 64.4595C93.9554 64.5139 93.52 64.2692 93.0573 64.0789C91.1523 63.3177 89.1656 62.774 87.0701 62.7468C85.41 62.7196 83.7771 62.8012 82.2259 63.4264C81.9265 63.5624 81.5999 63.6711 81.3006 63.7255C80.7563 63.8071 80.1575 63.3993 79.9942 62.8283C79.831 62.3118 79.9942 61.8224 80.4297 61.5234C80.8379 61.2515 81.3006 61.0612 81.7632 60.8981C83.3689 60.3272 85.0834 60.1641 86.7707 60.1641Z" fill="#80858A"/>
<path d="M117.034 58.4238C118.639 58.451 119.728 58.4238 120.681 59.0219C121.116 59.2938 121.334 59.756 121.225 60.2997C121.089 60.8434 120.735 61.1425 120.191 61.224C119.946 61.2512 119.701 61.2512 119.456 61.1969C116.381 60.5716 113.55 61.3872 110.802 62.6377C109.985 63.0184 109.25 63.5893 108.461 64.0242C108.08 64.2417 107.672 64.2417 107.291 63.9971C106.692 63.6436 106.447 62.8009 106.855 62.2843C107.155 61.9037 107.536 61.5503 107.944 61.3056C110.883 59.4841 114.122 58.5598 117.034 58.4238Z" fill="#80858A"/>
<path d="M105.467 73.8395C105.413 76.7756 105.658 79.1409 106.202 81.4789C106.284 81.8867 106.447 82.2945 106.393 82.6751C106.338 83.1916 106.039 83.5994 105.495 83.7354C104.95 83.8713 104.515 83.7082 104.215 83.246C104.025 82.9742 103.889 82.6751 103.807 82.3489C103.045 79.1952 102.61 76.0144 102.936 72.7792C102.991 72.2899 103.072 71.8005 103.181 71.3111C103.399 70.3596 103.998 69.8431 104.651 69.9518C105.386 70.0877 105.794 70.6859 105.712 71.6374C105.631 72.5617 105.522 73.4589 105.467 73.8395Z" fill="#80858A"/>
<path d="M90.3086 70.3864C90.363 71.8545 89.3833 72.942 87.9681 73.0235C86.6618 73.1051 85.4099 71.9361 85.3555 70.6039C85.301 69.2174 86.3896 68.0212 87.7504 67.9668C89.1383 67.9125 90.2541 68.9727 90.3086 70.3864Z" fill="#80858A"/>
<path d="M116.653 69.3801C116.598 70.6579 115.51 71.7181 114.258 71.691C113.033 71.6638 111.89 70.5763 111.863 69.3257C111.836 67.9936 113.087 66.7974 114.394 66.8789C115.673 66.9877 116.707 68.1295 116.653 69.3801Z" fill="#80858A"/>
</g>
<defs>
<clipPath id="clip0_1060_13429">
<rect width="239" height="258" fill="white" transform="translate(0.5)"/>
</clipPath>
</defs>
</svg>
