<svg width="189" height="266" viewBox="0 0 189 266" fill="none" xmlns="http://www.w3.org/2000/svg">
<g clip-path="url(#clip0_1060_9079)">
<path d="M141.569 35.7544C142.38 38.2192 143.191 40.7131 144.003 43.1779C143.887 43.4099 144.003 43.5839 144.205 43.6999C144.785 46.2517 145.48 48.7746 145.944 51.3554C146.668 55.4151 146.958 59.5039 146.523 63.6216C146.292 65.9705 146.089 68.3193 145.22 70.5522C144.901 70.6102 144.582 70.6972 144.263 70.7552C143.742 70.8711 143.655 71.2481 143.771 71.6831C144.988 77.4827 145.133 83.3693 144.727 89.256C144.466 93.1127 143.858 96.9405 142.902 100.681C142.786 101.203 142.699 101.725 142.612 102.218C142.409 102.363 142.293 102.537 142.38 102.798C142.293 103.146 142.206 103.494 142.119 103.842C141.916 103.958 141.801 104.132 141.887 104.364C141.511 105.147 141.163 105.93 140.786 106.713C140.381 107.554 140.526 108.569 141.279 109.004C142.264 109.584 143.249 110.106 144.437 109.323C145.017 108.946 145.712 108.801 146.379 108.54C146.9 108.569 147.537 108.859 147.711 108.018C148.407 105.814 149.913 104.596 152.173 104.277C152.521 104.277 152.869 104.277 153.216 104.277C153.564 104.335 153.912 104.364 154.26 104.422C154.81 104.973 155.332 105.031 155.853 104.393C156.056 104.335 156.23 104.277 156.433 104.219C156.838 104.306 157.157 104.161 157.418 103.871C157.621 103.842 157.794 103.813 157.997 103.784C158.693 103.784 159.388 103.784 160.083 103.784C160.257 103.813 160.46 103.842 160.634 103.871C160.924 104.161 161.242 104.306 161.648 104.19C163.01 104.567 164.256 105.234 165.473 105.959C165.531 106.191 165.675 106.336 165.936 106.336L166.081 106.452C166.11 106.684 166.255 106.8 166.487 106.858L166.603 107.003C166.632 107.264 166.776 107.409 167.008 107.467C167.443 108.569 167.906 109.642 168.341 110.744C168.254 111.005 168.37 111.15 168.573 111.295C168.66 112.541 169.036 113.672 169.964 114.513C171.065 115.528 171.731 116.804 172.398 118.109C172.542 118.631 172.948 118.602 173.354 118.573C175.005 119.269 176.628 120.081 177.932 121.328C178.656 122.024 178.83 122.749 178.077 123.561C177.555 123.561 177.033 123.561 176.512 123.532L176.367 123.445C176.338 123.213 176.222 123.097 175.961 123.097C175.845 122.981 175.73 122.836 175.585 122.749C172.629 120.777 172.658 120.951 172.05 124.054C171.297 127.939 170.311 131.767 169.355 135.624C168.66 138.495 168.341 141.337 169.239 144.236C169.964 144.265 169.906 143.569 170.022 143.193C171.181 139.394 172.427 135.653 174.049 132.028C174.484 131.071 174.947 130.114 175.469 129.215C175.759 128.722 176.251 128.548 176.831 128.751C177.41 128.983 177.7 129.621 177.352 130.288C176.106 132.724 175.063 135.247 174.194 137.828C173.383 140.235 172.629 142.671 171.847 145.106C171.586 145.889 171.586 146.614 172.224 147.31C172.948 148.122 172.977 149.282 173.151 150.297C174.078 155.488 174.947 160.678 175.817 165.898C175.903 166.333 175.932 166.768 175.932 167.203C175.932 167.87 175.44 168.392 174.802 168.45C174.165 168.508 173.614 168.131 173.441 167.464C173.209 166.536 173.064 165.579 172.89 164.622C172.34 161.403 171.818 158.214 171.297 154.995C171.268 154.734 171.239 154.473 171.181 154.212C171.065 153.69 170.63 153.458 170.224 153.777C167.617 155.894 164.719 157.547 161.851 159.257C158.287 161.374 154.607 163.259 150.725 164.651C147.509 165.811 144.234 166.855 140.7 166.42C140.236 166.362 140.033 166.71 140.091 167.058C140.323 168.363 140.584 169.639 140.844 170.944C142.612 179.817 144.553 188.662 146.002 197.622C146.379 200.058 146.581 202.523 146.755 204.959C147.045 208.902 147.393 212.846 147.885 216.761C148.957 225.344 152.695 232.71 158.2 239.205C161.416 243.004 165.444 243.671 169.819 241.322C173.18 239.495 175.961 236.944 178.337 233.957C179.062 233.058 179.525 232.014 179.96 230.941C181.756 226.736 183.756 222.647 185.349 218.356C186.305 217.544 185.871 216.442 185.987 215.456C186.044 214.238 186.131 213.02 186.16 211.802C186.189 209.859 186.131 207.945 185.523 206.089C185.407 205.742 185.291 205.423 184.914 205.336L184.943 205.394C185.291 204.814 185.059 204.176 184.972 203.596C184.625 201.392 184.683 199.188 185.001 197.013C186.044 190.286 186.16 183.5 186.276 176.743C186.421 167.058 186.102 157.373 185.407 147.716C185.059 143.077 184.451 138.437 183.495 133.855C183.002 131.564 182.307 129.447 180.423 127.881C180.365 127.823 180.308 127.765 180.25 127.679C179.815 127.128 179.815 126.49 180.25 125.997C180.655 125.562 181.38 125.446 181.93 125.794C182.712 126.258 183.292 126.896 183.784 127.65C184.567 128.838 185.146 130.114 185.552 131.448C186.218 133.565 186.566 135.74 186.856 137.915C187.406 142.004 187.841 146.121 188.16 150.239C188.681 156.822 188.536 163.433 188.942 170.016C189.174 173.699 188.768 177.41 188.739 181.093C188.681 185.414 188.42 189.706 188.044 193.997C187.899 195.65 187.58 197.303 187.464 198.985C187.319 201.015 187.406 203.016 187.957 205.017C189.203 209.627 188.971 214.238 187.725 218.82C186.972 221.545 185.9 224.155 184.712 226.707C184.422 227.345 184.161 228.012 183.9 228.65C183.553 228.911 183.379 229.23 183.437 229.665C183.234 230.071 183.002 230.419 182.857 230.854C182.133 232.971 180.974 234.827 179.67 236.596C179.409 236.654 179.264 236.828 179.235 237.089L179.149 237.175C178.917 237.204 178.772 237.349 178.743 237.61L178.627 237.755C178.395 237.784 178.25 237.9 178.25 238.161L178.105 238.306C177.874 238.335 177.729 238.451 177.729 238.683L177.584 238.828C177.352 238.857 177.207 238.973 177.178 239.205L177.033 239.321C176.773 239.35 176.628 239.466 176.599 239.727L176.512 239.814C176.251 239.843 176.077 239.988 176.019 240.249C175.469 240.684 174.918 241.09 174.368 241.525C174.136 241.496 174.02 241.641 173.962 241.844L173.846 241.931C173.557 241.931 173.412 242.076 173.325 242.337L173.296 242.366C172.89 242.366 172.6 242.569 172.398 242.946L172.253 243.004C171.963 243.004 171.789 243.149 171.702 243.381C170.833 243.787 169.964 244.193 169.065 244.57C168.631 244.512 168.283 244.599 168.022 244.976L167.993 245.005C167.675 245.034 167.53 245.208 167.588 245.556C167.53 248.34 168.022 251.095 168.312 253.878C168.66 256.981 169.152 260.084 169.558 263.187C169.645 263.796 169.558 264.405 169.558 265.014C168.892 265.275 168.196 265.333 167.501 265.159C166.805 264.057 166.95 262.81 166.777 261.621C166.255 257.735 165.82 253.849 165.357 249.993C165.183 248.543 164.951 247.064 164.777 245.614C164.256 244.831 163.473 245.179 162.778 245.15C162.604 245.121 162.401 245.092 162.228 245.063C161.967 244.744 161.619 244.599 161.184 244.686C160.663 244.454 160.141 244.222 159.62 243.99C159.504 243.729 159.33 243.584 159.069 243.613L158.953 243.555C158.78 243.178 158.461 242.975 158.055 242.917C157.099 241.873 156.114 240.858 155.158 239.814C155.158 239.582 155.042 239.466 154.81 239.408L154.723 239.292C154.723 239.002 154.549 238.857 154.289 238.77C153.043 236.77 151.739 234.798 150.551 232.768C148.928 229.984 147.653 226.997 146.639 223.923C146.726 223.662 146.61 223.459 146.379 223.314C145.104 217.022 144.466 210.642 144.09 204.263C143.8 199.536 142.96 194.867 142.003 190.227C140.178 181.209 138.324 172.191 136.498 163.143C136.614 162.911 136.498 162.737 136.324 162.592C136.295 162.07 136.295 161.577 136.266 161.055C136.846 159.75 137.686 158.649 138.845 157.779C139.338 157.402 139.859 157.083 140.381 156.764C140.989 156.416 141.221 155.923 141.105 155.227C141.047 154.879 141.047 154.531 141.018 154.183C140.96 153.197 141.366 152.501 142.148 151.95C142.931 151.37 143.829 150.993 144.727 150.645C146.581 149.92 146.639 149.833 146.321 148.006C146.234 147.571 146.089 147.165 146.002 146.73C145.277 143.048 143.075 140.206 140.729 137.277C139.946 138.089 139.077 138.234 138.034 137.973C137.281 137.77 136.469 137.712 135.513 138.002C136.44 138.843 137.57 139.162 138.497 139.771C139.483 140.409 139.888 141.105 139.714 142.381C138.99 147.716 137.628 152.878 136.064 158.011C135.745 158.997 135.223 159.953 135.252 161.055C134.905 161.316 134.76 161.693 134.847 162.128C134.76 162.273 134.702 162.447 134.731 162.621C134.528 162.737 134.383 162.911 134.47 163.172C134.035 164.419 133.601 165.637 133.166 166.884C132.819 167.145 132.674 167.493 132.732 167.928C132.529 168.479 132.326 169.001 132.123 169.552C131.804 169.813 131.631 170.132 131.689 170.567C131.486 171.089 131.283 171.64 131.051 172.162C130.703 172.423 130.53 172.771 130.587 173.206C130.211 174.105 129.834 175.003 129.457 175.873C129.11 176.134 128.965 176.453 128.994 176.888C124.329 186.951 118.563 196.404 113.203 206.06C108.77 214.035 104.597 222.154 100.802 230.477C100.628 230.883 100.483 231.289 100.338 231.695C99.6718 231.956 98.9764 231.985 98.281 231.811C98.1651 231.434 98.0492 231.086 97.9044 230.709C97.9623 230.535 98.0203 230.39 98.0782 230.216C102.222 221.169 106.713 212.295 111.58 203.625C115.55 196.549 119.751 189.619 123.373 182.398C128.82 171.524 133.253 160.214 136.064 148.325C136.498 146.527 136.73 144.7 137.049 142.874C137.165 142.178 136.904 141.656 136.266 141.366C135.223 140.873 134.209 140.38 133.137 139.974C131.66 139.394 130.182 138.872 128.704 138.292C128.212 138.089 127.719 137.857 127.313 137.567C126.647 137.074 126.792 136.001 127.545 135.566C128.183 135.189 128.907 135.189 129.602 135.189C132.587 135.102 135.6 134.986 138.555 135.508C138.787 135.537 139.048 135.479 139.251 135.45C139.541 135.044 139.367 134.725 139.251 134.406C138.613 132.666 138.208 130.868 137.918 129.041C137.686 127.65 137.541 126.258 136.759 125.011C136.382 124.402 136.324 123.677 136.295 122.981C136.266 121.937 136.266 120.864 136.266 119.82C136.324 115.847 137.802 113.846 141.54 112.686C141.54 112.28 141.308 112.049 140.96 111.933C138.324 110.976 135.658 110.019 133.021 109.033C132.674 108.917 132.355 108.917 132.065 109.207L132.094 109.236C132.297 108.656 131.949 108.627 131.544 108.685L131.573 108.714C131.66 107.902 131.022 107.467 130.587 106.945C129.776 106.017 128.936 105.089 128.038 104.248C127.458 103.697 127.342 102.595 126.241 102.653C125.981 103.552 126.27 104.393 126.473 105.234C126.676 106.104 126.937 106.945 127.111 107.786C127.226 108.424 126.792 109.062 126.212 109.207C125.604 109.352 124.966 109.091 124.735 108.424C123.865 106.191 123.489 103.842 123.17 101.493C122.764 98.3324 122.591 95.1716 122.533 92.0108C122.504 91.0829 122.648 90.0679 122.127 89.227C121.345 89.198 120.968 89.7779 120.504 90.1549C118.882 91.4888 117.172 92.7647 115.318 93.7797C108.973 97.3175 102.685 96.8825 96.4556 93.4607C95.6733 93.0257 94.9779 92.5038 94.2536 92.0108C93.9638 91.8078 93.6451 91.6628 93.2685 91.7788C92.9497 92.3588 93.1815 92.9677 93.2395 93.5477C93.7031 98.4774 93.5292 103.407 92.8918 108.308C92.8049 109.004 92.66 109.7 92.4862 110.396C92.2833 111.237 91.6459 111.672 90.9795 111.527C90.2841 111.353 89.8785 110.773 89.9654 109.903C90.0233 109.294 90.1972 108.685 90.2551 108.076C90.342 107.467 90.5449 106.887 90.2261 106.278C89.7046 106.307 89.5018 106.742 89.27 107.09C88.14 108.801 87.3287 110.628 86.6623 112.57C84.6051 118.486 83.3302 124.605 82.4031 130.81C81.7366 135.247 81.4179 139.742 81.2441 144.207C81.0702 148.354 80.8674 152.472 80.6646 156.619C80.0561 167.87 81.302 178.947 83.6779 189.909C85.4743 198.173 87.9661 206.234 90.7187 214.238C91.7038 217.08 92.7179 219.864 93.7031 222.705C93.8769 223.198 93.9638 223.72 94.0797 224.242C94.1956 224.474 94.3405 224.706 94.4564 224.909L94.5144 225.054C94.5723 225.953 94.4564 226.91 95.3836 227.461C97.5856 232.42 99.5559 237.494 100.657 242.83C100.889 243.932 101.063 245.063 101.178 246.194C101.758 252.371 102.482 258.576 102.395 264.811C102.106 265.072 101.816 265.333 101.526 265.565L101.439 265.594C101.092 265.565 100.773 265.536 100.425 265.478C99.9326 264.927 99.8167 264.26 99.8456 263.506C99.9036 257.88 99.2662 252.313 98.7156 246.716C98.3969 243.584 97.7305 240.481 96.5715 237.523C96.6005 237.234 96.4846 237.001 96.2528 236.828C96.05 235.581 95.5574 234.421 95.0069 233.29C95.0649 232.855 94.92 232.536 94.5723 232.275C94.3695 231.724 94.1667 231.202 93.9638 230.651C94.0218 230.216 93.8769 229.897 93.5292 229.636C93.3264 229.085 93.1236 228.563 92.9208 228.012C92.9787 227.577 92.8338 227.229 92.4862 226.968C92.0515 225.721 91.5879 224.503 91.1533 223.256C91.2402 222.995 91.1244 222.85 90.8926 222.734C90.2841 220.966 89.6756 219.197 89.0382 217.457C89.1251 217.196 88.9802 217.022 88.7774 216.906C88.7774 216.732 88.7485 216.558 88.6615 216.413C88.7195 215.978 88.6036 215.63 88.2559 215.34C88.14 214.992 88.0531 214.644 87.9372 214.267C88.0241 214.006 87.9082 213.861 87.7054 213.745C87.4156 212.846 87.1549 211.976 86.8651 211.077C86.981 210.845 86.8361 210.671 86.6623 210.555C86.6333 210.381 86.5754 210.207 86.5464 210.033C86.5754 209.743 86.4885 209.511 86.2277 209.337C86.1118 208.873 85.9669 208.38 85.851 207.916C85.9379 207.655 85.822 207.51 85.6192 207.365C85.5323 207.017 85.4454 206.669 85.3584 206.321C85.4454 206.06 85.3005 205.886 85.0977 205.742C84.2864 202.784 83.4461 199.826 82.6928 196.839C80.8384 189.59 79.4477 182.282 78.6074 174.829C78.1728 170.973 78.0859 167.116 78.0279 163.23C77.941 155.314 78.4046 147.397 78.8972 139.51C79.4187 130.984 80.8674 122.575 83.3302 114.368C83.4172 114.049 83.4461 113.672 83.5041 113.324C83.7069 113.208 83.8228 113.034 83.7359 112.802C84.6631 110.193 85.7641 107.67 87.1838 105.292C87.7633 104.857 88.111 104.277 88.2269 103.581C88.6615 103.262 89.0382 102.798 89.5018 102.682C90.8346 102.305 90.9215 101.348 90.8926 100.217C90.8636 96.9695 90.8056 93.7217 90.371 90.4739C90.1682 89.024 89.8205 87.8061 88.8933 86.6461C86.7492 83.9493 85.0108 81.0205 83.5331 77.8887C81.389 73.278 80.6646 68.3483 80.2879 63.3316C80.259 62.8097 80.259 62.2877 80.201 61.7367C80.172 61.4757 80.172 61.1858 80.0561 60.9828C79.9402 60.7508 79.7084 60.5188 79.4477 60.6928C78.6364 61.2148 77.8831 61.8237 77.0718 62.3457C76.4923 62.7227 75.8259 62.5777 75.4202 62.0557C75.0146 61.5337 75.1884 61.0408 75.5651 60.6348C75.9707 60.1708 76.4343 59.7649 76.8979 59.3589C81.5338 55.3281 84.1125 50.1375 85.3874 44.2219C85.5613 43.3809 85.7351 42.511 85.3874 41.67C85.0108 41.496 84.692 41.583 84.3733 41.757C83.7649 42.076 83.1274 42.424 82.49 42.7139C82.0843 42.8879 81.6497 43.0329 81.2441 43.0619C80.6646 43.1199 80.201 42.8009 80.0272 42.25C79.8823 41.786 80.0851 41.351 80.4908 41.1191C81.6208 40.4231 82.7507 39.7561 83.9097 39.1182C87.5315 37.1173 90.9215 34.7395 94.0218 32.0136C96.7454 29.6358 99.0344 26.823 100.628 23.5462C101.063 22.6182 101.584 21.8643 102.743 21.8933C102.946 22.1253 103.149 22.3573 103.352 22.5892C103.525 23.3142 103.323 23.9811 103.004 24.6191C102.366 25.982 101.584 27.2289 100.686 28.4469C97.8464 32.3326 94.2536 35.4064 90.3131 38.1322C88.0241 39.7271 87.9951 39.7271 88.2269 42.569C88.2269 42.7429 88.3428 42.8879 88.4297 43.0619C89.3279 43.5259 90.3131 43.4679 91.2692 43.5549C92.9497 43.6999 94.5433 44.1349 96.1079 44.7438C96.5136 44.8888 96.8903 45.1498 97.209 45.4398C97.3538 45.5848 97.4118 45.9327 97.3249 46.1357C97.238 46.3387 97.0062 46.5417 96.7744 46.6287C96.2239 46.8027 95.7603 46.4837 95.2677 46.3097C93.2685 45.6138 91.2113 45.1498 89.0672 45.1208C87.9951 45.1208 87.8213 45.2078 87.5605 46.1647C86.5754 49.9635 85.0397 53.4723 82.7797 56.6911C82.3451 57.329 82.2872 57.967 82.3741 58.6919C82.6928 61.5627 83.0115 64.4626 83.2723 67.3624C83.8808 74.0029 86.7492 79.6866 90.6608 84.8773C93.0946 88.067 96.108 90.6479 99.8746 92.1558C104.424 93.9827 108.944 94.0117 113.377 91.6918C115.897 90.3579 118.128 88.676 120.157 86.7041C124.995 82.0354 127.632 76.3518 127.835 69.5952C127.922 66.6084 127.864 63.5926 128.067 60.6348C128.154 59.5039 127.951 58.5759 127.516 57.619C126.531 55.4441 125.981 53.1243 125.72 50.7464C125.401 47.9626 125.053 45.1498 124.619 42.366C124.3 40.3651 123.865 38.3932 123.112 36.5083C121.374 32.1006 118.128 29.0848 114.043 26.968C110.711 25.2281 107.263 23.6622 103.873 22.0383C103.728 21.6323 103.381 21.4003 103.004 21.2553C102.627 20.7914 102.222 20.3274 101.845 19.8344C101.439 19.3124 101.584 18.8485 101.961 18.4135C102.366 17.9785 102.83 17.8335 103.381 18.1235C103.612 18.2395 103.844 18.3555 104.047 18.5295C106.481 20.6174 109.349 21.9513 112.276 23.1692C115.811 24.6191 118.94 26.649 121.605 29.4618C123.894 31.8976 125.488 34.6235 126.299 37.8713C127.313 41.873 127.864 45.9907 128.27 50.0795C128.762 54.8932 130.674 59.0399 133.601 62.7807C134.673 64.1726 135.919 65.4195 137.049 66.7824C137.483 67.3044 137.454 67.9713 137.02 68.4643C136.614 68.9283 135.948 68.9863 135.397 68.4063C134.093 67.1014 132.876 65.7095 131.602 64.3756C131.341 64.0856 131.225 63.5346 130.53 63.7086C130.501 65.4195 130.472 67.1884 130.443 68.9283C130.298 74.3219 129.023 79.3676 125.836 83.8043C124.937 85.0222 124.561 86.3272 124.793 87.7481C125.227 90.5609 125.082 93.3737 125.169 96.1865C125.198 97.2305 125.314 98.0424 126.618 98.2744C127.226 98.3614 127.545 99.0284 127.864 99.5503C129.255 101.812 131.08 103.697 132.963 105.582C134.006 106.626 135.31 107.09 136.672 107.438C136.991 107.525 137.31 107.09 137.252 106.742C137.223 106.568 137.194 106.394 137.107 106.22C135.05 101.319 133.92 96.1865 133.282 90.9379C133.108 89.6329 133.079 88.299 133.195 86.9941C133.253 86.3562 133.891 85.8632 134.499 85.9212C135.079 85.9792 135.455 86.3562 135.6 86.9071C135.687 87.2551 135.716 87.6031 135.687 87.9511C135.658 90.1549 135.89 92.3298 136.266 94.5046C136.788 97.3465 137.541 100.159 138.497 102.885C138.584 103.117 138.787 103.349 139.019 103.407C139.309 103.494 139.425 103.175 139.512 102.943C140.004 101.087 140.584 99.2313 140.989 97.3465C141.656 94.1567 141.859 90.9089 142.264 87.6901C142.786 83.6883 142.38 79.7736 141.916 75.8878C141.424 71.7991 140.381 67.7973 139.048 63.8536C138.845 63.2736 138.671 62.6937 138.526 62.0847C138.382 61.4467 138.758 60.8088 139.338 60.6058C139.859 60.4028 140.584 60.7218 140.844 61.3598C141.163 62.1717 141.366 63.0416 141.627 63.8826C141.83 64.5496 141.945 65.2745 142.235 65.8835C142.554 66.5214 142.438 67.3624 142.96 67.9713C143.22 67.7393 143.423 67.6234 143.452 67.5074C144.495 62.0847 144.524 56.6621 143.452 51.2684C142.496 46.4257 140.989 41.757 139.338 37.1173C138.99 36.1314 138.382 35.2324 138.295 34.1305C138.469 33.2026 139.164 32.9416 139.946 32.8546C140.815 33.3475 140.931 34.3335 141.337 35.1164C141.25 35.5224 141.366 35.6674 141.569 35.7544ZM153.593 154.328C157.736 154.328 162.083 152.849 166.4 151.312C167.472 150.935 167.559 150.674 167.385 149.514C167.153 147.948 166.892 146.382 166.603 144.816C166.023 141.569 165.965 138.35 166.892 135.131C167.008 134.696 167.095 134.261 167.182 133.855C168.08 129.911 168.95 125.968 169.877 122.024C170.34 119.965 169.935 118.138 168.399 116.688C167.211 115.528 166.545 114.165 166.168 112.599C165.994 111.904 165.733 111.266 165.56 110.57C165.183 109.091 164.198 108.134 162.894 107.467C161.938 106.974 160.953 106.655 159.91 106.481C158.316 106.191 158.2 106.336 158.548 107.902C158.577 108.076 158.635 108.25 158.635 108.424C158.606 108.888 158.403 109.265 157.968 109.468C157.621 109.642 157.273 109.613 156.983 109.381C156.635 109.12 156.346 108.772 155.998 108.511C155.361 108.047 154.723 107.525 154.028 107.206C152.55 106.51 150.348 106.974 150.029 109.236C149.769 111.063 149.421 111.266 147.595 111.208C145.944 111.15 144.872 111.788 144.379 113.324C143.945 114.687 143.046 115.354 141.685 115.441C140.091 115.528 139.251 116.63 138.99 117.935C138.555 120.255 138.121 122.633 139.57 124.837C139.888 125.301 139.917 125.823 140.004 126.345C140.178 127.476 140.352 128.606 140.526 129.737C140.96 132.492 142.032 134.957 143.713 137.19C144.09 137.683 144.408 138.205 144.814 138.669C146.379 140.525 147.306 142.671 148.001 144.99C148.639 147.107 149.073 149.253 149.16 151.457C149.305 154.705 149.305 154.531 152.579 154.444C152.753 154.386 152.927 154.357 153.593 154.328ZM162.633 155.401C162.083 155.024 161.59 155.314 161.098 155.459C156.578 156.764 151.971 156.909 147.306 156.706C146.176 156.648 145.104 156.155 143.974 156.474C143.365 157.721 144.263 158.823 144.292 160.011C144.292 160.707 144.553 161.374 144.727 162.07C145.046 163.404 145.22 163.52 146.494 163.23C146.929 163.143 147.335 163.027 147.769 162.882C152.927 161.316 157.621 158.765 162.17 156.01C162.372 155.865 162.459 155.604 162.633 155.401ZM141.395 164.013C142.322 164.013 142.699 163.607 142.612 163.114C142.438 161.983 142.235 160.852 142.003 159.75C141.859 159.083 141.453 158.939 140.873 159.344C140.381 159.721 139.859 160.069 139.454 160.533C138.642 161.374 138.787 162.621 139.685 163.317C140.323 163.781 141.076 164.013 141.395 164.013ZM145.451 154.212C146.234 154.299 146.668 154.212 146.784 153.69C146.842 153.371 146.871 152.936 146.726 152.675C146.465 152.182 145.944 152.443 145.567 152.559C145.075 152.704 144.582 152.936 144.119 153.197C144.003 153.255 143.916 153.487 143.945 153.632C143.974 153.777 144.119 153.98 144.234 154.009C144.727 154.096 145.249 154.183 145.451 154.212Z" fill="#7D8385"/>
<path d="M138.295 34.2762C138.382 35.3491 138.99 36.2481 139.338 37.263C140.989 41.9027 142.496 46.6004 143.452 51.4141C144.524 56.8077 144.495 62.2304 143.452 67.653C143.423 67.798 143.22 67.885 142.96 68.117C142.438 67.5081 142.554 66.6961 142.235 66.0291C141.945 65.3912 141.83 64.6952 141.627 64.0283C141.366 63.1873 141.163 62.3464 140.844 61.5054C140.613 60.8675 139.888 60.5485 139.338 60.7515C138.758 60.9835 138.353 61.5924 138.526 62.2304C138.671 62.8393 138.845 63.4193 139.048 63.9993C140.381 67.914 141.424 71.9158 141.916 76.0335C142.38 79.9483 142.786 83.863 142.264 87.8358C141.859 91.0546 141.685 94.3023 140.989 97.4921C140.584 99.377 140.033 101.233 139.512 103.089C139.454 103.321 139.338 103.64 139.019 103.553C138.816 103.495 138.584 103.234 138.497 103.031C137.512 100.305 136.788 97.4921 136.266 94.6503C135.861 92.4755 135.658 90.3006 135.687 88.0967C135.687 87.7488 135.658 87.4008 135.6 87.0528C135.455 86.5018 135.078 86.1249 134.499 86.0669C133.92 86.0089 133.253 86.4728 133.195 87.1398C133.079 88.4447 133.137 89.7786 133.282 91.0835C133.92 96.3322 135.05 101.465 137.107 106.366C137.165 106.54 137.194 106.714 137.252 106.888C137.339 107.236 136.991 107.67 136.672 107.583C135.31 107.236 134.006 106.772 132.963 105.728C131.08 103.872 129.255 101.958 127.864 99.696C127.545 99.174 127.226 98.5071 126.618 98.4201C125.343 98.2171 125.227 97.4051 125.169 96.3322C125.082 93.5194 125.227 90.7066 124.793 87.8937C124.561 86.4438 124.966 85.1679 125.836 83.95C129.023 79.5133 130.298 74.4676 130.443 69.074C130.501 67.3341 130.501 65.5942 130.53 63.8543C131.225 63.6803 131.312 64.2023 131.602 64.5212C132.847 65.8842 134.093 67.2471 135.397 68.552C135.948 69.1029 136.614 69.074 137.02 68.61C137.454 68.117 137.483 67.4501 137.049 66.9281C135.919 65.5942 134.702 64.3183 133.601 62.9263C130.674 59.1856 128.762 55.0388 128.27 50.2252C127.835 46.1364 127.313 42.0477 126.299 38.0169C125.459 34.7691 123.894 32.0433 121.605 29.6075C118.969 26.7947 115.811 24.7648 112.276 23.3149C109.349 22.097 106.481 20.792 104.047 18.6752C103.844 18.5012 103.612 18.3852 103.381 18.2692C102.83 17.9792 102.366 18.0952 101.961 18.5592C101.584 18.9942 101.41 19.4581 101.845 19.9801C102.222 20.4441 102.627 20.937 103.004 21.401C102.917 21.604 102.801 21.836 102.714 22.039C101.555 21.981 101.034 22.7639 100.599 23.6919C99.0344 26.9976 96.7454 29.7815 93.9928 32.1593C90.8636 34.8851 87.5025 37.263 83.8807 39.2639C82.7218 39.9018 81.5918 40.5688 80.4618 41.2647C80.0561 41.4967 79.8533 41.9317 79.9982 42.3957C80.172 42.9466 80.6356 43.2656 81.2151 43.2076C81.6497 43.1786 82.0843 43.0336 82.461 42.8596C83.0984 42.5696 83.7069 42.2217 84.3443 41.9027C84.6631 41.7287 84.9818 41.6417 85.3584 41.8157C85.7061 42.6566 85.5323 43.5266 85.3584 44.3675C84.0836 50.2832 81.5338 55.4738 76.8689 59.5046C76.4054 59.9105 75.9418 60.3165 75.5361 60.7805C75.1595 61.1865 74.9856 61.6794 75.3912 62.2014C75.7969 62.7234 76.4633 62.8683 77.0428 62.4914C77.8541 61.9694 78.6074 61.3604 79.4187 60.8385C79.7084 60.6355 79.9402 60.8965 80.0272 61.1285C80.143 61.3604 80.143 61.6504 80.172 61.8824C80.201 62.4044 80.201 62.9263 80.2589 63.4773C80.6356 68.494 81.36 73.4237 83.5041 78.0344C84.9528 81.1662 86.7202 84.095 88.8643 86.7918C89.7915 87.9517 90.1392 89.1697 90.342 90.6196C90.7767 93.8674 90.8346 97.0862 90.8636 100.363C90.8636 101.465 90.8056 102.451 89.4728 102.828C89.0092 102.973 88.6325 103.437 88.1979 103.727C87.6184 103.872 86.981 103.872 86.6043 104.452C85.4164 104.713 84.4313 105.351 83.4751 106.076C83.1564 106.192 82.8377 106.308 82.5189 106.424C81.6207 105.873 80.7225 105.96 79.7664 106.395C77.2166 107.525 74.6379 108.656 72.0592 109.7C71.132 110.077 70.6684 110.686 70.5815 111.643C70.031 111.759 69.5094 111.904 68.9589 112.02C68.0897 111.817 67.2494 111.672 66.3802 112.02C65.8297 112.252 65.2502 112.513 64.6997 112.745C64.352 112.89 63.9753 112.542 64.0333 112.194C64.0912 111.846 64.1782 111.527 64.2941 111.179C65.5979 106.975 67.5392 103.089 69.973 99.435C70.7553 98.2751 71.4507 97.0572 72.0302 95.7812C72.3489 95.0563 72.5518 94.3023 72.5228 93.4904C72.5228 92.9104 72.262 92.4755 71.7405 92.2435C71.7694 92.0695 71.7405 91.9245 71.6535 91.7795C71.6825 91.4315 71.7115 91.0835 71.7405 90.7066C71.8274 90.5906 71.8853 90.4746 71.8853 90.3296C72.8994 90.1266 73.4789 89.5466 73.363 88.5027C73.1602 86.5888 72.9574 84.675 72.6677 82.7611C72.32 80.3252 71.7405 77.9474 71.5087 75.5115C71.161 71.9738 71.7694 68.523 72.8125 65.1302C73.0153 64.4632 73.2761 63.7963 73.421 63.1293C73.5079 62.6654 73.2471 62.3174 72.8125 62.0854C72.3779 61.8534 71.9433 61.8534 71.6246 62.2014C71.3348 62.5204 71.0451 62.8683 70.9292 63.2743C70.4946 64.6082 69.9151 65.9132 69.7702 67.3051C69.7412 67.624 69.7412 68.059 69.3356 68.175C68.8141 68.32 68.8141 67.827 68.7271 67.5371C68.1187 65.7972 67.742 63.9993 67.771 62.1434C67.8 59.9395 68.2346 57.7937 68.93 55.7058C69.9151 52.69 71.3928 49.9062 72.9864 47.1514C75.2174 44.0196 76.5792 40.4528 77.8251 36.857C78.3177 35.9291 78.8102 35.0011 79.2738 34.0442C81.8815 28.7085 85.1846 23.8948 89.299 19.6031C91.3561 17.4573 93.819 16.0073 96.5715 14.9924C98.4838 14.2965 100.483 13.8035 102.453 14.7314C103.352 15.1664 103.902 14.8474 104.597 14.3834C105.756 13.5715 107.089 13.1945 108.48 12.9045C110.711 12.4406 112.855 12.7016 115.028 13.0785C119.722 13.8325 123.952 15.5724 127.4 18.9942C128.965 20.5311 130.501 22.097 131.804 23.8658C133.137 25.7217 134.47 27.5486 135.774 29.4045C136.353 30.4774 136.904 31.5504 137.483 32.6233C137.425 33.3482 137.802 33.8412 138.295 34.2762Z" fill="#00368E"/>
<path d="M71.7401 92.2426C72.2617 92.5036 72.5225 92.9386 72.5225 93.4896C72.5514 94.3015 72.3486 95.0555 72.0299 95.7804C71.4504 97.0563 70.755 98.2743 69.9727 99.4342C67.5389 103.088 65.5976 106.974 64.2937 111.178C64.1778 111.497 64.1199 111.845 64.033 112.193C63.975 112.541 64.3517 112.86 64.6994 112.744C65.2789 112.512 65.8294 112.251 66.3799 112.019C67.2491 111.642 68.0894 111.816 68.9586 112.019C69.0455 113.353 68.3501 114.078 67.1622 114.6C63.5983 116.108 60.0924 117.761 56.4706 119.153C54.4714 119.907 53.0227 121.154 51.7768 122.807C51.3132 123.416 51.0814 123.996 51.0814 124.721C51.1104 126.141 51.1393 127.533 51.0524 128.954C50.9655 130.201 50.8206 131.39 52.2983 132.028C52.617 132.173 52.8199 132.724 52.9937 133.101C54.7901 136.958 56.065 140.96 56.8183 145.135C56.9053 145.541 56.8763 146.005 56.7894 146.411C56.6735 146.875 56.2968 147.136 55.8332 147.165C55.4565 147.194 55.1088 147.02 54.964 146.672C54.7611 146.208 54.6163 145.686 54.5004 145.164C54.0947 142.815 53.4573 140.525 52.675 138.292C52.2693 137.132 51.7478 136.03 51.2263 134.899C51.1683 134.783 50.9655 134.667 50.8206 134.696C50.6758 134.725 50.5309 134.87 50.444 135.015C50.357 135.16 50.2991 135.334 50.2701 135.508C49.9224 137.451 49.1981 139.191 48.097 140.844C47.2858 142.032 46.996 143.424 46.996 144.845C46.996 147.832 47.025 150.819 46.996 153.835C46.996 154.589 47.1409 155.198 47.8363 155.604C48.6765 156.097 49.314 156.822 49.8065 157.691C49.9514 157.981 50.2411 158.329 50.5309 158.416C52.617 159.054 52.9937 160.765 53.1386 162.563C53.3993 165.463 53.6022 168.334 53.805 171.234C54.2106 177.555 54.5583 183.877 54.9929 190.198C55.1668 192.576 55.5145 194.925 55.8622 197.274C56.4706 201.363 57.2819 205.422 57.8035 209.511C58.354 213.803 58.325 218.124 57.166 222.357C57.0211 222.85 56.8473 223.372 57.0501 223.894L57.0791 223.865C56.2968 224.039 55.6014 225.025 54.7032 224.184C53.9788 223.517 54.3265 222.705 54.5293 221.951C56.007 216.819 55.5434 211.657 54.7322 206.495C54.3265 203.885 53.834 201.305 53.3704 198.695C52.4142 193.388 52.1245 188.024 51.7768 182.688C51.487 178.222 51.2263 173.727 50.9365 169.262C50.9075 168.74 50.8206 168.218 50.7337 167.696C50.6758 167.377 50.357 167.261 50.1252 167.319C49.6327 167.464 49.1401 167.696 48.6475 167.899C45.837 169.03 42.9975 169.001 40.1291 167.986C38.1009 167.261 36.3045 166.188 34.595 164.97C32.277 163.346 30.1039 161.548 28.1627 159.518C27.8729 159.228 27.6701 158.793 27.1775 158.735C26.685 158.996 26.8588 159.489 26.8588 159.895C26.656 167.377 26.5111 174.858 26.2503 182.34C26.0475 187.618 25.6709 192.895 25.4101 198.144C25.1493 203.596 25.0044 209.047 26.2793 214.441C26.598 215.717 27.0037 216.964 27.3803 218.24C27.6121 218.994 28.0178 219.718 27.8729 220.53C27.5542 220.762 27.2644 221.023 26.9457 221.255L26.8878 221.284C26.7139 221.226 26.5401 221.226 26.3952 221.284L26.3373 221.255C26.0765 220.994 25.7578 220.762 25.4391 220.53C24.7726 218.356 23.9614 216.21 23.5557 213.948C23.1791 211.715 22.7734 209.453 22.7444 207.162C22.6865 203.219 22.7155 199.246 23.0921 195.302C23.4398 191.793 23.5847 188.285 23.6426 184.776C23.8455 174.916 24.396 165.086 24.338 155.227C24.5698 155.111 24.6857 154.937 24.6567 154.647C24.8596 154.096 24.5698 153.632 24.4829 153.11C24.338 152.095 24.4829 151.138 25.3521 150.529C26.1924 149.949 26.3373 148.876 27.0616 148.238C27.4962 147.861 27.3514 147.252 27.3803 146.759C27.815 139.51 26.8009 132.463 24.5698 125.562C24.6567 125.301 24.5409 125.127 24.3091 125.011C24.3091 124.837 24.2801 124.663 24.1932 124.518C24.2511 124.083 24.0773 123.764 23.7585 123.503C23.208 122.082 22.6575 120.661 22.107 119.24C22.165 118.805 22.0201 118.457 21.6724 118.167C21.0639 116.398 20.4844 114.658 19.876 112.889C19.9629 112.599 19.847 112.396 19.6152 112.222C19.2965 109.729 20.2526 107.786 22.107 106.191C25.6998 103.088 29.2057 99.9272 32.7986 96.8244C33.2621 96.4184 33.8416 96.1864 34.3632 95.8674C34.9427 95.9254 35.4642 95.8384 35.9568 95.4904C36.3045 95.4904 36.6232 95.4904 36.9709 95.5194C37.2606 95.8094 37.6373 95.9254 38.0429 95.8384C39.057 96.2444 39.9263 96.8534 40.3319 97.8683C40.7955 99.0572 41.6357 99.4342 42.8237 99.2312C42.9975 99.2022 43.1714 99.2022 43.3452 99.1732C43.8088 99.5212 44.3593 99.6082 44.9098 99.5212C47.0829 100.449 48.126 102.131 48.2419 104.422C48.184 104.741 48.3288 104.857 48.6186 104.828C50.9076 105.379 52.3273 106.713 52.4432 109.178C52.4722 109.642 52.5591 110.048 52.9937 110.279C55.1668 111.555 56.3547 113.498 56.6445 116.05C57.8324 115.76 58.8176 115.383 59.7158 114.861C60.1214 114.919 60.4401 114.745 60.6719 114.426C61.0486 114.252 61.4253 114.078 61.8019 113.904C62.0337 113.846 62.3814 113.817 62.4394 113.672C62.5842 113.179 62.1786 113.005 61.8019 112.86C61.4832 111.99 61.7729 111.12 61.8309 110.221C62.0337 110.105 62.1496 109.932 62.0337 109.7C63.6273 105.292 65.6265 101.116 68.3791 97.2883C69.1614 96.2154 69.7409 95.0265 70.1176 93.7506C70.3204 93.0256 70.6391 92.4456 71.3055 92.0977C71.4504 92.2426 71.5953 92.2716 71.7401 92.2426ZM25.6998 106.597C25.0044 107.206 24.338 107.757 23.7006 108.308C22.3388 109.468 21.9042 110.859 22.5706 112.57C23.1501 114.136 23.7296 115.702 24.2511 117.297C25.3521 120.545 26.8588 123.619 27.757 126.953C29.2637 132.666 30.3068 138.437 30.046 144.41C29.9591 146.701 30.046 148.992 29.9591 151.283C29.9301 152.182 30.1909 152.82 30.9442 153.255C31.3209 153.487 31.6686 153.748 32.0742 153.951C35.0875 155.604 38.1878 157.054 41.4909 158.01C41.9834 158.155 42.505 158.329 43.0265 158.416C44.2145 158.648 44.4752 158.445 44.4752 157.285C44.4463 153.429 44.4463 149.543 44.3883 145.686C44.3304 143.134 44.9098 140.815 46.3296 138.698C46.6773 138.205 46.996 137.654 47.1699 137.074C48.7055 131.738 48.7924 126.315 48.0681 120.864C48.0101 120.487 47.7783 120.226 47.3727 120.168C47.025 120.11 46.6773 120.168 46.3296 120.11C45.866 120.052 45.4893 119.82 45.5183 119.269C45.5473 118.747 45.924 118.544 46.3586 118.399C46.5324 118.341 46.7063 118.341 46.8801 118.312C48.5606 118.109 49.9804 117.587 50.2122 115.586C50.2122 115.499 50.2701 115.383 50.3281 115.354C50.5599 115.238 50.8206 115.093 51.0524 115.122C51.2842 115.151 51.6029 115.383 51.6319 115.586C51.7188 116.079 51.7188 116.63 51.6899 117.152C51.6609 117.645 51.0814 118.051 51.4581 118.689C52.3273 118.37 52.675 117.5 53.1386 116.833C54.3265 115.035 53.1676 112.802 50.9945 112.686C50.5599 112.657 50.1252 112.744 49.6906 112.802C47.1409 113.005 44.6201 113.208 42.0704 113.382C41.375 113.44 40.6506 113.382 39.9842 113.237C39.4337 113.121 39.115 112.657 39.1439 112.048C39.1729 111.439 39.4916 111.062 40.0711 110.917C40.4188 110.83 40.7665 110.859 41.1142 110.83C43.3163 110.685 45.4893 110.511 47.6914 110.337C48.2129 110.308 48.7345 110.25 49.256 110.106C49.7486 109.961 49.8934 109.526 49.8065 109.062C49.6906 108.25 49.227 107.786 48.4447 107.641C47.4596 107.467 46.5324 107.728 45.6052 108.076C42.2152 109.352 38.7093 110.163 35.1745 110.859C34.2762 111.033 33.6678 110.743 33.465 110.077C33.2621 109.41 33.5809 108.714 34.3921 108.395C35.2034 108.105 36.0727 107.844 36.9419 107.728C39.6075 107.409 42.0414 106.452 44.5332 105.611C45.4314 105.321 45.7211 104.654 45.4893 103.755C45.2286 102.682 44.5042 102.131 43.4611 101.957C42.0993 101.754 40.8245 102.073 39.6365 102.682C38.6224 103.204 37.6663 103.842 36.6521 104.393C34.1024 105.785 31.6396 107.322 28.916 108.337C26.656 109.12 26.5111 109.062 25.6998 106.597ZM27.1775 153.806C27.5252 154.473 27.6701 154.908 27.9019 155.256C31.0021 159.924 35.3483 163.143 40.3029 165.608C41.9834 166.449 43.8668 166.565 45.7211 166.333C47.2857 166.159 47.5465 165.898 47.6045 164.39C47.6334 163.694 47.6334 162.998 47.6045 162.273C47.6045 161.664 47.3147 161.287 46.6773 161.258C45.2865 161.171 43.8668 161.055 42.505 160.678C37.3186 159.228 32.3639 157.256 28.0178 153.951C27.9309 153.864 27.728 153.893 27.1775 153.806ZM28.2496 105.553C28.5393 105.466 28.916 105.437 29.2057 105.292C32.2191 103.871 35.1165 102.247 37.927 100.478C38.4775 100.13 38.4775 99.6662 38.0429 99.1732C37.2316 98.2163 36.3334 97.9553 35.2614 98.4192C34.7978 98.6222 34.3342 98.9412 33.9575 99.2602C32.1611 100.797 30.3937 102.363 28.6552 103.958C28.3365 104.248 28.1047 104.625 27.8729 104.973C27.8439 105.031 27.815 105.176 27.8729 105.234C27.9309 105.35 28.0757 105.437 28.2496 105.553ZM49.7196 162.534C49.7196 162.969 49.6906 163.404 49.7486 163.839C49.7486 163.955 49.9224 164.158 50.0383 164.187C50.1832 164.216 50.415 164.158 50.5019 164.042C50.9655 163.375 51.2552 162.679 50.9365 161.838C50.7917 161.432 50.7627 160.794 50.2991 160.794C49.5458 160.823 49.8065 161.548 49.7486 162.012C49.6906 162.186 49.7196 162.389 49.7196 162.534ZM47.4886 158.59C47.4306 158.445 47.4016 158.3 47.3437 158.155C47.1409 158.242 46.9381 158.3 46.7642 158.445C46.5904 158.59 46.6483 158.735 46.8801 158.793C47.1409 158.851 47.3437 158.822 47.4886 158.59Z" fill="#7E8386"/>
<path d="M56.2398 231.261C55.8051 231.812 55.3995 232.334 54.9649 232.885C54.7041 232.943 54.5592 233.117 54.5303 233.378L54.4723 233.465C54.2116 233.523 54.0667 233.668 54.0377 233.929L53.9508 234.016C53.69 234.045 53.5451 234.19 53.5162 234.451L53.4293 234.538C53.1685 234.567 53.0236 234.712 52.9946 234.973L52.9077 235.06C52.6469 235.089 52.4731 235.234 52.4151 235.495C50.9954 236.365 49.5467 237.263 48.1269 238.133C47.5474 238.104 46.968 238.191 46.5333 238.626C46.3595 238.655 46.1856 238.684 46.0118 238.713C44.4472 238.713 42.8536 238.684 41.289 238.684L41.231 238.655C40.7964 238.22 40.2749 238.133 39.6954 238.191C38.8262 237.785 37.9569 237.408 37.0877 237.003C36.9718 236.742 36.7979 236.597 36.5082 236.626L36.3923 236.568C36.1895 236.191 35.8997 236.017 35.4941 235.988C35.2913 235.814 35.0595 235.669 34.8567 235.495C34.7987 235.263 34.6538 235.118 34.3931 235.089L34.2482 234.973C34.2192 234.741 34.1033 234.625 33.8715 234.625C33.2631 234.016 32.6546 233.436 32.0461 232.827C32.0461 232.595 31.9302 232.479 31.7274 232.45L31.6115 232.305C31.6115 232.044 31.4667 231.899 31.2059 231.841C30.1628 230.043 29.1197 228.245 28.1056 226.418C27.7 225.693 27.5261 224.968 28.0477 224.214C28.2505 224.098 28.4243 223.982 28.6272 223.866C29.4095 223.866 29.931 224.272 30.2787 224.968C30.6843 225.751 31.061 226.534 31.4667 227.317C32.8284 229.927 34.7408 232.073 37.1167 233.813C38.4785 234.799 39.9562 235.582 41.6077 235.93C44.7369 236.626 47.5474 235.901 50.0103 233.929C53.1395 231.406 55.4285 228.187 57.3118 224.707C57.4857 224.359 57.4567 224.04 57.109 223.808L57.08 223.837C57.4277 224.156 57.7175 224.04 57.9203 223.721C58.4998 222.735 59.0503 221.749 59.6587 220.764C60.3252 219.662 60.7598 218.357 62.0636 217.719C62.3823 217.574 62.4982 217.168 62.4693 216.82C62.4113 216.211 62.3823 215.602 62.2664 214.993C60.8177 206.873 59.369 198.725 57.8623 190.605C56.8193 184.98 55.979 179.354 56.0369 173.584C56.0659 169.872 56.3557 166.189 56.7034 162.535C56.9352 160.273 57.2539 157.983 57.6305 155.75C57.8913 154.271 58.8475 153.981 60.0644 154.996C60.3831 155.257 60.5859 155.75 61.1075 155.605C61.7449 155.431 61.7449 154.851 61.7739 154.329C61.8028 153.72 61.7449 153.111 61.7739 152.473C61.8028 149.138 61.8029 145.774 61.8898 142.44C61.9767 139.018 62.4982 135.625 62.9908 132.203C63.1357 131.217 63.6572 130.608 64.6423 130.405C65.8593 130.173 67.0472 129.941 68.2641 129.738C68.4959 129.709 68.6118 129.593 68.5539 129.39C68.4959 129.245 68.438 129.013 68.2931 128.984C67.5688 128.694 66.7864 128.52 66.0621 128.201C65.3377 127.882 65.048 127.187 65.3667 126.462C65.5985 125.911 65.9172 125.36 66.207 124.838C68.438 120.749 71.0747 116.892 73.5375 112.948C74.2908 112.281 74.9282 111.383 76.1452 111.818C76.5508 112.339 76.7247 112.89 76.348 113.499C75.7395 114.456 75.1311 115.413 74.5226 116.341C72.6972 119.183 70.727 121.938 69.2493 125.012C68.4959 125.911 68.4959 125.911 69.3072 126.462C70.1764 126.694 71.0457 126.955 71.8859 127.187C72.1757 127.506 72.5234 127.65 72.958 127.592C74.0011 127.969 75.0441 128.375 76.0872 128.752C77.1593 129.129 77.5359 129.883 77.2172 130.985C77.0434 131.13 76.8985 131.275 76.7247 131.391L76.6667 131.42C75.5947 131.449 74.4936 131.304 73.5085 131.913C73.3347 131.942 73.1608 131.942 72.958 131.971C71.5382 131.942 70.0895 131.768 68.7567 132.464C68.5829 132.493 68.38 132.493 68.2062 132.522C67.6267 132.551 67.0762 132.522 66.4967 132.58C65.9752 132.638 65.5695 132.899 65.5406 133.508C64.8452 135.973 64.7293 138.525 64.5844 141.048C64.2367 147.021 64.2077 152.995 64.6134 158.968C65.2218 168.103 66.7864 177.092 69.539 185.821C69.4521 186.082 69.568 186.227 69.7708 186.372C69.8577 186.72 69.9157 187.068 70.0026 187.416C69.9157 187.677 70.0606 187.88 70.2634 188.025C70.9588 191.098 72.0308 194.056 73.2477 196.956C73.1608 197.188 73.2767 197.333 73.4795 197.449C74.088 199.566 75.1021 201.509 76.0583 203.481C78.608 208.584 81.2447 213.63 84.1131 218.531C85.6488 221.17 87.2424 223.808 89.2706 226.128C89.908 226.824 89.937 227.52 89.2995 228.216C88.778 228.216 88.2565 228.216 87.7349 228.187L87.648 228.129C87.5901 227.897 87.4452 227.752 87.1844 227.694L87.0975 227.607C87.0685 227.346 86.9236 227.201 86.6629 227.143C85.446 225.345 84.2001 223.576 82.9831 221.778C82.9831 221.344 82.7803 221.025 82.4036 220.822L82.3747 220.764C82.3747 220.474 82.2298 220.271 81.969 220.155C79.738 215.95 77.5359 211.774 75.2759 207.569C69.3652 196.521 66.0041 184.603 63.5993 172.395C62.6721 167.639 62.3534 162.796 61.8898 157.983C61.8318 157.229 62.2954 155.895 60.9916 155.895C59.8905 155.895 60.0354 157.2 59.8905 157.983C59.6298 159.374 59.5139 160.766 59.34 162.158C58.7026 167.668 58.4708 173.207 58.7895 178.745C59.0213 182.776 59.8326 186.749 60.5569 190.75C62.1505 199.653 63.918 208.555 65.2508 217.516C65.3667 218.212 65.4536 218.908 65.4826 219.604C65.6275 225.577 65.6275 231.58 65.1639 237.553C65.1059 238.191 64.99 238.771 64.5264 239.235C64.1788 239.264 63.8311 239.264 63.4834 239.293C63.3675 239.206 63.2226 239.148 63.0777 239.148C62.9039 238.916 62.73 238.684 62.5562 238.423C62.8749 233.204 62.8749 227.984 62.8749 222.764C63.0488 222.184 63.1357 221.633 62.6431 220.996C62.0636 221.749 61.5131 222.416 61.3393 223.344C59.9195 225.635 58.5287 227.926 57.109 230.217C56.8482 230.304 56.7034 230.478 56.6744 230.768L56.6164 230.855C56.3557 230.913 56.2108 231.029 56.2398 231.261Z" fill="#7E8386"/>
<path d="M72.8996 47.1517C71.335 49.8775 69.8284 52.6903 68.8432 55.7061C68.1768 57.794 67.7422 59.9398 67.6843 62.1437C67.6553 64.0286 68.032 65.7975 68.6404 67.5373C68.7273 67.8273 68.7563 68.3203 69.2489 68.1753C69.6545 68.0593 69.6255 67.6533 69.6835 67.3054C69.8284 65.8844 70.4079 64.6085 70.8425 63.2746C70.9584 62.8686 71.2481 62.5207 71.5379 62.2017C71.8566 61.8537 72.2912 61.8537 72.7258 62.0857C73.1604 62.3177 73.4502 62.6657 73.3343 63.1296C73.1894 63.8256 72.9576 64.4635 72.7258 65.1305C71.6827 68.5233 71.0743 71.9741 71.422 75.5118C71.6537 77.9477 72.2332 80.3545 72.5809 82.7614C72.8707 84.6753 73.0735 86.5891 73.2763 88.503C73.3922 89.5469 72.7838 90.1269 71.7986 90.3299C71.6248 90.3009 71.4509 90.2719 71.2771 90.2139C70.9294 89.8079 70.7266 89.344 70.7266 88.793C70.7555 86.2701 70.263 83.7763 69.7414 81.3115C69.1909 78.8466 69.0461 76.3238 69.0171 73.8009C69.0171 73.105 68.9012 72.438 68.8432 71.7421C68.6404 71.0461 68.0319 71.3361 67.5973 71.2201C66.2066 69.1322 65.5402 66.8124 65.3663 64.3186C65.1345 60.8678 65.5401 57.504 66.5253 54.2272C66.7281 54.1112 66.844 53.9662 66.7281 53.7342C69.5966 47.5576 72.3202 41.323 74.6091 34.9144C74.754 34.5085 74.8409 34.0735 74.9858 33.6675C75.1886 33.5515 75.3335 33.3775 75.2466 33.1166C76.5214 29.7528 77.8253 26.418 79.7956 23.4022C80.9545 21.6333 82.2004 19.9514 83.3884 18.2405C83.6492 18.1825 83.794 18.0375 83.823 17.7765L83.9099 17.6605C84.1417 17.6315 84.2866 17.4866 84.2866 17.2256L84.4315 17.0806C84.6632 17.0516 84.7792 16.9356 84.8081 16.7036L84.982 16.5296C85.2138 16.5006 85.3297 16.3846 85.3586 16.1526L85.5325 15.9786C85.7643 15.9497 85.8802 15.8337 85.9091 15.6017L86.054 15.4567C86.2858 15.4277 86.4017 15.3117 86.4597 15.0797L86.6045 14.9637C86.8653 14.9637 87.0102 14.8187 87.0392 14.5577C89.8207 12.3829 92.7761 10.411 96.1371 9.22208C96.7166 9.28008 97.2381 9.19308 97.7017 8.78711C98.5999 8.78711 99.4692 8.78711 100.367 8.78711C100.657 9.07709 100.976 9.22208 101.381 9.16409C101.729 9.39607 102.048 9.65705 102.396 9.88904C102.164 11.4839 101.99 11.6289 100.715 11.5419C100.628 11.5419 100.541 11.5129 100.454 11.5129C98.4551 11.107 96.6297 11.5999 94.8622 12.4699C92.2545 13.7748 89.8786 15.3987 87.7635 17.4286C82.3453 22.6192 79.0712 29.0278 77.014 36.1614C76.8402 36.4513 76.6373 36.7413 76.5214 37.0603C75.4204 39.8151 74.3194 42.5989 73.2184 45.3538C72.9866 45.9337 72.8417 46.5137 72.8996 47.1517Z" fill="#7E8386"/>
<path d="M132.065 109.206C131.862 110.047 131.717 110.917 131.428 111.758C127.168 123.763 122.851 135.768 118.592 147.774C115.897 155.4 113.203 163.027 110.508 170.653C110.276 171.32 110.045 171.987 109.697 172.596C109.465 172.973 109.03 173.147 108.538 173.031C107.987 172.886 107.553 172.538 107.553 171.958C107.582 171.349 107.727 170.74 107.929 170.16C108.828 167.492 109.697 164.825 110.653 162.186C115.926 147.455 121.2 132.753 126.473 118.022C127.371 115.528 128.24 113.063 129.052 110.54C129.457 109.235 130.211 108.655 131.544 108.771L131.515 108.742C131.515 109.119 131.659 109.351 132.065 109.293V109.206Z" fill="#7E8386"/>
<path d="M77.043 36.161C79.1002 29.0564 82.3743 22.6479 87.7925 17.4282C89.9076 15.3983 92.2835 13.7744 94.8912 12.4695C96.6586 11.5996 98.484 11.0776 100.483 11.5126C100.57 11.5416 100.657 11.5416 100.744 11.5416C102.048 11.6286 102.193 11.4836 102.425 9.88867C102.83 9.88867 103.207 9.88867 103.612 9.88867C104.047 11.5416 104.395 11.8315 105.67 11.2806C107.06 10.6716 108.48 10.3816 110.016 10.3816C118.795 10.3526 125.836 13.7744 131.225 20.705C132.79 22.7348 134.123 24.9097 135.224 27.2006C135.658 28.1285 136.18 28.9115 137.368 28.8535C136.991 29.5204 136.325 29.3754 135.716 29.4044C134.383 27.5485 133.079 25.7217 131.747 23.8658C130.443 22.0679 128.907 20.531 127.343 18.9941C123.895 15.5723 119.664 13.8324 114.97 13.0785C112.826 12.7305 110.653 12.4405 108.422 12.9045C107.031 13.1945 105.699 13.5714 104.54 14.3834C103.844 14.8474 103.294 15.1663 102.396 14.7314C100.425 13.8034 98.4261 14.2964 96.5138 14.9923C93.7612 15.9783 91.2984 17.4572 89.2412 19.6031C85.1268 23.8658 81.8237 28.7085 79.216 34.0441C78.7525 35.0011 78.2599 35.9 77.7673 36.8569C77.4776 36.625 77.2748 36.393 77.043 36.161Z" fill="#E7E8E7"/>
<path d="M95.3839 227.52C94.4567 226.94 94.5726 225.983 94.5146 225.113C95.0941 224.823 95.0652 224.272 95.1231 223.75C97.2383 209.657 100.396 195.796 104.163 182.08C104.366 181.326 104.627 180.572 104.916 179.847C105.177 179.209 105.844 178.919 106.423 179.064C107.003 179.209 107.379 179.818 107.263 180.514C107.147 181.21 106.974 181.877 106.8 182.573C103.294 194.81 100.657 207.279 98.3682 219.806C98.0785 221.459 97.8467 223.112 97.7018 224.765C97.5859 225.983 97.1803 226.766 95.9054 226.969C95.7026 226.969 95.5577 227.317 95.3839 227.52Z" fill="#7F8487"/>
<path d="M185.958 215.486C185.842 216.472 186.276 217.573 185.32 218.385C184.828 218.559 184.335 218.762 183.842 218.878C183.089 219.052 182.423 218.53 182.365 217.776C182.336 217.254 182.365 216.732 182.452 216.211C183.06 212.76 182.597 209.396 181.901 206.032C180.945 201.566 179.612 197.188 178.279 192.838C176.657 187.618 175.817 182.254 174.947 176.889C174.86 176.367 174.86 175.845 174.889 175.323C174.918 174.859 175.208 174.482 175.672 174.366C176.222 174.221 176.773 174.337 177.033 174.859C177.265 175.323 177.41 175.845 177.497 176.338C178.135 179.789 178.743 183.24 179.409 186.69C180.076 190.228 181.351 193.621 182.307 197.072C183.002 199.595 183.669 202.146 184.364 204.698C184.451 205.046 184.567 205.365 184.972 205.452L184.944 205.394C184.915 205.481 184.828 205.568 184.828 205.626C185.03 208.758 185.262 211.89 185.465 215.022C185.436 215.312 185.726 215.37 185.958 215.486Z" fill="#7E8386"/>
<path d="M100.135 141.889C95.0069 141.86 89.9943 141.251 85.1266 139.482C84.4602 139.25 83.7938 138.989 83.2143 138.612C82.7507 138.322 82.5769 137.8 82.7507 137.22C82.9245 136.64 83.6199 136.234 84.1994 136.379C84.5471 136.466 84.8658 136.611 85.1845 136.727C93.9638 139.888 102.859 140.149 111.841 137.8C112.942 137.51 114.014 137.075 115.086 136.698C115.579 136.524 116.071 136.292 116.564 136.147C117.23 135.973 117.839 136.292 118.07 136.872C118.302 137.423 118.099 138.09 117.491 138.438C116.738 138.873 115.926 139.221 115.115 139.54C111.03 141.019 106.799 141.686 102.482 141.889C101.7 141.918 100.918 141.889 100.135 141.889Z" fill="#7F8487"/>
<path d="M137.338 28.883C136.15 28.941 135.658 28.1581 135.194 27.2301C134.093 24.9103 132.76 22.7644 131.196 20.7346C125.835 13.804 118.766 10.3822 109.986 10.4112C108.451 10.4112 107.06 10.7302 105.64 11.3102C104.365 11.8611 104.018 11.5711 103.583 9.91824C104.597 8.90331 105.872 8.43934 107.263 8.14936C107.842 8.26535 108.393 8.23635 108.885 7.85938C110.073 7.85938 111.261 7.85938 112.449 7.85938C113.116 8.32335 113.869 8.29435 114.622 8.20735C115.144 8.26535 115.665 8.32335 116.158 8.38134C116.448 8.70032 116.824 8.81631 117.259 8.70032C117.607 8.75832 117.954 8.81631 118.302 8.87431C118.592 9.19329 118.939 9.30928 119.374 9.25129C127.922 12.1221 133.456 18.2117 137.396 26.0122C137.918 26.9982 138.265 27.9261 137.338 28.883Z" fill="#7F8487"/>
<path d="M33.1762 44.2797C33.1762 45.3237 32.0751 46.0486 31.2638 45.6716C30.8003 45.4686 30.3656 45.1207 29.931 44.8307C22.6874 39.437 15.4438 34.0144 8.20023 28.5917C7.79458 28.3017 7.38894 27.9538 7.04125 27.5768C6.66458 27.1708 6.75151 26.3009 7.0992 25.8659C7.47587 25.3729 8.20023 25.2279 8.75074 25.5759C9.21433 25.8369 9.61997 26.1559 10.0546 26.4749C17.2402 31.8105 24.4259 37.1752 31.5826 42.5108C32.0172 42.8298 32.4228 43.1488 32.7705 43.5258C33.0023 43.7578 33.0892 44.1347 33.1762 44.2797Z" fill="#00368E"/>
<path d="M20.6299 66.4343C16.2258 64.5204 11.8217 62.6065 7.41761 60.6926C5.65017 59.9387 3.88273 59.1847 2.1153 58.4308C1.7676 58.2858 1.44889 58.1408 1.13017 57.9958C0.550679 57.7348 0.0870883 57.3869 0.000165104 56.6909C-0.0867581 55.85 0.405807 55.415 1.13017 55.125L1.33299 55.183L1.53581 55.125C7.8812 57.8218 14.2556 60.5187 20.601 63.2155C21.0066 63.3895 21.4122 63.5345 21.7889 63.7664C23.0058 64.4334 23.0928 64.9554 22.1656 66.4923C21.673 66.4633 21.1515 66.4343 20.6299 66.4343Z" fill="#00368E"/>
<path d="M50.4735 0.000787072C50.7923 -0.0282111 51.1979 0.174776 51.4587 0.522754C51.7484 0.841733 51.9512 1.24771 52.1541 1.65368C54.7618 6.72836 57.3695 11.832 59.9772 16.9357C60.18 17.3127 60.3828 17.7187 60.4987 18.1536C60.7015 18.7336 60.4118 19.3716 59.8323 19.7195C59.2818 20.0385 58.5864 19.9515 58.1807 19.4295C57.92 19.0816 57.6882 18.7046 57.4854 18.3276C54.8777 13.2529 52.27 8.14927 49.6623 3.07459C49.4594 2.52363 49.2566 2.03066 49.1407 1.53769C48.9959 0.841733 49.6333 0.0877815 50.4735 0.000787072Z" fill="#00368E"/>
<path d="M61.3101 265.189C60.5858 264.609 60.6727 263.797 60.7306 263.014C60.9335 260.491 61.1653 257.968 61.3681 255.445C61.6578 252.052 61.9476 248.66 62.2083 245.267C62.2663 244.571 62.2663 243.846 62.8748 243.353C63.2225 243.324 63.5701 243.295 63.9178 243.295C64.5842 243.759 64.7001 244.426 64.6712 245.151C64.5263 247.79 64.3814 250.399 64.1786 253.038C63.9468 256.025 63.6571 258.983 63.4253 261.941C63.3383 262.985 63.3383 264.058 62.8458 265.015C62.3242 265.044 61.8027 265.131 61.3101 265.189Z" fill="#7F8487"/>
<path d="M70.582 111.613C70.6979 110.656 71.1325 110.047 72.0597 109.67C74.6384 108.626 77.2172 107.496 79.7669 106.365C80.7231 105.959 81.6213 105.843 82.5195 106.394L82.6644 106.597C82.5195 107.496 82.1138 108.163 81.2446 108.539C80.3754 108.916 79.5641 109.38 78.7238 109.786C78.2892 109.728 77.9415 109.902 77.7097 110.25C77.2751 110.279 76.8984 110.424 76.5797 110.743C75.3049 111.207 73.972 111.497 72.8131 112.28C71.9148 112.57 71.0746 112.599 70.582 111.613Z" fill="#7E8386"/>
<path d="M72.8125 112.31C73.9715 111.527 75.3043 111.237 76.5792 110.773C76.4053 111.121 76.2605 111.469 76.0866 111.846C74.8697 111.411 74.2322 112.31 73.4789 112.977C73.2471 112.745 73.0443 112.513 72.8125 112.31Z" fill="#E7E8E7"/>
<path d="M41.2305 238.684C42.7951 238.684 44.3887 238.713 45.9533 238.713C44.3887 239.467 42.7951 239.496 41.2305 238.684Z" fill="#E7E8E7"/>
<path d="M68.6982 132.463C70.0311 131.767 71.4798 131.941 72.8995 131.97C72.6098 132.318 72.2041 132.463 71.7695 132.463C70.7554 132.463 69.7413 132.463 68.6982 132.463Z" fill="#E7E8E7"/>
<path d="M138.295 34.2765C137.773 33.8416 137.396 33.3486 137.396 32.6237C137.86 32.8266 138.324 32.9426 138.845 32.6817C139.251 32.5077 139.685 32.5947 139.975 32.9716C139.164 33.1166 138.469 33.3486 138.295 34.2765Z" fill="#E7E8E7"/>
<path d="M61.2812 223.343C61.4261 222.415 62.0056 221.719 62.5851 220.994C63.0777 221.632 62.9907 222.183 62.8169 222.763C62.3243 222.937 61.8028 223.14 61.2812 223.343Z" fill="#E7E8E7"/>
<path d="M65.5107 133.507C65.5397 132.898 65.9164 132.637 66.4669 132.579C67.0464 132.521 67.5969 132.521 68.1764 132.521C67.9446 132.811 67.6259 132.985 67.2782 132.985C66.6118 132.985 66.0613 133.246 65.5107 133.507Z" fill="#E7E8E7"/>
<path d="M73.4502 131.913C74.4353 131.304 75.5364 131.478 76.6084 131.42C75.6522 132.319 74.5222 131.884 73.4502 131.913Z" fill="#E7E8E7"/>
<path d="M86.6045 104.422C86.9812 103.871 87.6186 103.842 88.1981 103.697C88.0822 104.422 87.7345 104.973 87.155 105.408C87.126 105.002 87.0101 104.625 86.6045 104.422Z" fill="#E7E8E7"/>
<path d="M160.055 103.871C159.36 103.871 158.664 103.871 157.969 103.871C158.664 103.204 159.36 103.204 160.055 103.871Z" fill="#E7E8E7"/>
<path d="M167.472 265.129C168.167 265.303 168.862 265.245 169.529 264.984C168.66 265.854 168.515 265.854 167.472 265.129Z" fill="#E7E8E7"/>
<path d="M162.721 245.092C163.416 245.121 164.198 244.773 164.72 245.556C164.025 245.498 163.271 245.73 162.721 245.092Z" fill="#E7E8E7"/>
<path d="M98.2812 231.782C98.9766 231.956 99.672 231.927 100.338 231.666C99.4692 232.565 99.2954 232.565 98.2812 231.782Z" fill="#E7E8E7"/>
<path d="M114.622 8.1771C113.869 8.2641 113.116 8.32209 112.449 7.82912C113.203 7.77113 113.985 7.53914 114.622 8.1771Z" fill="#E7E8E7"/>
<path d="M143.771 71.713C143.655 71.249 143.742 70.901 144.263 70.785C144.582 70.698 144.901 70.64 145.22 70.582C145.017 71.278 144.263 71.336 143.771 71.713Z" fill="#E7E8E7"/>
<path d="M176.454 123.59C176.976 123.59 177.497 123.59 178.019 123.619C177.468 124.199 176.947 124.17 176.454 123.59Z" fill="#E7E8E7"/>
<path d="M69.2487 126.489C68.4374 125.938 68.4374 125.938 69.1908 125.039C69.2197 125.503 69.2197 125.996 69.2487 126.489Z" fill="#E7E8E7"/>
<path d="M67.626 71.248C68.0606 71.364 68.6691 71.0741 68.8719 71.77C68.4083 71.741 67.9157 71.77 67.626 71.248Z" fill="#E7E8E7"/>
<path d="M20.6299 66.4355C21.1514 66.4645 21.673 66.4935 22.2235 66.5225C21.644 67.1025 21.1224 67.0735 20.6299 66.4355Z" fill="#E7E8E7"/>
<path d="M164.285 29.0281C164.807 28.9991 165.328 28.9411 165.85 28.9121C165.386 29.5791 164.865 29.6081 164.285 29.0281Z" fill="#E7E8E7"/>
<path d="M61.8311 112.918C62.2077 113.063 62.6134 113.237 62.4685 113.73C62.4395 113.846 62.0628 113.875 61.8311 113.962C61.8311 113.614 61.8311 113.266 61.8311 112.918Z" fill="#E7E8E7"/>
<path d="M35.9569 95.5193C35.4933 95.8673 34.9428 95.9543 34.3633 95.8963C34.7979 95.3453 35.3774 95.4323 35.9569 95.5193Z" fill="#E7E8E7"/>
<path d="M44.881 99.5505C44.3015 99.6375 43.78 99.5505 43.3164 99.2025C43.8959 99.1155 44.4464 99.0285 44.881 99.5505Z" fill="#E7E8E7"/>
<path d="M61.3096 265.187C61.8311 265.129 62.3237 265.071 62.8452 264.984C62.1788 265.767 62.1788 265.767 61.3096 265.187Z" fill="#E7E8E7"/>
<path d="M97.7306 8.84439C97.267 9.25036 96.7455 9.33736 96.166 9.27936C96.5717 8.7284 97.1511 8.78639 97.7306 8.84439Z" fill="#E7E8E7"/>
<path d="M46.5039 238.655C46.9385 238.191 47.489 238.133 48.0975 238.162C47.6919 238.742 47.0834 238.713 46.5039 238.655Z" fill="#E7E8E7"/>
<path d="M39.6367 238.219C40.2162 238.161 40.7377 238.248 41.1724 238.683C40.5929 238.712 40.0424 238.741 39.6367 238.219Z" fill="#E7E8E7"/>
<path d="M87.7051 228.186C88.2266 228.186 88.7482 228.186 89.2697 228.215C88.7482 228.794 88.2266 228.795 87.7051 228.186Z" fill="#E7E8E7"/>
<path d="M155.824 104.48C155.303 105.118 154.781 105.06 154.23 104.509C154.752 104.48 155.303 104.48 155.824 104.48Z" fill="#E7E8E7"/>
<path d="M108.886 7.82965C108.394 8.23563 107.843 8.26462 107.264 8.11963C107.727 7.62666 108.307 7.74266 108.886 7.82965Z" fill="#E7E8E7"/>
<path d="M147.682 108.105C147.48 108.946 146.871 108.656 146.35 108.627C146.668 108.134 147.19 108.163 147.682 108.105Z" fill="#E7E8E7"/>
<path d="M117.259 8.6713C116.825 8.7583 116.477 8.6713 116.158 8.35232C116.593 8.26533 116.969 8.32332 117.259 8.6713Z" fill="#E7E8E7"/>
<path d="M101.411 9.19208C101.005 9.25008 100.686 9.10508 100.396 8.8151C100.802 8.78611 101.15 8.8441 101.411 9.19208Z" fill="#E7E8E7"/>
<path d="M119.375 9.24978C118.94 9.33677 118.592 9.19178 118.303 8.8728C118.737 8.78581 119.114 8.8728 119.375 9.24978Z" fill="#E7E8E7"/>
<path d="M38.0437 95.8393C37.6381 95.9263 37.2614 95.8103 36.9717 95.5203C37.3773 95.4333 37.754 95.4913 38.0437 95.8393Z" fill="#E7E8E7"/>
<path d="M153.188 104.364C152.84 104.364 152.492 104.364 152.145 104.364C152.492 103.9 152.84 103.9 153.188 104.364Z" fill="#E7E8E7"/>
<path d="M157.388 103.93C157.128 104.22 156.78 104.365 156.403 104.278C156.635 103.93 156.983 103.872 157.388 103.93Z" fill="#E7E8E7"/>
<path d="M88.2269 215.398C88.5746 215.688 88.7194 216.036 88.6325 216.471C88.2848 216.21 88.1979 215.833 88.2269 215.398Z" fill="#E7E8E7"/>
<path d="M161.62 104.249C161.214 104.336 160.895 104.22 160.605 103.93C161.011 103.872 161.359 103.93 161.62 104.249Z" fill="#E7E8E7"/>
<path d="M25.4395 220.531C25.7582 220.763 26.0769 220.995 26.3666 221.227C25.903 221.256 25.5264 221.082 25.4395 220.531Z" fill="#E7E8E7"/>
<path d="M27.0039 221.227C27.3226 220.995 27.6124 220.763 27.9311 220.502C27.8731 221.082 27.4965 221.227 27.0039 221.227Z" fill="#E7E8E7"/>
<path d="M82.374 220.791C82.7507 220.994 82.9245 221.313 82.9535 221.748C82.5189 221.545 82.403 221.197 82.374 220.791Z" fill="#E7E8E7"/>
<path d="M92.4573 227.055C92.805 227.316 92.9499 227.664 92.8919 228.099C92.5152 227.838 92.4283 227.461 92.4573 227.055Z" fill="#E7E8E7"/>
<path d="M82.6644 106.627L82.5195 106.424C82.8382 106.308 83.157 106.192 83.4757 106.076C83.3308 106.424 83.0411 106.598 82.6644 106.627Z" fill="#E7E8E7"/>
<path d="M183.379 229.695C183.321 229.26 183.524 228.941 183.843 228.68C183.872 229.086 183.756 229.463 183.379 229.695Z" fill="#E7E8E7"/>
<path d="M93.5003 229.723C93.8479 229.984 93.9928 230.332 93.9349 230.738C93.5582 230.477 93.4713 230.129 93.5003 229.723Z" fill="#E7E8E7"/>
<path d="M128.994 176.861C128.936 176.426 129.11 176.107 129.458 175.846C129.458 176.252 129.371 176.6 128.994 176.861Z" fill="#E7E8E7"/>
<path d="M94.5433 232.361C94.891 232.622 95.0359 232.97 94.9779 233.376C94.6302 233.144 94.5144 232.767 94.5433 232.361Z" fill="#E7E8E7"/>
<path d="M35.4355 236.016C35.8412 236.045 36.1599 236.248 36.3338 236.596C35.9281 236.567 35.5804 236.422 35.4355 236.016Z" fill="#E7E8E7"/>
<path d="M63.3955 239.263C63.7432 239.234 64.0909 239.234 64.4386 239.205C64.1199 239.727 63.7722 239.756 63.3955 239.263Z" fill="#E7E8E7"/>
<path d="M77.709 110.28C77.9698 109.932 78.2885 109.758 78.7231 109.816C78.4913 110.193 78.1146 110.309 77.709 110.28Z" fill="#E7E8E7"/>
<path d="M172.34 242.947C172.543 242.57 172.832 242.396 173.238 242.367C173.093 242.773 172.745 242.918 172.34 242.947Z" fill="#E7E8E7"/>
<path d="M63.9171 243.266C63.5694 243.295 63.2217 243.324 62.874 243.324C63.1927 242.86 63.5404 242.802 63.9171 243.266Z" fill="#E7E8E7"/>
<path d="M157.997 242.83C158.403 242.888 158.692 243.091 158.895 243.468C158.461 243.439 158.113 243.265 157.997 242.83Z" fill="#E7E8E7"/>
<path d="M161.127 244.599C161.562 244.512 161.88 244.657 162.17 244.976C161.764 245.034 161.388 244.976 161.127 244.599Z" fill="#E7E8E7"/>
<path d="M167.993 244.977C168.254 244.629 168.602 244.513 169.036 244.571C168.775 244.948 168.399 245.035 167.993 244.977Z" fill="#E7E8E7"/>
<path d="M101.497 265.623C101.787 265.362 102.077 265.101 102.366 264.869C102.366 265.42 102.019 265.623 101.497 265.623Z" fill="#E7E8E7"/>
<path d="M130.559 173.147C130.501 172.712 130.675 172.364 131.022 172.104C131.051 172.538 130.936 172.915 130.559 173.147Z" fill="#E7E8E7"/>
<path d="M100.425 265.535C100.772 265.564 101.091 265.593 101.439 265.651C101.033 266.144 100.686 266.144 100.425 265.535Z" fill="#E7E8E7"/>
<path d="M131.659 170.509C131.602 170.074 131.775 169.755 132.094 169.494C132.123 169.9 132.007 170.248 131.659 170.509Z" fill="#E7E8E7"/>
<path d="M60.672 114.485C60.4402 114.804 60.1215 114.978 59.7158 114.92C59.9476 114.572 60.2953 114.456 60.672 114.485Z" fill="#E7E8E7"/>
<path d="M132.703 167.87C132.645 167.435 132.79 167.087 133.137 166.826C133.166 167.232 133.08 167.609 132.703 167.87Z" fill="#E7E8E7"/>
<path d="M21.6731 118.197C22.0208 118.458 22.1657 118.835 22.1077 119.27C21.7311 119.009 21.6441 118.632 21.6731 118.197Z" fill="#E7E8E7"/>
<path d="M173.267 118.632C172.861 118.69 172.455 118.69 172.311 118.168C172.687 118.197 173.035 118.255 173.267 118.632Z" fill="#E7E8E7"/>
<path d="M134.818 162.042C134.76 161.607 134.876 161.259 135.224 160.969C135.282 161.404 135.195 161.781 134.818 162.042Z" fill="#E7E8E7"/>
<path d="M23.7588 123.531C24.1065 123.792 24.2514 124.111 24.1934 124.546C23.8457 124.285 23.7588 123.937 23.7588 123.531Z" fill="#E7E8E7"/>
<path d="M72.8992 127.62C72.4646 127.678 72.1169 127.562 71.8271 127.214C72.2618 127.156 72.6384 127.214 72.8992 127.62Z" fill="#E7E8E7"/>
<path d="M24.3389 125.039C24.5417 125.155 24.6866 125.329 24.5996 125.59C24.5127 125.387 24.4258 125.213 24.3389 125.039Z" fill="#E7E8E7"/>
<path d="M175.903 123.154C176.135 123.154 176.28 123.27 176.309 123.502C176.164 123.386 176.048 123.27 175.903 123.154Z" fill="#E7E8E7"/>
<path d="M24.6576 154.646C24.6866 154.907 24.5707 155.081 24.3389 155.226C24.4548 155.023 24.5417 154.849 24.6576 154.646Z" fill="#E7E8E7"/>
<path d="M134.412 163.115C134.326 162.854 134.47 162.68 134.673 162.564C134.586 162.738 134.499 162.912 134.412 163.115Z" fill="#E7E8E7"/>
<path d="M136.324 162.535C136.498 162.68 136.643 162.825 136.498 163.086C136.44 162.883 136.382 162.709 136.324 162.535Z" fill="#E7E8E7"/>
<path d="M83.7074 112.947C83.7943 113.179 83.6784 113.353 83.4756 113.469C83.5625 113.295 83.6205 113.121 83.7074 112.947Z" fill="#E7E8E7"/>
<path d="M19.6443 112.252C19.8761 112.426 19.9631 112.629 19.9051 112.919C19.6733 112.745 19.5864 112.513 19.6443 112.252Z" fill="#E7E8E7"/>
<path d="M168.487 111.381C168.284 111.236 168.168 111.091 168.255 110.83C168.342 111.004 168.429 111.178 168.487 111.381Z" fill="#E7E8E7"/>
<path d="M167.559 245.528C167.501 245.18 167.646 245.035 167.965 244.977C167.82 245.18 167.675 245.354 167.559 245.528Z" fill="#E7E8E7"/>
<path d="M159.012 243.527C159.301 243.527 159.475 243.672 159.562 243.904C159.359 243.788 159.186 243.672 159.012 243.527Z" fill="#E7E8E7"/>
<path d="M171.673 243.381C171.789 243.12 171.963 242.975 172.223 243.004C172.021 243.12 171.847 243.265 171.673 243.381Z" fill="#E7E8E7"/>
<path d="M173.267 242.338C173.354 242.077 173.527 241.932 173.788 241.932C173.643 242.077 173.44 242.222 173.267 242.338Z" fill="#E7E8E7"/>
<path d="M62.0632 109.758C62.1501 110.019 62.0342 110.164 61.8604 110.28C61.9183 110.135 61.9762 109.932 62.0632 109.758Z" fill="#E7E8E7"/>
<path d="M173.934 241.845C173.963 241.613 174.107 241.497 174.339 241.526C174.194 241.642 174.049 241.758 173.934 241.845Z" fill="#E7E8E7"/>
<path d="M175.962 240.249C176.02 239.988 176.194 239.843 176.454 239.814C176.281 239.959 176.136 240.104 175.962 240.249Z" fill="#E7E8E7"/>
<path d="M176.541 239.728C176.57 239.467 176.715 239.351 176.976 239.322C176.831 239.467 176.686 239.612 176.541 239.728Z" fill="#E7E8E7"/>
<path d="M154.752 239.322C154.984 239.351 155.1 239.496 155.1 239.728C154.984 239.583 154.868 239.467 154.752 239.322Z" fill="#E7E8E7"/>
<path d="M177.12 239.205C177.149 238.973 177.294 238.828 177.526 238.828C177.381 238.973 177.265 239.089 177.12 239.205Z" fill="#E7E8E7"/>
<path d="M154.26 238.684C154.521 238.771 154.665 238.916 154.694 239.206C154.521 239.032 154.405 238.858 154.26 238.684Z" fill="#E7E8E7"/>
<path d="M62.4982 238.395C62.6721 238.627 62.8459 238.859 63.0198 239.119C62.6431 239.032 62.4692 238.772 62.4982 238.395Z" fill="#E7E8E7"/>
<path d="M177.671 238.684C177.7 238.452 177.816 238.307 178.048 238.307C177.932 238.423 177.787 238.568 177.671 238.684Z" fill="#E7E8E7"/>
<path d="M178.192 238.162C178.221 237.93 178.337 237.785 178.569 237.756C178.453 237.901 178.308 238.046 178.192 238.162Z" fill="#E7E8E7"/>
<path d="M178.714 237.64C178.743 237.379 178.859 237.234 179.12 237.205C178.975 237.35 178.83 237.495 178.714 237.64Z" fill="#E7E8E7"/>
<path d="M96.2529 236.914C96.4847 237.088 96.6006 237.32 96.5716 237.61C96.3109 237.436 96.195 237.204 96.2529 236.914Z" fill="#E7E8E7"/>
<path d="M179.178 237.089C179.207 236.828 179.352 236.654 179.612 236.596C179.467 236.77 179.323 236.944 179.178 237.089Z" fill="#E7E8E7"/>
<path d="M166.951 107.554C166.719 107.496 166.574 107.351 166.545 107.09C166.69 107.235 166.806 107.38 166.951 107.554Z" fill="#E7E8E7"/>
<path d="M36.4502 236.654C36.7399 236.654 36.9138 236.77 37.0297 237.031C36.7689 237.031 36.5661 236.915 36.4502 236.654Z" fill="#E7E8E7"/>
<path d="M52.3857 235.494C52.4437 235.233 52.5886 235.088 52.8783 235.059C52.7045 235.204 52.5306 235.349 52.3857 235.494Z" fill="#E7E8E7"/>
<path d="M34.335 235.117C34.5957 235.117 34.7406 235.262 34.7986 235.523C34.6537 235.378 34.4798 235.233 34.335 235.117Z" fill="#E7E8E7"/>
<path d="M52.9365 234.972C52.9945 234.711 53.1393 234.566 53.3711 234.537C53.2552 234.711 53.0814 234.856 52.9365 234.972Z" fill="#E7E8E7"/>
<path d="M33.8135 234.652C34.0453 234.652 34.1612 234.768 34.1901 235C34.0163 234.942 33.9004 234.826 33.8135 234.652Z" fill="#E7E8E7"/>
<path d="M53.4863 234.451C53.5153 234.19 53.6602 234.045 53.9209 234.016C53.7761 234.161 53.6312 234.306 53.4863 234.451Z" fill="#E7E8E7"/>
<path d="M54.0078 233.929C54.0368 233.668 54.1817 233.523 54.4424 233.465C54.2976 233.61 54.1527 233.784 54.0078 233.929Z" fill="#E7E8E7"/>
<path d="M54.501 233.407C54.53 233.117 54.6748 232.972 54.9356 232.914C54.8197 233.059 54.6458 233.233 54.501 233.407Z" fill="#E7E8E7"/>
<path d="M31.6689 232.479C31.9007 232.508 32.0166 232.624 31.9877 232.856C31.8428 232.798 31.7269 232.653 31.6689 232.479Z" fill="#E7E8E7"/>
<path d="M31.1768 231.869C31.4086 231.927 31.5534 232.072 31.5824 232.333C31.4375 232.188 31.2927 232.043 31.1768 231.869Z" fill="#E7E8E7"/>
<path d="M56.2393 231.259C56.2393 231.028 56.3552 230.883 56.587 230.854C56.4711 230.999 56.3552 231.114 56.2393 231.259Z" fill="#E7E8E7"/>
<path d="M98.0783 230.217C98.0203 230.391 97.9624 230.536 97.9045 230.71C97.7886 230.478 97.8755 230.304 98.0783 230.217Z" fill="#E7E8E7"/>
<path d="M166.429 106.945C166.197 106.916 166.052 106.771 166.023 106.539C166.168 106.684 166.284 106.8 166.429 106.945Z" fill="#E7E8E7"/>
<path d="M56.6445 230.768C56.6445 230.478 56.8184 230.304 57.0792 230.217C56.9053 230.391 56.7604 230.565 56.6445 230.768Z" fill="#E7E8E7"/>
<path d="M165.879 106.424C165.618 106.395 165.473 106.279 165.415 106.047C165.589 106.163 165.734 106.308 165.879 106.424Z" fill="#E7E8E7"/>
<path d="M87.1553 227.693C87.416 227.722 87.5609 227.867 87.6189 228.128C87.445 227.983 87.3001 227.838 87.1553 227.693Z" fill="#E7E8E7"/>
<path d="M86.6338 227.113C86.8946 227.171 87.0394 227.316 87.0684 227.577C86.9235 227.432 86.7787 227.287 86.6338 227.113Z" fill="#E7E8E7"/>
<path d="M28.5687 223.895C28.3659 224.011 28.1921 224.127 27.9893 224.243C28.1052 224.04 28.308 223.895 28.5687 223.895Z" fill="#E7E8E7"/>
<path d="M146.379 223.256C146.582 223.401 146.698 223.575 146.64 223.865C146.553 223.662 146.466 223.459 146.379 223.256Z" fill="#E7E8E7"/>
<path d="M90.8633 222.822C91.0661 222.938 91.182 223.083 91.1241 223.344C91.0371 223.141 90.9502 222.996 90.8633 222.822Z" fill="#E7E8E7"/>
<path d="M26.4541 221.256C26.6279 221.198 26.7728 221.198 26.9467 221.256C26.7728 221.546 26.6279 221.546 26.4541 221.256Z" fill="#E7E8E7"/>
<path d="M48.6193 104.857C48.3006 104.886 48.1557 104.77 48.2426 104.451C48.3585 104.596 48.4744 104.741 48.6193 104.857Z" fill="#E7E8E7"/>
<path d="M81.9395 220.096C82.2002 220.212 82.3451 220.415 82.3451 220.705C82.0843 220.589 81.9395 220.386 81.9395 220.096Z" fill="#E7E8E7"/>
<path d="M88.7773 216.965C88.9802 217.081 89.125 217.255 89.0381 217.516C88.9512 217.342 88.8643 217.168 88.7773 216.965Z" fill="#E7E8E7"/>
<path d="M87.7051 213.832C87.9079 213.948 88.0238 214.093 87.9369 214.354C87.8499 214.18 87.792 214.006 87.7051 213.832Z" fill="#E7E8E7"/>
<path d="M141.858 104.452C141.771 104.191 141.887 104.046 142.09 103.93C142.003 104.075 141.945 104.278 141.858 104.452Z" fill="#E7E8E7"/>
<path d="M142.351 102.857C142.265 102.596 142.38 102.422 142.583 102.277C142.525 102.48 142.438 102.683 142.351 102.857Z" fill="#E7E8E7"/>
<path d="M86.6621 210.643C86.8649 210.759 86.9808 210.904 86.8649 211.165C86.778 210.991 86.7201 210.817 86.6621 210.643Z" fill="#E7E8E7"/>
<path d="M86.2275 209.424C86.4593 209.598 86.5752 209.83 86.5462 210.12C86.2855 209.975 86.1696 209.743 86.2275 209.424Z" fill="#E7E8E7"/>
<path d="M71.7406 92.2436C71.5957 92.2436 71.4509 92.2436 71.335 92.1856C71.3929 92.0116 71.4798 91.8666 71.6537 91.8086C71.7116 91.9246 71.7406 92.0986 71.7406 92.2436Z" fill="#E7E8E7"/>
<path d="M71.3057 90.2422C71.4795 90.2712 71.6534 90.3002 71.8272 90.3582C71.8272 90.5032 71.7693 90.6192 71.6823 90.7352C71.5954 90.5612 71.4505 90.4162 71.3057 90.2422Z" fill="#E7E8E7"/>
<path d="M85.6191 207.453C85.822 207.569 85.9379 207.743 85.8509 208.004C85.764 207.83 85.6771 207.627 85.6191 207.453Z" fill="#E7E8E7"/>
<path d="M1.56482 55.1249L1.362 55.1829L1.15918 55.1249C1.27508 54.9219 1.41995 54.9219 1.56482 55.1249Z" fill="#E7E8E7"/>
<path d="M66.7858 53.7617C66.8728 53.9937 66.7569 54.1387 66.583 54.2547C66.641 54.0807 66.6989 53.9357 66.7858 53.7617Z" fill="#E7E8E7"/>
<path d="M144.206 43.729C144.003 43.613 143.887 43.439 144.003 43.207C144.061 43.381 144.148 43.555 144.206 43.729Z" fill="#E7E8E7"/>
<path d="M85.0977 205.857C85.3005 206.002 85.4453 206.176 85.3584 206.437C85.2715 206.234 85.1846 206.031 85.0977 205.857Z" fill="#E7E8E7"/>
<path d="M141.569 35.7547C141.366 35.6387 141.25 35.4937 141.337 35.2617C141.424 35.4357 141.511 35.6097 141.569 35.7547Z" fill="#E7E8E7"/>
<path d="M75.3047 33.1445C75.3627 33.4055 75.2468 33.5795 75.0439 33.6955C75.1309 33.4925 75.2178 33.3185 75.3047 33.1445Z" fill="#E7E8E7"/>
<path d="M83.8809 17.7754C83.8519 18.0364 83.7071 18.1814 83.4463 18.2394C83.5912 18.0944 83.736 17.9494 83.8809 17.7754Z" fill="#E7E8E7"/>
<path d="M84.3737 17.2539C84.3448 17.4859 84.2289 17.6309 83.9971 17.6889C84.113 17.5439 84.2289 17.3989 84.3737 17.2539Z" fill="#E7E8E7"/>
<path d="M84.8659 16.7324C84.837 16.9644 84.7211 17.0804 84.4893 17.1094C84.6341 16.9644 84.75 16.8484 84.8659 16.7324Z" fill="#E7E8E7"/>
<path d="M73.4504 197.419C73.2476 197.303 73.1317 197.187 73.2187 196.926C73.3056 197.1 73.3635 197.274 73.4504 197.419Z" fill="#E7E8E7"/>
<path d="M85.3874 16.2109C85.3584 16.4429 85.2425 16.5589 85.0107 16.5879C85.1556 16.4429 85.2715 16.3269 85.3874 16.2109Z" fill="#E7E8E7"/>
<path d="M85.9382 15.6582C85.9092 15.8902 85.7933 16.0062 85.5615 16.0352C85.6774 15.9192 85.8223 15.8032 85.9382 15.6582Z" fill="#E7E8E7"/>
<path d="M86.4887 15.1367C86.4597 15.3687 86.3438 15.4847 86.083 15.5137C86.2279 15.3977 86.3438 15.2527 86.4887 15.1367Z" fill="#E7E8E7"/>
<path d="M87.0684 14.6152C87.0105 14.8472 86.8656 14.9922 86.6338 15.0212C86.7787 14.8762 86.9235 14.7602 87.0684 14.6152Z" fill="#E7E8E7"/>
<path d="M70.2338 188.023C70.0309 187.878 69.8861 187.704 69.973 187.414C70.0309 187.617 70.1179 187.82 70.2338 188.023Z" fill="#E7E8E7"/>
<path d="M69.7122 186.371C69.5093 186.255 69.3934 186.081 69.4804 185.82C69.5673 186.023 69.6542 186.197 69.7122 186.371Z" fill="#E7E8E7"/>
<path d="M103.903 22.1543C107.293 23.8072 110.741 25.3441 114.073 27.113C118.158 29.2298 121.403 32.2457 123.142 36.6534C123.895 38.5382 124.358 40.5101 124.648 42.511C125.083 45.2948 125.431 48.0786 125.749 50.8915C126.01 53.2693 126.561 55.5602 127.546 57.764C127.98 58.75 128.183 59.6779 128.096 60.7798C127.893 63.7666 127.951 66.7534 127.864 69.7403C127.662 76.4968 125.025 82.1805 120.186 86.8492C118.158 88.821 115.927 90.5029 113.406 91.8368C108.973 94.1567 104.453 94.1277 99.9041 92.3008C96.1374 90.7929 93.1241 88.2411 90.6902 85.0223C86.7497 79.8316 83.9102 74.148 83.3018 67.5074C83.041 64.6076 82.7223 61.7368 82.4035 58.837C82.3166 58.112 82.3746 57.474 82.8092 56.8361C85.0402 53.6463 86.6048 50.1085 87.59 46.3098C87.8507 45.3528 88.0246 45.2368 89.0966 45.2658C91.2407 45.2948 93.2689 45.7298 95.2972 46.4547C95.7897 46.6287 96.2533 46.9477 96.8038 46.7737C97.0356 46.7157 97.2674 46.4837 97.3543 46.2808C97.4123 46.0778 97.3833 45.7008 97.2384 45.5848C96.9197 45.2948 96.5431 45.0338 96.1374 44.8888C94.5728 44.2799 92.9502 43.8449 91.2987 43.6999C90.3425 43.6129 89.3574 43.6709 88.4592 43.207C88.4012 43.033 88.2853 42.888 88.2564 42.714C88.0246 39.8722 88.0246 39.9012 90.3425 38.2773C94.2541 35.5514 97.8759 32.4776 100.715 28.5919C101.585 27.374 102.396 26.127 103.033 24.7641C103.352 24.1262 103.555 23.4592 103.381 22.7343C103.555 22.5603 103.729 22.3573 103.903 22.1543ZM103.381 84.3263C107.698 84.3263 111.146 82.4124 113.348 79.1936C114.217 77.9177 114.768 76.3518 116.362 75.6849C116.419 75.6559 116.477 75.5399 116.506 75.4819C116.68 75.1629 116.738 74.8439 116.564 74.496C116.391 74.148 116.072 73.945 115.724 74.003C115.289 74.061 114.884 74.235 114.478 74.38C109.176 76.4678 103.7 76.5838 98.1656 75.7139C96.7749 75.4819 95.442 75.0759 94.1672 74.409C93.8484 74.235 93.5297 74.061 93.211 74.003C92.7474 73.916 92.3418 74.09 92.11 74.525C91.9072 74.8729 91.9941 75.1919 92.1679 75.5109C92.2548 75.6559 92.3707 75.8299 92.5156 75.8879C93.5587 76.3518 93.9933 77.3088 94.5148 78.2367C95.0074 79.0777 95.5289 79.8896 96.1664 80.6146C98.2815 82.9054 100.889 84.2393 103.381 84.3263ZM119.201 44.7729C120.36 44.9178 121.142 45.0338 121.925 45.0628C122.272 45.0918 122.591 44.8308 122.707 44.4539C122.852 43.9609 122.562 43.6419 122.127 43.4099C121.983 43.3229 121.809 43.2939 121.635 43.2649C117.723 42.598 113.957 43.062 110.335 44.7439C109.697 45.0338 109.089 45.3818 108.654 45.9618C108.423 46.2808 108.394 46.5997 108.625 46.9187C108.857 47.2087 109.205 47.3537 109.553 47.2377C109.871 47.1217 110.19 46.9477 110.48 46.7447C113.29 45.0628 116.391 44.7149 119.201 44.7729ZM114.652 54.4872C114.565 55.9661 115.637 57.2421 117.115 57.3581C118.651 57.503 120.041 56.2851 120.128 54.7482C120.215 53.2403 118.94 51.8484 117.376 51.8194C116.014 51.7904 114.71 53.0663 114.652 54.4872ZM94.8046 54.4582C94.7466 53.0373 93.4428 51.8484 92.023 51.8194C90.5454 51.8194 89.2415 53.2113 89.2995 54.7772C89.3574 56.2561 90.5743 57.387 92.052 57.3581C93.6166 57.3581 94.8915 55.9951 94.8046 54.4582ZM103.294 62.1137C103.265 61.0408 103.352 60.0549 102.946 59.1559C102.802 58.808 102.483 58.605 102.106 58.663C101.729 58.692 101.498 58.9819 101.44 59.3589C101.44 59.5039 101.411 59.6779 101.411 59.8519C101.614 62.4907 101.266 65.0716 100.628 67.6524C100.599 67.8264 100.57 68.0004 100.599 68.1744C100.657 68.5513 100.831 68.8413 101.179 68.9573C101.556 69.0733 101.874 68.9573 102.077 68.6383C102.222 68.4353 102.338 68.1744 102.396 67.9424C102.917 65.9705 103.207 63.9986 103.294 62.1137Z" fill="white"/>
<path d="M141.395 164.013C141.076 164.013 140.323 163.781 139.686 163.317C138.787 162.65 138.643 161.374 139.454 160.533C139.859 160.098 140.381 159.721 140.874 159.344C141.453 158.909 141.888 159.054 142.004 159.75C142.235 160.881 142.438 161.983 142.612 163.114C142.67 163.607 142.322 164.042 141.395 164.013Z" fill="#F1F3F4"/>
<path d="M185.957 215.486C185.726 215.37 185.436 215.312 185.407 214.993C185.175 211.861 184.972 208.729 184.77 205.597C184.77 205.51 184.827 205.452 184.885 205.365C185.291 205.452 185.378 205.771 185.494 206.119C186.102 207.975 186.16 209.889 186.131 211.832C186.102 213.05 186.015 214.268 185.957 215.486Z" fill="white"/>
<path d="M145.452 154.213C145.249 154.184 144.727 154.097 144.235 153.981C144.119 153.952 143.974 153.749 143.945 153.604C143.916 153.459 144.032 153.227 144.119 153.169C144.582 152.937 145.046 152.705 145.568 152.531C145.944 152.415 146.466 152.154 146.727 152.647C146.871 152.908 146.871 153.343 146.784 153.662C146.669 154.213 146.234 154.3 145.452 154.213Z" fill="#E7E8E7"/>
<path d="M102.743 22.0383C102.83 21.8354 102.946 21.6034 103.033 21.4004C103.439 21.5454 103.757 21.7484 103.902 22.1833C103.728 22.3863 103.554 22.5603 103.352 22.7633C103.149 22.5023 102.946 22.2703 102.743 22.0383Z" fill="white"/>
<path d="M132.095 109.236C131.689 109.265 131.515 109.062 131.544 108.685C131.921 108.627 132.297 108.656 132.095 109.236Z" fill="white"/>
<path d="M77.0434 36.1602C77.2752 36.3921 77.507 36.6241 77.7098 36.8561C76.4639 40.4519 75.1021 44.0187 72.8711 47.1505C72.8131 46.5125 72.958 45.9615 73.2188 45.3526C74.3488 42.5977 75.4208 39.8139 76.5219 37.0591C76.6667 36.7401 76.8695 36.4791 77.0434 36.1602Z" fill="#E3E7D8"/>
<path d="M49.7199 162.535C49.7199 162.361 49.6909 162.187 49.7199 162.013C49.8068 161.549 49.5461 160.824 50.2704 160.795C50.705 160.795 50.763 161.433 50.9079 161.839C51.1976 162.651 50.9368 163.376 50.4732 164.043C50.3863 164.159 50.1545 164.217 50.0097 164.188C49.8938 164.159 49.7489 163.985 49.7199 163.84C49.6909 163.434 49.7199 162.97 49.7199 162.535Z" fill="#C8C9CB"/>
<path d="M47.4895 158.591C47.3446 158.823 47.1418 158.852 46.881 158.794C46.6492 158.736 46.5913 158.591 46.7651 158.446C46.91 158.301 47.1418 158.272 47.3446 158.156C47.4026 158.301 47.4316 158.446 47.4895 158.591Z" fill="#E7E8E7"/>
<path d="M103.381 84.3272C100.86 84.2402 98.2814 82.9063 96.1952 80.5865C95.5578 79.8615 95.0073 79.0495 94.5437 78.2086C94.0222 77.3097 93.5875 76.3237 92.5445 75.8598C92.3996 75.8018 92.2837 75.6278 92.1968 75.4828C92.0229 75.1638 91.936 74.8448 92.1388 74.4968C92.3706 74.0619 92.7763 73.8879 93.2398 73.9749C93.5875 74.0329 93.9063 74.2359 94.196 74.3808C95.4419 75.0478 96.8037 75.4538 98.1945 75.6858C103.729 76.5557 109.205 76.4397 114.507 74.3518C114.913 74.2069 115.318 74.0329 115.753 73.9749C116.101 73.9169 116.419 74.1489 116.593 74.4678C116.796 74.8158 116.709 75.1348 116.535 75.4538C116.506 75.5408 116.448 75.6278 116.39 75.6568C114.797 76.3237 114.246 77.8896 113.377 79.1655C111.175 82.4133 107.698 84.3272 103.381 84.3272ZM111.639 77.5416C106.684 78.3536 101.874 78.4406 96.9196 77.6576C97.1514 79.0785 98.1655 79.7745 99.0927 80.4995C100.339 81.4564 101.758 82.1813 103.381 82.2973C106.8 82.5293 109.958 80.7604 111.639 77.5416Z" fill="#7F8487"/>
<path d="M119.201 44.7737C116.39 44.7157 113.29 45.0636 110.479 46.7745C110.189 46.9485 109.871 47.1515 109.552 47.2675C109.204 47.3835 108.857 47.2385 108.625 46.9485C108.393 46.6295 108.422 46.2816 108.654 45.9916C109.088 45.4116 109.697 45.0636 110.334 44.7737C113.927 43.0918 117.723 42.6278 121.634 43.2948C121.808 43.3238 121.982 43.3818 122.127 43.4397C122.562 43.6427 122.822 43.9907 122.706 44.4837C122.62 44.8317 122.301 45.0926 121.924 45.0926C121.171 45.0346 120.388 44.9187 119.201 44.7737Z" fill="#85898B"/>
<path d="M114.651 54.4867C114.738 53.0658 116.042 51.7898 117.404 51.8188C118.94 51.8478 120.243 53.2397 120.157 54.7477C120.07 56.2846 118.65 57.5025 117.143 57.3575C115.637 57.2125 114.564 55.9656 114.651 54.4867Z" fill="#7F8487"/>
<path d="M94.8039 54.4591C94.8908 55.996 93.5869 57.359 92.0513 57.359C90.5736 57.388 89.3567 56.228 89.2987 54.7781C89.2408 53.2412 90.5446 51.8203 92.0223 51.8203C93.4711 51.8493 94.7459 53.0672 94.8039 54.4591Z" fill="#7F8487"/>
<path d="M103.294 62.1138C103.207 63.9986 102.946 65.9995 102.425 67.9424C102.367 68.2034 102.251 68.4354 102.106 68.6383C101.903 68.9573 101.555 69.0733 101.208 68.9573C100.831 68.8413 100.657 68.5513 100.628 68.1744C100.599 68.0004 100.628 67.8264 100.657 67.6524C101.295 65.1006 101.642 62.4907 101.439 59.8519C101.439 59.6779 101.468 59.5039 101.468 59.3299C101.526 58.953 101.758 58.663 102.135 58.634C102.483 58.605 102.801 58.779 102.975 59.1269C103.323 60.0549 103.265 61.0118 103.294 62.1138Z" fill="#85898B"/>
<path d="M111.638 77.541C109.958 80.7598 106.8 82.5287 103.41 82.2677C101.787 82.1517 100.367 81.4558 99.1213 80.4698C98.1941 79.7449 97.1511 79.0489 96.9482 77.628C101.874 78.44 106.713 78.353 111.638 77.541Z" fill="#F5F6F6"/>
</g>
<defs>
<clipPath id="clip0_1060_9079">
<rect width="189" height="266" fill="white"/>
</clipPath>
</defs>
</svg>
