<svg width="60" height="68" viewBox="0 0 60 68" fill="none" xmlns="http://www.w3.org/2000/svg">
<g style="mix-blend-mode:multiply">
<path d="M55.6991 13.7936L19.1958 8.61872C17.5654 8.38759 16.0546 9.51943 15.7945 11.1454C13.1912 27.4223 10.1826 37.4401 2.91886 51.87C1.99483 53.7056 3.1073 55.9295 5.13749 56.2485L41.7598 62.0028C43.0613 62.2073 44.3476 61.536 44.9143 60.3467C51.8585 45.7725 54.8604 35.3987 58.2212 17.2996C58.5316 15.6277 57.3827 14.0322 55.6991 13.7936Z" fill="url(#paint0_linear_4427_7635)"/>
</g>
<path d="M54.6991 11.7936L18.1958 6.61872C16.5654 6.38759 15.0546 7.51943 14.7945 9.14543C12.1912 25.4223 9.18258 35.4401 1.91886 49.87C0.994832 51.7056 2.1073 53.9295 4.13749 54.2485L40.7598 60.0028C42.0613 60.2073 43.3476 59.536 43.9143 58.3467C50.8585 43.7725 53.8604 33.3987 57.2212 15.2996C57.5316 13.6277 56.3827 12.0322 54.6991 11.7936Z" fill="url(#paint1_linear_4427_7635)"/>
<g filter="url(#filter0_d_4427_7635)">
<circle cx="36.4995" cy="39" r="11.5" fill="url(#paint2_linear_4427_7635)" shape-rendering="crispEdges"/>
<circle cx="36.4995" cy="39" r="10.25" stroke="white" stroke-width="2.5" shape-rendering="crispEdges"/>
</g>
<path d="M50.5853 56.9142C51.3663 57.6953 52.6327 57.6953 53.4137 56.9142C54.1948 56.1332 54.1948 54.8668 53.4137 54.0858L50.5853 56.9142ZM41.5853 47.9142L50.5853 56.9142L53.4137 54.0858L44.4137 45.0858L41.5853 47.9142Z" fill="white"/>
<defs>
<filter id="filter0_d_4427_7635" x="20.9995" y="24.5" width="31" height="31" filterUnits="userSpaceOnUse" color-interpolation-filters="sRGB">
<feFlood flood-opacity="0" result="BackgroundImageFix"/>
<feColorMatrix in="SourceAlpha" type="matrix" values="0 0 0 0 0 0 0 0 0 0 0 0 0 0 0 0 0 0 127 0" result="hardAlpha"/>
<feOffset dy="1"/>
<feGaussianBlur stdDeviation="2"/>
<feComposite in2="hardAlpha" operator="out"/>
<feColorMatrix type="matrix" values="0 0 0 0 0 0 0 0 0 0 0 0 0 0 0 0 0 0 0.05 0"/>
<feBlend mode="normal" in2="BackgroundImageFix" result="effect1_dropShadow_4427_7635"/>
<feBlend mode="normal" in="SourceGraphic" in2="effect1_dropShadow_4427_7635" result="shape"/>
</filter>
<linearGradient id="paint0_linear_4427_7635" x1="18.4995" y1="9.5" x2="51.4995" y2="79.5" gradientUnits="userSpaceOnUse">
<stop offset="0.015" stop-color="white"/>
<stop offset="0.68263" stop-color="#F4F4F4"/>
<stop offset="0.906518" stop-color="white"/>
</linearGradient>
<linearGradient id="paint1_linear_4427_7635" x1="17.4995" y1="7.5" x2="45.9995" y2="65.5" gradientUnits="userSpaceOnUse">
<stop offset="0.015" stop-color="white"/>
<stop offset="0.68263" stop-color="#F4F4F4"/>
<stop offset="0.906518" stop-color="white"/>
</linearGradient>
<linearGradient id="paint2_linear_4427_7635" x1="53.4995" y1="50.5" x2="24.9995" y2="32" gradientUnits="userSpaceOnUse">
<stop stop-color="white" stop-opacity="0.75"/>
<stop offset="1" stop-color="#F0F0F0" stop-opacity="0.07"/>
</linearGradient>
</defs>
</svg>
