<svg xmlns="http://www.w3.org/2000/svg" width="61" height="68" viewBox="0 0 61 68" fill="none">
  <g style="mix-blend-mode:multiply">
    <path d="M56.664 13.8198L19.9122 8.6404C18.2796 8.41032 16.7647 9.54438 16.503 11.171C13.8843 27.4467 10.8578 37.4643 3.55133 51.8936C2.62209 53.7288 3.73118 55.9514 5.76298 56.2688L42.6351 62.0283C43.9367 62.2316 45.2249 61.5604 45.7944 60.3722C52.781 45.7956 55.8006 35.4213 59.1818 17.3185C59.4937 15.6486 58.3472 14.057 56.664 13.8198Z" fill="url(#paint0_linear_4691_18680)"/>
  </g>
  <path d="M55.6582 11.8198L18.9063 6.6404C17.2738 6.41032 15.7588 7.54438 15.4971 9.17101C12.8785 25.4467 9.85193 35.4643 2.54547 49.8936C1.61623 51.7288 2.72532 53.9514 4.75712 54.2688L41.6292 60.0283C42.9308 60.2316 44.219 59.5604 44.7885 58.3722C51.7751 43.7956 54.7948 33.4213 58.1759 15.3185C58.4878 13.6486 57.3413 12.057 55.6582 11.8198Z" fill="url(#paint1_linear_4691_18680)"/>
  <g filter="url(#filter0_d_4691_18680)">
    <ellipse cx="37.3307" cy="39.0234" rx="11.568" ry="11.5" fill="url(#paint2_linear_4691_18680)" shape-rendering="crispEdges"/>
    <path d="M47.6488 39.0234C47.6488 44.6774 43.0362 49.2734 37.3307 49.2734C31.6253 49.2734 27.0127 44.6774 27.0127 39.0234C27.0127 33.3695 31.6253 28.7734 37.3307 28.7734C43.0362 28.7734 47.6488 33.3695 47.6488 39.0234Z" stroke="#DDEBF6" stroke-width="2.5" shape-rendering="crispEdges"/>
  </g>
  <path d="M51.5124 56.9418C52.2957 57.7206 53.562 57.7168 54.3408 56.9335C55.1195 56.1501 55.1158 54.8838 54.3324 54.1051L51.5124 56.9418ZM42.4591 47.9418L51.5124 56.9418L54.3324 54.1051L45.2792 45.1051L42.4591 47.9418Z" fill="#DDEBF6"/>
  <defs>
    <filter id="filter0_d_4691_18680" x="21.7627" y="24.5234" width="31.136" height="31" filterUnits="userSpaceOnUse" color-interpolation-filters="sRGB">
      <feFlood flood-opacity="0" result="BackgroundImageFix"/>
      <feColorMatrix in="SourceAlpha" type="matrix" values="0 0 0 0 0 0 0 0 0 0 0 0 0 0 0 0 0 0 127 0" result="hardAlpha"/>
      <feOffset dy="1"/>
      <feGaussianBlur stdDeviation="2"/>
      <feComposite in2="hardAlpha" operator="out"/>
      <feColorMatrix type="matrix" values="0 0 0 0 0 0 0 0 0 0 0 0 0 0 0 0 0 0 0.05 0"/>
      <feBlend mode="normal" in2="BackgroundImageFix" result="effect1_dropShadow_4691_18680"/>
      <feBlend mode="normal" in="SourceGraphic" in2="effect1_dropShadow_4691_18680" result="shape"/>
    </filter>
    <linearGradient id="paint0_linear_4691_18680" x1="19.2243" y1="9.52344" x2="52.1003" y2="79.6731" gradientUnits="userSpaceOnUse">
      <stop offset="0.015" stop-color="#DDEBF6"/>
      <stop offset="0.68263" stop-color="white"/>
      <stop offset="0.906518" stop-color="#DDEBF6"/>
    </linearGradient>
    <linearGradient id="paint1_linear_4691_18680" x1="18.2184" y1="7.52344" x2="46.6156" y2="65.6561" gradientUnits="userSpaceOnUse">
      <stop offset="0.015" stop-color="#DDEBF6"/>
      <stop offset="0.68263" stop-color="white"/>
      <stop offset="0.906518" stop-color="#DDEBF6"/>
    </linearGradient>
    <linearGradient id="paint2_linear_4691_18680" x1="54.4313" y1="50.5234" x2="25.8632" y2="31.8695" gradientUnits="userSpaceOnUse">
      <stop stop-color="#BFD7EC" stop-opacity="0.75"/>
      <stop offset="1" stop-color="white" stop-opacity="0.07"/>
    </linearGradient>
  </defs>
</svg>