<svg width="55" height="58" viewBox="0 0 55 58" fill="none" xmlns="http://www.w3.org/2000/svg">
<rect width="5" height="50" rx="2" transform="matrix(0.966634 0.256161 -0.261483 0.965208 13 5)" fill="url(#paint0_linear_8220_17188)"/>
<path d="M29.1833 7.21421L16.0679 9.13198L9.63253 32.8867L23.0428 30.7357C26.0069 30.2603 28.8276 32.1387 29.5169 35.0471C30.0012 37.091 31.571 38.7004 33.606 39.2397L43.4647 41.8523C44.5324 42.1352 45.6321 41.5003 45.921 40.4342L51.6012 19.467C51.9344 18.2369 51.0458 17.0192 49.7713 16.9596L40.8189 16.5407C38.1663 16.4166 35.9688 14.4633 35.5428 11.8508C35.0503 8.83052 32.2236 6.76965 29.1833 7.21421Z" fill="url(#paint1_linear_8220_17188)"/>
<circle cx="2.5" cy="2.5" r="2.5" transform="matrix(0.966634 0.256161 -0.261483 0.965208 14 0)" fill="url(#paint2_radial_8220_17188)"/>
<defs>
<linearGradient id="paint0_linear_8220_17188" x1="2.5" y1="0" x2="2.5" y2="50" gradientUnits="userSpaceOnUse">
<stop stop-color="#FBFBFB"/>
<stop offset="1" stop-color="#9A9A9A"/>
</linearGradient>
<linearGradient id="paint1_linear_8220_17188" x1="19.7078" y1="14.3295" x2="42.1038" y2="20.6939" gradientUnits="userSpaceOnUse">
<stop stop-color="#BECCFF"/>
<stop offset="0.548077" stop-color="#A9B1FF"/>
<stop offset="0.980769" stop-color="#BECCFF"/>
</linearGradient>
<radialGradient id="paint2_radial_8220_17188" cx="0" cy="0" r="1" gradientUnits="userSpaceOnUse" gradientTransform="translate(2.5 2.5) rotate(90) scale(2.5)">
<stop stop-color="#EAF5FD"/>
<stop offset="1" stop-color="#4C95FF"/>
</radialGradient>
</defs>
</svg>
