<svg width="212" height="232" viewBox="0 0 212 232" fill="none" xmlns="http://www.w3.org/2000/svg">
<g id="Frame" clip-path="url(#clip0_1060_8884)">
<path id="Vector" d="M71.7235 109.698C71.3048 108.533 71.8133 107.876 72.8302 107.278C75.1033 105.994 77.3465 104.62 79.5898 103.246C79.8889 103.067 80.1581 102.798 80.4272 102.56C80.7563 102.44 81.0853 102.321 81.3844 102.141C81.5937 102.022 81.8629 101.813 81.7134 101.514C81.6535 101.425 81.4143 101.335 81.2946 101.365C79.9487 101.723 78.4831 101.664 77.2568 102.41C77.0475 102.44 76.868 102.47 76.6586 102.5C76.0604 102.41 75.4921 102.47 75.0435 102.918C74.864 102.948 74.6846 102.978 74.4752 103.008C73.877 102.918 73.2788 102.978 72.8302 103.456C72.6507 103.426 72.4713 103.456 72.2918 103.545C71.6637 103.456 71.0954 103.515 70.6169 103.993C70.4374 103.963 70.2579 104.023 70.1084 104.083C69.4803 103.993 68.912 104.053 68.4335 104.531C68.254 104.501 68.1044 104.531 67.925 104.62C67.2969 104.531 66.6987 104.59 66.25 105.068C66.0706 105.038 65.921 105.068 65.7416 105.158C64.9938 105.098 64.2461 105.128 63.618 105.666L63.5283 105.695C62.9002 105.636 62.3319 105.666 61.8533 106.143C61.6739 106.114 61.5243 106.143 61.3748 106.233C60.7467 106.173 60.1485 106.203 59.6998 106.681C59.5204 106.681 59.3409 106.711 59.1914 106.801C58.7427 106.741 58.324 106.83 58.0249 107.219C57.8454 107.219 57.6959 107.249 57.5463 107.368C57.0977 107.308 56.7388 107.458 56.4995 107.846C55.6022 108.025 54.9143 108.533 54.2862 109.13C54.0469 109.13 53.9272 109.25 53.9572 109.459C53.8076 109.578 53.7179 109.727 53.688 109.877C53 110.146 52.2822 110.235 51.5644 110.056C51.4447 109.638 51.2952 109.25 51.1756 108.831C51.2354 108.682 51.3251 108.503 51.3849 108.354C52.2822 107.069 53.5085 106.233 54.8844 105.576C55.7817 105.158 56.6789 104.799 57.5762 104.411C57.995 104.501 58.3539 104.322 58.6231 104.023C58.8025 103.993 59.0119 103.963 59.1914 103.904C59.7896 103.993 60.3279 103.874 60.7766 103.456C60.9859 103.426 61.1953 103.396 61.3748 103.336C61.973 103.426 62.4814 103.306 62.9301 102.888C63.1394 102.858 63.3488 102.828 63.5582 102.769C64.1564 102.858 64.6947 102.739 65.1434 102.35C65.3528 102.321 65.5621 102.291 65.7416 102.261C66.3398 102.35 66.8782 102.261 67.3268 101.813C67.5362 101.783 67.7156 101.753 67.925 101.723C68.5232 101.813 69.0616 101.723 69.5401 101.275C69.9289 101.216 70.2879 101.126 70.6767 101.066C71.0954 101.186 71.4543 101.036 71.7235 100.738C72.0824 100.678 72.4414 100.618 72.7704 100.529C73.3686 100.469 73.3985 100.081 73.2788 99.6028C73.2788 97.0044 73.2788 94.4061 73.2788 91.8376C73.2788 89.8664 73.7275 87.9251 73.9667 85.9838C74.0565 85.2372 74.3556 84.61 75.0136 84.1919C75.193 84.1919 75.3725 84.1919 75.552 84.1919C76.539 84.4607 76.7783 85.2073 76.6287 86.0734C76.3296 87.8654 76.2399 89.6872 75.9408 91.4493C75.5221 93.9282 75.7613 96.3175 76.0903 98.7367C76.1801 99.4236 76.539 99.6924 77.2269 99.5431C78.9916 99.1847 80.7563 98.6471 82.5508 98.4679C85.6016 98.1393 87.9645 96.6162 90.1479 94.645C90.6863 94.1671 91.2246 93.6893 91.763 93.2114C94.3652 90.9416 94.3951 90.8819 93.2585 87.7161C92.0023 84.1919 91.2247 80.6079 91.3443 76.8448C91.4041 74.6646 91.763 72.5441 92.3313 70.4236C93.4679 66.1229 95.0232 61.9715 96.6682 57.8798C96.9374 57.2526 97.5655 56.4761 97.1169 55.8788C96.5785 55.162 95.8008 55.8788 95.1428 56.0281C94.5147 56.1476 93.9165 56.3566 93.2884 56.4761C92.8398 56.5657 92.3911 56.6254 91.9425 56.6553C91.1947 56.6852 90.5965 56.267 90.5068 55.6996C90.4171 55.0724 90.8059 54.6543 91.3443 54.4452C92.0023 54.1764 92.7201 54.0271 93.4081 53.8479C99.1507 52.2351 104.116 49.4277 107.615 44.4699C108.094 43.8129 108.483 43.0961 108.901 42.4092C109.32 41.7222 109.918 41.4236 110.726 41.4534C112.161 42.6481 111.025 43.9025 110.636 45.127C112.58 45.9931 114.435 46.7696 116.08 47.9045C117.067 48.5616 117.994 49.2784 118.801 50.1744C119.13 50.5327 119.28 50.9807 118.951 51.3989C118.622 51.8469 118.173 51.7871 117.755 51.4885C117.396 51.2197 117.067 50.921 116.708 50.6223C114.943 49.1888 112.939 48.1136 110.816 47.2475C109.559 46.7099 109.41 46.7099 108.483 47.8149C106.389 50.2341 103.936 52.265 101.125 53.7882C100.108 54.3257 99.2105 54.7737 99.9583 56.2073C100.287 56.8644 99.6891 57.5812 99.4199 58.2382C97.7151 62.3299 96.2196 66.5111 94.9634 70.782C93.767 74.8736 93.6473 78.9952 94.5446 83.1465C95.5915 87.8355 97.745 91.9869 100.706 95.7501C104.983 101.156 110.576 103.157 117.336 102.201C120.626 101.753 123.647 100.558 126.488 98.8561C133.637 94.5853 138.99 88.7315 142.37 81.0858C142.759 80.2197 142.909 79.3834 142.849 78.4576C142.639 74.8736 143.208 71.4092 144.344 68.0343C145.421 64.749 146.259 61.404 146.827 58.0291C147.246 55.5204 147.664 53.0415 147.305 50.473C146.647 45.9632 145.032 41.9313 142.251 38.3175C140.875 36.5255 139.559 34.6738 138.213 32.852C137.525 31.8963 137.136 30.7614 136.239 29.955C136.209 29.5966 136.269 29.2382 136.179 28.9097C136.059 28.4916 135.79 28.0734 135.67 27.6553C135.461 26.8788 135.73 26.2516 136.328 25.9828C136.957 25.714 137.405 26.0127 137.734 26.4607C138.093 26.9684 138.362 27.5657 138.661 28.1033C139.439 29.4473 140.127 30.8211 140.994 32.1053C142.161 33.8376 143.477 35.4504 144.703 37.1527C149.429 43.5441 151.074 50.6223 149.489 58.4473C148.681 62.4493 147.694 66.3917 146.468 70.2743C145.81 72.3649 145.481 74.5152 145.481 76.6955C145.451 80.5482 146.378 84.1919 147.515 87.8654C148.262 90.2547 149.309 90.8819 151.702 89.508C152.39 89.1198 152.869 88.7614 153.018 87.955C153.257 86.5214 153.616 85.1177 153.616 83.6543C153.586 81.2052 153.826 78.7562 153.198 76.3371C152.988 75.471 153.467 74.8139 154.214 74.6944C154.962 74.575 155.501 75.023 155.74 75.9189C155.77 76.0981 155.77 76.2773 155.83 76.4565C156.667 80.4287 156.488 84.3711 155.531 88.3134C155.261 89.3587 155.441 90.0158 156.278 90.6728C157.684 91.7779 158.551 93.2712 158.97 94.9735C159.299 96.3772 159.508 97.8108 159.748 99.2444C159.748 99.782 159.688 100.349 159.748 100.857C160.316 104.829 160.137 108.802 159.838 112.774C159.598 113.401 159.508 114.028 159.808 114.655C159.718 115.282 159.509 115.91 159.509 116.507C159.509 119.942 159.568 123.406 159.628 126.841C159.658 128.035 159.688 129.23 161.243 129.618C162.051 129.827 162.141 130.664 162.35 131.38C163.367 134.845 164.414 138.339 165.461 141.804C165.7 142.58 165.969 143.327 166.238 144.103C167.076 144.163 167.106 143.506 167.315 143.088C168.96 139.862 170.784 136.726 172.848 133.74C173.207 133.232 173.596 132.724 174.075 132.306C174.404 131.978 174.882 131.948 175.331 132.187C175.899 132.485 176.108 132.963 175.959 133.561C175.869 133.979 175.66 134.397 175.391 134.785C172.998 138.22 170.964 141.833 169.139 145.597C168.93 146.015 168.781 146.522 168.422 146.732C167.405 147.389 167.405 148.135 167.734 149.24C169.02 153.571 170.156 157.961 171.413 162.322C172.908 167.548 174.493 172.745 175.989 177.971C176.228 178.838 176.437 179.734 176.587 180.63C176.677 181.197 176.378 181.705 175.809 181.914C175.241 182.123 174.523 181.824 174.224 181.197C174.015 180.719 173.835 180.182 173.686 179.674C171.383 171.939 168.99 164.233 167.016 156.408C165.819 151.57 164.115 146.881 162.679 142.102C161.812 139.235 160.944 136.368 160.077 133.531C159.748 132.455 159.449 132.217 158.282 132.276C152.45 132.545 146.707 133.232 141.054 134.666C139.379 135.084 139.26 135.293 139.17 137.144C138.781 145.746 138.901 154.377 139.05 162.979C139.05 163.785 139.2 164.621 138.931 165.398C138.781 165.846 138.422 166.144 137.944 166.204C137.345 166.264 136.837 166.055 136.628 165.487C136.448 164.98 136.358 164.442 136.358 163.905C136.239 154.646 136.119 145.417 136.478 136.159C136.508 135.024 136.358 133.77 137.525 132.933C137.914 132.665 137.884 132.127 137.824 131.679C137.585 130.425 137.375 129.17 137.076 127.946C136.957 127.438 136.927 126.691 136.358 126.602C135.461 126.452 135.521 127.408 135.312 127.916C133.577 131.828 131.423 135.502 129.12 139.086C123.557 147.717 118.592 156.677 114.195 165.935C110.307 174.149 106.867 182.511 104.445 191.292C103.577 194.398 103.637 194.428 106.867 194.547C107.226 194.547 107.585 194.547 107.944 194.577C108.961 194.697 109.589 194.308 110.068 193.353C111.085 191.322 112.191 189.35 113.328 187.379C117.635 180.122 122.779 173.402 127.984 166.772C129.389 164.98 130.795 163.218 132.231 161.456C132.62 160.978 133.038 160.47 133.517 160.052C133.966 159.664 134.534 159.664 135.012 160.052C135.461 160.41 135.73 160.918 135.431 161.485C135.132 162.053 134.773 162.561 134.384 163.068C132.739 165.129 131.094 167.16 129.449 169.221C124.395 175.642 119.519 182.183 115.332 189.231C114.494 190.635 113.747 192.068 112.999 193.532C112.67 194.189 112.909 194.607 113.567 194.667C114.375 194.726 115.212 194.726 116.02 194.756C117.665 194.786 119.28 194.816 120.925 194.786C122.779 194.756 124.095 195.413 124.664 197.265C124.843 197.832 125.082 198.221 125.74 198.28C129.36 198.609 132.979 198.818 136.568 197.803C137.854 197.444 138.033 197.295 137.914 195.921C137.704 193.472 137.405 191.053 137.286 188.604C136.986 183.258 136.777 177.912 136.568 172.566C136.538 171.849 136.568 171.102 136.687 170.415C136.777 169.818 137.256 169.489 137.854 169.489C138.482 169.489 138.931 169.788 139.08 170.356C139.23 170.953 139.26 171.61 139.29 172.237C139.499 177.225 139.708 182.212 139.888 187.17C140.037 190.694 140.426 194.219 140.994 197.713C141.473 200.67 141.772 203.626 142.101 206.613C142.37 209.241 142.759 211.84 143.417 214.378C143.985 216.618 145.032 218.619 146.468 220.411C149.04 223.547 152.121 226.056 155.86 227.639C161.542 230.028 168.96 229.968 174.673 224.055C179.129 219.426 181.791 213.841 183.107 207.569C183.646 204.97 183.646 202.372 183.317 199.744C182.569 193.621 181.971 187.499 181.911 181.316C181.881 176.598 181.971 171.879 182.659 167.22C183.197 163.516 183.257 159.813 183.317 156.109C183.406 149.031 182.808 141.983 181.971 134.964C181.821 133.71 181.492 132.545 180.445 131.589C179.339 130.604 179.488 130.156 180.894 129.14C181.073 129.14 181.253 129.14 181.432 129.17C182.898 129.618 183.556 130.813 184.034 132.097C184.334 132.933 184.543 133.829 184.633 134.725C185.859 144.253 186.248 153.84 185.739 163.427C185.62 165.577 185.38 167.757 185.051 169.908C184.812 171.431 184.692 172.954 184.663 174.507C184.423 181.854 184.692 189.171 185.65 196.429C185.859 198.041 186.038 199.654 186.188 201.267C186.427 203.985 186.098 206.673 185.44 209.331C185.171 210.376 184.932 211.422 184.663 212.497C184.453 212.616 184.334 212.765 184.453 213.004C183.197 216.26 181.612 219.336 179.757 222.293C179.488 222.382 179.339 222.562 179.339 222.86L179.279 222.95C179.04 223.01 178.92 223.129 178.95 223.368C177.245 225.399 175.361 227.251 173.237 228.833C172.818 228.833 172.489 229.043 172.31 229.401L172.19 229.461C171.891 229.431 171.712 229.58 171.592 229.849C171.054 230.088 170.545 230.327 170.007 230.536C169.558 230.476 169.229 230.625 168.93 230.984C168.751 231.044 168.541 231.073 168.362 231.133C167.913 231.044 167.524 231.163 167.225 231.492C167.046 231.462 166.896 231.492 166.717 231.581C164.174 231.581 161.632 231.581 159.12 231.551L159.06 231.521C158.432 230.984 157.714 230.954 156.936 230.984L156.876 230.954C156.458 230.476 155.889 230.387 155.321 230.387C153.676 229.491 152.031 228.565 150.356 227.669C150.266 227.4 150.117 227.251 149.818 227.251L149.698 227.161C149.519 226.773 149.22 226.564 148.801 226.504C148.412 226.175 147.993 225.817 147.604 225.488C147.545 225.22 147.395 225.07 147.096 225.011L147.006 224.951C146.946 224.682 146.797 224.533 146.528 224.503L146.438 224.413C146.408 224.144 146.229 223.995 145.959 223.935L145.87 223.846C145.84 223.577 145.66 223.428 145.421 223.368C145.152 222.89 144.853 222.472 144.374 222.173C144.165 221.845 143.866 221.695 143.507 221.695C142.699 221.695 141.892 221.695 141.114 221.695C140.935 221.666 140.725 221.666 140.546 221.636C139.529 221.038 138.422 221.128 137.315 221.158C137.136 221.098 136.957 221.068 136.777 221.068C136.299 220.62 135.73 220.561 135.132 220.65C134.953 220.62 134.773 220.59 134.564 220.531C134.115 220.053 133.547 219.963 132.949 220.053C132.799 219.963 132.62 219.933 132.44 219.963C131.962 219.485 131.393 219.426 130.765 219.515C130.616 219.426 130.436 219.396 130.257 219.426C129.449 218.798 128.492 218.858 127.565 218.948C127.296 218.978 127.206 219.246 127.206 219.515C127.116 220.411 127.056 221.307 126.967 222.203C126.847 222.382 126.698 222.562 126.578 222.771L126.458 222.89C126.279 223.01 126.129 223.159 125.95 223.278L125.86 223.308C109.559 223.189 93.2585 223.129 76.9876 223.846C74.7145 223.935 72.4713 223.935 70.1981 223.995C69.4803 224.025 68.7326 223.906 68.0745 224.324C67.3567 224.324 66.609 224.354 65.8911 224.354C62.631 224.174 59.3409 224.174 56.0807 224.354C55.7218 224.354 55.3629 224.324 54.9741 224.324C54.6451 224.204 54.3161 224.025 53.9871 224.025C51.5943 223.935 49.2015 223.906 46.8087 223.846C46.6293 223.846 46.4498 223.816 46.2704 223.816C44.8646 223.159 43.3691 223.308 41.9035 223.308L41.6344 223.249H41.3652C40.5277 222.681 39.5706 222.741 38.6135 222.771C38.434 222.741 38.2546 222.711 38.0751 222.681C37.447 222.143 36.6693 222.143 35.8917 222.203L35.802 222.173C35.2038 221.636 34.456 221.606 33.7083 221.636L33.6485 221.606C33.2297 221.128 32.6614 221.038 32.0633 221.068L32.0034 221.038C31.7342 220.68 31.3753 220.531 30.9566 220.59C30.4481 220.351 29.9098 220.113 29.4013 219.903C29.2816 219.635 29.0723 219.485 28.7732 219.515L28.6535 219.456C28.4442 219.067 28.1451 218.888 27.6964 218.858C27.6964 218.858 27.6665 218.828 27.6665 218.858C27.5768 218.589 27.3973 218.44 27.0982 218.41L27.0085 218.35C26.9188 218.112 26.7692 217.962 26.5 217.932L26.3804 217.843C26.3505 217.604 26.2009 217.454 25.9318 217.395L25.842 217.275C25.8121 217.006 25.6626 216.857 25.3934 216.768C24.7055 215.633 23.9876 214.528 23.2997 213.393C22.9707 212.168 22.552 210.974 21.864 209.928C21.7145 209.271 21.535 208.644 21.3855 207.987C21.4752 207.718 21.3556 207.509 21.1462 207.36C20.9069 205.389 20.6677 203.447 20.3985 201.476C19.7405 196.578 20.219 191.799 21.4453 187.051C21.5649 186.633 21.5949 186.155 21.6547 185.737C21.864 185.617 21.9837 185.438 21.864 185.199C22.5221 183.198 23.1801 181.197 23.8381 179.196C24.0474 179.077 24.1671 178.927 24.0774 178.688C26.7393 171.64 29.9397 164.801 32.1829 157.573C32.2726 157.334 32.4222 157.095 32.5717 156.856C33.0802 156.796 33.6186 156.707 34.127 156.647C34.8449 157.274 34.8149 158.021 34.5458 158.857C34.1868 159.962 33.8877 161.097 33.5587 162.202C33.3195 162.381 33.1998 162.59 33.2297 162.889C33.1699 163.068 33.14 163.247 33.0802 163.427C32.7213 163.695 32.5717 164.084 32.6315 164.532C32.4222 165.099 32.2128 165.637 32.0034 166.204C31.6445 166.473 31.495 166.831 31.5548 167.25C31.3454 167.817 31.1361 168.355 30.9267 168.922C30.7173 169.012 30.5977 169.161 30.6874 169.43C29.9397 171.043 29.2218 172.655 28.7433 174.358C28.3844 174.626 28.2348 174.985 28.2946 175.433C28.0853 176 27.8759 176.538 27.6665 177.105C27.3375 177.374 27.1581 177.733 27.2179 178.151C26.2309 180.42 25.3635 182.69 24.855 185.109C24.6157 185.259 24.4961 185.468 24.5858 185.767C22.4024 192.666 22.2529 199.654 23.868 206.673C24.4662 209.241 25.3635 211.69 26.7991 213.96C27.9656 215.782 29.491 217.096 31.495 217.932C34.9346 219.426 38.5836 220.142 42.2924 220.62C51.5943 221.785 60.9261 221.905 70.2879 221.546C72.2918 221.457 74.2658 221.427 76.2698 221.367C91.434 220.889 106.568 220.441 121.733 220.77C122.091 220.77 122.45 220.799 122.809 220.77C124.125 220.71 124.424 220.471 124.305 219.127C124.066 216.051 123.796 212.975 123.497 209.928C123.198 206.762 122.839 203.626 122.48 200.461C122.42 199.923 122.361 199.385 122.211 198.848C121.942 197.743 121.673 197.534 120.536 197.474C119.998 197.444 119.459 197.444 118.891 197.444C109.081 197.414 99.3003 196.787 89.5198 196.13C87.5158 195.981 85.5418 195.831 83.6575 196.787C83.5079 196.877 83.3285 196.907 83.149 196.936C82.491 197.056 81.8031 196.668 81.6535 196.07C81.504 195.473 81.6535 194.935 82.162 194.667C83.0294 194.219 83.9865 193.86 84.9137 193.502C85.2427 193.382 85.6315 193.323 85.9605 193.263C86.4989 193.263 87.0373 193.263 87.5757 193.263C88.3234 193.323 89.0412 193.353 89.789 193.412C91.6434 194.129 93.6174 193.83 95.5316 193.89C96.0401 193.89 96.0102 193.442 95.8606 193.114C95.7111 192.815 95.4419 192.576 95.2326 192.277C93.1987 188.544 91.0751 184.841 89.131 181.048C86.7083 176.299 84.4052 171.461 82.0424 166.682C82.1022 166.234 81.9227 165.906 81.5638 165.637C80.5768 163.068 79.5898 160.53 78.6028 157.961C78.6925 157.692 78.5429 157.543 78.3336 157.394C78.3037 157.215 78.2438 157.035 78.2139 156.886C78.2737 156.438 78.1541 156.08 77.7952 155.781C77.1671 153.422 76.5689 151.092 75.9408 148.733C76.0305 148.434 75.9109 148.225 75.6716 148.075C75.6417 146.791 75.1332 145.597 74.8341 144.372C74.9239 144.103 74.8042 143.894 74.5949 143.715C73.9368 140.639 73.2489 137.533 72.6208 134.457C71.3646 128.543 70.4374 122.57 69.7794 116.537C69.7196 115.88 69.8093 115.282 70.1682 114.745C70.3178 114.655 70.4972 114.536 70.6468 114.446C70.8561 114.416 71.0655 114.387 71.2749 114.357C73.0994 114.416 74.9538 114.655 76.7484 113.939C77.1073 113.909 77.4363 113.879 77.7952 113.849C78.0345 113.819 78.4532 113.849 78.513 113.7C78.7822 113.222 78.2438 113.192 78.0046 113.013C77.7653 112.893 77.4662 112.893 77.2269 112.833C75.881 111.937 74.4453 111.161 72.9199 110.564C72.8003 110.295 72.6208 110.146 72.3217 110.175L72.1722 110.086C72.0226 109.966 71.8731 109.847 71.7235 109.698ZM121.015 147.09C121.134 146.911 121.254 146.732 121.374 146.552C122.301 144.282 123.736 142.281 125.023 140.221C127.984 135.442 131.154 130.813 133.158 125.527C133.487 124.66 134.265 124.392 134.983 123.914C134.654 123.257 134.325 122.63 133.996 122.002C132.5 119.105 131.094 116.149 130.107 113.043C129.031 109.668 128.253 106.233 128.193 102.679C128.163 101.425 127.894 101.305 126.698 101.873C124.903 102.769 123.108 103.575 121.164 104.113C113.567 106.203 106.628 105.218 100.676 99.6924C100.407 99.4535 100.138 99.2145 99.6592 99.2743C99.2105 99.9313 99.1806 100.738 99.0311 101.514C98.4927 104.351 97.5954 107.129 96.6383 109.847C96.1897 111.161 95.6812 111.251 94.096 110.594C93.9763 109.578 94.3054 108.652 94.6044 107.697C95.3821 105.397 96.07 103.037 96.5486 100.648C96.7878 99.4236 96.9374 98.1991 96.728 96.7058C96.2196 97.1538 96.0401 97.542 95.8906 97.9601C94.8437 100.857 94.0063 103.814 93.5576 106.86C93.3482 108.264 92.8099 109.668 93.109 111.131C92.5108 120.479 92.9295 129.768 94.3353 139.026C94.6044 140.818 95.1727 142.55 95.1428 144.372C95.1727 144.641 95.2326 144.91 95.2625 145.178C95.3821 145.507 95.5616 145.836 95.6214 146.194C97.1767 154.377 98.732 162.531 100.586 170.654C101.274 173.641 102.022 176.627 102.77 179.614C102.949 180.301 103.218 180.988 103.458 181.675C103.518 181.884 103.667 182.003 103.876 181.944C104.026 181.884 104.265 181.854 104.295 181.735C104.594 181.078 104.923 180.42 105.163 179.763C108.692 170.326 113.029 161.306 117.814 152.436C118.413 151.331 119.13 150.286 119.788 149.21C120.387 148.703 120.626 147.986 120.865 147.299C120.865 147.209 120.895 147.12 121.015 147.09ZM76.21 108.742C76.4193 109.459 77.0175 109.608 77.4662 109.817C79.4402 110.743 81.4143 111.639 83.3883 112.565C83.8669 112.804 84.4052 112.953 84.8539 113.252C85.5717 113.729 85.482 114.954 84.7043 115.282C83.9566 115.611 83.149 115.85 82.3714 115.94C79.6795 116.298 76.9577 116.567 74.2658 116.895C72.8003 117.074 72.6806 117.194 72.7704 118.568C72.8302 119.464 72.9199 120.36 73.0396 121.286C74.0266 128.573 75.4921 135.771 77.2568 142.879C78.6925 148.673 80.0683 154.497 82.2817 160.082C86.7681 171.401 92.5108 182.093 98.6423 192.606C98.8815 192.994 99.1507 193.353 99.4498 193.681C99.8386 194.069 100.586 193.92 100.826 193.412C100.975 193.084 101.095 192.725 101.185 192.397C101.633 190.814 101.992 189.231 102.531 187.678C102.889 186.633 102.949 185.826 101.873 185.169C101.334 184.841 101.274 184.094 101.095 183.467C100.227 180.152 99.2704 176.837 98.4927 173.462C96.2196 163.666 94.3054 153.78 92.5108 143.894C91.763 139.713 91.105 135.502 90.7162 131.261C90.4171 128.005 90.3872 124.75 90.2376 121.495C89.9385 113.939 90.4769 106.472 92.78 99.1846C92.9594 98.5873 93.109 97.9601 93.1987 97.333C93.2884 96.885 92.6603 96.4668 92.2715 96.7356C90.4171 98.0199 88.5627 99.334 86.7382 100.648C86.6784 100.708 86.6186 100.797 86.6186 100.887C86.2895 102.141 85.2128 102.769 84.2557 103.396C82.2816 104.71 80.2777 105.964 78.3037 107.219C77.5858 107.726 76.7184 108.025 76.21 108.742ZM140.606 131.739C141.144 131.649 141.593 131.56 142.041 131.5C146.049 130.693 150.087 130.036 154.155 129.738C157.086 129.529 157.056 129.558 156.876 126.781C156.577 122.062 156.458 117.373 157.056 112.684C157.415 109.877 157.475 107.069 157.325 104.262C157.176 101.365 156.936 98.4679 156.338 95.6306C156.069 94.3165 155.381 93.301 154.274 92.5544C153.556 92.0765 152.809 91.8376 151.971 92.2856C150.536 93.092 149.04 93.1816 147.545 92.5245C146.588 92.1064 145.72 92.2557 145.062 93.0024C143.806 94.3762 142.281 95.0034 140.456 94.7943C139.559 94.7047 138.871 95.0333 138.512 95.8994C137.764 97.6018 136.328 98.2289 134.564 98.2588C134.205 98.2588 133.846 98.2588 133.487 98.2887C132.709 98.3484 132.141 98.7964 131.752 99.4236C131.304 100.14 131.154 100.947 131.064 101.753C130.885 103.306 131.034 104.829 131.304 106.353C132.291 112.236 134.534 117.672 137.615 122.719C138.721 124.541 139.529 126.393 139.948 128.453C140.157 129.529 140.366 130.604 140.606 131.739ZM141.951 218.589C140.695 215.603 140.037 212.437 139.619 209.211C139.349 206.971 139.14 204.732 138.901 202.462C138.841 201.924 138.811 201.387 138.691 200.849C138.602 200.461 138.303 200.252 137.914 200.252C137.645 200.252 137.375 200.252 137.106 200.341C133.547 201.237 129.958 201.446 126.339 200.909C126.249 200.909 126.159 200.909 126.069 200.909C125.531 200.939 125.232 201.237 125.292 201.775C125.77 206.165 126.249 210.585 126.698 214.976C126.787 215.692 127.056 216.111 127.834 216.2C130.257 216.469 132.62 217.156 134.983 217.783C136.717 218.231 138.512 218.53 140.306 218.828C140.845 218.918 141.383 219.037 141.951 218.589ZM139.02 92.0466C140.635 92.0466 142.071 92.5245 143.088 91.2403C143.686 90.4637 145.062 90.2547 145.152 89.2691C145.242 88.3731 144.703 87.3875 144.434 86.4617C144.314 86.0436 144.225 85.5956 144.105 85.1774C144.045 85.058 143.866 84.9086 143.716 84.8788C143.567 84.8788 143.357 84.9982 143.297 85.1177C141.922 87.2979 140.576 89.508 139.02 92.0466ZM93.2884 95.9292C93.2286 95.989 93.109 96.0487 93.1389 96.1084C93.1688 96.2279 93.2286 96.3474 93.2884 96.4668C93.3482 96.4071 93.4679 96.3474 93.438 96.2876C93.438 96.1682 93.3482 96.0487 93.2884 95.9292Z" fill="#7D8385"/>
<path id="Vector_2" d="M159.688 99.2152C159.418 97.7816 159.239 96.348 158.91 94.9443C158.491 93.2419 157.624 91.7486 156.218 90.6436C155.381 90.0164 155.231 89.3295 155.47 88.2842C156.427 84.3717 156.607 80.3995 155.769 76.4273C155.739 76.2481 155.739 76.0689 155.68 75.8897C155.47 74.9937 154.902 74.5457 154.154 74.6652C153.406 74.7847 152.928 75.4417 153.137 76.3078C153.736 78.727 153.496 81.176 153.556 83.625C153.586 85.0885 153.227 86.4922 152.958 87.9258C152.808 88.7321 152.3 89.0905 151.642 89.4788C149.249 90.8526 148.172 90.2255 147.454 87.8362C146.318 84.1925 145.421 80.519 145.421 76.6662C145.421 74.486 145.75 72.3356 146.408 70.245C147.634 66.3624 148.621 62.4201 149.428 58.418C151.014 50.5931 149.369 43.5148 144.643 37.1235C143.417 35.451 142.101 33.8084 140.934 32.0761C140.067 30.7919 139.379 29.418 138.601 28.0741C138.272 27.5365 138.033 26.9392 137.674 26.4314C137.345 25.9834 136.866 25.6549 136.268 25.9536C135.67 26.2224 135.401 26.8496 135.61 27.5663C135.73 27.9845 135.999 28.4026 136.119 28.8207C136.208 29.1492 136.178 29.5375 136.178 29.866C135.82 30.105 135.431 30.3439 135.072 30.6127C133.786 29.5375 133.786 29.5375 132.799 30.1946C132.559 30.3439 132.35 30.4932 132.141 30.6724C128.462 33.6292 124.155 35.1225 119.609 36.1379C115.361 37.0936 111.114 37.691 106.747 37.7507C106.03 37.7507 105.312 37.7507 104.654 38.1389C104.265 38.3779 103.936 38.7064 103.996 39.2141C104.026 39.692 104.325 40.1101 104.773 40.2296C105.282 40.3789 105.85 40.4088 106.359 40.4088C107.884 40.4386 109.439 40.4088 110.965 40.4088C110.845 40.7672 110.755 41.1256 110.636 41.484C109.858 41.4541 109.23 41.7527 108.811 42.4397C108.392 43.1266 108.004 43.8434 107.525 44.5004C104.026 49.4881 99.0606 52.2955 93.3179 53.8784C92.63 54.0576 91.9121 54.2368 91.2541 54.4757C90.7157 54.6848 90.3568 55.1029 90.4166 55.7301C90.5064 56.2975 91.1046 56.7157 91.8523 56.6858C92.301 56.6559 92.7496 56.5962 93.1983 56.5066C93.8264 56.3871 94.4246 56.1781 95.0527 56.0586C95.7107 55.9093 96.5182 55.1925 97.0267 55.9093C97.4753 56.5066 96.8173 57.2831 96.5781 57.9103C94.933 62.0318 93.3777 66.1832 92.2411 70.4541C91.6729 72.5447 91.3139 74.6652 91.2541 76.8753C91.1644 80.6384 91.9121 84.2522 93.1683 87.7466C94.3049 90.9124 94.275 90.9422 91.6729 93.2419C91.1345 93.7198 90.5961 94.1976 90.0577 94.6755C87.8743 96.6467 85.5115 98.1698 82.4607 98.4984C80.6661 98.7074 78.9313 99.245 77.1367 99.5735C76.4488 99.7229 76.0899 99.4541 76.0002 98.7672C75.6712 96.348 75.4319 93.9587 75.8506 91.4798C76.1497 89.7177 76.2394 87.8959 76.5385 86.1039C76.6881 85.2079 76.4488 84.4912 75.4618 84.2224C75.4618 84.073 75.4319 83.9536 75.3721 83.8341C75.5814 82.968 75.8207 82.1019 76.0301 81.2358C76.8077 81.1462 77.4358 80.8774 77.705 80.071C78.0041 79.1153 78.2733 78.1595 78.5425 77.2038C80.3371 70.9618 83.358 65.2873 86.7677 59.8218C87.1864 59.1348 87.635 58.4479 87.9341 57.7013C88.1435 57.1637 87.8743 56.6261 87.336 56.3274C86.8873 56.0586 86.4387 56.1781 86.0797 56.5066C85.4816 57.1039 84.9432 57.761 84.1057 58.6868C84.3151 55.8794 85.1226 53.6693 85.6311 51.3696C86.1695 48.9505 87.1266 46.7404 88.4725 44.6498C89.5493 43.6642 90.1774 42.3202 91.0148 41.1554C92.3907 39.244 93.7067 37.3326 95.0527 35.4211C97.1463 33.1513 99.2101 30.8815 101.453 28.761C106.508 23.9525 112.4 20.7569 119.22 19.2636C122.241 18.6065 125.291 18.0988 128.402 18.5468C131.961 19.0246 135.341 20.0401 137.913 22.7579C138.571 23.4448 139.229 23.5941 140.097 23.4448C143.476 22.8774 146.378 24.072 149.01 26.0133C151.851 28.1637 154.214 30.7919 155.769 34.0772C156.068 34.7342 156.427 35.3614 156.756 35.9886C157.384 37.9597 157.893 39.9309 157.863 42.0514C157.863 43.037 158.102 43.9927 158.222 44.9783C158.312 45.6652 158.73 46.1132 159.329 46.4119C159.329 46.5911 159.388 46.7404 159.478 46.8598C159.388 47.6364 159.508 48.383 159.897 49.0699C159.837 49.2491 159.807 49.3985 159.837 49.5777C158.91 50.1451 158.85 50.9814 159.03 51.9371C160.286 58.6868 161.512 65.4366 163.277 72.0668C164.114 75.2327 164.443 78.4582 164.383 81.7136C164.264 86.761 163.307 91.5993 160.465 95.8701C159.927 96.7064 159.807 97.5426 160.136 98.4386C160.076 98.6477 159.987 98.8269 159.927 99.036C159.927 99.1853 159.807 99.1853 159.688 99.2152ZM90.3568 76.9649C90.3568 76.3377 90.3867 76.0689 90.3568 75.8001C90.297 75.3223 90.0577 74.934 89.5792 74.8145C89.0109 74.6652 88.4426 74.8145 88.2033 75.382C87.9341 75.9494 87.7846 76.5766 87.6051 77.174C87.0668 79.0854 86.5882 81.0267 85.9601 82.9083C84.6441 86.8804 82.4308 90.4345 80.0679 93.8691C79.7987 94.2275 79.4996 94.5859 79.2603 94.9742C78.9313 95.4819 79.1407 96.1987 79.6492 96.6765C80.0679 97.0349 80.6661 97.0349 81.1147 96.6168C81.5634 96.1688 82.012 95.7208 82.3709 95.2131C85.8704 90.2852 88.5323 84.9989 89.8484 79.0854C90.0278 78.2193 90.2372 77.4129 90.3568 76.9649Z" fill="#00368E"/>
<path id="Vector_3" d="M60.3577 171.49C59.1015 166.831 58.8024 162.083 59.1912 157.304C59.3408 155.512 59.6399 153.72 59.9091 151.958C60.4474 148.643 60.3577 145.328 60.0287 141.983C59.939 140.908 59.58 139.832 60.3278 138.847C60.8662 138.817 61.4045 138.817 61.9429 138.787C62.2719 139.116 62.4514 139.534 62.5112 139.982C63.0496 144.94 63.1393 149.838 62.1822 154.765C61.0755 160.44 61.4943 166.055 63.3188 171.55C63.229 171.819 63.3487 171.998 63.558 172.118C63.6478 172.476 63.7375 172.834 63.8571 173.193C63.7674 173.462 63.917 173.611 64.1263 173.73C66.2499 178.957 67.536 184.423 68.4931 189.948C68.5829 190.396 68.6726 190.844 69.1212 191.083C69.3605 191.351 69.6596 191.501 70.0185 191.501C71.514 191.531 72.9796 191.531 74.4751 191.561C74.834 191.59 75.1929 191.65 75.5518 191.68C75.8509 192.009 76.2098 192.128 76.6585 192.038C77.2268 192.277 77.825 192.516 78.3932 192.725C78.5428 192.845 78.7223 192.964 78.8718 193.114C79.141 193.741 79.141 194.368 78.8718 195.025C78.6624 195.144 78.4531 195.294 78.2437 195.413C75.3425 194.248 72.2618 194.159 69.211 193.95C65.1432 193.711 61.1353 192.994 57.1574 192.128C55.3628 191.74 53.5981 191.59 51.7736 191.799C49.5902 192.038 47.5563 192.606 45.672 193.83C43.5484 195.204 41.3351 196.429 39.1517 197.713C37.3272 198.788 35.3831 199.505 33.2595 199.565C29.9395 199.654 27.9356 196.757 29.1021 193.651C29.2516 193.233 29.4909 192.845 29.7302 192.457C29.9096 192.158 30.1788 191.889 30.3882 191.62C31.106 191.471 31.8238 191.441 32.5417 191.68C32.6912 192.247 32.751 192.815 32.5716 193.382C32.3024 193.442 32.1528 193.621 32.1229 193.89L32.0332 193.98C31.764 194.01 31.6444 194.159 31.6743 194.428C31.4051 195.234 31.2256 196.011 32.093 196.578C32.9604 197.355 33.8278 197.146 34.7251 196.608C36.0112 196.459 37.1179 195.831 38.2245 195.204C40.4677 193.86 42.7409 192.546 44.9841 191.202C46.5693 190.276 48.2144 189.619 50.0388 189.35C50.7866 189.47 51.5343 189.5 52.2223 189.022C52.7606 188.992 53.299 188.932 53.8075 188.902C54.3758 188.783 54.2262 188.544 53.9271 188.275C53.957 185.796 54.974 183.736 56.6788 181.944C58.4435 180.062 59.6997 177.882 60.3876 175.373C60.597 175.254 60.7166 175.104 60.6269 174.836C61.0755 173.91 61.0456 173.014 60.6568 172.088C60.6867 171.819 60.5671 171.64 60.3577 171.49ZM62.7505 177.942C62.4813 178.061 62.242 178.121 62.1822 178.24C61.1354 180.57 59.6399 182.601 57.935 184.482C57.3069 185.169 56.8882 185.976 56.6788 186.842C56.4096 187.827 56.8583 188.902 57.7556 189.38C58.2341 189.649 58.7426 189.828 59.2809 189.918C61.1353 190.246 63.0197 190.545 64.904 190.844C65.562 190.933 65.891 190.575 65.7714 189.858C65.2928 187.379 64.7843 184.9 64.246 182.422C63.887 180.898 63.4683 179.375 62.7505 177.942Z" fill="#7E8386"/>
<path id="Vector_4" d="M88.6523 44.7697C87.3063 46.8304 86.3492 49.0704 85.8109 51.4895C85.3024 53.7594 84.4948 55.9993 84.2855 58.8067C85.1229 57.8809 85.6613 57.2238 86.2595 56.6265C86.5885 56.298 87.0671 56.1785 87.5157 56.4473C88.0541 56.746 88.3233 57.2836 88.1139 57.8212C87.8148 58.5678 87.3662 59.2547 86.9474 59.9416C83.5377 65.4071 80.5168 71.0817 78.7223 77.3237C78.4531 78.2794 78.154 79.2352 77.8848 80.1909C77.6455 80.9973 76.9875 81.2661 76.2098 81.3557C76.1201 81.3258 76.0304 81.2959 75.9407 81.2661C75.9407 81.0271 75.821 80.9077 75.6116 80.8479C75.4023 79.8624 75.6117 78.9365 75.8808 78.0107C76.1799 76.9056 76.479 75.8304 76.7482 74.7254C76.9576 74.6059 77.0772 74.4566 76.9875 74.1878C78.0343 71.4998 79.1111 68.8119 80.457 66.2434C80.9954 65.2578 81.1749 64.2424 81.2347 63.1373C81.6534 55.3721 83.5377 47.9952 87.426 41.1857C90.3571 36.0786 93.7369 31.2702 97.6252 26.8201C101.543 22.3402 106.09 18.6667 111.623 16.3371C112.042 16.3968 112.371 16.2177 112.64 15.8891C113.956 15.471 115.242 15.0827 116.558 14.6646C117.007 14.7542 117.366 14.6347 117.665 14.3062C118.024 14.2465 118.383 14.1868 118.741 14.127C119.34 14.2166 119.878 14.1569 120.357 13.7388C120.895 13.679 121.463 13.6193 122.002 13.5596C122.929 13.6492 123.856 13.679 124.693 13.2012C126.159 13.2012 127.595 13.2012 129.06 13.2012C130.077 13.7686 131.214 13.6492 132.32 13.6193C132.679 13.6492 133.038 13.7089 133.397 13.7388C133.696 14.0374 134.055 14.1569 134.474 14.0374C134.863 14.0972 135.222 14.1868 135.611 14.2465C135.91 14.575 136.239 14.7243 136.657 14.6347C137.704 15.1126 138.781 15.5307 139.768 16.1281C140.875 16.815 141.981 17.6214 142.131 19.1147C140.725 20.16 140.665 20.2197 139.648 19.264C138.422 18.0992 136.956 17.4422 135.401 16.9643C133.218 16.3072 131.004 15.8593 128.731 15.8294C125.83 15.7697 122.929 15.8593 120.057 16.4566C114.734 17.5318 109.828 19.4731 105.491 22.7882C101.125 26.1332 97.685 30.2846 94.6342 34.8242C93.0789 36.4967 92.0321 38.4679 90.8656 40.3793C89.9683 41.8129 89.0411 43.1569 88.6523 44.7697Z" fill="#7E8386"/>
<path id="Vector_5" d="M21.5945 29.5374C19.0522 28.8504 16.5996 28.0142 14.476 26.282C6.13116 19.5322 7.38737 6.00286 17.8558 1.37361C23.09 -0.955945 28.2045 -0.298891 32.7807 3.16558C37.2672 6.57032 39.1814 11.2892 38.4037 16.8144C37.6261 22.4292 34.4557 26.4612 29.0719 28.5518C28.055 28.9699 27.0081 29.2088 25.9613 29.5374C24.5256 29.5374 23.0601 29.5374 21.5945 29.5374ZM36.1007 14.7238C36.0409 7.91429 30.5375 2.50852 23.7181 2.53839C16.9286 2.56826 11.4551 8.03376 11.4551 14.8432C11.4551 21.7423 17.0781 27.2675 23.9573 27.1481C30.8366 27.0286 36.1605 21.5332 36.1007 14.7238Z" fill="#00368E"/>
<path id="Vector_6" d="M94.6045 34.8838C97.6553 30.3441 101.095 26.1927 105.462 22.8477C109.799 19.5326 114.734 17.5913 120.028 16.5161C122.899 15.9188 125.77 15.8591 128.702 15.8889C131.005 15.9188 133.188 16.3967 135.371 17.0238C136.957 17.5017 138.392 18.1886 139.619 19.3235C140.636 20.2793 140.695 20.2195 142.101 19.1742C142.52 19.2041 142.909 19.2339 143.327 19.2638C143.178 21.1752 143.178 21.2648 144.763 21.3843C146.199 21.5038 147.335 22.131 148.502 22.8776C149.818 23.7437 150.895 24.8189 151.911 25.9837C154.394 28.9106 156.398 32.1361 156.906 36.0486C156.577 35.4214 156.218 34.7942 155.919 34.1371C154.394 30.8519 152.031 28.2236 149.16 26.0733C146.558 24.1021 143.627 22.9373 140.247 23.5048C139.379 23.6541 138.691 23.5048 138.063 22.8179C135.491 20.1001 132.141 19.0846 128.552 18.6068C125.441 18.1886 122.391 18.6665 119.37 19.3235C112.55 20.8168 106.658 24.0125 101.603 28.821C99.3601 30.9415 97.2964 33.2412 95.2027 35.4811C95.0232 35.3019 94.8139 35.0929 94.6045 34.8838Z" fill="#E7E8E7"/>
<path id="Vector_7" d="M41.7839 45.3957C40.0791 44.7685 38.4639 43.9621 37.1778 42.648C33.9775 39.3926 33.2297 34.5543 35.3533 30.6418C37.4769 26.7293 42.083 24.5192 46.3601 25.3555C50.8166 26.2515 54.4058 30.1042 54.6451 34.5841C54.8844 38.9446 53.03 42.2896 49.2015 44.4698C48.5734 44.8282 47.8855 45.0671 47.2275 45.3658C46.5695 45.3061 45.9414 45.3359 45.403 45.7839C44.7749 45.7839 44.1767 45.7839 43.5486 45.8138C43.0401 45.3359 42.412 45.3359 41.7839 45.3957ZM44.2664 43.1856C48.6332 43.2154 52.1327 39.8704 52.1925 35.5697C52.2523 31.2391 48.8725 27.7448 44.5356 27.6552C40.1688 27.5656 36.6993 30.9106 36.6394 35.2711C36.5796 39.6016 39.9893 43.1557 44.2664 43.1856Z" fill="#00368E"/>
<path id="Vector_8" d="M160.226 98.5875C159.897 97.6617 160.017 96.8553 160.555 96.019C163.397 91.7183 164.354 86.9099 164.474 81.8625C164.533 78.5772 164.234 75.3816 163.367 72.2157C161.602 65.5855 160.376 58.8357 159.12 52.086C158.94 51.1303 159 50.294 159.927 49.7266C160.137 49.7266 160.376 49.7266 160.585 49.7266L160.645 49.7564C160.795 49.846 160.974 49.9356 161.124 50.0551C161.931 51.1303 161.842 52.4742 162.051 53.6988C163.128 60.0304 164.474 66.3023 166.059 72.5144C167.435 77.95 167.405 83.4155 166.268 88.9109C166.149 89.4485 166.089 89.9861 165.999 90.5237C165.79 90.673 165.67 90.8522 165.76 91.121C165.67 91.4794 165.58 91.8378 165.491 92.1962C165.281 92.3156 165.162 92.4948 165.251 92.7338C164.294 94.8543 163.397 97.0345 161.692 98.7369C161.243 98.6174 160.735 98.5875 160.226 98.5875Z" fill="#7D8385"/>
<path id="Vector_9" d="M35.2639 150.315C34.875 149.718 34.7255 149.091 35.0246 148.374C35.1741 147.986 35.204 147.538 35.2639 147.12C35.4732 146.97 35.5929 146.791 35.5331 146.522C35.6228 146.164 35.7125 145.806 35.8022 145.447C36.0116 145.328 36.1313 145.149 36.0116 144.91C36.55 143.297 37.208 141.714 37.4174 140.012C37.6267 139.892 37.7464 139.713 37.6267 139.474C38.1651 137.861 38.7932 136.248 39.0325 134.546C39.212 134.427 39.3316 134.277 39.2119 134.038C40.4083 130.066 41.6047 126.094 42.831 122.122C43.5489 119.792 44.2069 117.463 45.0144 115.133C45.7024 113.102 46.7492 111.37 48.8728 110.504C49.4112 110.504 49.9495 110.534 50.4879 110.534L50.5776 110.564C50.7571 110.713 50.9066 110.832 51.0861 110.982C51.2656 111.549 51.2057 112.147 51.0263 112.714C50.4879 112.863 49.8897 112.833 49.471 113.311C48.484 113.729 48.0353 114.536 47.796 115.492C47.5867 115.611 47.4371 115.76 47.5268 115.999C46.9586 117.582 46.3604 119.135 46.1211 120.838C45.9117 120.987 45.7622 121.166 45.8519 121.465C45.4033 123.078 44.9546 124.69 44.506 126.333C44.2966 126.482 44.177 126.661 44.2667 126.9C43.9676 127.946 43.4292 128.961 43.3993 130.096C43.1899 130.245 43.0404 130.454 43.1301 130.723C42.8609 131.769 42.5618 132.814 42.2927 133.859C42.0534 134.009 41.9337 134.247 42.0235 134.516C41.0364 137.921 40.0494 141.356 39.0325 144.76C38.7932 144.91 38.6736 145.119 38.7633 145.388C38.6736 145.746 38.6138 146.074 38.524 146.433C38.3147 146.582 38.195 146.761 38.2848 147C38.195 147.359 38.1053 147.747 38.0156 148.105C37.8062 148.225 37.6866 148.374 37.8361 148.613C37.7165 149.001 37.5968 149.36 37.4772 149.748C37.3276 149.927 37.1781 150.106 36.9986 150.315L36.9089 150.375C36.3406 150.375 35.8022 150.345 35.2639 150.315Z" fill="#7E8386"/>
<path id="Vector_10" d="M177.843 199.445C177.783 196.817 177.395 193.77 176.647 190.784C176.437 190.007 176.228 189.201 176.138 188.395C176.078 187.827 176.408 187.349 176.946 187.11C177.484 186.871 178.262 187.14 178.561 187.737C178.74 188.066 178.86 188.394 178.95 188.753C180.266 194.248 181.133 199.773 180.176 205.448C179.727 208.076 178.98 210.555 177.664 212.885C177.395 213.363 177.066 213.811 176.707 214.169C176.378 214.497 175.899 214.557 175.45 214.348C174.882 214.079 174.643 213.601 174.762 213.004C174.852 212.586 175.032 212.138 175.241 211.75C177.335 208.046 177.933 204.044 177.843 199.445Z" fill="#7F8487"/>
<path id="Vector_11" d="M156.907 36.0778C156.368 32.1653 154.364 28.9697 151.912 26.0129C150.925 24.8481 149.818 23.7431 148.502 22.9068C147.365 22.1602 146.199 21.5031 144.763 21.4135C143.178 21.2941 143.178 21.2045 143.328 19.293C143.477 19.2632 143.627 19.1736 143.776 19.084C144.674 19.084 145.571 19.084 146.468 19.084C149.16 19.9202 151.284 21.6226 153.228 23.5639C153.228 23.8028 153.377 23.9223 153.617 23.9522L153.706 24.0716C153.736 24.3404 153.886 24.4898 154.125 24.5495C156.877 27.9841 158.821 31.807 159.778 36.1077C160.406 38.8554 160.735 41.603 160.765 44.4105C160.765 45.1571 160.705 45.844 160.107 46.3816C159.898 46.4115 159.688 46.4413 159.479 46.4712C158.881 46.1726 158.462 45.7246 158.372 45.0376C158.253 44.0521 157.983 43.0665 158.013 42.1108C158.013 40.0201 157.505 38.049 156.907 36.0778Z" fill="#7F8487"/>
<path id="Vector_12" d="M60.7761 43.9922C61.9425 44.2013 63.0492 44.5298 64.0063 45.2764C67.2964 47.7553 67.4758 52.4443 64.3054 55.1024C63.767 55.5504 63.109 55.8789 62.4809 56.2672C62.0024 56.2074 61.5836 56.297 61.2546 56.6554C60.3573 56.6256 59.46 56.6256 58.5627 56.3568C55.7512 55.4608 53.9267 53.1014 53.8968 50.3238C53.8669 47.606 55.7512 45.1271 58.5029 44.261C58.9217 44.1415 59.4002 44.0818 59.819 43.9922C60.148 43.9922 60.477 43.9922 60.7761 43.9922ZM60.2377 46.4113C57.9945 46.4113 56.3195 48.1734 56.3793 50.4433C56.4392 52.5936 58.0842 54.1467 60.2676 54.1467C62.5407 54.1467 64.2157 52.4144 64.126 50.1446C64.0661 48.0838 62.3015 46.3815 60.2377 46.4113Z" fill="#00368E"/>
<path id="Vector_13" d="M187.385 213.423C186.667 211.691 187.026 211.034 188.701 210.884C189.149 210.855 189.598 210.884 190.047 210.884C196.298 210.884 202.549 210.884 208.8 210.884C209.249 210.884 209.697 210.855 210.146 210.884C211.911 211.004 212.15 211.392 211.821 213.363C209.817 213.393 207.843 213.483 205.839 213.483C199.707 213.513 193.546 213.453 187.385 213.423Z" fill="#85898B"/>
<path id="Vector_14" d="M177.544 128.514C177.155 128.096 176.916 127.648 176.796 127.081C176.378 124.781 174.942 123.168 173.058 121.944C171.084 120.659 169.08 119.405 167.076 118.151C165.311 117.046 163.516 116 161.722 114.925C161.363 114.567 161.004 114.208 160.615 113.85C160.615 113.492 160.645 113.133 160.645 112.805C161.004 112.566 161.363 112.327 161.692 112.088L161.961 112.148L162.23 112.118C166.089 114.477 169.947 116.866 173.805 119.226C175.211 120.092 176.467 121.107 177.484 122.422C178.8 124.124 179.728 125.946 179.159 128.186C178.98 128.305 178.83 128.455 178.651 128.574L178.591 128.604C178.262 128.574 177.903 128.544 177.544 128.514Z" fill="#7F8487"/>
<path id="Vector_15" d="M0.358901 213.453C-0.358932 211.721 -0.0299252 211.034 1.64502 210.915C2.27312 210.855 2.90123 210.915 3.55924 210.915C9.36172 210.915 15.1642 210.885 20.9368 210.885C21.7144 211.363 22.3126 211.93 22.1631 212.946V212.975C21.9836 213.155 21.8341 213.304 21.6546 213.483L21.5948 213.513C14.5062 213.483 7.4475 213.453 0.358901 213.453Z" fill="#85898B"/>
<path id="Vector_16" d="M55.4226 120.36C55.3329 120.002 55.2432 119.644 55.1235 119.285C55.2133 119.016 55.0637 118.867 54.8544 118.718C54.6151 117.404 53.987 116.239 53.4187 115.044C53.0598 114.327 53.1794 113.7 53.7776 113.133C54.316 113.193 54.8544 113.222 55.3927 113.282C56.4695 114.985 57.0976 116.896 57.8453 118.748C57.7556 119.016 57.9051 119.166 58.1145 119.315C59.1015 123.168 60.1185 127.021 61.0756 130.873C61.3148 131.829 61.4345 132.815 61.5242 133.8C61.584 134.368 61.2251 134.845 60.6269 134.995C60.0287 135.114 59.5203 134.845 59.3109 134.308C59.0417 133.651 58.8623 132.934 58.7127 132.247C57.9351 128.992 57.307 125.706 56.1704 122.541C56.29 122.302 56.1704 122.152 55.9909 122.033C55.9012 121.675 55.8115 121.286 55.7217 120.928C55.7516 120.659 55.632 120.51 55.4226 120.36Z" fill="#7F8487"/>
<path id="Vector_17" d="M67.9551 224.324C68.6131 223.876 69.3608 223.995 70.0787 223.995C72.3518 223.936 74.595 223.936 76.8682 223.846C93.169 223.099 109.47 223.189 125.741 223.308C125.442 223.697 125.023 223.816 124.544 223.816C123.826 223.816 123.109 223.816 122.361 223.816C111.863 223.816 101.334 223.816 90.836 223.846C89.5798 223.846 88.3236 223.816 87.0674 224.204C86.4094 224.413 85.6317 224.324 84.9139 224.324C80.8462 224.354 76.7485 224.354 72.6808 224.384C71.3349 224.384 69.959 224.264 68.643 224.682C68.4635 224.742 68.1644 224.473 67.9551 224.324Z" fill="#E7E8E7"/>
<path id="Vector_18" d="M187.385 213.423C193.546 213.453 199.708 213.483 205.869 213.483C207.873 213.483 209.847 213.393 211.851 213.363C211.402 214.14 210.625 213.99 209.907 213.99C206.467 213.99 203.057 213.99 199.618 213.99C196.178 213.99 192.769 213.99 189.329 213.99C188.641 214.02 187.893 214.17 187.385 213.423Z" fill="#E7E8E7"/>
<path id="Vector_19" d="M0.359375 213.453C7.44798 213.483 14.5067 213.483 21.5953 213.513C21.2064 213.991 20.6681 214.021 20.1297 214.021C14.0281 214.021 7.89662 214.021 1.79504 214.021C1.22676 214.021 0.718291 213.961 0.359375 213.453Z" fill="#E7E8E7"/>
<path id="Vector_20" d="M55.9609 224.355C59.2211 224.176 62.5112 224.176 65.7713 224.355C65.4722 224.504 65.1731 224.803 64.8441 224.803C62.1822 224.833 59.5202 224.833 56.8582 224.803C56.5591 224.803 56.26 224.534 55.9609 224.355Z" fill="#E7E8E7"/>
<path id="Vector_21" d="M46.6895 223.816C49.0822 223.876 51.475 223.936 53.8678 223.996C54.1968 223.996 54.5258 224.205 54.8548 224.294C52.6116 224.294 50.3683 224.294 48.155 224.294C47.6167 224.324 47.0783 224.294 46.6895 223.816Z" fill="#E7E8E7"/>
<path id="Vector_22" d="M95.2024 192.248C95.4117 192.517 95.6809 192.756 95.8305 193.084C95.98 193.413 96.0099 193.861 95.5015 193.861C93.5872 193.801 91.6431 194.1 89.7588 193.383C91.1645 193.383 92.5703 193.353 93.9761 193.353C94.7238 193.323 95.1126 192.965 95.2024 192.248Z" fill="#E7E8E7"/>
<path id="Vector_23" d="M159.03 231.432C161.573 231.432 164.115 231.432 166.627 231.462C166.568 231.521 166.508 231.611 166.418 231.641C164.773 232.148 160.795 232.148 159.21 231.641C159.15 231.581 159.09 231.491 159.03 231.432Z" fill="#E7E8E7"/>
<path id="Vector_24" d="M77.2568 102.44C78.513 101.693 79.9487 101.753 81.2946 101.395C81.4143 101.365 81.6536 101.454 81.7134 101.544C81.8629 101.843 81.5937 102.052 81.3844 102.171C81.0853 102.35 80.7563 102.44 80.4273 102.589C79.4103 102.559 78.3336 102.5 77.2568 102.44Z" fill="#E7E8E7"/>
<path id="Vector_25" d="M74.4749 191.62C72.9794 191.591 71.5139 191.591 70.0184 191.561C69.6595 191.561 69.3305 191.411 69.1211 191.143C70.4371 191.143 71.7232 191.143 73.0393 191.143C73.5776 191.143 74.0861 191.172 74.4749 191.62Z" fill="#E7E8E7"/>
<path id="Vector_26" d="M76.6883 113.909C74.9236 114.596 73.0692 114.387 71.2148 114.327C71.5439 113.998 71.9626 113.879 72.4112 113.879C73.8768 113.879 75.2826 113.909 76.6883 113.909Z" fill="#E7E8E7"/>
<path id="Vector_27" d="M22.1628 212.916C22.3423 211.9 21.7441 211.333 20.9365 210.855C21.2356 210.556 21.5347 210.258 21.8338 209.959C22.5516 211.034 22.9405 212.229 23.2695 213.423C22.9405 213.274 22.5516 213.095 22.1628 212.916Z" fill="#E7E8E7"/>
<path id="Vector_28" d="M21.5947 29.5371C23.0603 29.5371 24.496 29.5371 25.9615 29.5371C24.5259 30.3136 23.0603 30.3435 21.5947 29.5371Z" fill="#E7E8E7"/>
<path id="Vector_29" d="M41.7842 223.279C43.2498 223.279 44.7452 223.1 46.151 223.787C45.0742 223.787 44.0274 223.787 42.9507 223.787C42.502 223.787 42.0833 223.637 41.7842 223.279Z" fill="#E7E8E7"/>
<path id="Vector_30" d="M132.261 13.6483C131.154 13.6781 130.048 13.7976 129.001 13.2302C130.138 13.2302 131.274 12.8419 132.261 13.6483Z" fill="#E7E8E7"/>
<path id="Vector_31" d="M141.024 221.666C141.832 221.666 142.64 221.636 143.417 221.666C143.806 221.666 144.105 221.815 144.285 222.143C143.567 222.143 142.879 222.143 142.161 222.143C141.742 222.143 141.324 222.024 141.024 221.666Z" fill="#E7E8E7"/>
<path id="Vector_32" d="M137.196 221.128C138.303 221.098 139.44 221.009 140.427 221.606C139.35 221.576 138.183 221.994 137.196 221.128Z" fill="#E7E8E7"/>
<path id="Vector_33" d="M127.086 219.515C127.086 219.247 127.176 218.978 127.445 218.948C128.372 218.858 129.329 218.799 130.137 219.426C129.12 219.426 128.103 219.456 127.086 219.515Z" fill="#E7E8E7"/>
<path id="Vector_34" d="M146.438 19.0539C145.541 19.0539 144.643 19.0539 143.746 19.0539C144.643 18.3969 145.541 18.4267 146.438 19.0539Z" fill="#E7E8E7"/>
<path id="Vector_35" d="M34.6653 196.608C33.7979 197.146 32.9006 197.355 32.0332 196.578C32.9305 196.578 33.7979 196.578 34.6653 196.608Z" fill="#E7E8E7"/>
<path id="Vector_36" d="M38.5234 222.77C39.4805 222.711 40.4377 222.651 41.2751 223.248C40.318 223.218 39.331 223.547 38.5234 222.77Z" fill="#E7E8E7"/>
<path id="Vector_37" d="M124.664 13.2307C123.826 13.7384 122.899 13.7086 121.972 13.5891C122.779 12.9022 123.736 13.2008 124.664 13.2307Z" fill="#E7E8E7"/>
<path id="Vector_38" d="M160.675 112.804C160.675 113.163 160.645 113.521 160.645 113.85C160.346 114.089 160.047 114.357 159.748 114.596C159.449 113.969 159.539 113.342 159.778 112.715C160.077 112.775 160.376 112.775 160.675 112.804Z" fill="#E7E8E7"/>
<path id="Vector_39" d="M77.2266 112.834C77.4957 112.894 77.7948 112.894 77.9743 113.043C78.2136 113.192 78.752 113.252 78.4828 113.73C78.393 113.879 78.0042 113.82 77.7649 113.879C77.5855 113.491 77.406 113.163 77.2266 112.834Z" fill="#E7E8E7"/>
<path id="Vector_40" d="M51.5947 110.117C52.3126 110.296 53.0304 110.206 53.7183 109.938C52.8509 110.863 52.7014 110.863 51.5947 110.117Z" fill="#E7E8E7"/>
<path id="Vector_41" d="M156.847 230.895C157.594 230.865 158.342 230.895 158.97 231.432C158.223 231.432 157.415 231.641 156.847 230.895Z" fill="#E7E8E7"/>
<path id="Vector_42" d="M35.8018 222.204C36.5794 222.144 37.3272 222.144 37.9852 222.682C37.2075 222.712 36.4 222.951 35.8018 222.204Z" fill="#E7E8E7"/>
<path id="Vector_43" d="M63.6475 105.727C64.2457 105.159 64.9934 105.159 65.771 105.219C65.2028 105.936 64.3952 105.727 63.6475 105.727Z" fill="#E7E8E7"/>
<path id="Vector_44" d="M32.4816 191.71C31.7638 191.471 31.046 191.501 30.3281 191.65C31.4049 190.904 31.5245 190.904 32.4816 191.71Z" fill="#E7E8E7"/>
<path id="Vector_45" d="M52.1629 189.022C51.5049 189.5 50.7571 189.47 49.9795 189.351C50.6375 188.724 51.4152 188.962 52.1629 189.022Z" fill="#E7E8E7"/>
<path id="Vector_46" d="M33.6182 221.637C34.3659 221.607 35.1136 221.637 35.7118 222.174C34.9641 222.174 34.1565 222.383 33.6182 221.637Z" fill="#E7E8E7"/>
<path id="Vector_47" d="M160.226 98.5879C160.734 98.6178 161.213 98.6476 161.721 98.6775C161.303 99.3047 160.645 99.1852 160.017 99.1852C160.106 98.9762 160.166 98.7671 160.226 98.5879Z" fill="#E7E8E7"/>
<path id="Vector_48" d="M45.4033 45.7553C45.9417 45.3073 46.5698 45.3073 47.2278 45.3372C46.7193 45.9644 46.0613 45.8748 45.4033 45.7553Z" fill="#E7E8E7"/>
<path id="Vector_49" d="M41.7842 45.3968C42.4123 45.3371 43.0404 45.3371 43.5788 45.7851C42.9207 45.8747 42.2627 45.9643 41.7842 45.3968Z" fill="#E7E8E7"/>
<path id="Vector_50" d="M69.5702 101.365C69.1216 101.783 68.5832 101.903 67.9551 101.813C68.3738 101.246 68.972 101.305 69.5702 101.365Z" fill="#E7E8E7"/>
<path id="Vector_51" d="M67.3567 101.904C66.9081 102.322 66.3697 102.442 65.7715 102.352C66.1902 101.785 66.7884 101.844 67.3567 101.904Z" fill="#E7E8E7"/>
<path id="Vector_52" d="M65.1731 102.441C64.7245 102.859 64.1861 102.978 63.5879 102.859C64.0066 102.351 64.6048 102.411 65.1731 102.441Z" fill="#E7E8E7"/>
<path id="Vector_53" d="M75.043 102.978C75.4916 102.53 76.0599 102.44 76.6581 102.56C76.2394 103.097 75.6412 103.038 75.043 102.978Z" fill="#E7E8E7"/>
<path id="Vector_54" d="M62.9899 102.979C62.5412 103.397 62.0029 103.517 61.4346 103.427C61.8234 102.89 62.4216 102.949 62.9899 102.979Z" fill="#E7E8E7"/>
<path id="Vector_55" d="M72.8301 103.516C73.3086 103.038 73.8769 102.979 74.4751 103.068C74.0564 103.636 73.4283 103.576 72.8301 103.516Z" fill="#E7E8E7"/>
<path id="Vector_56" d="M60.8069 103.547C60.3583 103.965 59.8199 104.084 59.2217 103.995C59.6404 103.427 60.2386 103.487 60.8069 103.547Z" fill="#E7E8E7"/>
<path id="Vector_57" d="M130.646 219.487C131.274 219.397 131.872 219.427 132.32 219.935C131.722 220.024 131.094 220.084 130.646 219.487Z" fill="#E7E8E7"/>
<path id="Vector_58" d="M132.829 220.054C133.427 219.965 133.996 220.054 134.444 220.532C133.876 220.562 133.248 220.622 132.829 220.054Z" fill="#E7E8E7"/>
<path id="Vector_59" d="M135.013 220.621C135.611 220.532 136.179 220.592 136.658 221.04C136.06 221.129 135.461 221.189 135.013 220.621Z" fill="#E7E8E7"/>
<path id="Vector_60" d="M31.9736 221.099C32.5718 221.069 33.1401 221.159 33.5588 221.637C32.9607 221.666 32.3625 221.696 31.9736 221.099Z" fill="#E7E8E7"/>
<path id="Vector_61" d="M70.6465 104.053C71.125 103.575 71.6933 103.516 72.3214 103.605C71.8728 104.173 71.2447 104.113 70.6465 104.053Z" fill="#E7E8E7"/>
<path id="Vector_62" d="M68.4336 104.59C68.9121 104.113 69.4804 104.053 70.1085 104.142C69.6898 104.71 69.0617 104.65 68.4336 104.59Z" fill="#E7E8E7"/>
<path id="Vector_63" d="M66.25 105.129C66.7286 104.652 67.3267 104.592 67.9249 104.681C67.5062 105.249 66.8781 105.189 66.25 105.129Z" fill="#E7E8E7"/>
<path id="Vector_64" d="M61.8828 106.203C62.3614 105.725 62.9596 105.695 63.5578 105.755C63.139 106.352 62.5109 106.293 61.8828 106.203Z" fill="#E7E8E7"/>
<path id="Vector_65" d="M120.297 13.7682C119.818 14.1863 119.28 14.246 118.682 14.1564C119.13 13.6188 119.699 13.7084 120.297 13.7682Z" fill="#E7E8E7"/>
<path id="Vector_66" d="M59.7295 106.741C60.208 106.234 60.7763 106.204 61.4044 106.293C60.9558 106.891 60.3576 106.831 59.7295 106.741Z" fill="#E7E8E7"/>
<path id="Vector_67" d="M50.4872 110.563C49.9488 110.563 49.4104 110.534 48.8721 110.534C49.4404 109.936 49.9787 109.906 50.4872 110.563Z" fill="#E7E8E7"/>
<path id="Vector_68" d="M49.4707 113.341C49.8894 112.864 50.4876 112.893 51.026 112.744C50.697 113.461 50.0689 113.371 49.4707 113.341Z" fill="#E7E8E7"/>
<path id="Vector_69" d="M55.3925 113.312C54.8541 113.252 54.3157 113.222 53.7773 113.162C54.6447 112.595 54.6746 112.595 55.3925 113.312Z" fill="#E7E8E7"/>
<path id="Vector_70" d="M160.646 113.879C161.004 114.237 161.363 114.596 161.752 114.954C161.004 114.954 160.646 114.596 160.646 113.879Z" fill="#E7E8E7"/>
<path id="Vector_71" d="M155.231 230.327C155.83 230.297 156.368 230.416 156.787 230.894C156.189 230.894 155.59 230.954 155.231 230.327Z" fill="#E7E8E7"/>
<path id="Vector_72" d="M61.9432 138.818C61.4049 138.848 60.8665 138.848 60.3281 138.877C61.1058 138.22 61.1058 138.22 61.9432 138.818Z" fill="#E7E8E7"/>
<path id="Vector_73" d="M87.5761 193.203C87.0377 193.203 86.4993 193.203 85.9609 193.203C86.4993 192.635 87.0377 192.635 87.5761 193.203Z" fill="#E7E8E7"/>
<path id="Vector_74" d="M35.2637 150.316C35.802 150.346 36.3404 150.376 36.8788 150.406C36.0114 151.003 36.0114 151.003 35.2637 150.316Z" fill="#E7E8E7"/>
<path id="Vector_75" d="M34.0973 156.588C33.5888 156.647 33.0505 156.737 32.542 156.797C32.9607 156.14 33.4991 156.11 34.0973 156.588Z" fill="#E7E8E7"/>
<path id="Vector_76" d="M167.136 231.373C167.435 231.015 167.824 230.925 168.272 231.015C167.973 231.403 167.584 231.463 167.136 231.373Z" fill="#E7E8E7"/>
<path id="Vector_77" d="M168.84 230.865C169.109 230.507 169.468 230.357 169.917 230.417C169.647 230.805 169.259 230.925 168.84 230.865Z" fill="#E7E8E7"/>
<path id="Vector_78" d="M172.22 229.282C172.429 228.924 172.728 228.715 173.147 228.715C172.997 229.133 172.638 229.282 172.22 229.282Z" fill="#E7E8E7"/>
<path id="Vector_79" d="M148.682 226.445C149.1 226.505 149.399 226.714 149.579 227.102C149.16 227.073 148.831 226.923 148.682 226.445Z" fill="#E7E8E7"/>
<path id="Vector_80" d="M30.8672 220.62C31.3158 220.56 31.6448 220.71 31.914 221.068C31.4953 221.128 31.1364 221.008 30.8672 220.62Z" fill="#E7E8E7"/>
<path id="Vector_81" d="M27.6367 218.889C28.0555 218.919 28.3845 219.098 28.5938 219.486C28.1452 219.456 27.7863 219.307 27.6367 218.889Z" fill="#E7E8E7"/>
<path id="Vector_82" d="M76.6584 192.07C76.2397 192.16 75.8509 192.04 75.5518 191.712C76.0004 191.652 76.3593 191.712 76.6584 192.07Z" fill="#E7E8E7"/>
<path id="Vector_83" d="M27.1876 178.092C27.1278 177.644 27.2774 177.316 27.6363 177.047C27.6363 177.465 27.5465 177.823 27.1876 178.092Z" fill="#E7E8E7"/>
<path id="Vector_84" d="M28.235 175.374C28.1752 174.926 28.3547 174.568 28.6837 174.299C28.7435 174.717 28.6239 175.105 28.235 175.374Z" fill="#E7E8E7"/>
<path id="Vector_85" d="M31.5251 167.19C31.4653 166.742 31.6447 166.413 31.9737 166.145C32.0036 166.563 31.9139 166.951 31.5251 167.19Z" fill="#E7E8E7"/>
<path id="Vector_86" d="M81.5639 165.607C81.9229 165.876 82.1023 166.205 82.0425 166.653C81.6537 166.414 81.534 166.055 81.5639 165.607Z" fill="#E7E8E7"/>
<path id="Vector_87" d="M32.6017 164.472C32.5419 164.024 32.6914 163.666 33.0503 163.367C33.0802 163.845 32.9905 164.203 32.6017 164.472Z" fill="#E7E8E7"/>
<path id="Vector_88" d="M77.795 155.752C78.154 156.051 78.2736 156.409 78.2138 156.857C77.795 156.588 77.7352 156.2 77.795 155.752Z" fill="#E7E8E7"/>
<path id="Vector_89" d="M177.544 128.514C177.903 128.544 178.262 128.573 178.621 128.603C178.232 129.141 177.873 129.081 177.544 128.514Z" fill="#E7E8E7"/>
<path id="Vector_90" d="M56.5293 107.877C56.7985 107.489 57.1275 107.34 57.5761 107.399C57.3369 107.818 56.9779 107.937 56.5293 107.877Z" fill="#E7E8E7"/>
<path id="Vector_91" d="M58.0547 107.279C58.3538 106.89 58.7426 106.801 59.2212 106.861C58.9221 107.279 58.5332 107.368 58.0547 107.279Z" fill="#E7E8E7"/>
<path id="Vector_92" d="M58.6533 104.083C58.3841 104.412 58.0252 104.561 57.6064 104.472C57.8756 104.113 58.2346 104.024 58.6533 104.083Z" fill="#E7E8E7"/>
<path id="Vector_93" d="M71.7832 100.829C71.4841 101.128 71.1551 101.277 70.7363 101.157C70.9756 100.799 71.3644 100.769 71.7832 100.829Z" fill="#E7E8E7"/>
<path id="Vector_94" d="M73.3385 99.7227C73.4283 100.171 73.4283 100.559 72.8301 100.649C72.86 100.26 72.9796 99.9317 73.3385 99.7227Z" fill="#E7E8E7"/>
<path id="Vector_95" d="M134.444 14.0973C134.025 14.2167 133.666 14.0973 133.367 13.7986C133.786 13.709 134.145 13.7389 134.444 14.0973Z" fill="#E7E8E7"/>
<path id="Vector_96" d="M117.605 14.3353C117.306 14.6638 116.947 14.7833 116.498 14.6937C116.767 14.3054 117.156 14.2457 117.605 14.3353Z" fill="#E7E8E7"/>
<path id="Vector_97" d="M136.628 14.6944C136.209 14.784 135.85 14.6347 135.581 14.3061C136 14.2464 136.389 14.336 136.628 14.6944Z" fill="#E7E8E7"/>
<path id="Vector_98" d="M112.58 15.9194C112.311 16.2479 111.982 16.4271 111.563 16.3673C111.833 15.9791 112.192 15.8895 112.58 15.9194Z" fill="#E7E8E7"/>
<path id="Vector_99" d="M60.7764 43.9934C60.4474 43.9934 60.1483 43.9934 59.8193 43.9934C60.1783 43.635 60.4773 43.635 60.7764 43.9934Z" fill="#E7E8E7"/>
<path id="Vector_100" d="M61.2549 56.6553C61.5839 56.2969 62.0026 56.2073 62.4812 56.2671C62.1821 56.7151 61.7633 56.7449 61.2549 56.6553Z" fill="#E7E8E7"/>
<path id="Vector_101" d="M76.9278 74.1582C77.0175 74.427 76.8978 74.5763 76.6885 74.6958C76.7782 74.5166 76.838 74.3374 76.9278 74.1582Z" fill="#E7E8E7"/>
<path id="Vector_102" d="M75.5518 80.8184C75.791 80.8781 75.9107 80.9976 75.8808 81.2365C75.7611 81.117 75.6714 80.9677 75.5518 80.8184Z" fill="#E7E8E7"/>
<path id="Vector_103" d="M161.184 49.9666C161.034 49.877 160.855 49.7874 160.705 49.668C160.855 49.7576 161.004 49.877 161.184 49.9666Z" fill="#E7E8E7"/>
<path id="Vector_104" d="M160.615 49.6366C160.406 49.6366 160.166 49.6366 159.957 49.6366C159.957 49.4574 159.957 49.2782 160.017 49.1289C160.226 49.3081 160.436 49.4873 160.615 49.6366Z" fill="#E7E8E7"/>
<path id="Vector_105" d="M159.479 46.5017C159.688 46.4718 159.897 46.442 160.107 46.4121C159.957 46.5913 159.778 46.7705 159.628 46.9497C159.508 46.8004 159.479 46.651 159.479 46.5017Z" fill="#E7E8E7"/>
<path id="Vector_106" d="M75.4916 83.9238C75.5514 84.0433 75.5813 84.1628 75.5813 84.3121C75.4019 84.3121 75.2224 84.3121 75.043 84.3121C75.1925 84.1628 75.3421 84.0433 75.4916 83.9238Z" fill="#E7E8E7"/>
<path id="Vector_107" d="M165.819 91.0016C165.729 90.7328 165.849 90.5536 166.058 90.4043C165.969 90.6134 165.879 90.7926 165.819 91.0016Z" fill="#E7E8E7"/>
<path id="Vector_108" d="M154.125 24.5501C153.856 24.4904 153.706 24.3411 153.706 24.0723C153.826 24.2216 153.975 24.4008 154.125 24.5501Z" fill="#E7E8E7"/>
<path id="Vector_109" d="M153.586 23.9533C153.347 23.8936 153.227 23.7741 153.197 23.5352C153.317 23.6845 153.466 23.804 153.586 23.9533Z" fill="#E7E8E7"/>
<path id="Vector_110" d="M165.281 92.645C165.191 92.3762 165.311 92.2269 165.52 92.1074C165.461 92.2866 165.371 92.4658 165.281 92.645Z" fill="#E7E8E7"/>
<path id="Vector_111" d="M51.4149 108.414C51.3551 108.563 51.2654 108.743 51.2055 108.892C51.1158 108.683 51.2055 108.534 51.4149 108.414Z" fill="#E7E8E7"/>
<path id="Vector_112" d="M53.9873 109.519C53.9873 109.28 54.077 109.16 54.3163 109.19C54.2565 109.339 54.1668 109.459 53.9873 109.519Z" fill="#E7E8E7"/>
<path id="Vector_113" d="M71.7236 109.699C71.8732 109.819 71.9928 109.968 72.1424 110.087C72.0227 109.968 71.8732 109.849 71.7236 109.699Z" fill="#E7E8E7"/>
<path id="Vector_114" d="M72.3213 110.176C72.6204 110.146 72.7998 110.295 72.9195 110.564C72.6204 110.564 72.4409 110.444 72.3213 110.176Z" fill="#E7E8E7"/>
<path id="Vector_115" d="M162.26 112.118L161.991 112.147L161.722 112.088C161.931 111.819 162.111 111.849 162.26 112.118Z" fill="#E7E8E7"/>
<path id="Vector_116" d="M47.4963 116.029C47.4066 115.76 47.5561 115.611 47.7655 115.521C47.6758 115.701 47.586 115.88 47.4963 116.029Z" fill="#E7E8E7"/>
<path id="Vector_117" d="M54.8848 118.748C55.0941 118.868 55.2437 119.047 55.154 119.316C55.0642 119.136 54.9745 118.927 54.8848 118.748Z" fill="#E7E8E7"/>
<path id="Vector_118" d="M58.1147 119.345C57.9053 119.225 57.7857 119.046 57.8455 118.777C57.9352 118.957 58.0249 119.166 58.1147 119.345Z" fill="#E7E8E7"/>
<path id="Vector_119" d="M55.4229 120.361C55.6322 120.481 55.7519 120.66 55.6621 120.929C55.6023 120.75 55.5126 120.57 55.4229 120.361Z" fill="#E7E8E7"/>
<path id="Vector_120" d="M45.8218 121.496C45.7321 121.228 45.8517 121.018 46.091 120.869C46.0012 121.078 45.9115 121.287 45.8218 121.496Z" fill="#E7E8E7"/>
<path id="Vector_121" d="M55.9609 122.033C56.1404 122.153 56.2899 122.302 56.1404 122.541C56.0806 122.392 56.0208 122.212 55.9609 122.033Z" fill="#E7E8E7"/>
<path id="Vector_122" d="M44.2362 126.931C44.1465 126.662 44.2661 126.483 44.4755 126.363C44.3857 126.542 44.3259 126.722 44.2362 126.931Z" fill="#E7E8E7"/>
<path id="Vector_123" d="M178.681 128.574C178.86 128.454 179.01 128.305 179.189 128.186C179.04 128.305 178.86 128.454 178.681 128.574Z" fill="#E7E8E7"/>
<path id="Vector_124" d="M181.372 129.022C181.193 129.022 181.013 129.022 180.834 128.992C181.013 128.753 181.193 128.753 181.372 129.022Z" fill="#E7E8E7"/>
<path id="Vector_125" d="M43.0998 130.754C43.0101 130.485 43.1596 130.276 43.369 130.127C43.2793 130.306 43.1895 130.515 43.0998 130.754Z" fill="#E7E8E7"/>
<path id="Vector_126" d="M39.242 134.039C39.3616 134.278 39.242 134.427 39.0625 134.547C39.1223 134.397 39.1821 134.218 39.242 134.039Z" fill="#E7E8E7"/>
<path id="Vector_127" d="M41.9633 134.548C41.9034 134.249 41.9932 134.04 42.2324 133.891C42.2923 134.159 42.2025 134.398 41.9633 134.548Z" fill="#E7E8E7"/>
<path id="Vector_128" d="M37.6566 139.475C37.7464 139.743 37.6267 139.893 37.4473 140.012C37.5071 139.833 37.5968 139.654 37.6566 139.475Z" fill="#E7E8E7"/>
<path id="Vector_129" d="M74.5645 143.686C74.7738 143.835 74.8935 144.044 74.8037 144.343C74.714 144.134 74.6243 143.924 74.5645 143.686Z" fill="#E7E8E7"/>
<path id="Vector_130" d="M36.0111 144.91C36.1308 145.149 35.9812 145.328 35.8018 145.448C35.8616 145.269 35.9513 145.089 36.0111 144.91Z" fill="#E7E8E7"/>
<path id="Vector_131" d="M38.7033 145.447C38.6136 145.149 38.7631 144.97 38.9725 144.82C38.9127 145 38.823 145.209 38.7033 145.447Z" fill="#E7E8E7"/>
<path id="Vector_132" d="M35.5329 146.523C35.6226 146.792 35.473 146.971 35.2637 147.121C35.3534 146.942 35.4431 146.733 35.5329 146.523Z" fill="#E7E8E7"/>
<path id="Vector_133" d="M38.2245 147.062C38.1347 146.793 38.2544 146.614 38.4638 146.494C38.4039 146.673 38.3142 146.853 38.2245 147.062Z" fill="#E7E8E7"/>
<path id="Vector_134" d="M37.7757 148.674C37.6561 148.435 37.7757 148.285 37.9552 148.166C37.8953 148.315 37.8355 148.495 37.7757 148.674Z" fill="#E7E8E7"/>
<path id="Vector_135" d="M75.6414 148.047C75.8806 148.226 76.0003 148.435 75.9105 148.704C75.7012 148.525 75.6114 148.316 75.6414 148.047Z" fill="#E7E8E7"/>
<path id="Vector_136" d="M36.9385 150.347C37.088 150.168 37.2376 149.988 37.417 149.779C37.3871 150.078 37.2077 150.257 36.9385 150.347Z" fill="#E7E8E7"/>
<path id="Vector_137" d="M78.334 157.395C78.5434 157.514 78.6929 157.693 78.6032 157.962C78.5134 157.753 78.4237 157.574 78.334 157.395Z" fill="#E7E8E7"/>
<path id="Vector_138" d="M33.1998 162.861C33.1699 162.562 33.2896 162.323 33.5288 162.174C33.5587 162.443 33.4391 162.682 33.1998 162.861Z" fill="#E7E8E7"/>
<path id="Vector_139" d="M30.6571 169.371C30.5674 169.132 30.687 168.983 30.8964 168.863C30.8066 169.042 30.7169 169.192 30.6571 169.371Z" fill="#E7E8E7"/>
<path id="Vector_140" d="M60.3574 171.492C60.5668 171.642 60.6864 171.821 60.5967 172.09C60.507 171.88 60.4172 171.701 60.3574 171.492Z" fill="#E7E8E7"/>
<path id="Vector_141" d="M63.5585 172.148C63.3491 172.028 63.2295 171.849 63.3192 171.58C63.4089 171.759 63.4688 171.938 63.5585 172.148Z" fill="#E7E8E7"/>
<path id="Vector_142" d="M64.1268 173.76C63.9174 173.641 63.7679 173.462 63.8576 173.223C63.9473 173.372 64.0371 173.581 64.1268 173.76Z" fill="#E7E8E7"/>
<path id="Vector_143" d="M60.5674 174.836C60.6571 175.105 60.5375 175.254 60.3281 175.374C60.4179 175.194 60.4777 175.015 60.5674 174.836Z" fill="#E7E8E7"/>
<path id="Vector_144" d="M24.0176 178.658C24.1073 178.897 23.9877 179.076 23.7783 179.166C23.868 178.987 23.9578 178.837 24.0176 178.658Z" fill="#E7E8E7"/>
<path id="Vector_145" d="M21.8344 185.199C21.954 185.438 21.8344 185.617 21.625 185.737C21.6848 185.558 21.7446 185.378 21.8344 185.199Z" fill="#E7E8E7"/>
<path id="Vector_146" d="M24.5559 185.708C24.4661 185.409 24.6157 185.23 24.825 185.051C24.7353 185.26 24.6456 185.499 24.5559 185.708Z" fill="#E7E8E7"/>
<path id="Vector_147" d="M53.897 188.246C54.1662 188.515 54.3456 188.784 53.7773 188.873C53.8073 188.694 53.8372 188.485 53.897 188.246Z" fill="#E7E8E7"/>
<path id="Vector_148" d="M78.8721 193.144C78.7226 193.025 78.5431 192.905 78.3936 192.756C78.573 192.905 78.7226 193.025 78.8721 193.144Z" fill="#E7E8E7"/>
<path id="Vector_149" d="M32.0635 193.891C32.0934 193.622 32.2728 193.472 32.5121 193.383C32.3626 193.562 32.213 193.711 32.0635 193.891Z" fill="#E7E8E7"/>
<path id="Vector_150" d="M31.6148 194.428C31.5849 194.16 31.7046 194.01 31.9738 193.98C31.8541 194.13 31.7345 194.279 31.6148 194.428Z" fill="#E7E8E7"/>
<path id="Vector_151" d="M78.2441 195.443C78.4535 195.323 78.6629 195.174 78.8722 195.055C78.7526 195.323 78.5432 195.473 78.2441 195.443Z" fill="#E7E8E7"/>
<path id="Vector_152" d="M21.1162 207.391C21.3256 207.54 21.4452 207.749 21.3555 208.018C21.2658 207.809 21.2059 207.6 21.1162 207.391Z" fill="#E7E8E7"/>
<path id="Vector_153" d="M184.424 212.887C184.304 212.648 184.424 212.498 184.633 212.379C184.573 212.558 184.483 212.707 184.424 212.887Z" fill="#E7E8E7"/>
<path id="Vector_154" d="M21.6543 213.453C21.8338 213.274 21.9833 213.125 22.1628 212.945C21.9833 213.125 21.8338 213.304 21.6543 213.453Z" fill="#E7E8E7"/>
<path id="Vector_155" d="M25.3936 216.799C25.6627 216.859 25.8123 217.038 25.8422 217.307C25.6927 217.127 25.5431 216.948 25.3936 216.799Z" fill="#E7E8E7"/>
<path id="Vector_156" d="M25.9316 217.395C26.1709 217.424 26.3205 217.574 26.3803 217.843C26.2307 217.693 26.0812 217.544 25.9316 217.395Z" fill="#E7E8E7"/>
<path id="Vector_157" d="M26.5 217.934C26.7692 217.963 26.9187 218.113 26.9786 218.352C26.7991 218.232 26.6495 218.083 26.5 217.934Z" fill="#E7E8E7"/>
<path id="Vector_158" d="M27.0381 218.441C27.3372 218.471 27.5166 218.621 27.6064 218.889C27.4269 218.74 27.2475 218.591 27.0381 218.441Z" fill="#E7E8E7"/>
<path id="Vector_159" d="M28.6836 219.545C28.9827 219.545 29.1921 219.664 29.3117 219.933C29.0126 219.933 28.8032 219.784 28.6836 219.545Z" fill="#E7E8E7"/>
<path id="Vector_160" d="M126.429 222.741C126.548 222.562 126.698 222.383 126.818 222.174C126.698 222.353 126.578 222.562 126.429 222.741Z" fill="#E7E8E7"/>
<path id="Vector_161" d="M179.278 222.741C179.278 222.443 179.428 222.263 179.697 222.174C179.577 222.353 179.428 222.532 179.278 222.741Z" fill="#E7E8E7"/>
<path id="Vector_162" d="M125.83 223.25C126.01 223.13 126.159 222.981 126.339 222.861C126.159 222.981 125.98 223.13 125.83 223.25Z" fill="#E7E8E7"/>
<path id="Vector_163" d="M178.89 223.25C178.86 223.011 179.009 222.892 179.219 222.832C179.099 222.981 179.009 223.101 178.89 223.25Z" fill="#E7E8E7"/>
<path id="Vector_164" d="M145.361 223.338C145.631 223.398 145.78 223.547 145.81 223.816C145.66 223.666 145.511 223.487 145.361 223.338Z" fill="#E7E8E7"/>
<path id="Vector_165" d="M145.899 223.906C146.169 223.936 146.318 224.115 146.378 224.384C146.228 224.205 146.049 224.056 145.899 223.906Z" fill="#E7E8E7"/>
<path id="Vector_166" d="M146.438 224.443C146.707 224.473 146.856 224.652 146.916 224.891C146.767 224.742 146.617 224.593 146.438 224.443Z" fill="#E7E8E7"/>
<path id="Vector_167" d="M147.006 224.982C147.275 225.012 147.454 225.191 147.514 225.46C147.335 225.281 147.155 225.132 147.006 224.982Z" fill="#E7E8E7"/>
<path id="Vector_168" d="M149.728 227.191C149.997 227.191 150.176 227.341 150.266 227.61C150.086 227.46 149.907 227.311 149.728 227.191Z" fill="#E7E8E7"/>
<path id="Vector_169" d="M171.502 229.73C171.622 229.461 171.801 229.312 172.1 229.342C171.981 229.61 171.771 229.73 171.502 229.73Z" fill="#E7E8E7"/>
<path id="Vector_170" d="M119.818 149.242C119.878 148.555 119.818 147.987 118.891 148.017C117.096 148.077 115.301 148.137 113.477 148.137C108.961 148.167 104.504 147.629 100.107 146.494C98.7913 146.166 97.4753 145.897 96.3088 145.15C95.92 144.911 95.6209 145.09 95.3218 145.24C95.2919 144.971 95.2321 144.702 95.2021 144.433C95.4115 144.284 95.6807 144.165 95.8003 143.956C96.3985 142.851 97.2061 142.731 98.3128 143.119C101.842 144.344 105.521 144.911 109.23 145.27C112.131 145.538 115.032 145.568 117.934 145.329C119.339 145.21 120.237 145.568 120.476 147.062C120.506 147.181 120.745 147.241 120.895 147.33C120.655 148.047 120.386 148.734 119.818 149.242Z" fill="#7F8487"/>
<path id="Vector_171" d="M139.021 92.0473C140.576 89.5087 141.922 87.2986 143.298 85.0885C143.387 84.9691 143.597 84.8496 143.716 84.8496C143.866 84.8496 144.045 84.9989 144.105 85.1483C144.255 85.5664 144.315 86.0144 144.434 86.4325C144.703 87.3882 145.242 88.3439 145.152 89.2399C145.032 90.2255 143.686 90.4346 143.088 91.2111C142.041 92.5252 140.636 92.0772 139.021 92.0473Z" fill="#00368E"/>
<path id="Vector_172" d="M93.2881 95.9297C93.3479 96.0492 93.4077 96.1686 93.4376 96.2881C93.4376 96.318 93.318 96.4075 93.2881 96.4673C93.2282 96.3478 93.1684 96.2284 93.1385 96.1089C93.1086 96.0492 93.2282 95.9894 93.2881 95.9297Z" fill="white"/>
<path id="Vector_173" d="M121.015 147.09C121.134 146.911 121.254 146.732 121.374 146.553C121.254 146.702 121.134 146.911 121.015 147.09Z" fill="#7F8487"/>
<path id="Vector_174" d="M135.162 30.6431C135.192 31.6585 134.594 32.3156 133.846 32.8532C131.902 34.3166 129.838 35.571 127.565 36.5267C123.378 38.259 118.981 39.2445 114.525 39.8419C113.358 39.9912 112.221 40.2003 111.055 40.4093C109.53 40.4093 107.974 40.4392 106.449 40.4093C105.911 40.4093 105.372 40.3795 104.864 40.2301C104.415 40.1107 104.146 39.6925 104.086 39.2147C104.056 38.707 104.355 38.3784 104.744 38.1395C105.402 37.7214 106.12 37.7512 106.838 37.7512C111.175 37.7214 115.452 37.0942 119.699 36.1385C124.215 35.123 128.552 33.6297 132.231 30.673C132.44 30.4938 132.68 30.3444 132.889 30.1951C133.876 29.5679 133.876 29.5679 135.162 30.6431Z" fill="#7D8385"/>
<path id="Vector_175" d="M90.3577 76.9641C90.2381 77.4121 90.0586 78.1887 89.8791 78.995C88.5631 84.9085 85.9011 90.2247 82.4017 95.1227C82.0428 95.6305 81.5942 96.1083 81.1455 96.5264C80.6969 96.9744 80.0688 96.9446 79.6799 96.5862C79.1416 96.1382 78.9621 95.4214 79.2911 94.8838C79.5304 94.4956 79.8295 94.167 80.0987 93.7788C82.4615 90.3442 84.6749 86.82 85.9909 82.8179C86.619 80.9363 87.0676 78.995 87.6359 77.0836C87.8154 76.4863 87.9649 75.8591 88.2341 75.2916C88.5033 74.7242 89.0417 74.5749 89.61 74.7242C90.0885 74.8436 90.3577 75.2319 90.3876 75.7098C90.3577 76.0682 90.3577 76.337 90.3577 76.9641Z" fill="#7A817E"/>
<path id="Vector_176" d="M94.6044 34.8828C94.8137 35.0919 95.0231 35.3009 95.2325 35.51C93.8865 37.4214 92.5705 39.3627 91.1947 41.2443C90.3572 42.4091 89.7291 43.753 88.6523 44.7386C89.0711 43.1557 89.9983 41.8118 90.8358 40.4379C91.9723 38.5265 93.0491 36.5553 94.6044 34.8828Z" fill="#E3E7D8"/>
<path id="Vector_177" d="M108.213 82.8786C111.802 83.1772 115.511 84.3719 118.741 86.9404C119.309 87.3883 119.788 87.9259 120.237 88.4934C120.536 88.8816 120.476 89.3894 120.147 89.7478C119.818 90.136 119.339 90.136 118.921 89.927C118.621 89.7478 118.322 89.5088 118.083 89.2699C115.391 86.791 112.131 85.5964 108.542 85.1484C107.824 85.0588 107.106 85.0289 106.388 84.9095C105.82 84.8199 105.371 84.2524 105.491 83.7447C105.611 83.2668 105.91 82.9383 106.418 82.9084C106.807 82.8487 107.286 82.8786 108.213 82.8786Z" fill="#85898B"/>
<path id="Vector_178" d="M134.683 54.6256C138.093 54.7152 141.323 55.5216 144.284 57.2239C145.211 57.7615 145.54 58.4783 145.152 58.9263C144.583 59.5535 143.985 59.1652 143.447 58.8666C141.204 57.642 138.811 56.8357 136.239 56.5669C134.893 56.4175 133.517 56.4175 132.171 56.6863C131.812 56.7461 131.453 56.8357 131.094 56.8058C130.616 56.8058 130.227 56.5967 130.167 56.0293C130.137 55.6111 130.346 55.3125 130.705 55.1632C131.543 54.8048 132.44 54.6256 133.337 54.5957C133.756 54.6256 134.205 54.6256 134.683 54.6256Z" fill="#85898B"/>
<path id="Vector_179" d="M135.58 64.0039C137.166 64.0039 138.511 65.318 138.571 66.9009C138.601 68.4241 137.225 69.8278 135.67 69.8875C134.085 69.9174 132.709 68.5734 132.709 66.9905C132.709 65.318 133.965 64.0338 135.58 64.0039Z" fill="#7F8487"/>
<path id="Vector_180" d="M110.187 60.5393C108.542 60.5393 107.256 59.2551 107.256 57.6423C107.256 56.0893 108.632 54.6855 110.187 54.6855C111.712 54.6855 113.118 56.1191 113.118 57.6423C113.118 59.2551 111.832 60.5393 110.187 60.5393Z" fill="#7F8487"/>
<path id="Vector_181" d="M119.22 66.6604C119.07 68.1238 118.442 69.4379 117.874 70.752C117.156 72.3947 116.199 73.9179 115.062 75.3216C114.823 75.6202 114.464 75.7098 114.105 75.5008C113.656 75.2618 113.507 74.8437 113.686 74.3658C113.866 73.9477 114.105 73.5893 114.374 73.2011C115.66 71.2299 116.677 69.1393 117.365 66.8993C117.455 66.6305 117.545 66.3916 117.605 66.1228C117.754 65.6449 118.083 65.3463 118.592 65.406C119.13 65.4657 119.279 65.9137 119.279 66.3916C119.22 66.5111 119.22 66.6007 119.22 66.6604Z" fill="#85898B"/>
</g>
<defs>
<clipPath id="clip0_1060_8884">
<rect width="212" height="232" fill="white"/>
</clipPath>
</defs>
</svg>
