<svg width="269" height="119" viewBox="0 0 269 119" fill="none" xmlns="http://www.w3.org/2000/svg">
<circle cx="219.244" cy="49.5556" r="21.7235" fill="#D9D9D9"/>
<path d="M219.213 58.0352C216.744 58.0352 214.857 57.3633 213.553 56.0195C211.803 54.3711 210.928 51.9961 210.928 48.8945C210.928 45.7305 211.803 43.3555 213.553 41.7695C214.857 40.4258 216.744 39.7539 219.213 39.7539C221.682 39.7539 223.568 40.4258 224.873 41.7695C226.615 43.3555 227.486 45.7305 227.486 48.8945C227.486 51.9961 226.615 54.3711 224.873 56.0195C223.568 57.3633 221.682 58.0352 219.213 58.0352ZM222.623 53.3945C223.459 52.3398 223.877 50.8398 223.877 48.8945C223.877 46.957 223.455 45.4609 222.611 44.4062C221.775 43.3438 220.643 42.8125 219.213 42.8125C217.783 42.8125 216.643 43.3398 215.791 44.3945C214.939 45.4492 214.514 46.9492 214.514 48.8945C214.514 50.8398 214.939 52.3398 215.791 53.3945C216.643 54.4492 217.783 54.9766 219.213 54.9766C220.643 54.9766 221.779 54.4492 222.623 53.3945Z" fill="white"/>
<path d="M183.317 25.7126C184.271 23.637 187.399 24.5269 187.118 26.7943L184.793 45.5643C184.609 47.0518 186.066 48.2059 187.472 47.686L205.211 41.1253C207.354 40.3327 208.936 43.1737 207.134 44.5784L192.218 56.2068C191.036 57.1284 191.25 58.9747 192.612 59.6011L209.794 67.5054C211.87 68.4603 210.98 71.5881 208.713 71.3072L189.943 68.9823C188.455 68.7981 187.301 70.2551 187.821 71.6609L194.382 89.4C195.174 91.5429 192.333 93.1253 190.929 91.3234L179.3 76.407C178.379 75.2249 176.532 75.4391 175.906 76.8008L168.002 93.9834C167.047 96.0591 163.919 95.1691 164.2 92.9017L166.525 74.1317C166.709 72.6442 165.252 71.4901 163.846 72.01L146.107 78.5708C143.964 79.3633 142.382 76.5223 144.184 75.1176L159.1 63.4892C160.282 62.5676 160.068 60.7213 158.706 60.0949L141.524 52.1906C139.448 51.2357 140.338 48.1079 142.605 48.3888L161.375 50.7137C162.863 50.898 164.017 49.4409 163.497 48.0351L156.936 30.296C156.144 28.1531 158.985 26.5707 160.389 28.3726L172.018 43.289C172.939 44.4711 174.786 44.2569 175.412 42.8952L183.317 25.7126Z" fill="#8DBBFF"/>
<path d="M184.813 52.8127L183.976 55.7546L179.005 54.3403L175.115 68.0125L171.621 67.0184L175.511 53.3462L170.518 51.9255L171.355 48.9836L184.813 52.8127Z" fill="white"/>
<rect x="249.077" y="61.8086" width="4.32666" height="4.32666" transform="rotate(10.8443 249.077 61.8086)" fill="#5F86BF"/>
<rect x="256.803" y="63.2891" width="4.32666" height="4.32666" transform="rotate(10.8443 256.803 63.2891)" fill="#5F86BF"/>
<rect x="264.529" y="64.7695" width="4.32666" height="4.32666" transform="rotate(10.8443 264.529 64.7695)" fill="#5F86BF"/>
<rect x="88.5801" y="37.4727" width="40.5506" height="40.5506" rx="5" fill="#BFD7EC"/>
<path d="M116.07 65.7461H111.688L108.406 59.8633L104.938 65.7461H100.742L106.297 56.9453L101.012 48.4727H105.324L108.406 54.0859L111.57 48.4727H115.742L110.457 56.8047L116.07 65.7461Z" fill="white"/>
<path d="M56.4363 26.7983C57.4325 23.0805 62.0798 21.8352 64.8014 24.5569L88.9152 48.6707C91.6369 51.3923 90.3916 56.0396 86.6738 57.0358L53.7337 65.8621C50.0159 66.8583 46.6138 63.4562 47.61 59.7384L56.4363 26.7983Z" fill="#0E5BD7"/>
<path d="M71.3213 54.1215L69.4688 46.6364L62.9165 48.258L64.769 55.7431L61.2995 56.6018L57.1496 39.8343L60.6192 38.9756L62.2014 45.3686L68.7537 43.747L67.1715 37.3539L70.6524 36.4924L74.8022 53.26L71.3213 54.1215Z" fill="white"/>
<path fill-rule="evenodd" clip-rule="evenodd" d="M37.0494 59.0412C44.6724 57.4819 50.2768 53.1608 50.9734 47.4749C51.9704 39.3378 42.5387 31.4867 29.9071 29.939C17.2756 28.3914 6.22742 33.7332 5.23043 41.8703C4.53377 47.5562 8.92916 53.1025 15.9502 56.4561C8.32722 58.0154 2.72285 62.3364 2.02618 68.0224C1.02919 76.1595 10.4609 84.0106 23.0925 85.5582C35.724 87.1059 46.7722 81.7641 47.7692 73.627C48.4658 67.941 44.0704 62.3948 37.0494 59.0412Z" fill="#5598FB"/>
<path d="M34.455 49.3792L34.0831 52.4151L28.9535 51.7866L27.2247 65.8959L23.6189 65.4541L25.3476 51.3448L20.1947 50.7135L20.5667 47.6776L34.455 49.3792Z" fill="white"/>
<path d="M224.036 82.7624V88.6474H222.903V87.2944H220.549C220.076 87.8334 219.361 88.1634 218.525 88.1524C217.062 88.1524 215.94 87.1404 215.94 85.7324C215.94 84.3134 217.062 83.3124 218.525 83.3124C219.361 83.3124 220.076 83.6424 220.549 84.1704H222.903V82.7734L224.036 82.7624ZM218.525 87.1844C219.394 87.1844 220.032 86.6124 220.032 85.7324C220.032 84.8524 219.372 84.2694 218.525 84.2694C217.678 84.2694 217.018 84.8524 217.018 85.7324C217.018 86.6124 217.656 87.1844 218.525 87.1844ZM222.903 86.3704V85.0944H221.033C221.077 85.3034 221.11 85.5014 221.11 85.7324C221.11 85.9084 221.077 86.1174 221.022 86.3704H222.903ZM217.337 89.1424H224.036V92.7174H222.903V90.0554H217.337V89.1424ZM233.897 82.7624V92.6954H232.819V87.6134H231.642V92.2114H230.575V82.9714H231.642V86.6894H232.819V82.7624H233.897ZM226.868 89.4064C228.012 89.3954 228.914 89.3404 229.937 89.1314L230.036 90.0664C228.837 90.2974 227.825 90.3414 226.417 90.3414H225.757V83.9504H229.431V84.8744H226.868V89.4064ZM241.494 87.0414C239.349 87.0414 237.974 86.2494 237.974 85.0174C237.974 83.7854 239.349 82.9934 241.494 82.9934C243.606 82.9934 245.014 83.7854 245.014 85.0174C245.014 86.2494 243.606 87.0414 241.494 87.0414ZM241.494 83.9064C240.086 83.9064 239.173 84.3134 239.173 85.0174C239.173 85.7214 240.086 86.1284 241.494 86.1284C242.891 86.1284 243.804 85.7214 243.804 85.0174C243.804 84.3134 242.891 83.9064 241.494 83.9064ZM246.004 87.7124V88.6364H242.154V90.5174H240.999V88.6364H236.995V87.7124H246.004ZM239.25 91.5954H245.014V92.5194H238.106V89.5824H239.25V91.5954ZM251.322 87.3164C250.849 87.8334 250.156 88.1194 249.353 88.1194C247.868 88.1194 246.757 87.1294 246.757 85.7324C246.757 84.3244 247.868 83.3344 249.353 83.3344C250.189 83.3344 250.849 83.6424 251.322 84.1374H253.72V82.7624H254.853V88.6254H253.72V87.3164H251.322ZM247.835 85.7324C247.835 86.5794 248.473 87.1624 249.353 87.1624C250.233 87.1624 250.849 86.6124 250.849 85.7324C250.849 84.8524 250.233 84.2914 249.353 84.2914C248.473 84.2914 247.835 84.8634 247.835 85.7324ZM251.839 85.0614C251.894 85.3144 251.927 85.5234 251.927 85.7324C251.927 85.9634 251.894 86.1944 251.828 86.4034H253.72V85.0614H251.839ZM251.542 88.8454C253.61 88.8454 254.897 89.5714 254.897 90.7704C254.897 91.9914 253.61 92.7064 251.542 92.7064C249.474 92.7064 248.198 91.9914 248.198 90.7704C248.198 89.5714 249.474 88.8454 251.542 88.8454ZM251.542 91.8154C252.961 91.8154 253.775 91.4744 253.775 90.7704C253.775 90.1104 252.961 89.7364 251.542 89.7364C250.123 89.7364 249.309 90.1104 249.309 90.7704C249.309 91.4744 250.123 91.8154 251.542 91.8154ZM264.429 90.0114H263.296V82.7844H264.429V90.0114ZM261.8 88.6804C260.656 88.2954 259.82 87.5364 259.38 86.5574C258.94 87.6134 258.104 88.4604 256.916 88.8564L256.322 87.9764C257.895 87.4484 258.786 86.1504 258.786 84.8194V84.4564H256.63V83.5434H262.064V84.4564H259.941V84.8194C259.941 86.0954 260.843 87.2944 262.372 87.7894L261.8 88.6804ZM264.715 91.5954V92.5194H257.939V89.3514H259.083V91.5954H264.715Z" fill="#5F86BF"/>
</svg>
