<svg width="40" height="41" viewBox="0 0 40 41" fill="none" xmlns="http://www.w3.org/2000/svg">
<g filter="url(#filter0_i_6472_15067)">
<circle cx="20" cy="20.5" r="20" fill="url(#paint0_radial_6472_15067)"/>
</g>
<g filter="url(#filter1_d_6472_15067)">
<circle cx="19.999" cy="20.499" r="16.5889" fill="url(#paint1_radial_6472_15067)"/>
</g>
<g filter="url(#filter2_i_6472_15067)">
<path d="M30.1027 13.753C32.6411 16.2915 32.6411 20.407 30.1027 22.9454L20.5567 32.4914C20.1662 32.8819 19.533 32.8819 19.1425 32.4914L9.59656 22.9454C7.05815 20.407 7.05815 16.2915 9.59656 13.753C12.135 11.2146 16.2505 11.2146 18.7889 13.753L19.8496 14.8137L20.9103 13.753C23.4487 11.2146 27.5643 11.2146 30.1027 13.753Z" fill="url(#paint2_radial_6472_15067)"/>
</g>
<g filter="url(#filter3_d_6472_15067)">
<path d="M27.3955 21.1387C27.8924 21.1388 28.2958 21.5422 28.2959 22.0391V25.9941H32.2646C32.7616 25.9942 33.165 26.3975 33.165 26.8945C33.1649 27.3914 32.7615 27.7948 32.2646 27.7949H28.2959V31.7627C28.2959 32.2597 27.8925 32.663 27.3955 32.6631C26.8985 32.6631 26.4951 32.2598 26.4951 31.7627V27.7949H22.541C22.044 27.7949 21.6407 27.3915 21.6406 26.8945C21.6406 26.3975 22.044 25.9941 22.541 25.9941H26.4951V22.0391C26.4952 21.5421 26.8985 21.1387 27.3955 21.1387Z" fill="white"/>
</g>
<defs>
<filter id="filter0_i_6472_15067" x="0" y="0.5" width="40" height="40" filterUnits="userSpaceOnUse" color-interpolation-filters="sRGB">
<feFlood flood-opacity="0" result="BackgroundImageFix"/>
<feBlend mode="normal" in="SourceGraphic" in2="BackgroundImageFix" result="shape"/>
<feColorMatrix in="SourceAlpha" type="matrix" values="0 0 0 0 0 0 0 0 0 0 0 0 0 0 0 0 0 0 127 0" result="hardAlpha"/>
<feOffset/>
<feGaussianBlur stdDeviation="0.508334"/>
<feComposite in2="hardAlpha" operator="arithmetic" k2="-1" k3="1"/>
<feColorMatrix type="matrix" values="0 0 0 0 0.620678 0 0 0 0 0.749007 0 0 0 0 0.991406 0 0 0 0.91 0"/>
<feBlend mode="normal" in2="shape" result="effect1_innerShadow_6472_15067"/>
</filter>
<filter id="filter1_d_6472_15067" x="2.39349" y="2.89349" width="35.2111" height="35.2111" filterUnits="userSpaceOnUse" color-interpolation-filters="sRGB">
<feFlood flood-opacity="0" result="BackgroundImageFix"/>
<feColorMatrix in="SourceAlpha" type="matrix" values="0 0 0 0 0 0 0 0 0 0 0 0 0 0 0 0 0 0 127 0" result="hardAlpha"/>
<feOffset/>
<feGaussianBlur stdDeviation="0.508334"/>
<feComposite in2="hardAlpha" operator="out"/>
<feColorMatrix type="matrix" values="0 0 0 0 0.620678 0 0 0 0 0.749007 0 0 0 0 0.991406 0 0 0 0.82 0"/>
<feBlend mode="normal" in2="BackgroundImageFix" result="effect1_dropShadow_6472_15067"/>
<feBlend mode="normal" in="SourceGraphic" in2="effect1_dropShadow_6472_15067" result="shape"/>
</filter>
<filter id="filter2_i_6472_15067" x="7.69287" y="11.8491" width="24.3135" height="20.9351" filterUnits="userSpaceOnUse" color-interpolation-filters="sRGB">
<feFlood flood-opacity="0" result="BackgroundImageFix"/>
<feBlend mode="normal" in="SourceGraphic" in2="BackgroundImageFix" result="shape"/>
<feColorMatrix in="SourceAlpha" type="matrix" values="0 0 0 0 0 0 0 0 0 0 0 0 0 0 0 0 0 0 127 0" result="hardAlpha"/>
<feOffset/>
<feGaussianBlur stdDeviation="1.32651"/>
<feComposite in2="hardAlpha" operator="arithmetic" k2="-1" k3="1"/>
<feColorMatrix type="matrix" values="0 0 0 0 0.620678 0 0 0 0 0.749007 0 0 0 0 0.991406 0 0 0 0.57 0"/>
<feBlend mode="normal" in2="shape" result="effect1_innerShadow_6472_15067"/>
</filter>
<filter id="filter3_d_6472_15067" x="19.0422" y="18.5403" width="16.7212" height="16.7212" filterUnits="userSpaceOnUse" color-interpolation-filters="sRGB">
<feFlood flood-opacity="0" result="BackgroundImageFix"/>
<feColorMatrix in="SourceAlpha" type="matrix" values="0 0 0 0 0 0 0 0 0 0 0 0 0 0 0 0 0 0 127 0" result="hardAlpha"/>
<feOffset/>
<feGaussianBlur stdDeviation="1.2992"/>
<feComposite in2="hardAlpha" operator="out"/>
<feColorMatrix type="matrix" values="0 0 0 0 0.510286 0 0 0 0 0.709233 0 0 0 0 1 0 0 0 1 0"/>
<feBlend mode="normal" in2="BackgroundImageFix" result="effect1_dropShadow_6472_15067"/>
<feBlend mode="normal" in="SourceGraphic" in2="effect1_dropShadow_6472_15067" result="shape"/>
</filter>
<radialGradient id="paint0_radial_6472_15067" cx="0" cy="0" r="1" gradientUnits="userSpaceOnUse" gradientTransform="translate(20.2247 20.7247) rotate(77.364) scale(65.5043)">
<stop stop-color="#EDF4FF"/>
<stop offset="1" stop-color="#79AFFF"/>
</radialGradient>
<radialGradient id="paint1_radial_6472_15067" cx="0" cy="0" r="1" gradientUnits="userSpaceOnUse" gradientTransform="translate(20.1854 20.6854) rotate(85.369) scale(15.31)">
<stop stop-color="white"/>
<stop offset="1" stop-color="#EDF4FF"/>
</radialGradient>
<radialGradient id="paint2_radial_6472_15067" cx="0" cy="0" r="1" gradientUnits="userSpaceOnUse" gradientTransform="translate(13 25.5) rotate(-40.3999) scale(30.8585)">
<stop stop-color="#4C95FF"/>
<stop offset="1" stop-color="#E2EDFF"/>
</radialGradient>
</defs>
</svg>
