<svg width="223" height="197" viewBox="0 0 223 197" fill="none" xmlns="http://www.w3.org/2000/svg">
<mask id="mask0_6023_13624" style="mask-type:alpha" maskUnits="userSpaceOnUse" x="0" y="0" width="193" height="197">
<path d="M71 196.5L39 176.5L0 22.5L159.5 0L192.5 183L71 196.5Z" fill="#D9D9D9"/>
</mask>
<g mask="url(#mask0_6023_13624)">
<g filter="url(#filter0_d_6023_13624)">
<path d="M142.016 17.3076L19.5074 32.565C15.4588 33.0692 12.6976 36.915 13.5141 40.9123L44.202 191.145C44.9343 194.731 48.3044 197.147 51.9349 196.69L173.07 181.436C177.09 180.929 179.842 177.127 179.066 173.15L149.751 22.9133C149.047 19.3022 145.667 16.8528 142.016 17.3076Z" fill="url(#paint0_linear_6023_13624)"/>
<path d="M142.016 17.3076L19.5074 32.565C15.4588 33.0692 12.6976 36.915 13.5141 40.9123L44.202 191.145C44.9343 194.731 48.3044 197.147 51.9349 196.69L173.07 181.436C177.09 180.929 179.842 177.127 179.066 173.15L149.751 22.9133C149.047 19.3022 145.667 16.8528 142.016 17.3076Z" stroke="white"/>
</g>
</g>
<path d="M67.5 194L41.5 178L57.4875 174.909C61.4424 174.145 65.225 176.868 65.7552 180.861L67.5 194Z" fill="#FFD4D5" stroke="white"/>
<path d="M38 60.5L122 49.5" stroke="url(#paint1_linear_6023_13624)" stroke-opacity="0.8" stroke-width="8" stroke-linecap="round"/>
<path d="M44 85.5L139.5 72.5" stroke="url(#paint2_linear_6023_13624)" stroke-opacity="0.8" stroke-width="8" stroke-linecap="round"/>
<path d="M50 107.5L126 97.5" stroke="url(#paint3_linear_6023_13624)" stroke-opacity="0.8" stroke-width="8" stroke-linecap="round"/>
<g filter="url(#filter1_d_6023_13624)">
<path d="M176.429 45.5C199.861 45.5001 218.857 60.2746 218.857 78.5C218.857 96.7254 199.861 111.5 176.429 111.5C167.36 111.5 158.956 109.285 152.061 105.516L140.286 111.5L145.025 100.691C138.175 94.8307 134 87.0445 134 78.5C134 60.2746 152.996 45.5 176.429 45.5Z" fill="#FF849A"/>
</g>
<path d="M181.016 60.0088L181.854 59.082L181.854 59.0819L181.016 60.0088ZM181.43 61.5508L182.674 61.4267L182.673 61.4265L181.43 61.5508ZM181.659 63.8506L180.415 63.9747L180.415 63.9748L181.659 63.8506ZM182.457 66.5303L181.978 67.685L181.979 67.6851L182.457 66.5303ZM184.916 65.2002L185.707 66.1677L185.708 66.1676L184.916 65.2002ZM186.706 63.7354L185.915 62.7678L185.914 62.768L186.706 63.7354ZM188.089 62.9385L188.151 61.69L188.151 61.69L188.089 62.9385ZM189.386 63.8691L190.27 62.9853L189.386 63.8691ZM192.13 66.6133L193.014 65.7294L192.13 66.6133ZM193.062 67.9111L194.31 67.8493L194.31 67.8489L193.062 67.9111ZM192.264 69.2939L191.296 68.5023L191.296 68.5027L192.264 69.2939ZM190.801 71.083L191.768 71.8746L191.768 71.8743L190.801 71.083ZM189.47 73.541L188.315 74.019L188.315 74.0192L189.47 73.541ZM192.149 74.3389L192.274 73.0951L192.274 73.0951L192.149 74.3389ZM194.449 74.5693L194.325 75.8131L194.325 75.8131L194.449 74.5693ZM195.991 74.9844L196.918 74.1459L196.918 74.1457L195.991 74.9844ZM196.25 76.5596L197.5 76.5596L196.25 76.5596ZM195.991 82.0156L196.918 82.8544L196.918 82.8543L195.991 82.0156ZM194.449 82.4297L194.573 83.6735L194.573 83.6735L194.449 82.4297ZM192.149 82.6592L192.025 81.4154L192.025 81.4154L192.149 82.6592ZM189.47 83.457L188.315 82.9786L188.315 82.9786L189.47 83.457ZM190.801 85.916L191.768 85.1248L191.768 85.1245L190.801 85.916ZM192.264 87.7051L191.296 88.4963L191.296 88.4966L192.264 87.7051ZM193.062 89.0879L194.31 89.1502L194.31 89.1498L193.062 89.0879ZM192.13 90.3857L191.246 89.5019L192.13 90.3857ZM189.387 93.1289L188.503 92.245L189.387 93.1289ZM188.089 94.0605L188.151 95.309L188.151 95.309L188.089 94.0605ZM186.706 93.2627L187.498 92.2953L187.497 92.2951L186.706 93.2627ZM184.916 91.7988L184.124 92.7663L184.125 92.7665L184.916 91.7988ZM182.457 90.4688L181.979 89.3139L181.978 89.3142L182.457 90.4688ZM181.66 93.1484L182.904 93.273L182.904 93.2727L181.66 93.1484ZM181.43 95.4492L180.186 95.3246L180.186 95.325L181.43 95.4492ZM181.016 96.9912L181.854 97.9181L181.854 97.918L181.016 96.9912ZM175.56 97.25V98.5V97.25ZM173.984 96.9912L173.146 97.9181L173.146 97.9183L173.984 96.9912ZM173.569 95.4492L174.813 95.3247L174.813 95.3246L173.569 95.4492ZM173.339 93.1494L172.095 93.274L172.095 93.2741L173.339 93.1494ZM172.541 90.4697L173.019 89.3148L173.019 89.3147L172.541 90.4697ZM170.083 91.8008L170.874 92.7685L170.875 92.7682L170.083 91.8008ZM168.294 93.2637L167.503 92.296L167.502 92.2963L168.294 93.2637ZM166.911 94.0615L166.849 95.31L166.849 95.31L166.911 94.0615ZM162.869 90.3857L161.985 91.2696L161.985 91.2696L162.869 90.3857ZM161.938 89.0889L160.69 89.1509L160.69 89.1512L161.938 89.0889ZM162.735 87.7061L161.768 86.9144L161.768 86.9146L162.735 87.7061ZM164.2 85.916L165.168 86.7076L165.168 86.7075L164.2 85.916ZM165.53 83.457L166.685 82.9786L166.685 82.9784L165.53 83.457ZM162.851 82.6592L162.975 81.4154L162.975 81.4154L162.851 82.6592ZM160.551 82.4297L160.427 83.6735L160.427 83.6735L160.551 82.4297ZM159.009 82.0156L158.082 82.8543L158.082 82.8544L159.009 82.0156ZM158.75 76.5596H157.5H158.75ZM159.009 74.9844L158.082 74.1456L158.082 74.1458L159.009 74.9844ZM160.551 74.5703L160.675 75.8141L160.675 75.8141L160.551 74.5703ZM162.852 74.3398L162.727 73.0961L162.727 73.0961L162.852 74.3398ZM165.53 73.542L166.685 74.0204L166.685 74.0204L165.53 73.542ZM164.2 71.083L165.168 70.2915L165.168 70.2914L164.2 71.083ZM162.735 69.293L161.768 70.0844L161.768 70.0846L162.735 69.293ZM161.938 67.9102L160.69 67.8478L160.69 67.8481L161.938 67.9102ZM162.869 66.6133L161.985 65.7294L162.869 66.6133ZM166.911 62.9375L166.849 61.689L166.849 61.6891L166.911 62.9375ZM168.294 63.7354L167.502 64.7028L167.503 64.703L168.294 63.7354ZM170.083 65.1982L170.875 64.2308L170.874 64.2306L170.083 65.1982ZM172.542 66.5293L173.02 67.6842L173.02 67.6842L172.542 66.5293ZM173.34 63.8496L172.096 63.7249L172.096 63.7252L173.34 63.8496ZM173.57 61.5508L174.814 61.6755L174.814 61.6752L173.57 61.5508ZM173.984 60.0088L173.146 59.0818L173.146 59.082L173.984 60.0088ZM175.56 59.75L175.56 58.5L175.56 59.75ZM179.439 59.75V61C179.659 61 179.83 61.0001 179.978 61.0037C180.126 61.0073 180.22 61.014 180.283 61.0222C180.4 61.0373 180.296 61.0434 180.177 60.9357L181.016 60.0088L181.854 59.0819C181.45 58.7157 180.988 58.5924 180.603 58.5427C180.254 58.4976 179.836 58.5 179.439 58.5V59.75ZM181.016 60.0088L180.177 60.9356C180.058 60.8279 180.053 60.7237 180.08 60.8383C180.094 60.9002 180.11 60.9933 180.129 61.1399C180.147 61.2861 180.164 61.4567 180.186 61.675L181.43 61.5508L182.673 61.4265C182.634 61.0318 182.595 60.6163 182.515 60.2733C182.428 59.8955 182.259 59.4482 181.854 59.082L181.016 60.0088ZM181.43 61.5508L180.186 61.6749L180.415 63.9747L181.659 63.8506L182.903 63.7265L182.674 61.4267L181.43 61.5508ZM181.659 63.8506L180.415 63.9748C180.493 64.7495 180.562 65.4738 180.7 66.0221C180.838 66.572 181.139 67.3373 181.978 67.685L182.457 66.5303L182.936 65.3755C183.222 65.4942 183.206 65.7364 183.124 65.4121C183.042 65.0862 182.989 64.5852 182.903 63.7263L181.659 63.8506ZM182.457 66.5303L181.979 67.6851C182.818 68.0328 183.572 67.7047 184.059 67.4138C184.544 67.1238 185.105 66.6606 185.707 66.1677L184.916 65.2002L184.125 64.2327C183.456 64.7792 183.064 65.0956 182.776 65.2679C182.489 65.4395 182.649 65.2568 182.935 65.3755L182.457 66.5303ZM184.916 65.2002L185.708 66.1676L187.498 64.7027L186.706 63.7354L185.914 62.768L184.124 64.2328L184.916 65.2002ZM186.706 63.7354L187.498 64.7029C187.667 64.564 187.8 64.4556 187.916 64.3652C188.033 64.2746 188.11 64.2202 188.164 64.1867C188.263 64.1245 188.187 64.1949 188.027 64.1869L188.089 62.9385L188.151 61.69C187.606 61.663 187.171 61.8596 186.842 62.0646C186.543 62.2508 186.222 62.5167 185.915 62.7678L186.706 63.7354ZM188.089 62.9385L188.027 64.1869C187.867 64.1789 187.797 64.1013 187.89 64.1731C187.941 64.2118 188.012 64.2736 188.119 64.3754C188.226 64.4768 188.347 64.598 188.502 64.753L189.386 63.8691L190.27 62.9853C189.989 62.7047 189.696 62.4081 189.417 62.193C189.11 61.9562 188.696 61.7172 188.151 61.69L188.089 62.9385ZM189.386 63.8691L188.502 64.753L191.246 67.4972L192.13 66.6133L193.014 65.7294L190.27 62.9853L189.386 63.8691ZM192.13 66.6133L191.246 67.4972C191.401 67.6523 191.522 67.7737 191.624 67.8805C191.726 67.9875 191.788 68.0589 191.827 68.1093C191.899 68.2029 191.821 68.1337 191.813 67.9733L193.062 67.9111L194.31 67.8489C194.283 67.3037 194.043 66.8898 193.806 66.5827C193.591 66.3037 193.295 66.0101 193.014 65.7294L192.13 66.6133ZM193.062 67.9111L191.813 67.973C191.805 67.8125 191.876 67.7356 191.813 67.8356C191.78 67.8896 191.725 67.9667 191.634 68.0833C191.544 68.1996 191.435 68.3324 191.296 68.5023L192.264 69.2939L193.231 70.0856C193.482 69.7788 193.748 69.4574 193.935 69.1589C194.14 68.83 194.337 68.3945 194.31 67.8493L193.062 67.9111ZM192.264 69.2939L191.296 68.5027L189.833 70.2917L190.801 71.083L191.768 71.8743L193.231 70.0852L192.264 69.2939ZM190.801 71.083L189.833 70.2914C189.341 70.8935 188.877 71.4543 188.587 71.9391C188.296 72.4253 187.967 73.1794 188.315 74.019L189.47 73.541L190.625 73.063C190.743 73.3498 190.56 73.5101 190.732 73.2231C190.905 72.9346 191.221 72.5428 191.768 71.8746L190.801 71.083ZM189.47 73.541L188.315 74.0192C188.663 74.859 189.428 75.16 189.978 75.2982C190.526 75.436 191.251 75.5051 192.025 75.5826L192.149 74.3389L192.274 73.0951C191.415 73.0091 190.914 72.9556 190.588 72.8736C190.263 72.792 190.506 72.7759 190.625 73.0628L189.47 73.541ZM192.149 74.3389L192.025 75.5826L194.325 75.8131L194.449 74.5693L194.574 73.3256L192.274 73.0951L192.149 74.3389ZM194.449 74.5693L194.325 75.8131C194.543 75.835 194.713 75.8522 194.859 75.8705C195.006 75.8888 195.099 75.9049 195.161 75.9193C195.275 75.9459 195.172 75.9416 195.064 75.8231L195.991 74.9844L196.918 74.1457C196.552 73.7415 196.106 73.5725 195.728 73.4844C195.384 73.4045 194.969 73.3651 194.574 73.3256L194.449 74.5693ZM195.991 74.9844L195.064 75.8229C194.957 75.7041 194.963 75.6003 194.978 75.7169C194.986 75.7799 194.993 75.874 194.996 76.0216C195 76.1688 195 76.3403 195 76.5596L196.25 76.5596L197.5 76.5596C197.5 76.1627 197.502 75.7456 197.457 75.3964C197.407 75.0117 197.284 74.5503 196.918 74.1459L195.991 74.9844ZM196.25 76.5596H195V80.4395H196.25H197.5V76.5596H196.25ZM196.25 80.4395H195C195 80.6589 195 80.8305 194.996 80.9778C194.993 81.1255 194.986 81.2198 194.978 81.2829C194.963 81.3999 194.957 81.296 195.064 81.177L195.991 82.0156L196.918 82.8543C197.284 82.4496 197.408 81.9876 197.457 81.603C197.502 81.2537 197.5 80.8364 197.5 80.4395H196.25ZM195.991 82.0156L195.064 81.1768C195.172 81.0578 195.276 81.0535 195.162 81.0801C195.1 81.0944 195.007 81.1104 194.86 81.1287C194.714 81.1469 194.543 81.1641 194.325 81.1859L194.449 82.4297L194.573 83.6735C194.968 83.6341 195.384 83.595 195.727 83.5154C196.104 83.4277 196.552 83.2591 196.918 82.8544L195.991 82.0156ZM194.449 82.4297L194.325 81.1859L192.025 81.4154L192.149 82.6592L192.274 83.903L194.573 83.6735L194.449 82.4297ZM192.149 82.6592L192.025 81.4154C191.251 81.4928 190.526 81.5618 189.978 81.6998C189.428 81.8381 188.663 82.1393 188.315 82.9786L189.47 83.457L190.625 83.9355C190.506 84.222 190.264 84.2058 190.588 84.1242C190.914 84.0422 191.415 83.9888 192.274 83.903L192.149 82.6592ZM189.47 83.457L188.315 82.9786C187.967 83.8183 188.296 84.5727 188.587 85.0591C188.877 85.5442 189.34 86.1052 189.833 86.7076L190.801 85.916L191.768 85.1245C191.221 84.4562 190.905 84.0641 190.732 83.7755C190.56 83.4883 190.743 83.6486 190.625 83.9354L189.47 83.457ZM190.801 85.916L189.833 86.7073L191.296 88.4963L192.264 87.7051L193.231 86.9138L191.768 85.1248L190.801 85.916ZM192.264 87.7051L191.296 88.4966C191.435 88.6665 191.544 88.7994 191.634 88.9157C191.725 89.0324 191.78 89.1095 191.813 89.1635C191.876 89.2635 191.805 89.1866 191.813 89.0259L193.062 89.0879L194.31 89.1498C194.337 88.6045 194.14 88.1689 193.934 87.8401C193.748 87.5417 193.482 87.2203 193.231 86.9135L192.264 87.7051ZM193.062 89.0879L191.813 89.0256C191.821 88.8653 191.899 88.7961 191.827 88.8897C191.788 88.9401 191.726 89.0115 191.624 89.1186C191.522 89.2253 191.401 89.3467 191.246 89.5019L192.13 90.3857L193.014 91.2696C193.295 90.9889 193.591 90.6954 193.806 90.4164C194.043 90.1093 194.283 89.6953 194.31 89.1502L193.062 89.0879ZM192.13 90.3857L191.246 89.5019L188.503 92.245L189.387 93.1289L190.271 94.0128L193.014 91.2696L192.13 90.3857ZM189.387 93.1289L188.503 92.245C188.348 92.4002 188.226 92.5214 188.12 92.623C188.013 92.725 187.941 92.7869 187.891 92.8258C187.797 92.8979 187.866 92.8201 188.027 92.8121L188.089 94.0605L188.151 95.309C188.696 95.2818 189.11 95.0423 189.417 94.8055C189.696 94.5903 189.99 94.2935 190.271 94.0128L189.387 93.1289ZM188.089 94.0605L188.027 92.8121C188.188 92.8041 188.264 92.8749 188.164 92.8125C188.11 92.7788 188.033 92.7243 187.917 92.6335C187.8 92.5429 187.668 92.4343 187.498 92.2953L186.706 93.2627L185.914 94.2301C186.221 94.4811 186.543 94.7473 186.841 94.9335C187.17 95.1387 187.605 95.3361 188.151 95.309L188.089 94.0605ZM186.706 93.2627L187.497 92.2951L185.707 90.8312L184.916 91.7988L184.125 92.7665L185.915 94.2303L186.706 93.2627ZM184.916 91.7988L185.708 90.8314C185.105 90.3384 184.544 89.8751 184.059 89.5851C183.572 89.294 182.818 88.9663 181.979 89.3139L182.457 90.4688L182.935 91.6236C182.649 91.7421 182.489 91.5596 182.776 91.731C183.064 91.9033 183.456 92.2196 184.124 92.7663L184.916 91.7988ZM182.457 90.4688L181.978 89.3142C181.139 89.6624 180.838 90.428 180.7 90.9776C180.563 91.5256 180.494 92.2499 180.416 93.0242L181.66 93.1484L182.904 93.2727C182.99 92.4136 183.043 91.9126 183.125 91.5865C183.206 91.2619 183.223 91.5044 182.936 91.6233L182.457 90.4688ZM181.66 93.1484L180.416 93.0238L180.186 95.3246L181.43 95.4492L182.673 95.5738L182.904 93.273L181.66 93.1484ZM181.43 95.4492L180.186 95.325C180.164 95.5433 180.147 95.714 180.129 95.8601C180.11 96.0067 180.094 96.0997 180.08 96.1616C180.053 96.2763 180.058 96.1721 180.177 96.0644L181.016 96.9912L181.854 97.918C182.259 97.5518 182.428 97.1045 182.515 96.7267C182.595 96.3837 182.634 95.9682 182.673 95.5734L181.43 95.4492ZM181.016 96.9912L180.177 96.0643C180.296 95.9567 180.4 95.9627 180.283 95.9778C180.22 95.986 180.126 95.9927 179.978 95.9963C179.83 95.9999 179.659 96 179.439 96V97.25V98.5C179.836 98.5 180.254 98.5024 180.603 98.4573C180.988 98.4076 181.45 98.2843 181.854 97.9181L181.016 96.9912ZM179.439 97.25V96H175.56V97.25V98.5H179.439V97.25ZM175.56 97.25L175.56 96C175.34 96 175.169 95.9999 175.022 95.9963C174.874 95.9926 174.78 95.986 174.717 95.9778C174.6 95.9627 174.704 95.9568 174.823 96.0642L173.984 96.9912L173.146 97.9183C173.55 98.284 174.012 98.4075 174.396 98.4572C174.746 98.5023 175.163 98.5 175.56 98.5L175.56 97.25ZM173.984 96.9912L174.823 96.0643C174.942 96.1716 174.946 96.2752 174.919 96.1607C174.905 96.0988 174.889 96.0059 174.87 95.8594C174.852 95.7134 174.835 95.5428 174.813 95.3247L173.569 95.4492L172.326 95.5738C172.365 95.969 172.405 96.3845 172.484 96.7277C172.572 97.1057 172.741 97.5524 173.146 97.9181L173.984 96.9912ZM173.569 95.4492L174.813 95.3246L174.583 93.0248L173.339 93.1494L172.095 93.2741L172.326 95.5739L173.569 95.4492ZM173.339 93.1494L174.583 93.0248C174.505 92.2505 174.436 91.5262 174.298 90.9781C174.16 90.4284 173.859 89.6625 173.019 89.3148L172.541 90.4697L172.063 91.6246C171.776 91.5058 171.792 91.2631 171.874 91.5877C171.956 91.9138 172.009 92.4149 172.095 93.274L173.339 93.1494ZM172.541 90.4697L173.019 89.3147C172.179 88.9673 171.425 89.2961 170.939 89.5871C170.454 89.8773 169.893 90.3407 169.291 90.8334L170.083 91.8008L170.875 92.7682C171.543 92.2214 171.935 91.9048 172.223 91.7322C172.51 91.5604 172.35 91.7434 172.063 91.6247L172.541 90.4697ZM170.083 91.8008L169.292 90.8331L167.503 92.296L168.294 93.2637L169.085 94.2314L170.874 92.7685L170.083 91.8008ZM168.294 93.2637L167.502 92.2963C167.332 92.4353 167.2 92.5439 167.083 92.6344C166.967 92.7253 166.89 92.7798 166.836 92.8134C166.736 92.8758 166.812 92.8051 166.973 92.8131L166.911 94.0615L166.849 95.31C167.395 95.337 167.83 95.1397 168.159 94.9345C168.457 94.7483 168.779 94.4821 169.086 94.231L168.294 93.2637ZM166.911 94.0615L166.973 92.8131C167.134 92.8211 167.203 92.8989 167.109 92.8268C167.059 92.7879 166.988 92.726 166.88 92.624C166.774 92.5224 166.652 92.4011 166.497 92.246L165.613 93.1299L164.729 94.0138C165.01 94.2945 165.304 94.5913 165.583 94.8065C165.89 95.0433 166.304 95.2828 166.849 95.31L166.911 94.0615ZM165.613 93.1299L166.497 92.246L163.753 89.5019L162.869 90.3857L161.985 91.2696L164.729 94.0138L165.613 93.1299ZM162.869 90.3857L163.753 89.5019C163.598 89.3468 163.477 89.2255 163.375 89.1189C163.274 89.012 163.212 88.9407 163.173 88.8905C163.101 88.7974 163.179 88.8666 163.187 89.0266L161.938 89.0889L160.69 89.1512C160.717 89.6959 160.956 90.1095 161.193 90.4168C161.408 90.6957 161.705 90.989 161.985 91.2696L162.869 90.3857ZM161.938 89.0889L163.187 89.0268C163.195 89.1868 163.125 89.2633 163.187 89.1636C163.22 89.1097 163.275 89.0326 163.365 88.9161C163.456 88.8 163.564 88.6672 163.703 88.4975L162.735 87.7061L161.768 86.9146C161.517 87.2216 161.251 87.543 161.065 87.8419C160.86 88.171 160.663 88.6063 160.69 89.1509L161.938 89.0889ZM162.735 87.7061L163.703 88.4977L165.168 86.7076L164.2 85.916L163.233 85.1244L161.768 86.9144L162.735 87.7061ZM164.2 85.916L165.168 86.7075C165.661 86.105 166.124 85.544 166.414 85.0587C166.705 84.572 167.033 83.8178 166.685 82.9786L165.53 83.457L164.375 83.9355C164.257 83.6491 164.439 83.4891 164.268 83.776C164.096 84.0644 163.779 84.4565 163.233 85.1245L164.2 85.916ZM165.53 83.457L166.685 82.9784C166.337 82.1394 165.572 81.8382 165.022 81.6998C164.474 81.5619 163.749 81.4928 162.975 81.4154L162.851 82.6592L162.726 83.903C163.585 83.9888 164.086 84.0423 164.412 84.1242C164.736 84.2058 164.494 84.222 164.376 83.9356L165.53 83.457ZM162.851 82.6592L162.975 81.4154L160.675 81.1859L160.551 82.4297L160.427 83.6735L162.726 83.903L162.851 82.6592ZM160.551 82.4297L160.675 81.1859C160.457 81.1641 160.286 81.1469 160.14 81.1287C159.993 81.1104 159.9 81.0944 159.838 81.0801C159.724 81.0535 159.828 81.0578 159.936 81.1768L159.009 82.0156L158.082 82.8544C158.448 83.2591 158.896 83.4277 159.273 83.5154C159.616 83.595 160.032 83.6341 160.427 83.6735L160.551 82.4297ZM159.009 82.0156L159.936 81.177C160.043 81.296 160.037 81.3999 160.022 81.2829C160.014 81.2198 160.007 81.1255 160.004 80.9778C160 80.8305 160 80.6589 160 80.4395H158.75H157.5C157.5 80.8364 157.498 81.2537 157.543 81.603C157.592 81.9876 157.716 82.4496 158.082 82.8543L159.009 82.0156ZM158.75 80.4395H160V76.5596H158.75H157.5V80.4395H158.75ZM158.75 76.5596L160 76.5596C160 76.3403 160 76.1688 160.004 76.0216C160.007 75.874 160.014 75.7799 160.022 75.7169C160.037 75.6003 160.043 75.7042 159.936 75.823L159.009 74.9844L158.082 74.1458C157.716 74.5502 157.593 75.0118 157.543 75.3964C157.498 75.7456 157.5 76.1628 157.5 76.5596L158.75 76.5596ZM159.009 74.9844L159.936 75.8231C159.828 75.9422 159.724 75.9466 159.838 75.92C159.9 75.9056 159.993 75.8896 160.14 75.8713C160.286 75.8531 160.457 75.836 160.675 75.8141L160.551 74.5703L160.426 73.3265C160.032 73.366 159.616 73.4051 159.273 73.4846C158.896 73.5723 158.448 73.7409 158.082 74.1456L159.009 74.9844ZM160.551 74.5703L160.675 75.8141L162.976 75.5836L162.852 74.3398L162.727 73.0961L160.426 73.3265L160.551 74.5703ZM162.852 74.3398L162.976 75.5836C163.75 75.5062 164.474 75.4371 165.023 75.2991C165.572 75.1608 166.337 74.8595 166.685 74.0204L165.53 73.542L164.375 73.0636C164.494 72.7772 164.736 72.7932 164.412 72.8747C164.087 72.9567 163.586 73.0102 162.727 73.0961L162.852 74.3398ZM165.53 73.542L166.685 74.0204C167.033 73.1812 166.705 72.4271 166.414 71.9403C166.124 71.4551 165.661 70.894 165.168 70.2915L164.2 71.083L163.233 71.8745C163.779 72.5425 164.096 72.9346 164.268 73.223C164.439 73.5099 164.257 73.35 164.375 73.0636L165.53 73.542ZM164.2 71.083L165.168 70.2914L163.703 68.5013L162.735 69.293L161.768 70.0846L163.233 71.8746L164.2 71.083ZM162.735 69.293L163.703 68.5015C163.564 68.3318 163.456 68.1991 163.365 68.0829C163.275 67.9664 163.22 67.8893 163.187 67.8355C163.125 67.7357 163.195 67.8123 163.187 67.9722L161.938 67.9102L160.69 67.8481C160.663 68.3927 160.86 68.828 161.065 69.1572C161.251 69.456 161.517 69.7774 161.768 70.0844L162.735 69.293ZM161.938 67.9102L163.187 67.9725C163.179 68.1324 163.101 68.2016 163.173 68.1086C163.212 68.0583 163.274 67.987 163.375 67.8801C163.477 67.7735 163.598 67.6522 163.753 67.4972L162.869 66.6133L161.985 65.7294C161.705 66.01 161.408 66.3033 161.193 66.5823C160.956 66.8895 160.717 67.3032 160.69 67.8478L161.938 67.9102ZM162.869 66.6133L163.753 67.4972L166.497 64.753L165.613 63.8691L164.729 62.9853L161.985 65.7294L162.869 66.6133ZM165.613 63.8691L166.497 64.753C166.652 64.5979 166.774 64.4766 166.88 64.375C166.987 64.2731 167.059 64.2112 167.109 64.1723C167.203 64.1001 167.134 64.178 166.973 64.1859L166.911 62.9375L166.849 61.6891C166.304 61.7162 165.89 61.9558 165.583 62.1926C165.304 62.4077 165.01 62.7045 164.729 62.9853L165.613 63.8691ZM166.911 62.9375L166.973 64.186C166.812 64.1939 166.736 64.1232 166.836 64.1856C166.89 64.2192 166.967 64.2738 167.083 64.3646C167.2 64.4552 167.332 64.5638 167.502 64.7028L168.294 63.7354L169.086 62.7679C168.779 62.5169 168.457 62.2508 168.159 62.0645C167.83 61.8594 167.395 61.662 166.849 61.689L166.911 62.9375ZM168.294 63.7354L167.503 64.703L169.292 66.1659L170.083 65.1982L170.874 64.2306L169.085 62.7677L168.294 63.7354ZM170.083 65.1982L169.291 66.1657C169.894 66.6585 170.455 67.1219 170.94 67.4121C171.426 67.7031 172.181 68.0319 173.02 67.6842L172.542 66.5293L172.064 65.3744C172.351 65.2556 172.511 65.4387 172.223 65.2668C171.935 65.0941 171.543 64.7775 170.875 64.2308L170.083 65.1982ZM172.542 66.5293L173.02 67.6842C173.86 67.3364 174.161 66.5708 174.299 66.021C174.437 65.4728 174.506 64.7485 174.584 63.974L173.34 63.8496L172.096 63.7252C172.01 64.5842 171.957 65.0852 171.875 65.4113C171.793 65.7357 171.777 65.4932 172.064 65.3744L172.542 66.5293ZM173.34 63.8496L174.584 63.9743L174.814 61.6755L173.57 61.5508L172.327 61.4261L172.096 63.7249L173.34 63.8496ZM173.57 61.5508L174.814 61.6752C174.836 61.4568 174.853 61.2861 174.871 61.1399C174.89 60.9932 174.906 60.9002 174.92 60.8382C174.947 60.7236 174.942 60.8278 174.823 60.9356L173.984 60.0088L173.146 59.082C172.741 59.4482 172.572 59.8957 172.485 60.2734C172.405 60.6163 172.366 61.0317 172.327 61.4264L173.57 61.5508ZM173.984 60.0088L174.823 60.9358C174.704 61.0432 174.6 61.0372 174.717 61.0222C174.78 61.014 174.874 61.0073 175.022 61.0037C175.169 61.0001 175.34 61 175.56 61L175.56 59.75L175.56 58.5C175.163 58.5 174.746 58.4977 174.396 58.5428C174.012 58.5925 173.55 58.7159 173.146 59.0818L173.984 60.0088ZM175.56 59.75V61H179.439V59.75V58.5H175.56V59.75ZM177.5 71V69.75C172.668 69.75 168.75 73.6675 168.75 78.5H170H171.25C171.25 75.0482 174.048 72.25 177.5 72.25V71ZM170 78.5H168.75C168.75 83.3325 172.668 87.25 177.5 87.25V86V84.75C174.048 84.75 171.25 81.9518 171.25 78.5H170ZM177.5 86V87.25C182.332 87.25 186.25 83.3325 186.25 78.5H185H183.75C183.75 81.9518 180.952 84.75 177.5 84.75V86ZM185 78.5H186.25C186.25 73.6675 182.332 69.75 177.5 69.75V71V72.25C180.952 72.25 183.75 75.0482 183.75 78.5H185Z" fill="white"/>
<defs>
<filter id="filter0_d_6023_13624" x="8.87109" y="12.7529" width="174.826" height="188.492" filterUnits="userSpaceOnUse" color-interpolation-filters="sRGB">
<feFlood flood-opacity="0" result="BackgroundImageFix"/>
<feColorMatrix in="SourceAlpha" type="matrix" values="0 0 0 0 0 0 0 0 0 0 0 0 0 0 0 0 0 0 127 0" result="hardAlpha"/>
<feOffset/>
<feGaussianBlur stdDeviation="2"/>
<feComposite in2="hardAlpha" operator="out"/>
<feColorMatrix type="matrix" values="0 0 0 0 0 0 0 0 0 0 0 0 0 0 0 0 0 0 0.05 0"/>
<feBlend mode="normal" in2="BackgroundImageFix" result="effect1_dropShadow_6023_13624"/>
<feBlend mode="normal" in="SourceGraphic" in2="effect1_dropShadow_6023_13624" result="shape"/>
</filter>
<filter id="filter1_d_6023_13624" x="130" y="43.5" width="92.8574" height="74" filterUnits="userSpaceOnUse" color-interpolation-filters="sRGB">
<feFlood flood-opacity="0" result="BackgroundImageFix"/>
<feColorMatrix in="SourceAlpha" type="matrix" values="0 0 0 0 0 0 0 0 0 0 0 0 0 0 0 0 0 0 127 0" result="hardAlpha"/>
<feOffset dy="2"/>
<feGaussianBlur stdDeviation="2"/>
<feComposite in2="hardAlpha" operator="out"/>
<feColorMatrix type="matrix" values="0 0 0 0 0 0 0 0 0 0 0 0 0 0 0 0 0 0 0.15 0"/>
<feBlend mode="normal" in2="BackgroundImageFix" result="effect1_dropShadow_6023_13624"/>
<feBlend mode="normal" in="SourceGraphic" in2="effect1_dropShadow_6023_13624" result="shape"/>
</filter>
<linearGradient id="paint0_linear_6023_13624" x1="96.25" y1="16.5" x2="96.25" y2="197.5" gradientUnits="userSpaceOnUse">
<stop stop-color="#F6DDE9"/>
<stop offset="1" stop-color="#FFE2E3"/>
</linearGradient>
<linearGradient id="paint1_linear_6023_13624" x1="146" y1="48" x2="38.5" y2="57.5" gradientUnits="userSpaceOnUse">
<stop stop-color="white"/>
<stop offset="1" stop-color="white" stop-opacity="0.8"/>
</linearGradient>
<linearGradient id="paint2_linear_6023_13624" x1="150" y1="72.5" x2="44" y2="85.5" gradientUnits="userSpaceOnUse">
<stop stop-color="white"/>
<stop offset="1" stop-color="white" stop-opacity="0.8"/>
</linearGradient>
<linearGradient id="paint3_linear_6023_13624" x1="140" y1="90" x2="46" y2="102.5" gradientUnits="userSpaceOnUse">
<stop stop-color="white" stop-opacity="0.6"/>
<stop offset="1" stop-color="white"/>
</linearGradient>
</defs>
</svg>
