<svg width="58" height="58" viewBox="0 0 58 58" fill="none" xmlns="http://www.w3.org/2000/svg">
<rect x="32.999" y="0.00561523" width="5" height="48" rx="2.1" transform="rotate(-0.111156 32.999 0.00561523)" fill="white"/>
<path d="M32.999 3.96702L14.2109 12.9913C13.4817 13.3415 13.0185 14.0794 13.0201 14.8883L13.0546 32.7014C13.0562 33.5295 13.5444 34.2794 14.3011 34.616L33.0746 42.9669L32.999 3.96702Z" fill="url(#paint0_linear_8220_17274)"/>
<path d="M0.00309333 15.1059C0.000845593 13.9461 0.939224 13.004 2.09902 13.0018L14.999 12.9767L15.0416 34.9767L2.14166 35.0017C0.981861 35.004 0.0398383 34.0656 0.0375905 32.9058L0.00309333 15.1059Z" fill="url(#paint1_linear_8220_17274)"/>
<path d="M3 35.0056L14.1022 34.9841L20.0445 57.9726L8.94232 57.9941L3 35.0056Z" fill="url(#paint2_linear_8220_17274)"/>
<path opacity="0.5" d="M52 8.0061L44.303 14.3901" stroke="#C9DFFF" stroke-width="3.15" stroke-linecap="round"/>
<path opacity="0.5" d="M51 36.0061L43.6668 29.2073" stroke="#C9DFFF" stroke-width="3.15" stroke-linecap="round"/>
<path d="M45 22.0061L54.8821 20.4752" stroke="#C9DFFF" stroke-width="3.15" stroke-linecap="round"/>
<defs>
<linearGradient id="paint0_linear_8220_17274" x1="22.999" y1="3.98644" x2="23.0747" y2="42.9864" gradientUnits="userSpaceOnUse">
<stop stop-color="#96C1FF"/>
<stop offset="1" stop-color="#4C95FF"/>
</linearGradient>
<linearGradient id="paint1_linear_8220_17274" x1="7.49901" y1="12.9913" x2="7.54174" y2="34.9913" gradientUnits="userSpaceOnUse">
<stop stop-color="#D8EDFF"/>
<stop offset="1" stop-color="#C7D2F6"/>
</linearGradient>
<linearGradient id="paint2_linear_8220_17274" x1="8.55111" y1="34.9948" x2="8.59638" y2="58.3038" gradientUnits="userSpaceOnUse">
<stop stop-color="#AEC2F9"/>
<stop offset="1" stop-color="#98C2FF" stop-opacity="0"/>
</linearGradient>
</defs>
</svg>
