<svg width="64" height="64" viewBox="0 0 64 64" fill="none" xmlns="http://www.w3.org/2000/svg">
<mask id="mask0_8211_19014" style="mask-type:alpha" maskUnits="userSpaceOnUse" x="0" y="0" width="64" height="64">
<rect width="64" height="64" rx="32" fill="#F8F8F8"/>
</mask>
<g mask="url(#mask0_8211_19014)">
<circle cx="32" cy="31" r="6" fill="#B0D0FF"/>
<circle cx="18" cy="15" r="6" fill="#DAEBFF"/>
<path d="M31.8876 31.9514L14 64H62L44.1124 31.9514C41.4419 27.1668 34.558 27.1668 31.8876 31.9514Z" fill="url(#paint0_linear_8211_19014)"/>
<path d="M24.25 41.6316L3 64H60L38.75 41.6316C34.8074 37.4816 28.1925 37.4816 24.25 41.6316Z" fill="url(#paint1_linear_8211_19014)"/>
<path d="M18 48L21.3751 51.0001C23.2999 52.7109 26.2003 52.7109 28.1251 51C30.0498 49.2891 32.9503 49.2891 34.8751 51C36.7998 52.7109 39.7003 52.7109 41.625 51L45 48" stroke="white" stroke-width="1.5"/>
</g>
<defs>
<linearGradient id="paint0_linear_8211_19014" x1="38" y1="28.351" x2="38" y2="64" gradientUnits="userSpaceOnUse">
<stop stop-color="#4C95FF"/>
<stop offset="1" stop-color="white"/>
</linearGradient>
<linearGradient id="paint1_linear_8211_19014" x1="31.5" y1="39.1286" x2="31.5" y2="64" gradientUnits="userSpaceOnUse">
<stop stop-color="#4C95FF"/>
<stop offset="1" stop-color="white"/>
</linearGradient>
</defs>
</svg>
