<svg width="23" height="23" viewBox="0 0 23 23" fill="none" xmlns="http://www.w3.org/2000/svg">
<g filter="url(#filter0_i_6472_15146)">
<circle cx="11.5" cy="11.5" r="11" fill="url(#paint0_radial_6472_15146)"/>
</g>
<g filter="url(#filter1_d_6472_15146)">
<circle cx="11.4999" cy="11.4994" r="9.12388" fill="url(#paint1_radial_6472_15146)"/>
</g>
<g filter="url(#filter2_i_6472_15146)">
<path d="M8.08789 6.76758C8.08789 6.49144 8.31175 6.26758 8.58789 6.26758H11.7354C14.182 6.26758 16.0883 7.10815 16.0883 9.74995C16.0883 12.2867 14.182 13.4274 11.7954 13.4274H10.8094C10.5333 13.4274 10.3094 13.6513 10.3094 13.9274V16.8751C10.3094 17.1513 10.0855 17.3751 9.8094 17.3751H8.58789C8.31175 17.3751 8.08789 17.1513 8.08789 16.8751V6.76758ZM11.6453 11.6713C13.1613 11.6713 13.9118 11.0258 13.9118 9.74995C13.9118 8.44406 13.1163 8.02377 11.5703 8.02377H10.8094C10.5333 8.02377 10.3094 8.24763 10.3094 8.52377V11.1713C10.3094 11.4474 10.5333 11.6713 10.8094 11.6713H11.6453Z" fill="#82B5FF"/>
</g>
<defs>
<filter id="filter0_i_6472_15146" x="0.5" y="0.5" width="22" height="22" filterUnits="userSpaceOnUse" color-interpolation-filters="sRGB">
<feFlood flood-opacity="0" result="BackgroundImageFix"/>
<feBlend mode="normal" in="SourceGraphic" in2="BackgroundImageFix" result="shape"/>
<feColorMatrix in="SourceAlpha" type="matrix" values="0 0 0 0 0 0 0 0 0 0 0 0 0 0 0 0 0 0 127 0" result="hardAlpha"/>
<feOffset/>
<feGaussianBlur stdDeviation="0.508334"/>
<feComposite in2="hardAlpha" operator="arithmetic" k2="-1" k3="1"/>
<feColorMatrix type="matrix" values="0 0 0 0 0.620678 0 0 0 0 0.749007 0 0 0 0 0.991406 0 0 0 0.91 0"/>
<feBlend mode="normal" in2="shape" result="effect1_innerShadow_6472_15146"/>
</filter>
<filter id="filter1_d_6472_15146" x="1.35931" y="1.35882" width="20.2809" height="20.2811" filterUnits="userSpaceOnUse" color-interpolation-filters="sRGB">
<feFlood flood-opacity="0" result="BackgroundImageFix"/>
<feColorMatrix in="SourceAlpha" type="matrix" values="0 0 0 0 0 0 0 0 0 0 0 0 0 0 0 0 0 0 127 0" result="hardAlpha"/>
<feOffset/>
<feGaussianBlur stdDeviation="0.508334"/>
<feComposite in2="hardAlpha" operator="out"/>
<feColorMatrix type="matrix" values="0 0 0 0 0.620678 0 0 0 0 0.749007 0 0 0 0 0.991406 0 0 0 0.82 0"/>
<feBlend mode="normal" in2="BackgroundImageFix" result="effect1_dropShadow_6472_15146"/>
<feBlend mode="normal" in="SourceGraphic" in2="effect1_dropShadow_6472_15146" result="shape"/>
</filter>
<filter id="filter2_i_6472_15146" x="8.08789" y="6.26758" width="8.00049" height="11.1077" filterUnits="userSpaceOnUse" color-interpolation-filters="sRGB">
<feFlood flood-opacity="0" result="BackgroundImageFix"/>
<feBlend mode="normal" in="SourceGraphic" in2="BackgroundImageFix" result="shape"/>
<feColorMatrix in="SourceAlpha" type="matrix" values="0 0 0 0 0 0 0 0 0 0 0 0 0 0 0 0 0 0 127 0" result="hardAlpha"/>
<feOffset/>
<feGaussianBlur stdDeviation="0.508334"/>
<feComposite in2="hardAlpha" operator="arithmetic" k2="-1" k3="1"/>
<feColorMatrix type="matrix" values="0 0 0 0 0.351753 0 0 0 0 0.518816 0 0 0 0 0.834379 0 0 0 1 0"/>
<feBlend mode="normal" in2="shape" result="effect1_innerShadow_6472_15146"/>
</filter>
<radialGradient id="paint0_radial_6472_15146" cx="0" cy="0" r="1" gradientUnits="userSpaceOnUse" gradientTransform="translate(11.6236 11.6236) rotate(77.364) scale(36.0274)">
<stop stop-color="#EDF4FF"/>
<stop offset="1" stop-color="#79AFFF"/>
</radialGradient>
<radialGradient id="paint1_radial_6472_15146" cx="0" cy="0" r="1" gradientUnits="userSpaceOnUse" gradientTransform="translate(11.6024 11.6019) rotate(85.369) scale(8.4205)">
<stop stop-color="white"/>
<stop offset="1" stop-color="#EDF4FF"/>
</radialGradient>
</defs>
</svg>
