<svg width="237" height="45" viewBox="0 0 237 45" fill="none" xmlns="http://www.w3.org/2000/svg">
<path fill-rule="evenodd" clip-rule="evenodd" d="M201.019 39.3298C197.285 42.35 192.531 44.1589 187.355 44.1589C175.346 44.1589 165.611 34.424 165.611 22.4154C165.611 10.4068 175.346 0.671875 187.355 0.671875C192.531 0.671875 197.285 2.48079 201.019 5.50099C204.753 2.48079 209.507 0.671875 214.684 0.671875C226.692 0.671875 236.427 10.4068 236.427 22.4154C236.427 34.424 226.692 44.1589 214.684 44.1589C209.507 44.1589 204.753 42.35 201.019 39.3298Z" fill="url(#paint0_radial_1054_9596)"/>
<path d="M192.536 37.6909C183.371 37.6909 176.908 31.228 176.908 22.4148C176.908 13.6017 183.371 7.13867 192.536 7.13867C201.702 7.13867 208.048 13.6017 208.048 22.4148V24.8825H184.252C185.192 29.1128 188.424 31.3455 192.536 31.3455C195.65 31.3455 197.942 30.4641 199.411 28.584H206.872C204.699 34.1069 199.411 37.6909 192.536 37.6909ZM184.428 19.3008H200.644C199.528 15.423 196.355 13.4841 192.536 13.4841C188.6 13.4841 185.545 15.4818 184.428 19.3008Z" fill="#00368E"/>
<path d="M163.261 37.6909C155.858 37.6909 151.217 33.7544 151.041 28.349H158.091C158.15 30.2879 159.854 31.5805 163.261 31.5805C166.845 31.5805 168.373 30.1116 168.373 28.349C168.373 26.1163 165.788 25.8225 162.674 25.4113C158.209 24.8237 151.628 24.0599 151.628 16.9506C151.628 11.0165 156.152 7.13867 163.144 7.13867C170.253 7.13867 174.601 11.134 174.777 16.2456H167.844C167.668 14.483 166.023 13.2491 163.261 13.2491C160.206 13.2491 158.679 14.718 158.679 16.4219C158.679 18.6545 161.323 19.007 164.437 19.4183C168.314 19.9471 175.424 20.7109 175.424 27.9377C175.424 33.8131 170.664 37.6909 163.261 37.6909Z" fill="#00368E"/>
<path d="M133.912 37.6909C124.747 37.6909 118.284 31.228 118.284 22.4148C118.284 13.6017 124.747 7.13867 133.912 7.13867C143.078 7.13867 149.541 13.6017 149.541 22.4148C149.541 31.228 143.078 37.6909 133.912 37.6909ZM133.912 31.1692C139.024 31.1692 142.432 27.5264 142.432 22.4148C142.432 17.3032 139.024 13.6604 133.912 13.6604C128.801 13.6604 125.334 17.3032 125.334 22.4148C125.334 27.5264 128.801 31.1692 133.912 31.1692Z" fill="#00368E"/>
<path d="M92.21 36.9271V20.0646C92.21 11.3102 97.3803 7.13867 104.96 7.13867C112.539 7.13867 117.651 11.3102 117.651 20.1821V20.3584H110.718V20.0646C110.718 15.3643 108.367 13.6604 104.96 13.6604C101.552 13.6604 99.2017 15.3643 99.2017 20.0646V36.9271H92.21Z" fill="#00368E"/>
<path d="M73.968 37.6909C64.8023 37.6909 58.3394 31.228 58.3394 22.4148C58.3394 13.6017 64.8023 7.13867 73.968 7.13867C83.1337 7.13867 89.5967 13.6017 89.5967 22.4148C89.5967 31.228 83.1337 37.6909 73.968 37.6909ZM73.968 31.1692C79.0796 31.1692 82.4874 27.5264 82.4874 22.4148C82.4874 17.3032 79.0796 13.6604 73.968 13.6604C68.8564 13.6604 65.3899 17.3032 65.3899 22.4148C65.3899 27.5264 68.8564 31.1692 73.968 31.1692Z" fill="#00368E"/>
<path d="M27.0444 36.9271V21.8273C27.0444 12.1328 32.8024 7.13867 41.3805 7.13867C49.9586 7.13867 55.7165 12.074 55.7165 21.8273V36.9271H48.7248V21.8273C48.7248 16.3044 45.7871 13.6604 41.3805 13.6604C36.9739 13.6604 34.0362 16.3044 34.0362 21.8273V36.9271H27.0444Z" fill="#00368E"/>
<path d="M12.2209 37.6909C4.81786 37.6909 0.176263 33.7544 0 28.349H7.05052C7.10927 30.2879 8.81315 31.5805 12.2209 31.5805C15.8049 31.5805 17.3325 30.1116 17.3325 28.349C17.3325 26.1163 14.7473 25.8225 11.6334 25.4113C7.16803 24.8237 0.587543 24.0599 0.587543 16.9506C0.587543 11.0165 5.11163 7.13867 12.1034 7.13867C19.2127 7.13867 23.5605 11.134 23.7368 16.2456H16.8037C16.6275 14.483 14.9824 13.2491 12.2209 13.2491C9.16568 13.2491 7.63806 14.718 7.63806 16.4219C7.63806 18.6545 10.282 19.007 13.396 19.4183C17.2738 19.9471 24.3831 20.7109 24.3831 27.9377C24.3831 33.8131 19.624 37.6909 12.2209 37.6909Z" fill="#00368E"/>
<defs>
<radialGradient id="paint0_radial_1054_9596" cx="0" cy="0" r="1" gradientUnits="userSpaceOnUse" gradientTransform="translate(220.734 26.2769) rotate(93.7817) scale(52.0566 85.1784)">
<stop offset="0.29142" stop-color="#C5D2FF"/>
<stop offset="1" stop-color="#82B5FF"/>
</radialGradient>
</defs>
</svg>
