<svg width="78" height="66" viewBox="0 0 78 66" fill="none" xmlns="http://www.w3.org/2000/svg">
<rect x="18" y="51.5" width="51" height="7" fill="url(#paint0_linear_4427_7644)"/>
<rect x="9" y="58.5" width="69" height="7" fill="url(#paint1_linear_4427_7644)"/>
<circle cx="15.4085" cy="15.9089" r="11" transform="rotate(-52.9066 15.4085 15.9089)" fill="url(#paint2_linear_4427_7644)"/>
<path d="M20.7124 27.3047C19.7643 26.6622 19.5483 25.3564 20.239 24.4429L24.9135 18.2606C25.6124 17.3362 26.9482 17.1975 27.8222 17.9586L45.5788 33.4209C46.0839 33.8608 46.3477 34.5279 46.2101 35.1835C45.7031 37.5972 44.5768 39.168 42.1252 40.5766C41.5029 40.9341 40.732 40.8715 40.1379 40.4689L20.7124 27.3047Z" fill="url(#paint3_linear_4427_7644)"/>
<path d="M19.6691 26.0254L26.3033 17.2512" stroke="#ECECEC" stroke-width="3" stroke-linecap="round"/>
<path d="M30 34.2734L36.6343 25.4992" stroke="#ECECEC" stroke-width="3" stroke-linecap="round"/>
<path d="M31 49.5L31 33.5" stroke="#ECECEC" stroke-width="3" stroke-linecap="round"/>
<defs>
<linearGradient id="paint0_linear_4427_7644" x1="19.5" y1="47.5" x2="17.6374" y2="68.5104" gradientUnits="userSpaceOnUse">
<stop stop-color="white"/>
<stop offset="1" stop-color="#F0F0F0"/>
</linearGradient>
<linearGradient id="paint1_linear_4427_7644" x1="9" y1="64" x2="19.6018" y2="88.1324" gradientUnits="userSpaceOnUse">
<stop stop-color="white"/>
<stop offset="1" stop-color="#F0F0F0"/>
</linearGradient>
<linearGradient id="paint2_linear_4427_7644" x1="15.4085" y1="4.90891" x2="41.1187" y2="24.0309" gradientUnits="userSpaceOnUse">
<stop stop-color="white"/>
<stop offset="1" stop-color="#F0F0F0"/>
</linearGradient>
<linearGradient id="paint3_linear_4427_7644" x1="22.5873" y1="21.3371" x2="39.5395" y2="9.36673" gradientUnits="userSpaceOnUse">
<stop stop-color="white"/>
<stop offset="1" stop-color="#F0F0F0"/>
</linearGradient>
</defs>
</svg>
