<svg width="223" height="197" viewBox="0 0 223 197" fill="none" xmlns="http://www.w3.org/2000/svg">
<g id="Group 2721">
<g id="Group 2616">
<g id="Mask group">
<mask id="mask0_5170_2976" style="mask-type:alpha" maskUnits="userSpaceOnUse" x="0" y="0" width="193" height="197">
<path id="Vector 5104" d="M71 196.5L39 176.5L0 22.5L159.5 0L192.5 183L71 196.5Z" fill="#D9D9D9"/>
</mask>
<g mask="url(#mask0_5170_2976)">
<g id="Vector 5102" filter="url(#filter0_d_5170_2976)">
<path d="M142.016 17.3076L19.5074 32.565C15.4588 33.0692 12.6976 36.915 13.5141 40.9123L44.202 191.145C44.9343 194.731 48.3044 197.147 51.9349 196.69L173.07 181.436C177.09 180.929 179.842 177.127 179.066 173.15L149.751 22.9133C149.047 19.3022 145.667 16.8528 142.016 17.3076Z" fill="url(#paint0_linear_5170_2976)"/>
<path d="M142.016 17.3076L19.5074 32.565C15.4588 33.0692 12.6976 36.915 13.5141 40.9123L44.202 191.145C44.9343 194.731 48.3044 197.147 51.9349 196.69L173.07 181.436C177.09 180.929 179.842 177.127 179.066 173.15L149.751 22.9133C149.047 19.3022 145.667 16.8528 142.016 17.3076Z" stroke="white"/>
</g>
</g>
</g>
<path id="Vector 5103" d="M67.5 194L41.5 178L57.4875 174.909C61.4424 174.145 65.225 176.868 65.7552 180.861L67.5 194Z" fill="#C7D2F6" stroke="white"/>
<path id="Vector 5107" d="M38 60.5L122 49.5" stroke="url(#paint1_linear_5170_2976)" stroke-opacity="0.8" stroke-width="8" stroke-linecap="round"/>
<path id="Vector 5108" d="M44 85.5L139.5 72.5" stroke="url(#paint2_linear_5170_2976)" stroke-opacity="0.8" stroke-width="8" stroke-linecap="round"/>
<path id="Vector 5110" d="M50 107.5L126 97.5" stroke="url(#paint3_linear_5170_2976)" stroke-opacity="0.8" stroke-width="8" stroke-linecap="round"/>
</g>
<g id="Union" filter="url(#filter1_d_5170_2976)">
<path fill-rule="evenodd" clip-rule="evenodd" d="M176.429 111.5C199.861 111.5 218.857 96.7254 218.857 78.5C218.857 60.2746 199.861 45.5 176.429 45.5C152.996 45.5 134 60.2746 134 78.5C134 87.0448 138.176 94.8311 145.026 100.692L140.286 111.5L152.059 105.517C158.955 109.287 167.359 111.5 176.429 111.5Z" fill="#4C95FF"/>
</g>
<path id="Vector" d="M172.428 83.6172C172.454 84.4323 172.834 85.2064 173.487 85.7748C174.141 86.3432 175.016 86.6612 175.928 86.6612C176.839 86.6612 177.715 86.3432 178.368 85.7748C179.022 85.2064 179.402 84.4323 179.428 83.6172V63.544C179.402 62.7289 179.022 61.9548 178.368 61.3864C177.715 60.818 176.839 60.5 175.928 60.5C175.016 60.5 174.141 60.818 173.487 61.3864C172.834 61.9548 172.454 62.7289 172.428 63.544V83.6172ZM172.428 92.3687C172.428 94.0909 174.003 95.5 175.928 95.5C177.853 95.5 179.428 94.0909 179.428 92.3687C179.428 90.6464 177.853 89.2373 175.928 89.2373C175.001 89.2406 174.113 89.5716 173.457 90.1581C172.801 90.7446 172.431 91.5392 172.428 92.3687Z" fill="white"/>
</g>
<defs>
<filter id="filter0_d_5170_2976" x="8.87061" y="12.7534" width="174.827" height="188.492" filterUnits="userSpaceOnUse" color-interpolation-filters="sRGB">
<feFlood flood-opacity="0" result="BackgroundImageFix"/>
<feColorMatrix in="SourceAlpha" type="matrix" values="0 0 0 0 0 0 0 0 0 0 0 0 0 0 0 0 0 0 127 0" result="hardAlpha"/>
<feOffset/>
<feGaussianBlur stdDeviation="2"/>
<feComposite in2="hardAlpha" operator="out"/>
<feColorMatrix type="matrix" values="0 0 0 0 0 0 0 0 0 0 0 0 0 0 0 0 0 0 0.05 0"/>
<feBlend mode="normal" in2="BackgroundImageFix" result="effect1_dropShadow_5170_2976"/>
<feBlend mode="normal" in="SourceGraphic" in2="effect1_dropShadow_5170_2976" result="shape"/>
</filter>
<filter id="filter1_d_5170_2976" x="130" y="43.5" width="92.8569" height="74" filterUnits="userSpaceOnUse" color-interpolation-filters="sRGB">
<feFlood flood-opacity="0" result="BackgroundImageFix"/>
<feColorMatrix in="SourceAlpha" type="matrix" values="0 0 0 0 0 0 0 0 0 0 0 0 0 0 0 0 0 0 127 0" result="hardAlpha"/>
<feOffset dy="2"/>
<feGaussianBlur stdDeviation="2"/>
<feComposite in2="hardAlpha" operator="out"/>
<feColorMatrix type="matrix" values="0 0 0 0 0 0 0 0 0 0 0 0 0 0 0 0 0 0 0.15 0"/>
<feBlend mode="normal" in2="BackgroundImageFix" result="effect1_dropShadow_5170_2976"/>
<feBlend mode="normal" in="SourceGraphic" in2="effect1_dropShadow_5170_2976" result="shape"/>
</filter>
<linearGradient id="paint0_linear_5170_2976" x1="96.25" y1="16.5" x2="96.25" y2="197.5" gradientUnits="userSpaceOnUse">
<stop stop-color="#DDEBF6"/>
<stop offset="1" stop-color="#E2E9FF"/>
</linearGradient>
<linearGradient id="paint1_linear_5170_2976" x1="146" y1="48" x2="38.5" y2="57.5" gradientUnits="userSpaceOnUse">
<stop stop-color="white"/>
<stop offset="1" stop-color="white" stop-opacity="0.8"/>
</linearGradient>
<linearGradient id="paint2_linear_5170_2976" x1="150" y1="72.5" x2="44" y2="85.5" gradientUnits="userSpaceOnUse">
<stop stop-color="white"/>
<stop offset="1" stop-color="white" stop-opacity="0.8"/>
</linearGradient>
<linearGradient id="paint3_linear_5170_2976" x1="140" y1="90" x2="46" y2="102.5" gradientUnits="userSpaceOnUse">
<stop stop-color="white" stop-opacity="0.6"/>
<stop offset="1" stop-color="white"/>
</linearGradient>
</defs>
</svg>
