<svg xmlns="http://www.w3.org/2000/svg">
  <symbol id="home" viewBox="0 0 14 16">
    <path d="M7 0L0 5.33333V16H4.375V9.77778H9.625V16H14V5.33333L7 0Z" />
  </symbol>
  <symbol id="board" viewBox="0 0 18 14">
    <path d="M0 9H4V5H0V9ZM0 14H4V10H0V14ZM0 4H4V0H0V4ZM5 9H18V5H5V9ZM5 14H18V10H5V14ZM5 0V4H18V0H5Z" />
  </symbol>
  <symbol id="exam-review" viewBox="0 0 14 17">
    <path d="M7 7.90024C5.16444 6.08029 2.70667 4.9635 0 4.9635V14.0633C2.70667 14.0633 5.16444 15.18 7 17C8.83556 15.1883 11.2933 14.0633 14 14.0633V4.9635C11.2933 4.9635 8.83556 6.08029 7 7.90024ZM7 4.9635C8.29111 4.9635 9.33333 3.85499 9.33333 2.48175C9.33333 1.10852 8.29111 0 7 0C5.70889 0 4.66667 1.10852 4.66667 2.48175C4.66667 3.85499 5.70889 4.9635 7 4.9635Z" />
  </symbol>
  <symbol id="alert" viewBox="0 0 19 19">
    <path d="M9.50008 17.4166C10.3709 17.4166 11.0834 16.7041 11.0834 15.8333H7.91675C7.91675 16.7041 8.62133 17.4166 9.50008 17.4166ZM14.2501 12.6666V8.70829C14.2501 6.27788 12.9517 4.24329 10.6876 3.70496V3.16663C10.6876 2.50954 10.1572 1.97913 9.50008 1.97913C8.843 1.97913 8.31258 2.50954 8.31258 3.16663V3.70496C6.0405 4.24329 4.75008 6.26996 4.75008 8.70829V12.6666L3.16675 14.25V15.0416H15.8334V14.25L14.2501 12.6666Z" />
  </symbol>
  <symbol id="my-page" viewBox="0 0 17 17">
    <path d="M8.17442 0C3.66214 0 0 3.66214 0 8.17442C0 12.6867 3.66214 16.3488 8.17442 16.3488C12.6867 16.3488 16.3488 12.6867 16.3488 8.17442C16.3488 3.66214 12.6867 0 8.17442 0ZM8.17442 14.714C4.5695 14.714 1.63488 11.7793 1.63488 8.17442C1.63488 8.16624 1.63488 8.15807 1.63488 8.14989C3.52317 7.97006 4.43871 6.85016 5.18258 5.36242C5.32155 5.07631 5.59948 4.90465 5.91828 4.90465H10.4387C10.7494 4.90465 11.0273 5.07631 11.1663 5.35424C11.902 6.82564 12.793 7.96188 14.714 8.14172C14.714 8.14989 14.714 8.15807 14.714 8.16624C14.714 11.7793 11.7793 14.714 8.17442 14.714Z" />
    <path d="M5.722 10.0138C6.28632 10.0138 6.7438 9.55634 6.7438 8.99202C6.7438 8.42769 6.28632 7.97021 5.722 7.97021C5.15767 7.97021 4.7002 8.42769 4.7002 8.99202C4.7002 9.55634 5.15767 10.0138 5.722 10.0138Z" />
    <path d="M10.6268 10.0138C11.1911 10.0138 11.6486 9.55634 11.6486 8.99202C11.6486 8.42769 11.1911 7.97021 10.6268 7.97021C10.0625 7.97021 9.60498 8.42769 9.60498 8.99202C9.60498 9.55634 10.0625 10.0138 10.6268 10.0138Z" />
  </symbol>
  <symbol id="arrow-back" viewBox="0 0 9 14">
    <path id="Vector" d="M9 12.355L3.43725 7L9 1.645L7.28745 0L0 7L7.28745 14L9 12.355Z" fill="black"/>
  </symbol>
  <symbol id="visibility" viewBox="0 0 14 10">
    <path id="Vector" d="M7 1.33333C9.41182 1.33333 11.5627 2.75333 12.6127 5C11.5627 7.24667 9.41818 8.66667 7 8.66667C4.58182 8.66667 2.43727 7.24667 1.38727 5C2.43727 2.75333 4.58818 1.33333 7 1.33333ZM7 0C3.81818 0 1.10091 2.07333 0 5C1.10091 7.92667 3.81818 10 7 10C10.1818 10 12.8991 7.92667 14 5C12.8991 2.07333 10.1818 0 7 0ZM7 3.33333C7.87818 3.33333 8.59091 4.08 8.59091 5C8.59091 5.92 7.87818 6.66667 7 6.66667C6.12182 6.66667 5.40909 5.92 5.40909 5C5.40909 4.08 6.12182 3.33333 7 3.33333ZM7 2C5.42182 2 4.13636 3.34667 4.13636 5C4.13636 6.65333 5.42182 8 7 8C8.57818 8 9.86364 6.65333 9.86364 5C9.86364 3.34667 8.57818 2 7 2Z" fill="black"/>
  </symbol>
</svg>

