<svg xmlns="http://www.w3.org/2000/svg" xmlns:xlink="http://www.w3.org/1999/xlink">
  <symbol id='logo' viewBox="0 0 109 20" fill="none">
    <path fill-rule="evenodd" clip-rule="evenodd" d="M92.5359 17.2872C90.8737 18.6317 88.7573 19.437 86.4529 19.437C81.1071 19.437 76.7734 15.1034 76.7734 9.75757C76.7734 4.41176 81.1071 0.078125 86.4529 0.078125C88.7573 0.078125 90.8737 0.883427 92.5359 2.22797C94.1981 0.883427 96.3144 0.078125 98.6189 0.078125C103.965 0.078125 108.298 4.41176 108.298 9.75757C108.298 15.1034 103.965 19.437 98.6189 19.437C96.3144 19.437 94.1981 18.6317 92.5359 17.2872Z" fill="url(#paint0_radial_946_7230)"/>
    <path d="M86.4104 16.5578C82.3302 16.5578 79.4531 13.6807 79.4531 9.75743C79.4531 5.83412 82.3302 2.95703 86.4104 2.95703C90.4907 2.95703 93.3155 5.83412 93.3155 9.75743V10.856H82.7225C83.141 12.7391 84.5796 13.733 86.4104 13.733C87.7967 13.733 88.8167 13.3407 89.4706 12.5037H92.7924C91.8246 14.9623 89.4706 16.5578 86.4104 16.5578ZM82.801 8.37119H90.0199C89.5229 6.64494 88.1105 5.78181 86.4104 5.78181C84.658 5.78181 83.298 6.67109 82.801 8.37119Z" fill="#00368E"/>
    <path d="M73.3778 16.5578C70.0822 16.5578 68.016 14.8054 67.9375 12.3991H71.0761C71.1023 13.2622 71.8608 13.8377 73.3778 13.8377C74.9733 13.8377 75.6533 13.1838 75.6533 12.3991C75.6533 11.4052 74.5025 11.2744 73.1163 11.0914C71.1285 10.8298 68.199 10.4898 68.199 7.32498C68.199 4.68329 70.213 2.95703 73.3255 2.95703C76.4903 2.95703 78.4258 4.7356 78.5043 7.01111H75.4179C75.3395 6.22645 74.6071 5.67719 73.3778 5.67719C72.0177 5.67719 71.3377 6.33107 71.3377 7.08958C71.3377 8.08348 72.5147 8.24042 73.9009 8.4235C75.6272 8.6589 78.792 8.99892 78.792 12.216C78.792 14.8316 76.6734 16.5578 73.3778 16.5578Z" fill="#00368E"/>
    <path d="M60.3128 16.5578C56.2326 16.5578 53.3555 13.6807 53.3555 9.75743C53.3555 5.83412 56.2326 2.95703 60.3128 2.95703C64.393 2.95703 67.2701 5.83412 67.2701 9.75743C67.2701 13.6807 64.393 16.5578 60.3128 16.5578ZM60.3128 13.6546C62.5883 13.6546 64.1053 12.0329 64.1053 9.75743C64.1053 7.48191 62.5883 5.86028 60.3128 5.86028C58.0373 5.86028 56.4941 7.48191 56.4941 9.75743C56.4941 12.0329 58.0373 13.6546 60.3128 13.6546Z" fill="#00368E"/>
    <path d="M41.749 16.2178V8.71121C41.749 4.81406 44.0507 2.95703 47.4247 2.95703C50.7988 2.95703 53.0743 4.81406 53.0743 8.76352V8.84199H49.988V8.71121C49.988 6.61878 48.9417 5.86028 47.4247 5.86028C45.9077 5.86028 44.8615 6.61878 44.8615 8.71121V16.2178H41.749Z" fill="#00368E"/>
    <path d="M33.6273 16.5578C29.547 16.5578 26.6699 13.6807 26.6699 9.75743C26.6699 5.83412 29.547 2.95703 33.6273 2.95703C37.7075 2.95703 40.5846 5.83412 40.5846 9.75743C40.5846 13.6807 37.7075 16.5578 33.6273 16.5578ZM33.6273 13.6546C35.9028 13.6546 37.4198 12.0329 37.4198 9.75743C37.4198 7.48191 35.9028 5.86028 33.6273 5.86028C31.3517 5.86028 29.8086 7.48191 29.8086 9.75743C29.8086 12.0329 31.3517 13.6546 33.6273 13.6546Z" fill="#00368E"/>
    <path d="M12.7393 16.2178V9.49588C12.7393 5.18024 15.3025 2.95703 19.1212 2.95703C22.9399 2.95703 25.5031 5.15408 25.5031 9.49588V16.2178H22.3906V9.49588C22.3906 7.03727 21.0828 5.86028 19.1212 5.86028C17.1595 5.86028 15.8517 7.03727 15.8517 9.49588V16.2178H12.7393Z" fill="#00368E"/>
    <path d="M6.14051 16.5578C2.84494 16.5578 0.778661 14.8054 0.700195 12.3991H3.83884C3.865 13.2622 4.6235 13.8377 6.14051 13.8377C7.73599 13.8377 8.41603 13.1838 8.41603 12.3991C8.41603 11.4052 7.26519 11.2744 5.87896 11.0914C3.89115 10.8298 0.961749 10.4898 0.961749 7.32498C0.961749 4.68329 2.97571 2.95703 6.0882 2.95703C9.253 2.95703 11.1885 4.7356 11.267 7.01111H8.18063C8.10217 6.22645 7.36982 5.67719 6.14051 5.67719C4.78043 5.67719 4.10039 6.33107 4.10039 7.08958C4.10039 8.08348 5.27739 8.24042 6.66362 8.4235C8.38987 8.6589 11.5547 8.99892 11.5547 12.216C11.5547 14.8316 9.43609 16.5578 6.14051 16.5578Z" fill="#00368E"/>
  </symbol>
  <symbol id="hamburger" viewBox="0 0 14 9">
    <path d="M0 9H14V7.5H0V9ZM0 5.25H14V3.75H0V5.25ZM0 0V1.5H14V0H0Z" fill="#00368E"/>
  </symbol>
  <symbol id="sponser"  viewBox="0 0 15 13">
    <path d="M5.01323 5.2H0L4.08069 8.0665L2.53307 13L6.61376 9.9515L10.7011 13L9.14682 8.0665L13.2275 5.2H8.21429L6.61376 0L5.01323 5.2ZM13.4656 13L12.2354 9.0935L15 7.15H12.7249L10.6878 8.58L11.6534 11.648L13.4656 13ZM10.582 3.9L9.37831 0L8.69048 2.2425L9.19973 3.9H10.582Z" fill="#00368E"/>
  </symbol>
  <symbol id="search" viewBox="0 0 14 14" fill="none" xmlns="http://www.w3.org/2000/svg">
    <path d="M9.93724 9.90543L13 13M9.85198 2.5149C11.8954 4.55321 11.9165 7.8793 9.89912 9.94392C7.88176 12.0085 4.58986 12.0299 2.54646 9.99154C0.503064 7.95323 0.48196 4.62714 2.49932 2.56252C4.51669 0.497903 7.80859 0.47658 9.85198 2.5149Z" stroke='#898989' stroke-width="1.0" stroke-linecap="round"/>
  </symbol>
  <symbol id='search-thick' width="19" height="20" viewBox="0 0 19 20" fill="none" xmlns="http://www.w3.org/2000/svg">
    <path d="M13.1663 13.7919L17.25 17.918M13.0526 3.93783C15.7772 6.65558 15.8053 11.0904 13.1155 13.8432C10.4257 16.596 6.03648 16.6244 3.31195 13.9067C0.587419 11.1889 0.55928 6.75416 3.2491 4.00133C5.93892 1.24851 10.3281 1.22008 13.0526 3.93783Z" stroke-width="2.5" stroke-linecap="round"/>
  </symbol>
  <symbol id="circle"  viewBox="0 0 7 7" >
    <path d="M6.3 0H0.7C0.315 0 0 0.315 0 0.7V7L1.4 5.6H6.3C6.685 5.6 7 5.285 7 4.9V0.7C7 0.315 6.685 0 6.3 0ZM6.3 4.9H1.4L0.7 5.6V0.7H6.3V4.9Z" fill="#5F86BF"/>
  </symbol>
  <symbol id="notification-red" viewBox="0 0 10 10">
    <g clip-path="url(#clip0_153_403)">
      <path d="M5.00011 9.16675C5.45845 9.16675 5.83345 8.79175 5.83345 8.33341H4.16678C4.16678 8.79175 4.54178 9.16675 5.00011 9.16675ZM7.50011 6.66675V4.58341C7.50011 3.30425 6.82095 2.23341 5.62511 1.95008V1.66675C5.62511 1.32091 5.34595 1.04175 5.00011 1.04175C4.65428 1.04175 4.37511 1.32091 4.37511 1.66675V1.95008C3.18345 2.23341 2.50011 3.30008 2.50011 4.58341V6.66675L1.66678 7.50008V7.91675H8.33345V7.50008L7.50011 6.66675ZM6.66678 7.08341H3.33345V4.58341C3.33345 3.55008 3.96261 2.70841 5.00011 2.70841C6.03761 2.70841 6.66678 3.55008 6.66678 4.58341V7.08341ZM3.15845 1.70008L2.56261 1.10425C1.56261 1.86675 0.904281 3.04175 0.845947 4.37508H1.67928C1.74178 3.27091 2.30845 2.30425 3.15845 1.70008ZM8.32095 4.37508H9.15428C9.09178 3.04175 8.43345 1.86675 7.43761 1.10425L6.84595 1.70008C7.68761 2.30425 8.25845 3.27091 8.32095 4.37508Z" fill="#FF4B6C"/>
    </g>
    <defs>
      <clipPath id="clip0_153_403">
        <rect width="10" height="10" fill="white"/>
      </clipPath>
    </defs>
  </symbol> 
  <symbol id="blank-heart" viewBox="0 0 8 7" >
    <path d="M5.8 0C5.104 0 4.436 0.308992 4 0.797275C3.564 0.308992 2.896 0 2.2 0C0.968 0 0 0.923161 0 2.09809C0 3.54005 1.36 4.71499 3.42 6.50027L4 7L4.58 6.49646C6.64 4.71499 8 3.54005 8 2.09809C8 0.923161 7.032 0 5.8 0ZM4.04 5.93188L4 5.97003L3.96 5.93188C2.056 4.28774 0.8 3.20055 0.8 2.09809C0.8 1.33515 1.4 0.762943 2.2 0.762943C2.816 0.762943 3.416 1.1406 3.628 1.66322H4.376C4.584 1.1406 5.184 0.762943 5.8 0.762943C6.6 0.762943 7.2 1.33515 7.2 2.09809C7.2 3.20055 5.944 4.28774 4.04 5.93188Z" fill="#5F86BF"/>
  </symbol>
  <symbol id="filled-heart"  viewBox="0 0 8 7" >
    <path d="M4 7L3.42 6.49646C1.36 4.71499 0 3.54005 0 2.09809C0 0.923161 0.968 0 2.2 0C2.896 0 3.564 0.308992 4 0.797275C4.436 0.308992 5.104 0 5.8 0C7.032 0 8 0.923161 8 2.09809C8 3.54005 6.64 4.71499 4.58 6.50027L4 7Z" fill="#5F86BF"/>
  </symbol>
  <symbol id="refresh" viewBox="0 0 30 30" >
    <g filter="url(#filter0_d_545_3)">
    <circle cx="15" cy="15" r="11" fill="white"/>
    </g>
    <path d="M15 10.6V8L11.875 11.25L15 14.5V11.9C17.0687 11.9 18.75 13.6485 18.75 15.8C18.75 17.9515 17.0687 19.7 15 19.7C12.9313 19.7 11.25 17.9515 11.25 15.8H10C10 18.673 12.2375 21 15 21C17.7625 21 20 18.673 20 15.8C20 12.927 17.7625 10.6 15 10.6Z" fill="#00368E"/>
    <defs>
    <radialGradient id="paint0_radial_946_7230" cx="0" cy="0" r="1" gradientUnits="userSpaceOnUse" gradientTransform="translate(101.312 11.4766) rotate(93.7817) scale(23.1738 37.9186)">
    <stop offset="0.29142" stop-color="#C5D2FF"/>
    <stop offset="1" stop-color="#82B5FF"/>
    </radialGradient>
    </defs>
  </symbol>
    <symbol id="home" width="24" height="24" viewBox="0 0 24 24" fill="none" xmlns="http://www.w3.org/2000/svg">
    <path d="M11.331 6.29207C11.7113 5.94979 12.2887 5.94979 12.669 6.29207L16.669 9.89207C16.8797 10.0817 17 10.3519 17 10.6354V17C17 17.5523 16.5523 18 16 18C15.4477 18 15 17.5523 15 17V13C15 12.4477 14.5523 12 14 12H10C9.44772 12 9 12.4477 9 13V17C9 17.5523 8.55228 18 8 18C7.44772 18 7 17.5523 7 17V10.6354C7 10.3519 7.12032 10.0817 7.33104 9.89207L11.331 6.29207ZM12.669 3.60207C12.2887 3.25979 11.7113 3.25979 11.331 3.60207L3.6115 10.5497C3.04475 11.0597 3.40557 12 4.16804 12C4.62752 12 5 12.3725 5 12.832V19C5 19.5523 5.44772 20 6 20H10C10.5523 20 11 19.5523 11 19V15C11 14.4477 11.4477 14 12 14C12.5523 14 13 14.4477 13 15V19C13 19.5523 13.4477 20 14 20H18C18.5523 20 19 19.5523 19 19V12.832C19 12.3725 19.3725 12 19.832 12C20.5944 12 20.9552 11.0597 20.3885 10.5497L12.669 3.60207Z" fill="#BFD7EC"/>
  </symbol>
  <symbol id="board" width="24" height="24" viewBox="0 0 24 24" fill="none" xmlns="http://www.w3.org/2000/svg">
    <path d="M6 22C5.45 22 4.97933 21.8043 4.588 21.413C4.19667 21.0217 4.00067 20.5507 4 20V4C4 3.45 4.196 2.97933 4.588 2.588C4.98 2.19667 5.45067 2.00067 6 2H14L20 8V20C20 20.55 19.8043 21.021 19.413 21.413C19.0217 21.805 18.5507 22.0007 18 22H6ZM13 9V4H6V20H18V9H13Z" fill="#BFD7EC"/>
    <path fill-rule="evenodd" clip-rule="evenodd" d="M8.7619 11.7C8.7619 11.5143 8.82211 11.3363 8.92927 11.205C9.03644 11.0738 9.18178 11 9.33333 11H14.6667C14.8182 11 14.9636 11.0738 15.0707 11.205C15.1779 11.3363 15.2381 11.5143 15.2381 11.7C15.2381 11.8857 15.1779 12.0637 15.0707 12.195C14.9636 12.3263 14.8182 12.4 14.6667 12.4H9.33333C9.18178 12.4 9.03644 12.3263 8.92927 12.195C8.82211 12.0637 8.7619 11.8857 8.7619 11.7ZM8 14.5C8 14.3143 8.0602 14.1363 8.16737 14.005C8.27453 13.8738 8.41988 13.8 8.57143 13.8H15.4286C15.5801 13.8 15.7255 13.8738 15.8326 14.005C15.9398 14.1363 16 14.3143 16 14.5C16 14.6857 15.9398 14.8637 15.8326 14.995C15.7255 15.1263 15.5801 15.2 15.4286 15.2H8.57143C8.41988 15.2 8.27453 15.1263 8.16737 14.995C8.0602 14.8637 8 14.6857 8 14.5ZM8.7619 17.3C8.7619 17.1143 8.82211 16.9363 8.92927 16.805C9.03644 16.6738 9.18178 16.6 9.33333 16.6H14.6667C14.8182 16.6 14.9636 16.6738 15.0707 16.805C15.1779 16.9363 15.2381 17.1143 15.2381 17.3C15.2381 17.4857 15.1779 17.6637 15.0707 17.795C14.9636 17.9263 14.8182 18 14.6667 18H9.33333C9.18178 18 9.03644 17.9263 8.92927 17.795C8.82211 17.6637 8.7619 17.4857 8.7619 17.3Z" fill="#BFD7EC"/>
  </symbol>
  <symbol id="test" width="24" height="24" viewBox="0 0 24 24" fill="none" xmlns="http://www.w3.org/2000/svg">
    <path d="M12 19.0007C10.6318 18.2108 9.07983 17.7949 7.5 17.7949C5.92017 17.7949 4.36817 18.2108 3 19.0007V6.00069C4.36817 5.21078 5.92017 4.79492 7.5 4.79492C9.07983 4.79492 10.6318 5.21078 12 6.00069M12 19.0007C13.3682 18.2108 14.9202 17.7949 16.5 17.7949C18.0798 17.7949 19.6318 18.2108 21 19.0007V6.00069C19.6318 5.21078 18.0798 4.79492 16.5 4.79492C14.9202 4.79492 13.3682 5.21078 12 6.00069M12 19.0007V6.00069" stroke="#BFD7EC" stroke-width="2" stroke-linecap="round" stroke-linejoin="round"/>
  </symbol>
  <symbol id="bell" width="24" height="24" viewBox="0 0 24 24" fill="none" xmlns="http://www.w3.org/2000/svg">
    <path d="M9 17V18C9 18.7956 9.31607 19.5587 9.87868 20.1213C10.4413 20.6839 11.2044 21 12 21C12.7956 21 13.5587 20.6839 14.1213 20.1213C14.6839 19.5587 15 18.7956 15 18V17M10 5C10 4.46957 10.2107 3.96086 10.5858 3.58579C10.9609 3.21071 11.4696 3 12 3C12.5304 3 13.0391 3.21071 13.4142 3.58579C13.7893 3.96086 14 4.46957 14 5C15.1484 5.54303 16.1274 6.38833 16.8321 7.4453C17.5367 8.50227 17.9404 9.73107 18 11V14C18.0753 14.6217 18.2954 15.2171 18.6428 15.7381C18.9902 16.2592 19.4551 16.6914 20 17H4C4.54494 16.6914 5.00981 16.2592 5.35719 15.7381C5.70457 15.2171 5.92474 14.6217 6 14V11C6.05956 9.73107 6.4633 8.50227 7.16795 7.4453C7.8726 6.38833 8.85159 5.54303 10 5Z" stroke="#BFD7EC" stroke-width="2" stroke-linecap="round" stroke-linejoin="round"/>
  </symbol>
  <symbol id="mypage" width="24" height="24" viewBox="0 0 24 24" fill="none" xmlns="http://www.w3.org/2000/svg">
    <path d="M12 4C13.0609 4 14.0783 4.42143 14.8284 5.17157C15.5786 5.92172 16 6.93913 16 8C16 9.06087 15.5786 10.0783 14.8284 10.8284C14.0783 11.5786 13.0609 12 12 12C10.9391 12 9.92172 11.5786 9.17157 10.8284C8.42143 10.0783 8 9.06087 8 8C8 6.93913 8.42143 5.92172 9.17157 5.17157C9.92172 4.42143 10.9391 4 12 4ZM12 6C11.4696 6 10.9609 6.21071 10.5858 6.58579C10.2107 6.96086 10 7.46957 10 8C10 8.53043 10.2107 9.03914 10.5858 9.41421C10.9609 9.78929 11.4696 10 12 10C12.5304 10 13.0391 9.78929 13.4142 9.41421C13.7893 9.03914 14 8.53043 14 8C14 7.46957 13.7893 6.96086 13.4142 6.58579C13.0391 6.21071 12.5304 6 12 6ZM12 13C14.67 13 20 14.33 20 17V20H4V17C4 14.33 9.33 13 12 13ZM12 14.9C9.03 14.9 5.9 16.36 5.9 17V18.1H18.1V17C18.1 16.36 14.97 14.9 12 14.9Z" fill="#BFD7EC"/>
  </symbol>
  <symbol id="home-fill" width="24" height="24" viewBox="0 0 24 24" fill="none" xmlns="http://www.w3.org/2000/svg">
    <path d="M9 20C9.55228 20 10 19.5523 10 19V15C10 14.4477 10.4477 14 11 14H13C13.5523 14 14 14.4477 14 15V19C14 19.5523 14.4477 20 15 20H18C18.5523 20 19 19.5523 19 19V12.832C19 12.3725 19.3725 12 19.832 12C20.5944 12 20.9552 11.0597 20.3885 10.5497L12.669 3.60207C12.2887 3.25979 11.7113 3.25979 11.331 3.60207L3.6115 10.5497C3.04475 11.0597 3.40557 12 4.16804 12C4.62752 12 5 12.3725 5 12.832V19C5 19.5523 5.44772 20 6 20H9Z" fill="#00368E"/>
  </symbol>
  <symbol id="board-fill" width="24" height="24" viewBox="0 0 24 24" fill="none" xmlns="http://www.w3.org/2000/svg">
    <path fill-rule="evenodd" clip-rule="evenodd" d="M4.588 21.413C4.97933 21.8043 5.45 22 6 22H18C18.5507 22.0007 19.0217 21.805 19.413 21.413C19.8043 21.021 20 20.55 20 20V8L14 2H6C5.45067 2.00067 4.98 2.19667 4.588 2.588C4.196 2.97933 4 3.45 4 4V20C4.00067 20.5507 4.19667 21.0217 4.588 21.413ZM18 9H13V4L18 9ZM8.92927 11.205C8.82211 11.3363 8.7619 11.5143 8.7619 11.7C8.7619 11.8857 8.82211 12.0637 8.92927 12.195C9.03644 12.3263 9.18178 12.4 9.33333 12.4H14.6667C14.8182 12.4 14.9636 12.3263 15.0707 12.195C15.1779 12.0637 15.2381 11.8857 15.2381 11.7C15.2381 11.5143 15.1779 11.3363 15.0707 11.205C14.9636 11.0738 14.8182 11 14.6667 11H9.33333C9.18178 11 9.03644 11.0738 8.92927 11.205ZM8.16737 14.005C8.0602 14.1363 8 14.3143 8 14.5C8 14.6857 8.0602 14.8637 8.16737 14.995C8.27453 15.1263 8.41988 15.2 8.57143 15.2H15.4286C15.5801 15.2 15.7255 15.1263 15.8326 14.995C15.9398 14.8637 16 14.6857 16 14.5C16 14.3143 15.9398 14.1363 15.8326 14.005C15.7255 13.8738 15.5801 13.8 15.4286 13.8H8.57143C8.41988 13.8 8.27453 13.8738 8.16737 14.005ZM8.92927 16.805C8.82211 16.9363 8.7619 17.1143 8.7619 17.3C8.7619 17.4857 8.82211 17.6637 8.92927 17.795C9.03644 17.9263 9.18178 18 9.33333 18H14.6667C14.8182 18 14.9636 17.9263 15.0707 17.795C15.1779 17.6637 15.2381 17.4857 15.2381 17.3C15.2381 17.1143 15.1779 16.9363 15.0707 16.805C14.9636 16.6738 14.8182 16.6 14.6667 16.6H9.33333C9.18178 16.6 9.03644 16.6738 8.92927 16.805Z" fill="#00368E"/>
  </symbol>
  <symbol id="test-fill" width="24" height="24" viewBox="0 0 24 24" fill="none" xmlns="http://www.w3.org/2000/svg">
    <path d="M12.088 4.82076C13.562 4.09613 15.1917 3.74572 16.8333 3.80048C18.4748 3.85525 20.0776 4.3135 21.5 5.13476C21.6347 5.21252 21.7494 5.32062 21.8349 5.45046C21.9205 5.58031 21.9746 5.72833 21.993 5.88276L22 6.00076V19.0008C22 19.1763 21.9538 19.3487 21.866 19.5007C21.7782 19.6528 21.652 19.779 21.5 19.8668C21.348 19.9545 21.1755 20.0007 21 20.0007C20.8245 20.0007 20.652 19.9545 20.5 19.8668C19.2838 19.1646 17.9043 18.795 16.5 18.795C15.0957 18.795 13.7162 19.1646 12.5 19.8668C12.348 19.9545 12.1755 20.0007 12 20.0007C11.8245 20.0007 11.652 19.9545 11.5 19.8668C10.3287 19.1904 9.00494 18.822 7.65257 18.7961C6.30021 18.7702 4.96337 19.0877 3.767 19.7188L3.44 19.8988L3.337 19.9428L3.288 19.9588L3.178 19.9848L3.117 19.9948L3 20.0008H2.958L2.848 19.9888L2.771 19.9748L2.663 19.9428L2.537 19.8868L2.442 19.8308L2.353 19.7638L2.293 19.7078L2.22 19.6258L2.156 19.5368L2.134 19.5008L2.102 19.4408L2.058 19.3378L2.042 19.2888L2.016 19.1788L2.006 19.1178L2.002 19.0688L2 19.0008V6.00076C2 5.82523 2.04621 5.65279 2.13398 5.50077C2.22175 5.34876 2.34798 5.22252 2.5 5.13476C3.9224 4.3135 5.52518 3.85525 7.16672 3.80048C8.80827 3.74572 10.438 4.09613 11.912 4.82076L12 4.86476L12.088 4.82076Z" fill="#00368E"/>
  </symbol>
  <symbol id="bell-fill" width="24" height="24" viewBox="0 0 24 24" fill="none" xmlns="http://www.w3.org/2000/svg">
    <path d="M14.2345 19C15.0994 19 15.5563 20.024 14.9794 20.668C14.6043 21.0871 14.1451 21.4223 13.6317 21.6518C13.1183 21.8813 12.5623 22 12 22C11.4377 22 10.8817 21.8813 10.3683 21.6518C9.85493 21.4223 9.39571 21.0871 9.02064 20.668C8.46876 20.052 8.86267 19.089 9.65451 19.007L9.76448 19.001L14.2345 19ZM12 2C13.3577 2 14.5055 2.903 14.8744 4.141L14.9204 4.312L14.9284 4.355C16.0307 4.97671 16.97 5.85086 17.6694 6.9058C18.3687 7.96073 18.8081 9.16641 18.9516 10.424L18.9796 10.711L18.9986 11V13.931L19.0195 14.067C19.1564 14.8038 19.5641 15.4627 20.1623 15.914L20.3293 16.031L20.4912 16.13C21.3511 16.617 21.0511 17.896 20.1143 17.994L19.9983 18H4.00169C2.97391 18 2.61498 16.636 3.50879 16.13C3.88974 15.9144 4.21889 15.618 4.47313 15.2616C4.72737 14.9052 4.90054 14.4974 4.98049 14.067L5.00148 13.924L5.00248 10.954C5.06344 9.64788 5.44355 8.37661 6.10953 7.25147C6.77552 6.12632 7.70708 5.18161 8.82268 4.5L9.07063 4.354L9.08063 4.311C9.22166 3.71283 9.54296 3.17241 10.0011 2.76285C10.4592 2.35328 11.032 2.09432 11.6421 2.021L11.8241 2.004L12 2Z" fill="#00368E"/>
  </symbol>
  <symbol id="mypage-fill" width="24" height="24" viewBox="0 0 24 24" fill="none" xmlns="http://www.w3.org/2000/svg">
    <path d="M12 12C10.9 12 9.95833 11.6083 9.175 10.825C8.39167 10.0417 8 9.1 8 8C8 6.9 8.39167 5.95833 9.175 5.175C9.95833 4.39167 10.9 4 12 4C13.1 4 14.0417 4.39167 14.825 5.175C15.6083 5.95833 16 6.9 16 8C16 9.1 15.6083 10.0417 14.825 10.825C14.0417 11.6083 13.1 12 12 12ZM4 20V17.2C4 16.6333 4.146 16.1127 4.438 15.638C4.73 15.1633 5.11733 14.8007 5.6 14.55C6.63333 14.0333 7.68333 13.646 8.75 13.388C9.81667 13.13 10.9 13.0007 12 13C13.1 12.9993 14.1833 13.1287 15.25 13.388C16.3167 13.6473 17.3667 14.0347 18.4 14.55C18.8833 14.8 19.271 15.1627 19.563 15.638C19.855 16.1133 20.0007 16.634 20 17.2V20H4Z" fill="#00368E"/>
  </symbol>
  <symbol id="check" viewBox="0 0 24 24">
    <path d="M7 12.9718L10.7471 17L18 8" stroke="#00368E" stroke-width="1.5" stroke-linecap="round" stroke-linejoin="round"/>
  </symbol>
  <symbol id="check-thick" viewBox="0 0 24 24">
    <path d="M3 13.2864L9.13167 20L21 5" stroke="#00368E" stroke-width="3" stroke-linecap="round" stroke-linejoin="round"/>
  </symbol>
  <symbol id="x" viewBox="0 0 22 22">
    <path d="M3.63037 18.8906L18.8912 3.62982" stroke-width="2.5" stroke-linecap="round"/>
    <path d="M3.63037 3.63086L18.8912 18.8917" stroke-width="2.5" stroke-linecap="round"/>
  </symbol>
  <symbol id="angle-down" viewBox="0 0 11 7">
    <path fill-rule="evenodd" clip-rule="evenodd" d="M5.10937 7C4.9691 7 4.83528 6.94108 4.74057 6.83762L0.131195 1.80246C-0.055265 1.59877 -0.0413022 1.2825 0.162382 1.09604C0.366066 0.909579 0.68234 0.923542 0.868801 1.12723L5.10937 5.75951L9.34994 1.12723C9.53641 0.923543 9.85268 0.90958 10.0564 1.09604C10.26 1.2825 10.274 1.59878 10.0876 1.80246L5.47817 6.83762C5.38346 6.94108 5.24964 7 5.10937 7Z" fill="#898989"/>
  </symbol>
  <symbol id="angle-right" viewBox="0 0 16 16">
    <path fill-rule="evenodd" clip-rule="evenodd" d="M11 8.10938C11 8.24965 10.9412 8.38347 10.8379 8.47818L5.81049 13.0876C5.60712 13.274 5.29134 13.2601 5.10517 13.0564C4.91899 12.8527 4.93293 12.5364 5.1363 12.3499L9.76143 8.10938L5.1363 3.86881C4.93293 3.68235 4.91899 3.36607 5.10517 3.16239C5.29134 2.9587 5.60712 2.94474 5.81049 3.1312L10.8379 7.74058C10.9412 7.83529 11 7.96911 11 8.10938Z"/>
  </symbol>
  <symbol id="arrow-left" viewBox="0 0 19 17" fill="none" xmlns="http://www.w3.org/2000/svg">
    <path fill-rule="evenodd" clip-rule="evenodd" d="M0.356659 7.50336C-0.118886 7.98925 -0.118886 8.76612 0.356659 9.25201L7.33262 16.3797C7.8155 16.8731 8.60691 16.8816 9.10028 16.3987C9.59366 15.9158 9.60218 15.1244 9.1193 14.631L4.22268 9.62793H17.3436C18.0339 9.62793 18.5936 9.06829 18.5936 8.37793C18.5936 7.68757 18.0339 7.12793 17.3436 7.12793H4.22221L9.1193 2.12432C9.60218 1.63095 9.59366 0.839535 9.10028 0.35666C8.6069 -0.126216 7.81549 -0.117702 7.33262 0.375676L0.356659 7.50336Z" fill="black"/>
  </symbol>
  <symbol id="arrow-up-right" viewBox="0 0 32 32">
    <path fill-rule="evenodd" clip-rule="evenodd" d="M24.2787 7.99146C24.2766 7.30403 23.7199 6.74727 23.0325 6.74521L10.6148 6.70798C9.92444 6.70591 9.36312 7.26388 9.36105 7.95423C9.35898 8.64458 9.91695 9.2059 10.6073 9.20797L20.0205 9.23619L7.11178 22.1449C6.62363 22.6331 6.62363 23.4245 7.11178 23.9127C7.59994 24.4008 8.39139 24.4008 8.87955 23.9127L21.7877 11.0045L21.8159 20.4166C21.818 21.107 22.3793 21.6649 23.0697 21.6629C23.76 21.6608 24.318 21.0995 24.3159 20.4091L24.2787 7.99146Z" fill="#00368E"/>
  </symbol>
  <symbol id="trash" viewBox="0 0 12 16">
    <rect y="5" width="12" height="11" rx="1" fill="#FF849A"/>
    <path fill-rule="evenodd" clip-rule="evenodd" d="M8 0.5C8 0.223858 7.77614 0 7.5 0H5.5C5.22386 0 5 0.223858 5 0.5C5 0.776142 4.77614 1 4.5 1L1 1C0.447715 1 0 1.44772 0 2C0 2.55228 0.447715 3 1 3H11C11.5523 3 12 2.55228 12 2C12 1.44772 11.5523 1 11 1L8.5 1C8.22386 1 8 0.776142 8 0.5Z" fill="#FF849A"/>
  </symbol>
  <symbol id="instagram" viewBox="0 0 16 16">
    <path d="M7.99973 6.00268C6.89407 6.00268 6.00268 6.90264 6.00268 7.99973C6.00268 9.09683 6.90264 9.99679 7.99973 9.99679C9.09683 9.99679 9.99679 9.09683 9.99679 7.99973C9.99679 6.90264 9.09683 6.00268 7.99973 6.00268ZM13.9995 7.99973C13.9995 7.16834 13.9995 6.35409 13.9566 5.5227C13.9138 4.56274 13.6909 3.70564 12.9881 3.01138C12.2853 2.30856 11.4367 2.08571 10.4768 2.04286C9.64537 2 8.83112 2 7.99973 2C7.16834 2 6.35409 2 5.5227 2.04286C4.56274 2.08571 3.70564 2.30856 3.01138 3.01138C2.30856 3.71421 2.08571 4.56274 2.04286 5.5227C2 6.35409 2 7.16834 2 7.99973C2 8.83112 2 9.64537 2.04286 10.4768C2.08571 11.4367 2.30856 12.2938 3.01138 12.9881C3.71421 13.6909 4.56274 13.9138 5.5227 13.9566C6.35409 13.9995 7.16834 13.9995 7.99973 13.9995C8.83112 13.9995 9.64537 13.9995 10.4768 13.9566C11.4367 13.9138 12.2938 13.6909 12.9881 12.9881C13.6909 12.2853 13.9138 11.4367 13.9566 10.4768C14.008 9.65394 13.9995 8.83112 13.9995 7.99973ZM7.99973 11.0767C6.29409 11.0767 4.92273 9.70537 4.92273 7.99973C4.92273 6.29409 6.29409 4.92273 7.99973 4.92273C9.70537 4.92273 11.0767 6.29409 11.0767 7.99973C11.0767 9.70537 9.70537 11.0767 7.99973 11.0767ZM11.2053 5.51413C10.811 5.51413 10.4853 5.197 10.4853 4.79416C10.4853 4.39132 10.8025 4.07419 11.2053 4.07419C11.6081 4.07419 11.9253 4.39132 11.9253 4.79416C11.9274 4.88805 11.9103 4.98137 11.8749 5.06836C11.8395 5.15535 11.7867 5.23414 11.7196 5.29985C11.6539 5.36694 11.5751 5.41982 11.4881 5.4552C11.4011 5.49059 11.3078 5.50773 11.2139 5.50556L11.2053 5.51413Z" fill="#898989"/>  
  </symbol>
  <symbol id="point" viewBox="0 0 5 8">
    <path d="M2.23816 0.765625C2.60822 0.765625 2.95402 0.802025 3.27556 0.874824C3.59709 0.941558 3.87616 1.05682 4.11276 1.22062C4.34936 1.38442 4.53439 1.60282 4.66786 1.87582C4.80739 2.14276 4.87716 2.47642 4.87716 2.87682C4.87716 3.25902 4.80739 3.59269 4.66786 3.87782C4.53439 4.15689 4.34936 4.38742 4.11276 4.56942C3.88222 4.75142 3.60922 4.88792 3.29376 4.97892C2.97829 5.06386 2.63856 5.10632 2.27456 5.10632H1.37366V7.49962H0.0268555V0.765625H2.23816ZM2.18356 4.04162C3.09962 4.04162 3.55766 3.65336 3.55766 2.87682C3.55766 2.48249 3.43632 2.20949 3.19366 2.05782C2.95706 1.90616 2.60519 1.83032 2.13806 1.83032H1.37366V4.04162H2.18356Z" fill="#00368E"/>
  </symbol>
  <symbol id="pencil-underline" viewBox="0 0 20 20">
    <path d="M1 18.7578H9.87793H18.7559" stroke="#00368E" stroke-width="1.5" stroke-linecap="round" stroke-linejoin="round"/>
    <path d="M10.0973 3.79007L12.8874 1L17.77 5.88261L14.9799 8.67264M10.0973 3.79007L4.56675 9.32063C4.38176 9.50559 4.27783 9.75654 4.27783 10.0181V14.4921H8.75188C9.01349 14.4921 9.26434 14.3883 9.44939 14.2032L14.9799 8.67264M10.0973 3.79007L14.9799 8.67264" stroke="#00368E" stroke-width="1.5" stroke-linecap="round" stroke-linejoin="round"/>
  </symbol>
  <symbol id="pencil" viewBox="0 0 15 17">
    <rect width="6" height="10" rx="1" transform="matrix(-0.776331 -0.630326 0.62432 -0.781169 5.88184 14.3457)" fill="#898989"/>
    <rect width="6" height="2" rx="1" transform="matrix(-0.776331 -0.630326 0.62432 -0.781169 12.8823 5.34375)" fill="#898989"/>
    <path d="M2.73799 14.7733C2.27205 14.7713 1.86917 14.4442 1.76805 13.9857L1.24882 11.6317L5.13048 14.7834L2.73799 14.7733Z" fill="#898989"/>
  </symbol>
  <symbol id="toggle-off" viewBox="0 0 21 21">
    <rect width="21" height="21" rx="10.5" fill="#D9D9D9"/>
    <circle cx="10.5365" cy="10.4994" r="6.53655" fill="#fff"/>
  </symbol>
  <symbol id="toggle-on" viewBox="0 0 21 21">
    <rect width="21" height="21" rx="10.5" fill="#D9D9D9"/>
    <circle cx="10.5365" cy="10.4994" r="6.53655" fill="#00368E"/>
  </symbol>
  <symbol id="file" viewBox="0 0 10 14">
    <path d="M6.25 0H1.25C0.5625 0 0.00625014 0.63 0.00625014 1.4L0 12.6C0 13.37 0.55625 14 1.24375 14H8.75C9.4375 14 10 13.37 10 12.6V4.2L6.25 0ZM1.25 12.6V1.4H5.625V4.9H8.75V12.6H1.25Z" fill="#00368E"/>
  </symbol>
  <symbol id="notice-bell" viewBox="0 0 11 13">
    <path opacity="0.7" d="M1.01514 5.56137C1.01514 3.19321 2.93491 1.27344 5.30307 1.27344C7.67123 1.27344 9.59101 3.19321 9.59101 5.56137V8.41731C9.59101 8.81185 9.27117 9.13169 8.87662 9.13169H1.72952C1.33498 9.13169 1.01514 8.81185 1.01514 8.41731V5.56137Z" fill="#FF849A"/>
    <rect opacity="0.5" y="9.51953" width="10.6064" height="2.08275" rx="1.04138" fill="#FF849A"/>
    <rect x="4.29736" y="11.1562" width="2.01203" height="1.84367" rx="0.921834" fill="#FF849A"/>
    <rect x="4.29736" y="0.351562" width="2.01203" height="1.84367" rx="0.921834" fill="#FF849A"/>
  </symbol>
  <symbol id="hamburger-menu" viewBox="0 0 23 15">
    <rect x="0.107422" width="22" height="2.69993" rx="1" fill="#00368E"/>
    <rect x="0.107422" y="6.15039" width="22" height="2.69993" rx="1" fill="#00368E"/>
    <rect x="0.107422" y="12.3008" width="22" height="2.69993" rx="1" fill="#00368E"/>
  </symbol>
  <symbol id="check-circle" viewBox="0 0 15 15">
    <g clip-path="url(#clip0_1440_9507)">
    <path fill-rule="evenodd" clip-rule="evenodd" d="M7.5 13.6364C10.889 13.6364 13.6364 10.889 13.6364 7.5C13.6364 4.11098 10.889 1.36364 7.5 1.36364C4.11098 1.36364 1.36364 4.11098 1.36364 7.5C1.36364 10.889 4.11098 13.6364 7.5 13.6364ZM7.5 15C11.6421 15 15 11.6421 15 7.5C15 3.35786 11.6421 0 7.5 0C3.35786 0 0 3.35786 0 7.5C0 11.6421 3.35786 15 7.5 15Z" fill="#484848"/>
    <path fill-rule="evenodd" clip-rule="evenodd" d="M10.8078 5.20886C11.0641 5.48733 11.0641 5.93883 10.8078 6.2173L6.40625 11L4.19221 8.59423C3.93593 8.31576 3.93593 7.86426 4.19221 7.58579C4.44849 7.30731 4.86401 7.30731 5.12029 7.58579L6.40625 8.98311L9.87971 5.20886C10.136 4.93038 10.5515 4.93038 10.8078 5.20886Z" fill="#484848"/>
    </g>
    <defs>
    <clipPath id="clip0_1440_9507">
    <rect width="15" height="15" fill="white"/>
    </clipPath>
    </defs>
  </symbol>
  <symbol viewBox="0 0 33 33">
    <circle cx="16.5" cy="16.5" r="16.5" fill="#FEE9EB"/>
    <path d="M10 17L14 21L23 12" stroke="#FF4B6C" stroke-width="3" stroke-linecap="round"/>
  </symbol>
  <symbol id="clip-board-list" viewBox="0 0 18 19">
    <rect y="1" width="18" height="18" rx="2" fill="white"/>
    <rect x="3" y="6" width="12" height="1" fill="#5F86BF"/>
    <rect x="5" width="7" height="2" fill="#5F86BF"/>
    <rect x="3" y="9.5" width="12" height="1" fill="#5F86BF"/>
    <rect x="3" y="13" width="12" height="1" fill="#5F86BF"/>
  </symbol>
  <symbol id="clip-board-list-blue" viewBox="0 0 18 19">
    <rect y="1" width="18" height="18" rx="2" fill="#BFD7EC"/>
    <rect x="3" y="6" width="12" height="1" fill="#5F86BF"/>
    <rect x="5" width="7" height="2" fill="#5F86BF"/>
    <rect x="3" y="9.5" width="12" height="1" fill="#5F86BF"/>
    <rect x="3" y="13" width="12" height="1" fill="#5F86BF"/>
  </symbol>
  <symbol id="pencil-circle" viewBox="0 0 105 105">
    <g filter="url(#filter0_bd_1467_9360)">
      <circle cx="48.5" cy="48.5" r="32.5" fill="white" fill-opacity="0.7" shape-rendering="crispEdges"/>
    </g>
    <rect width="10" height="19" rx="1" transform="matrix(-0.778232 -0.627976 0.626674 -0.779282 46 60)" fill="#BFD7EC"/>
    <rect width="10" height="3" rx="1" transform="matrix(-0.778232 -0.627976 0.626674 -0.779282 59 44)" fill="#BFD7EC"/>
    <path d="M39.3846 61.1311C38.8787 61.1556 38.4343 60.7971 38.3505 60.2967L37.5021 55.2311L44.5062 60.8829L39.3846 61.1311Z" fill="#BFD7EC"/>
    <defs>
      <filter id="filter0_bd_1467_9360" x="0.9" y="0.9" width="103.2" height="103.2" filterUnits="userSpaceOnUse" color-interpolation-filters="sRGB">
        <feFlood flood-opacity="0" result="BackgroundImageFix"/>
        <feGaussianBlur in="BackgroundImageFix" stdDeviation="7.05"/>
        <feComposite in2="SourceAlpha" operator="in" result="effect1_backgroundBlur_1467_9360"/>
        <feColorMatrix in="SourceAlpha" type="matrix" values="0 0 0 0 0 0 0 0 0 0 0 0 0 0 0 0 0 0 127 0" result="hardAlpha"/>
        <feOffset dx="4" dy="4"/>
        <feGaussianBlur stdDeviation="9.55"/>
        <feComposite in2="hardAlpha" operator="out"/>
        <feColorMatrix type="matrix" values="0 0 0 0 0 0 0 0 0 0 0 0 0 0 0 0 0 0 0.15 0"/>
        <feBlend mode="normal" in2="effect1_backgroundBlur_1467_9360" result="effect2_dropShadow_1467_9360"/>
        <feBlend mode="normal" in="SourceGraphic" in2="effect2_dropShadow_1467_9360" result="shape"/>
      </filter>
    </defs>
  </symbol>
  <symbol id="abuse-comment" viewBox="0 0 25 20">
    <path fill-rule="evenodd" clip-rule="evenodd" d="M25 3.12061C25 2.6797 24.6426 2.32227 24.2017 2.32227H0.798344C0.357431 2.32227 0 2.6797 0 3.12061V16.2911C0 16.7321 0.357431 17.0895 0.798344 17.0895H19.0771C19.3821 17.0895 19.6604 17.2633 19.7943 17.5373L20.7827 19.5597C21.0745 20.1568 21.9255 20.1568 22.2173 19.5597L23.2057 17.5373C23.3396 17.2633 23.6179 17.0895 23.9229 17.0895H24.2017C24.6426 17.0895 25 16.7321 25 16.2911V3.12061Z" fill="#F0F0F0"/>
    <path d="M5 11.1839L11 8.23047" stroke="#898989" stroke-width="0.830319"/>
    <path d="M6.90645 7.63533L6.325 13.9915" stroke="#898989" stroke-width="0.830319"/>
    <path d="M5 12.1683L11 9.21484" stroke="#898989" stroke-width="0.830319"/>
    <path d="M9.90651 6.64919L9.32544 13.0051" stroke="#898989" stroke-width="0.830319"/>
    <path d="M14.1286 14.183H13.1622V12.529C13.9493 12.26 14.7564 11.9312 14.7564 11.0145C14.7564 10.4665 14.318 9.99818 13.7102 9.99818C13.0625 9.99818 12.644 10.4266 12.644 11.1141V11.1938H11.7373V11.154C11.7373 9.98822 12.654 9.18115 13.7102 9.18115C14.856 9.18115 15.6631 10.1177 15.6631 10.9846C15.6631 12.2301 14.8859 12.6984 14.1286 13.0471V14.183ZM14.1685 16.2754H13.1223V15.1196H14.1685V16.2754Z" fill="#898989"/>
    <path d="M17.5935 4.1818L18.2734 5.38557L20.4891 9.53325L19.4446 9.90447L17.0177 5.83186L16.3378 4.62809L17.5935 4.1818ZM21.8692 11.7773L20.6369 12.2152L19.9265 10.9572L21.1587 10.5193L21.8692 11.7773Z" fill="#898989"/>
  </symbol>
  <symbol id="dollar" viewBox="0 0 25 14">
    <rect width="25" height="14" rx="1" fill="#F0F0F0"/>
    <circle cx="12.5" cy="7.5" r="5.5" fill="#D9D9D9"/>
    <path d="M10.27 9.208L10.855 8.659C11.269 9.082 11.764 9.379 12.394 9.379C13.015 9.379 13.681 9.082 13.681 8.335C13.681 7.651 13.015 7.426 12.313 7.174C11.512 6.886 10.648 6.562 10.648 5.482C10.648 4.6 11.332 3.997 12.259 3.925V3.07H12.835V3.943C13.357 3.997 13.843 4.195 14.311 4.528L13.798 5.131C13.456 4.825 13.006 4.654 12.502 4.654C12.016 4.654 11.458 4.897 11.458 5.482C11.458 6.022 12.052 6.229 12.718 6.463C13.564 6.76 14.527 7.102 14.527 8.245C14.527 9.316 13.753 9.946 12.79 10.081V10.954H12.214V10.108C11.476 10.081 10.855 9.766 10.27 9.208Z" fill="#898989"/>
  </symbol>
  <symbol id="camera" viewBox="0 0 25 18">
    <path fill-rule="evenodd" clip-rule="evenodd" d="M16 1C16 0.447715 15.5523 0 15 0H10C9.44772 0 9 0.447715 9 1C9 1.55228 8.55229 2 8 2H1C0.447715 2 0 2.44772 0 3V17C0 17.5523 0.447716 18 1 18H24C24.5523 18 25 17.5523 25 17V3C25 2.44772 24.5523 2 24 2H17C16.4477 2 16 1.55228 16 1Z" fill="#F0F0F0"/>
    <circle cx="12.5" cy="10.5" r="5.5" fill="#D9D9D9"/>
    <circle cx="12.5" cy="10.5" r="3.5" fill="#898989"/>
  </symbol>
  <symbol id="ban" viewBox="0 0 18 18">
    <circle cx="9" cy="9" r="8" fill="#F0F0F0" stroke="#898989" stroke-width="2"/>
    <path d="M15 3L4 14" stroke="#898989" stroke-width="2"/>
  </symbol>
  <symbol id="flag" viewBox="0 0 23 22">
    <path d="M1 0V22" stroke="#898989" stroke-width="2"/>
    <rect x="2" y="1" width="21" height="14" fill="#F0F0F0"/>
  </symbol>
  <symbol id="adult" viewBox="0 0 18 18">
    <circle cx="9" cy="9" r="8" fill="#F0F0F0" stroke="#898989" stroke-width="2"/>
    <path d="M7.241 12H6.395V7.05C6.116 7.194 5.747 7.338 5.495 7.446V6.654C5.855 6.474 6.296 6.249 6.692 6.024H7.241V12ZM9.18159 12.333L8.83959 11.577C9.93759 11.082 10.8286 10.416 11.1436 9.255C10.7836 9.615 10.3336 9.804 9.79359 9.804C8.74059 9.804 8.03859 8.94 8.03859 7.878C8.03859 6.771 8.83959 5.916 9.93759 5.916C11.3146 5.916 12.1246 7.05 12.1246 8.301C12.1246 10.209 10.8016 11.676 9.18159 12.333ZM9.97359 9.048C10.5046 9.048 11.0176 8.76 11.2696 8.292C11.2696 7.464 10.9186 6.672 10.0096 6.672C9.32559 6.672 8.90259 7.212 8.90259 7.896C8.90259 8.562 9.30759 9.048 9.97359 9.048Z" fill="#898989"/>
  </symbol>
  <symbol id="horizontal-dot3" viewBox="0 0 19 4">
    <circle cx="2" cy="2" r="2" fill="#898989"/>
    <circle cx="9" cy="2" r="2" fill="#898989"/>
    <circle cx="17" cy="2" r="2" fill="#898989"/>
  </symbol>
  <symbol id="search" viewBox="0 0 22 22">
    <path fill-rule="evenodd" clip-rule="evenodd" d="M5.42099 13.3228C3.20175 11.2487 3.05774 7.74405 5.09932 5.49488C7.1409 3.24572 10.595 3.10378 12.8142 5.17786C15.0335 7.25193 15.1775 10.7566 13.1359 13.0058C11.0943 15.2549 7.64023 15.3969 5.42099 13.3228ZM4.36872 4.81207C1.95594 7.47018 2.12615 11.6121 4.74888 14.0633C7.34832 16.4927 11.3813 16.3495 13.8018 13.7588L16.881 16.6366C17.0827 16.8251 17.3967 16.8122 17.5823 16.6078C17.7679 16.4033 17.7548 16.0847 17.5531 15.8961L14.4288 12.9762C16.2322 10.3346 15.8848 6.67901 13.4863 4.43741C10.8636 1.98622 6.7815 2.15397 4.36872 4.81207Z" fill="#949494"/>
  </symbol>
  <symbol id='search-thick' viewBox="0 0 20 20" fill='none'>
    <path d="M13.9163 13.8739L18 18M13.8026 4.01986C16.5272 6.73762 16.5553 11.1724 13.8655 13.9252C11.1757 16.678 6.78648 16.7065 4.06195 13.9887C1.33742 11.271 1.30928 6.83619 3.9991 4.08336C6.68892 1.33054 11.0781 1.30211 13.8026 4.01986Z" stroke="#00368E" stroke-width="2.5" stroke-linecap="round"/>
  </symbol>
  <symbol id="profile-basic-camera" viewBox="0 0 77 77" fill="none">
    <circle cx="38.3687" cy="38.3687" r="38.3687" fill="#DDEBF6"/>
    <path d="M27.3135 44.2212C28.724 45.6511 30.4075 46.7871 32.2655 47.5626C34.1235 48.3381 36.1187 48.7376 38.1341 48.7376C40.1494 48.7376 42.1446 48.3381 44.0026 47.5626C45.8606 46.7871 47.5442 45.6511 48.9546 44.2212" stroke="#00368E" stroke-width="5.5" stroke-linecap="round" stroke-linejoin="round"/>
    <path d="M24.7124 29.915H24.7557M50.6818 29.915H50.7251" stroke="#00368E" stroke-width="7" stroke-linecap="round" stroke-linejoin="round"/>
    <circle cx="65" cy="65" r="11.5" fill="#00368E" stroke="white"/>
    <path d="M60.2 61.1111H62L63.2 60H66.8L68 61.1111H69.8C70.1183 61.1111 70.4235 61.2282 70.6485 61.4365C70.8736 61.6449 71 61.9275 71 62.2222V68.8889C71 69.1836 70.8736 69.4662 70.6485 69.6746C70.4235 69.8829 70.1183 70 69.8 70H60.2C59.8817 70 59.5765 69.8829 59.3515 69.6746C59.1264 69.4662 59 69.1836 59 68.8889V62.2222C59 61.9275 59.1264 61.6449 59.3515 61.4365C59.5765 61.2282 59.8817 61.1111 60.2 61.1111ZM65 62.7778C64.2044 62.7778 63.4413 63.0704 62.8787 63.5914C62.3161 64.1123 62 64.8188 62 65.5556C62 66.2923 62.3161 66.9988 62.8787 67.5197C63.4413 68.0407 64.2044 68.3333 65 68.3333C65.7956 68.3333 66.5587 68.0407 67.1213 67.5197C67.6839 66.9988 68 66.2923 68 65.5556C68 64.8188 67.6839 64.1123 67.1213 63.5914C66.5587 63.0704 65.7956 62.7778 65 62.7778ZM65 63.8889C65.4774 63.8889 65.9352 64.0645 66.2728 64.377C66.6104 64.6896 66.8 65.1135 66.8 65.5556C66.8 65.9976 66.6104 66.4215 66.2728 66.7341C65.9352 67.0466 65.4774 67.2222 65 67.2222C64.5226 67.2222 64.0648 67.0466 63.7272 66.7341C63.3896 66.4215 63.2 65.9976 63.2 65.5556C63.2 65.1135 63.3896 64.6896 63.7272 64.377C64.0648 64.0645 64.5226 63.8889 65 63.8889Z" fill="#EAF5FD"/>
  </symbol>
  <symbol id="profile-basic" viewBox="0 0 126 124" fill="none">
    <g filter="url(#filter0_d_946_9006)">
      <circle cx="63" cy="59" r="59" fill="#DDEBF6"/>
      <path d="M46.999 71.3892C49.1679 73.588 51.7568 75.3348 54.6138 76.5273C57.4709 77.7198 60.5389 78.3341 63.638 78.3341C66.737 78.3341 69.805 77.7198 72.6621 76.5273C75.5192 75.3348 78.108 73.588 80.2769 71.3892" stroke="#00368E" stroke-width="5.5" stroke-linecap="round" stroke-linejoin="round"/>
      <path d="M43 49.3901H43.0666H43ZM82.9334 49.3901H83H82.9334Z" fill="url(#paint0_radial_946_9006)"/>
      <path d="M43 49.3901H43.0666M82.9334 49.3901H83" stroke="#00368E" stroke-width="9" stroke-linecap="round" stroke-linejoin="round"/>
    </g>
    <defs>
      <filter id="filter0_d_946_9006" x="0" y="0" width="126" height="126" filterUnits="userSpaceOnUse" color-interpolation-filters="sRGB">
        <feFlood flood-opacity="0" result="BackgroundImageFix"/>
        <feColorMatrix in="SourceAlpha" type="matrix" values="0 0 0 0 0 0 0 0 0 0 0 0 0 0 0 0 0 0 127 0" result="hardAlpha"/>
        <feOffset dy="4"/>
        <feGaussianBlur stdDeviation="2"/>
        <feComposite in2="hardAlpha" operator="out"/>
        <feColorMatrix type="matrix" values="0 0 0 0 0 0 0 0 0 0 0 0 0 0 0 0 0 0 0.15 0"/>
        <feBlend mode="normal" in2="BackgroundImageFix" result="effect1_dropShadow_946_9006"/>
        <feBlend mode="normal" in="SourceGraphic" in2="effect1_dropShadow_946_9006" result="shape"/>
      </filter>
      <radialGradient id="paint0_radial_946_9006" cx="0" cy="0" r="1" gradientUnits="userSpaceOnUse" gradientTransform="translate(49.1367 49.6357) rotate(1.64528) scale(30.2345 1.7522)">
        <stop stop-color="#00368E"/>
        <stop offset="1" stop-color="#EAF5FD"/>
      </radialGradient>
    </defs>  
  </symbol>
  <symbol id="calendar" viewBox="0 0 19 19" fill="none">
    <path d="M15.0409 3.16683H13.4575V2.37516C13.4575 2.1652 13.3741 1.96384 13.2256 1.81537C13.0772 1.6669 12.8758 1.5835 12.6659 1.5835C12.4559 1.5835 12.2545 1.6669 12.1061 1.81537C11.9576 1.96384 11.8742 2.1652 11.8742 2.37516V3.16683H7.12419V2.37516C7.12419 2.1652 7.04078 1.96384 6.89231 1.81537C6.74385 1.6669 6.54248 1.5835 6.33252 1.5835C6.12256 1.5835 5.92119 1.6669 5.77273 1.81537C5.62426 1.96384 5.54085 2.1652 5.54085 2.37516V3.16683H3.95752C3.32763 3.16683 2.72354 3.41705 2.27814 3.86245C1.83274 4.30785 1.58252 4.91194 1.58252 5.54183V15.0418C1.58252 15.6717 1.83274 16.2758 2.27814 16.7212C2.72354 17.1666 3.32763 17.4168 3.95752 17.4168H15.0409C15.6707 17.4168 16.2748 17.1666 16.7202 16.7212C17.1656 16.2758 17.4159 15.6717 17.4159 15.0418V5.54183C17.4159 4.91194 17.1656 4.30785 16.7202 3.86245C16.2748 3.41705 15.6707 3.16683 15.0409 3.16683ZM15.8325 15.0418C15.8325 15.2518 15.7491 15.4532 15.6006 15.6016C15.4522 15.7501 15.2508 15.8335 15.0409 15.8335H3.95752C3.74756 15.8335 3.54619 15.7501 3.39773 15.6016C3.24926 15.4532 3.16585 15.2518 3.16585 15.0418V9.50016H15.8325V15.0418ZM15.8325 7.91683H3.16585V5.54183C3.16585 5.33187 3.24926 5.1305 3.39773 4.98204C3.54619 4.83357 3.74756 4.75016 3.95752 4.75016H5.54085V5.54183C5.54085 5.75179 5.62426 5.95316 5.77273 6.10162C5.92119 6.25009 6.12256 6.3335 6.33252 6.3335C6.54248 6.3335 6.74385 6.25009 6.89231 6.10162C7.04078 5.95316 7.12419 5.75179 7.12419 5.54183V4.75016H11.8742V5.54183C11.8742 5.75179 11.9576 5.95316 12.1061 6.10162C12.2545 6.25009 12.4559 6.3335 12.6659 6.3335C12.8758 6.3335 13.0772 6.25009 13.2256 6.10162C13.3741 5.95316 13.4575 5.75179 13.4575 5.54183V4.75016H15.0409C15.2508 4.75016 15.4522 4.83357 15.6006 4.98204C15.7491 5.1305 15.8325 5.33187 15.8325 5.54183V7.91683Z" fill="#898989"/>
  </symbol>
  <symbol id="arrow-down" viewBox="0 0 11 6" fill="none">
    <path fill-rule="evenodd" clip-rule="evenodd" d="M5.21875 6C5.08148 6 4.95053 5.94142 4.85784 5.83856L0.347142 0.832738C0.164673 0.630241 0.178338 0.315809 0.377661 0.130436C0.576984 -0.0549387 0.886488 -0.041057 1.06896 0.161441L5.21875 4.76674L9.36854 0.161441C9.55101 -0.0410562 9.86052 -0.0549379 10.0598 0.130436C10.2592 0.31581 10.2728 0.630242 10.0904 0.832739L5.57966 5.83856C5.48697 5.94142 5.35602 6 5.21875 6Z" fill="#898989"/>
  </symbol>
  <symbol id="point-circle" viewBox="0 0 32 32" fill="none">
    <path d="M16.4709 8C17.3865 8 18.242 8.08649 19.0375 8.25946C19.833 8.41802 20.5235 8.69189 21.1088 9.08108C21.6942 9.47027 22.152 9.98919 22.4822 10.6378C22.8274 11.2721 23 12.0649 23 13.0162C23 13.9243 22.8274 14.7171 22.4822 15.3946C22.152 16.0577 21.6942 16.6054 21.1088 17.0378C20.5385 17.4703 19.863 17.7946 19.0826 18.0108C18.3021 18.2126 17.4615 18.3135 16.561 18.3135H14.3321V24H11V8H16.4709ZM16.3358 15.7838C18.6023 15.7838 19.7355 14.8613 19.7355 13.0162C19.7355 12.0793 19.4353 11.4306 18.8349 11.0703C18.2495 10.7099 17.379 10.5297 16.2233 10.5297H14.3321V15.7838H16.3358Z" fill="#00368E"/>
    <circle cx="16" cy="16" r="15" stroke="#00368E" stroke-width="2"/> 
  </symbol>
  <symbol id="star-circle" viewBox="0 0 32 32" fill="none">
    <path d="M26.4455 14.6109L22.0233 18.3866L23.3706 24.0332C23.4449 24.3397 23.4257 24.6612 23.3155 24.9569C23.2053 25.2527 23.009 25.5095 22.7514 25.6949C22.4937 25.8804 22.1863 25.9861 21.868 25.9987C21.5497 26.0114 21.2347 25.9304 20.9629 25.766L16.0002 22.7438L11.0345 25.766C10.7628 25.9294 10.4482 26.0096 10.1304 25.9965C9.81261 25.9834 9.50586 25.8776 9.24876 25.6923C8.99165 25.5071 8.7957 25.2507 8.68556 24.9554C8.57543 24.6602 8.55604 24.3393 8.62984 24.0332L9.98206 18.3866L5.55984 14.6109C5.31937 14.4052 5.14545 14.134 5.05982 13.8311C4.97418 13.5283 4.98062 13.2072 5.07833 12.9079C5.17603 12.6086 5.36068 12.3445 5.6092 12.1484C5.85773 11.9524 6.15911 11.8331 6.47573 11.8055L12.2737 11.3427L14.5104 5.98683C14.6315 5.69494 14.8375 5.44526 15.1024 5.26954C15.3672 5.09382 15.6789 5 15.9977 5C16.3166 5 16.6283 5.09382 16.8931 5.26954C17.158 5.44526 17.364 5.69494 17.4851 5.98683L19.7208 11.3427L25.5188 11.8055C25.836 11.8321 26.1383 11.9507 26.3877 12.1465C26.6371 12.3422 26.8226 12.6065 26.9209 12.9061C27.0193 13.2058 27.026 13.5274 26.9404 13.8309C26.8548 14.1343 26.6805 14.4059 26.4396 14.6118L26.4455 14.6109Z" fill="#00368E"/>
    <circle cx="16" cy="16" r="15" stroke="#00368E" stroke-width="2"/>
  </symbol>
  <symbol id="comment-circle" viewBox="0 0 32 32" fill="none">
    <circle cx="16" cy="16" r="15" stroke="#00368E" stroke-width="2"/>
    <path fill-rule="evenodd" clip-rule="evenodd" d="M26 10C26 9.44772 25.5523 9 25 9H8C7.44772 9 7 9.44771 7 10V20.3086V20.3095V23.7754C7 24.6663 8.07714 25.1125 8.70711 24.4825L12.5872 20.6024C12.7748 20.4149 13.0291 20.3095 13.2943 20.3095H25C25.5523 20.3095 26 19.8618 26 19.3095V10Z" fill="#00368E"/>
  </symbol>
  <symbol id="snow-circle-pink" viewBox="0 0 32 32" fill="none">
    <circle cx="16" cy="16" r="15" stroke="#FF4B6C" stroke-width="2"/>
    <path d="M26.4237 20.65L24.7753 19.668C25.0736 19.3511 25.4157 19.0815 25.7905 18.868C26.0356 18.7255 26.2161 18.489 26.2929 18.2099C26.3696 17.9308 26.3363 17.6317 26.2003 17.3778C26.0642 17.1239 25.8364 16.9356 25.5664 16.8541C25.2965 16.7726 25.0062 16.8044 24.7589 16.9425C24.0432 17.351 23.409 17.8956 22.8899 18.5475L18.6182 16L22.8889 13.457C23.408 14.109 24.0422 14.6536 24.7579 15.062C24.8806 15.1333 25.0157 15.1789 25.1556 15.1961C25.2954 15.2133 25.4372 15.2017 25.5727 15.1621C25.7082 15.1225 25.8347 15.0556 25.945 14.9652C26.0553 14.8749 26.1471 14.7629 26.2153 14.6358C26.2834 14.5087 26.3264 14.3689 26.3419 14.2245C26.3573 14.0802 26.3449 13.9341 26.3053 13.7947C26.2657 13.6553 26.1998 13.5254 26.1113 13.4124C26.0228 13.2994 25.9134 13.2057 25.7896 13.1365C25.4148 12.9228 25.0727 12.6533 24.7744 12.3365L26.4227 11.3545C26.5488 11.285 26.6601 11.19 26.7499 11.0753C26.8397 10.9605 26.9062 10.8283 26.9454 10.6866C26.9847 10.5448 26.9959 10.3963 26.9784 10.2499C26.961 10.1036 26.9151 9.96237 26.8437 9.83465C26.7722 9.70694 26.6766 9.59534 26.5625 9.5065C26.4484 9.41766 26.3181 9.35339 26.1794 9.31751C26.0407 9.28163 25.8965 9.27486 25.7552 9.29762C25.614 9.32038 25.4786 9.3722 25.3571 9.45L23.7088 10.4315C23.5913 10.0065 23.5355 9.56588 23.543 9.124C23.546 8.97929 23.5214 8.83537 23.4705 8.7005C23.4195 8.56563 23.3433 8.44245 23.2461 8.33803C23.1489 8.23362 23.0326 8.15001 22.9041 8.092C22.7755 8.03399 22.6371 8.00273 22.4967 8H22.4769C22.1974 7.99995 21.9291 8.11302 21.7296 8.3149C21.5301 8.51678 21.4155 8.79133 21.4103 9.0795C21.3952 9.92244 21.5351 10.7607 21.8224 11.55L17.5516 14.0945V9.009C18.3586 8.87146 19.1329 8.57744 19.8337 8.1425C20.076 7.99192 20.2504 7.74824 20.3184 7.46506C20.3865 7.18188 20.3428 6.8824 20.1968 6.6325C20.0508 6.3826 19.8145 6.20275 19.5399 6.13252C19.2653 6.06229 18.975 6.10742 18.7326 6.258C18.3653 6.48566 17.9673 6.656 17.5516 6.7635V5.1C17.5516 4.80826 17.4393 4.52847 17.2392 4.32218C17.0392 4.11589 16.7679 4 16.4851 4C16.2022 4 15.9309 4.11589 15.7309 4.32218C15.5308 4.52847 15.4185 4.80826 15.4185 5.1V6.7635C15.0028 6.656 14.6048 6.48566 14.2375 6.258C13.9952 6.10742 13.7048 6.06229 13.4302 6.13252C13.1556 6.20275 12.9193 6.3826 12.7733 6.6325C12.6273 6.8824 12.5836 7.18188 12.6517 7.46506C12.7198 7.74824 12.8941 7.99192 13.1365 8.1425C13.8372 8.57744 14.6115 8.87146 15.4185 9.009V14.0945L11.1478 11.55C11.4355 10.7605 11.5757 9.92184 11.5608 9.0785C11.5556 8.79033 11.4409 8.51578 11.2415 8.3139C11.042 8.11202 10.7737 7.99895 10.4942 7.999H10.4734C10.3333 8.00167 10.1951 8.03277 10.0667 8.09053C9.93829 8.14829 9.82216 8.23157 9.72496 8.33562C9.62776 8.43968 9.55139 8.56246 9.50021 8.69696C9.44903 8.83146 9.42404 8.97504 9.42667 9.1195C9.43452 9.56202 9.37881 10.0033 9.26135 10.429L7.61299 9.45C7.49161 9.37532 7.35704 9.32628 7.21711 9.3057C7.07719 9.28513 6.93469 9.29345 6.79791 9.33016C6.66113 9.36688 6.53279 9.43127 6.42035 9.5196C6.3079 9.60792 6.2136 9.7184 6.14293 9.84464C6.07225 9.97087 6.0266 10.1103 6.00865 10.2549C5.99069 10.3995 6.00077 10.5463 6.03831 10.6869C6.07585 10.8274 6.1401 10.9588 6.22733 11.0735C6.31455 11.1882 6.42301 11.2839 6.5464 11.355L8.19477 12.337C7.8964 12.6538 7.55431 12.9233 7.17957 13.137C7.05572 13.2062 6.94639 13.2999 6.85787 13.4129C6.76935 13.5259 6.7034 13.6558 6.66382 13.7952C6.62424 13.9346 6.61183 14.0807 6.62729 14.225C6.64274 14.3694 6.68577 14.5092 6.75389 14.6363C6.822 14.7634 6.91385 14.8754 7.02414 14.9657C7.13443 15.0561 7.26097 15.123 7.39647 15.1626C7.53196 15.2022 7.67372 15.2138 7.81356 15.1966C7.95341 15.1794 8.08857 15.1338 8.21125 15.0625C8.92691 14.654 9.56107 14.1094 10.0802 13.4575L14.3519 16L10.0812 18.543C9.56204 17.8911 8.92788 17.3465 8.21222 16.938C8.08954 16.8667 7.95438 16.8211 7.81453 16.8039C7.67469 16.7867 7.53293 16.7983 7.39744 16.8379C7.26194 16.8775 7.1354 16.9444 7.02511 17.0348C6.91482 17.1251 6.82297 17.2371 6.75486 17.3642C6.68674 17.4913 6.64371 17.6311 6.62825 17.7755C6.6128 17.9198 6.62521 18.0659 6.66479 18.2053C6.70436 18.3447 6.77032 18.4746 6.85884 18.5876C6.94736 18.7006 7.05669 18.7943 7.18054 18.8635C7.55528 19.0772 7.89737 19.3467 8.19573 19.6635L6.5464 20.65C6.42301 20.7211 6.31455 20.8168 6.22733 20.9315C6.1401 21.0462 6.07585 21.1776 6.03831 21.3181C6.00077 21.4587 5.99069 21.6055 6.00865 21.7501C6.0266 21.8947 6.07225 22.0341 6.14293 22.1604C6.2136 22.2866 6.3079 22.3971 6.42035 22.4854C6.53279 22.5737 6.66113 22.6381 6.79791 22.6748C6.93469 22.7116 7.07719 22.7199 7.21711 22.6993C7.35704 22.6787 7.49161 22.6297 7.61299 22.555L9.26135 21.5735C9.37878 21.9985 9.43465 22.4391 9.42716 22.881C9.42223 23.1724 9.52963 23.4539 9.72579 23.6637C9.92195 23.8735 10.1908 23.9945 10.4734 24H10.4933C10.7727 24 11.041 23.887 11.2405 23.6851C11.44 23.4832 11.5546 23.2087 11.5598 22.9205C11.5749 22.0776 11.4351 21.2393 11.1478 20.45L15.4185 17.9055V22.991C14.6115 23.1285 13.8372 23.4226 13.1365 23.8575C12.8941 24.0081 12.7198 24.2518 12.6517 24.5349C12.5836 24.8181 12.6273 25.1176 12.7733 25.3675C12.9193 25.6174 13.1556 25.7973 13.4302 25.8675C13.7048 25.9377 13.9952 25.8926 14.2375 25.742C14.6048 25.5143 15.0028 25.344 15.4185 25.2365V26.9C15.4185 27.1917 15.5308 27.4715 15.7309 27.6778C15.9309 27.8841 16.2022 28 16.4851 28C16.7679 28 17.0392 27.8841 17.2392 27.6778C17.4393 27.4715 17.5516 27.1917 17.5516 26.9V25.2365C17.9673 25.344 18.3653 25.5143 18.7326 25.742C18.975 25.8926 19.2653 25.9377 19.5399 25.8675C19.8145 25.7972 20.0508 25.6174 20.1968 25.3675C20.3428 25.1176 20.3865 24.8181 20.3184 24.5349C20.2504 24.2518 20.076 24.0081 19.8337 23.8575C19.1329 23.4226 18.3586 23.1285 17.5516 22.991V17.9055L21.8224 20.45C21.5346 21.2395 21.3945 22.0782 21.4093 22.9215C21.4145 23.2097 21.5292 23.4842 21.7286 23.6861C21.9281 23.888 22.1964 24.001 22.4759 24.001H22.4967C22.6368 23.9983 22.775 23.9672 22.9034 23.9095C23.0318 23.8517 23.148 23.7684 23.2452 23.6644C23.3424 23.5603 23.4187 23.4375 23.4699 23.303C23.5211 23.1685 23.5461 23.025 23.5434 22.8805C23.5356 22.438 23.5913 21.9967 23.7088 21.571L25.3571 22.5525C25.4785 22.6329 25.6144 22.687 25.7567 22.7117C25.8989 22.7363 26.0446 22.731 26.1847 22.6959C26.3249 22.6609 26.4568 22.5968 26.5723 22.5077C26.6878 22.4186 26.7846 22.3063 26.8568 22.1775C26.929 22.0487 26.9751 21.9061 26.9923 21.7584C27.0096 21.6107 26.9976 21.461 26.9571 21.3182C26.9167 21.1754 26.8485 21.0426 26.7568 20.9277C26.6651 20.8129 26.5518 20.7184 26.4237 20.65Z" fill="#FF4B6C"/>
  </symbol>
  <symbol id="snow-circle-blue" viewBox="0 0 32 32" fill="none">
    <circle cx="16" cy="16" r="15" stroke="#00368E" stroke-width="2"/>
    <path d="M26.4237 20.65L24.7753 19.668C25.0736 19.3511 25.4157 19.0815 25.7905 18.868C26.0356 18.7255 26.2161 18.489 26.2929 18.2099C26.3696 17.9308 26.3363 17.6317 26.2003 17.3778C26.0642 17.1239 25.8364 16.9356 25.5664 16.8541C25.2965 16.7726 25.0062 16.8044 24.7589 16.9425C24.0432 17.351 23.409 17.8956 22.8899 18.5475L18.6182 16L22.8889 13.457C23.408 14.109 24.0422 14.6536 24.7579 15.062C24.8806 15.1333 25.0157 15.1789 25.1556 15.1961C25.2954 15.2133 25.4372 15.2017 25.5727 15.1621C25.7082 15.1225 25.8347 15.0556 25.945 14.9652C26.0553 14.8749 26.1471 14.7629 26.2153 14.6358C26.2834 14.5087 26.3264 14.3689 26.3419 14.2245C26.3573 14.0802 26.3449 13.9341 26.3053 13.7947C26.2657 13.6553 26.1998 13.5254 26.1113 13.4124C26.0228 13.2994 25.9134 13.2057 25.7896 13.1365C25.4148 12.9228 25.0727 12.6533 24.7744 12.3365L26.4227 11.3545C26.5488 11.285 26.6601 11.19 26.7499 11.0753C26.8397 10.9605 26.9062 10.8283 26.9454 10.6866C26.9847 10.5448 26.9959 10.3963 26.9784 10.2499C26.961 10.1036 26.9151 9.96237 26.8437 9.83465C26.7722 9.70694 26.6766 9.59534 26.5625 9.5065C26.4484 9.41766 26.3181 9.35339 26.1794 9.31751C26.0407 9.28163 25.8965 9.27486 25.7552 9.29762C25.614 9.32038 25.4786 9.3722 25.3571 9.45L23.7088 10.4315C23.5913 10.0065 23.5355 9.56588 23.543 9.124C23.546 8.97929 23.5214 8.83537 23.4705 8.7005C23.4195 8.56563 23.3433 8.44245 23.2461 8.33803C23.1489 8.23362 23.0326 8.15001 22.9041 8.092C22.7755 8.03399 22.6371 8.00273 22.4967 8H22.4769C22.1974 7.99995 21.9291 8.11302 21.7296 8.3149C21.5301 8.51678 21.4155 8.79133 21.4103 9.0795C21.3952 9.92244 21.5351 10.7607 21.8224 11.55L17.5516 14.0945V9.009C18.3586 8.87146 19.1329 8.57744 19.8337 8.1425C20.076 7.99192 20.2504 7.74824 20.3184 7.46506C20.3865 7.18188 20.3428 6.8824 20.1968 6.6325C20.0508 6.3826 19.8145 6.20275 19.5399 6.13252C19.2653 6.06229 18.975 6.10742 18.7326 6.258C18.3653 6.48566 17.9673 6.656 17.5516 6.7635V5.1C17.5516 4.80826 17.4393 4.52847 17.2392 4.32218C17.0392 4.11589 16.7679 4 16.4851 4C16.2022 4 15.9309 4.11589 15.7309 4.32218C15.5308 4.52847 15.4185 4.80826 15.4185 5.1V6.7635C15.0028 6.656 14.6048 6.48566 14.2375 6.258C13.9952 6.10742 13.7048 6.06229 13.4302 6.13252C13.1556 6.20275 12.9193 6.3826 12.7733 6.6325C12.6273 6.8824 12.5836 7.18188 12.6517 7.46506C12.7198 7.74824 12.8941 7.99192 13.1365 8.1425C13.8372 8.57744 14.6115 8.87146 15.4185 9.009V14.0945L11.1478 11.55C11.4355 10.7605 11.5757 9.92184 11.5608 9.0785C11.5556 8.79033 11.4409 8.51578 11.2415 8.3139C11.042 8.11202 10.7737 7.99895 10.4942 7.999H10.4734C10.3333 8.00167 10.1951 8.03277 10.0667 8.09053C9.93829 8.14829 9.82216 8.23157 9.72496 8.33562C9.62776 8.43968 9.55139 8.56246 9.50021 8.69696C9.44903 8.83146 9.42404 8.97504 9.42667 9.1195C9.43452 9.56202 9.37881 10.0033 9.26135 10.429L7.61299 9.45C7.49161 9.37532 7.35704 9.32628 7.21711 9.3057C7.07719 9.28513 6.93469 9.29345 6.79791 9.33016C6.66113 9.36688 6.53279 9.43127 6.42035 9.5196C6.3079 9.60792 6.2136 9.7184 6.14293 9.84464C6.07225 9.97087 6.0266 10.1103 6.00865 10.2549C5.99069 10.3995 6.00077 10.5463 6.03831 10.6869C6.07585 10.8274 6.1401 10.9588 6.22733 11.0735C6.31455 11.1882 6.42301 11.2839 6.5464 11.355L8.19477 12.337C7.8964 12.6538 7.55431 12.9233 7.17957 13.137C7.05572 13.2062 6.94639 13.2999 6.85787 13.4129C6.76935 13.5259 6.7034 13.6558 6.66382 13.7952C6.62424 13.9346 6.61183 14.0807 6.62729 14.225C6.64274 14.3694 6.68577 14.5092 6.75389 14.6363C6.822 14.7634 6.91385 14.8754 7.02414 14.9657C7.13443 15.0561 7.26097 15.123 7.39647 15.1626C7.53196 15.2022 7.67372 15.2138 7.81356 15.1966C7.95341 15.1794 8.08857 15.1338 8.21125 15.0625C8.92691 14.654 9.56107 14.1094 10.0802 13.4575L14.3519 16L10.0812 18.543C9.56204 17.8911 8.92788 17.3465 8.21222 16.938C8.08954 16.8667 7.95438 16.8211 7.81453 16.8039C7.67469 16.7867 7.53293 16.7983 7.39744 16.8379C7.26194 16.8775 7.1354 16.9444 7.02511 17.0348C6.91482 17.1251 6.82297 17.2371 6.75486 17.3642C6.68674 17.4913 6.64371 17.6311 6.62825 17.7755C6.6128 17.9198 6.62521 18.0659 6.66479 18.2053C6.70436 18.3447 6.77032 18.4746 6.85884 18.5876C6.94736 18.7006 7.05669 18.7943 7.18054 18.8635C7.55528 19.0772 7.89737 19.3467 8.19573 19.6635L6.5464 20.65C6.42301 20.7211 6.31455 20.8168 6.22733 20.9315C6.1401 21.0462 6.07585 21.1776 6.03831 21.3181C6.00077 21.4587 5.99069 21.6055 6.00865 21.7501C6.0266 21.8947 6.07225 22.0341 6.14293 22.1604C6.2136 22.2866 6.3079 22.3971 6.42035 22.4854C6.53279 22.5737 6.66113 22.6381 6.79791 22.6748C6.93469 22.7116 7.07719 22.7199 7.21711 22.6993C7.35704 22.6787 7.49161 22.6297 7.61299 22.555L9.26135 21.5735C9.37878 21.9985 9.43465 22.4391 9.42716 22.881C9.42223 23.1724 9.52963 23.4539 9.72579 23.6637C9.92195 23.8735 10.1908 23.9945 10.4734 24H10.4933C10.7727 24 11.041 23.887 11.2405 23.6851C11.44 23.4832 11.5546 23.2087 11.5598 22.9205C11.5749 22.0776 11.4351 21.2393 11.1478 20.45L15.4185 17.9055V22.991C14.6115 23.1285 13.8372 23.4226 13.1365 23.8575C12.8941 24.0081 12.7198 24.2518 12.6517 24.5349C12.5836 24.8181 12.6273 25.1176 12.7733 25.3675C12.9193 25.6174 13.1556 25.7973 13.4302 25.8675C13.7048 25.9377 13.9952 25.8926 14.2375 25.742C14.6048 25.5143 15.0028 25.344 15.4185 25.2365V26.9C15.4185 27.1917 15.5308 27.4715 15.7309 27.6778C15.9309 27.8841 16.2022 28 16.4851 28C16.7679 28 17.0392 27.8841 17.2392 27.6778C17.4393 27.4715 17.5516 27.1917 17.5516 26.9V25.2365C17.9673 25.344 18.3653 25.5143 18.7326 25.742C18.975 25.8926 19.2653 25.9377 19.5399 25.8675C19.8145 25.7972 20.0508 25.6174 20.1968 25.3675C20.3428 25.1176 20.3865 24.8181 20.3184 24.5349C20.2504 24.2518 20.076 24.0081 19.8337 23.8575C19.1329 23.4226 18.3586 23.1285 17.5516 22.991V17.9055L21.8224 20.45C21.5346 21.2395 21.3945 22.0782 21.4093 22.9215C21.4145 23.2097 21.5292 23.4842 21.7286 23.6861C21.9281 23.888 22.1964 24.001 22.4759 24.001H22.4967C22.6368 23.9983 22.775 23.9672 22.9034 23.9095C23.0318 23.8517 23.148 23.7684 23.2452 23.6644C23.3424 23.5603 23.4187 23.4375 23.4699 23.303C23.5211 23.1685 23.5461 23.025 23.5434 22.8805C23.5356 22.438 23.5913 21.9967 23.7088 21.571L25.3571 22.5525C25.4785 22.6329 25.6144 22.687 25.7567 22.7117C25.8989 22.7363 26.0446 22.731 26.1847 22.6959C26.3249 22.6609 26.4568 22.5968 26.5723 22.5077C26.6878 22.4186 26.7846 22.3063 26.8568 22.1775C26.929 22.0487 26.9751 21.9061 26.9923 21.7584C27.0096 21.6107 26.9976 21.461 26.9571 21.3182C26.9167 21.1754 26.8485 21.0426 26.7568 20.9277C26.6651 20.8129 26.5518 20.7184 26.4237 20.65Z" fill="#00368E"/>
  </symbol>
  <symbol id="triangle-exclamation-circle" viewBox="0 0 32 32">
    <circle cx="16" cy="16" r="15" stroke="#00368E" stroke-width="2"/>
    <path d="M9.25167 23H23.7483C25.1326 23 26 22.0312 26 20.811C26.0016 20.4331 25.8997 20.0616 25.7047 19.7347L18.4426 7.1035C18.0272 6.37664 17.2705 6 16.5047 6C15.748 6 14.9732 6.37664 14.5574 7.1035L7.30474 19.7435C7.10158 20.0841 7 20.4431 7 20.8114C7 22.0312 7.87681 23 9.25167 23ZM16.5047 16.8548C16.0157 16.8548 15.748 16.5857 15.7295 16.1015L15.6003 11.6699C15.5818 11.1853 15.9693 10.8262 16.4953 10.8262C17.0122 10.8262 17.4181 11.1941 17.3996 11.6787L17.2614 16.1015C17.2429 16.5949 16.9752 16.8548 16.5047 16.8548ZM16.5047 20.1653C15.9693 20.1653 15.4712 19.7526 15.4712 19.1961C15.4712 18.64 15.9602 18.2277 16.5047 18.2277C17.0492 18.2277 17.5382 18.6312 17.5382 19.1961C17.5382 19.7614 17.0398 20.1653 16.5047 20.1653Z" fill="#00368E"/>
  </symbol>
  <symbol id="heart-plus" viewBox="0 0 27 24" fill="none">
    <path fill-rule="evenodd" clip-rule="evenodd" d="M12.8571 2.38694C14.1961 0.877943 16.1723 0 18.399 0C20.3384 0.00234387 22.1977 0.772936 23.5691 2.14275C24.9405 3.51256 25.7119 5.36976 25.7143 7.30697C25.7143 15.3158 13.9866 21.715 13.4878 21.984C13.294 22.0883 13.0773 22.1429 12.8571 22.1429C12.637 22.1429 12.4203 22.0883 12.2265 21.984C11.7277 21.715 0 15.3158 0 7.30697C0.00234654 5.36976 0.773814 3.51256 2.14518 2.14275C3.51656 0.772936 5.37586 0.00234387 7.31527 0C9.542 0 11.5182 0.877943 12.8571 2.38694Z" fill="#00368E"/>
    <mask id="path-2-outside-1_946_9800" maskUnits="userSpaceOnUse" x="13" y="10" width="14" height="14" fill="black">
      <rect fill="white" x="13" y="10" width="14" height="14"/>
      <path fill-rule="evenodd" clip-rule="evenodd" d="M21 12C21 11.4477 20.5523 11 20 11C19.4477 11 19 11.4477 19 12V16H15C14.4477 16 14 16.4477 14 17C14 17.5523 14.4477 18 15 18H19V22C19 22.5523 19.4477 23 20 23C20.5523 23 21 22.5523 21 22V18H25C25.5523 18 26 17.5523 26 17C26 16.4477 25.5523 16 25 16H21V12Z"/>
    </mask>
    <path fill-rule="evenodd" clip-rule="evenodd" d="M21 12C21 11.4477 20.5523 11 20 11C19.4477 11 19 11.4477 19 12V16H15C14.4477 16 14 16.4477 14 17C14 17.5523 14.4477 18 15 18H19V22C19 22.5523 19.4477 23 20 23C20.5523 23 21 22.5523 21 22V18H25C25.5523 18 26 17.5523 26 17C26 16.4477 25.5523 16 25 16H21V12Z" fill="#00368E"/>
    <path d="M19 16V17H20V16H19ZM19 18H20V17H19V18ZM21 18V17H20V18H21ZM21 16H20V17H21V16ZM20 12H22C22 10.8954 21.1046 10 20 10V12ZM20 12V12V10C18.8954 10 18 10.8954 18 12H20ZM20 16V12H18V16H20ZM15 17H19V15H15V17ZM15 17V15C13.8954 15 13 15.8954 13 17H15ZM15 17H13C13 18.1046 13.8954 19 15 19V17ZM19 17H15V19H19V17ZM20 22V18H18V22H20ZM20 22H18C18 23.1046 18.8954 24 20 24V22ZM20 22V24C21.1046 24 22 23.1046 22 22H20ZM20 18V22H22V18H20ZM25 17H21V19H25V17ZM25 17V19C26.1046 19 27 18.1046 27 17H25ZM25 17H27C27 15.8954 26.1046 15 25 15V17ZM21 17H25V15H21V17ZM20 12V16H22V12H20Z" fill="#F4F4F4" mask="url(#path-2-outside-1_946_9800)"/>
  </symbol>
  <symbol id="heart-minus" viewBox="0 0 27 23" fill="none">
    <path fill-rule="evenodd" clip-rule="evenodd" d="M12.8571 2.38694C14.1961 0.877943 16.1723 0 18.399 0C20.3384 0.00234387 22.1977 0.772936 23.5691 2.14275C24.9405 3.51256 25.7119 5.36976 25.7143 7.30697C25.7143 15.3158 13.9866 21.715 13.4878 21.984C13.294 22.0883 13.0773 22.1429 12.8571 22.1429C12.637 22.1429 12.4203 22.0883 12.2265 21.984C11.7277 21.715 0 15.3158 0 7.30697C0.00234654 5.36976 0.773814 3.51256 2.14518 2.14275C3.51656 0.772936 5.37586 0.00234387 7.31527 0C9.542 0 11.5182 0.877943 12.8571 2.38694Z" fill="#FF4B6C"/>
    <path d="M15 14.5C14.1716 14.5 13.5 15.1716 13.5 16C13.5 16.8284 14.1716 17.5 15 17.5H25C25.8284 17.5 26.5 16.8284 26.5 16C26.5 15.1716 25.8284 14.5 25 14.5H15Z" fill="#FF4B6C" stroke="#F4F4F4" stroke-linecap="round"/>
  </symbol>
  <symbol id="cloud" viewBox="0 0 18 12" fill="none">
    <path fill-rule="evenodd" clip-rule="evenodd" d="M9 10.028C8.04906 10.8133 6.82963 11.2852 5.5 11.2852C2.46243 11.2852 0 8.82272 0 5.78516C0 2.74759 2.46243 0.285156 5.5 0.285156C6.82963 0.285156 8.04906 0.756974 9 1.54232C9.95094 0.756974 11.1704 0.285156 12.5 0.285156C15.5376 0.285156 18 2.74759 18 5.78516C18 8.82272 15.5376 11.2852 12.5 11.2852C11.1704 11.2852 9.95094 10.8133 9 10.028Z" fill="url(#paint0_radial_946_17410)"/>
    <defs>
      <radialGradient id="paint0_radial_946_17410" cx="0" cy="0" r="1" gradientUnits="userSpaceOnUse" gradientTransform="translate(14.0112 6.76192) rotate(93.8) scale(13.168 21.6502)">
        <stop offset="0.29142" stop-color="#C5D2FF"/>
        <stop offset="1" stop-color="#82B5FF"/>
      </radialGradient>
    </defs>
  </symbol>
  <symbol id="comment" viewBox="0 0 13 11">
    <path fill-rule="evenodd" clip-rule="evenodd" d="M12.9707 1.14062C12.9707 0.58834 12.523 0.140625 11.9707 0.140625H1.3877C0.835411 0.140625 0.387695 0.58834 0.387695 1.14062V7.65565V7.65589V9.14362C0.387695 10.0353 1.46652 10.4811 2.096 9.84953L3.98914 7.94998C4.17677 7.76171 4.43164 7.65589 4.69744 7.65589H11.9707C12.523 7.65589 12.9707 7.20817 12.9707 6.65589V1.14062Z"/>
  </symbol>
  <symbol id="like" viewBox="0 0 12 10">
    <path d="M6.3263 9.53142C5.94436 9.8803 5.35939 9.8803 4.97745 9.53142L4.86351 9.42734C2.06344 6.87965 0.214844 5.19392 0.214844 3.13721C0.214844 1.45148 1.53061 0.136719 3.20521 0.136719C3.9498 0.136719 4.67082 0.410453 5.23307 0.864828C5.47187 1.05782 5.83188 1.05782 6.07069 0.864828C6.63293 0.410453 7.35395 0.136719 8.09854 0.136719C9.77315 0.136719 11.0889 1.45148 11.0889 3.13721C11.0889 5.19392 9.24032 6.87965 6.44025 9.42734L6.3263 9.53142Z" fill="#D9D9D9"/>
  </symbol>
  <symbol id="nested-arrow" viewBox="0 0 12 13" fill="none" xmlns="http://www.w3.org/2000/svg">
    <path d="M11.6768 11.2588C11.7744 11.1612 11.7744 11.0029 11.6768 10.9053L10.0858 9.31426C9.98816 9.21663 9.82986 9.21663 9.73223 9.31426C9.6346 9.41189 9.6346 9.57019 9.73223 9.66782L11.1464 11.082L9.73223 12.4962C9.6346 12.5939 9.6346 12.7522 9.73223 12.8498C9.82986 12.9474 9.98816 12.9474 10.0858 12.8498L11.6768 11.2588ZM0.25 0.0820312V9.08203H0.75V0.0820312H0.25ZM2.5 11.332H11.5V10.832H2.5V11.332ZM0.25 9.08203C0.25 10.3247 1.25736 11.332 2.5 11.332V10.832C1.5335 10.832 0.75 10.0485 0.75 9.08203H0.25Z" fill="#898989"/>
  </symbol>
  <symbol id="star-circle" viewBox="0 0 32 32">
    <path d="M26.4455 14.6109L22.0233 18.3866L23.3706 24.0332C23.4449 24.3397 23.4257 24.6612 23.3155 24.9569C23.2053 25.2527 23.009 25.5095 22.7514 25.6949C22.4937 25.8804 22.1863 25.9861 21.868 25.9987C21.5497 26.0114 21.2347 25.9304 20.9629 25.766L16.0002 22.7438L11.0345 25.766C10.7628 25.9294 10.4482 26.0096 10.1304 25.9965C9.81261 25.9834 9.50586 25.8776 9.24876 25.6923C8.99165 25.5071 8.7957 25.2507 8.68556 24.9554C8.57543 24.6602 8.55604 24.3393 8.62984 24.0332L9.98206 18.3866L5.55984 14.6109C5.31937 14.4052 5.14545 14.134 5.05982 13.8311C4.97418 13.5283 4.98062 13.2072 5.07833 12.9079C5.17603 12.6086 5.36068 12.3445 5.6092 12.1484C5.85773 11.9524 6.15911 11.8331 6.47573 11.8055L12.2737 11.3427L14.5104 5.98683C14.6315 5.69494 14.8375 5.44526 15.1024 5.26954C15.3672 5.09382 15.6789 5 15.9977 5C16.3166 5 16.6283 5.09382 16.8931 5.26954C17.158 5.44526 17.364 5.69494 17.4851 5.98683L19.7208 11.3427L25.5188 11.8055C25.836 11.8321 26.1383 11.9507 26.3877 12.1465C26.6371 12.3422 26.8226 12.6065 26.9209 12.9061C27.0193 13.2058 27.026 13.5274 26.9404 13.8309C26.8548 14.1343 26.6805 14.4059 26.4396 14.6118L26.4455 14.6109Z" fill="#00368E"/>
    <circle cx="16" cy="16" r="15" stroke="#00368E" stroke-width="2"/>
  </symbol>
  <symbol id="point-circle" viewBox="0 0 32 32" fill="none">
    <path d="M16.4709 8C17.3865 8 18.242 8.08649 19.0375 8.25946C19.833 8.41802 20.5235 8.69189 21.1088 9.08108C21.6942 9.47027 22.152 9.98919 22.4822 10.6378C22.8274 11.2721 23 12.0649 23 13.0162C23 13.9243 22.8274 14.7171 22.4822 15.3946C22.152 16.0577 21.6942 16.6054 21.1088 17.0378C20.5385 17.4703 19.863 17.7946 19.0826 18.0108C18.3021 18.2126 17.4615 18.3135 16.561 18.3135H14.3321V24H11V8H16.4709ZM16.3358 15.7838C18.6023 15.7838 19.7355 14.8613 19.7355 13.0162C19.7355 12.0793 19.4353 11.4306 18.8349 11.0703C18.2495 10.7099 17.379 10.5297 16.2233 10.5297H14.3321V15.7838H16.3358Z" fill="#00368E"/>
    <circle cx="16" cy="16" r="15" stroke="#00368E" stroke-width="2"/> 
  </symbol>
  <symbol id="comment-circle" viewBox="0 0 32 32">
    <circle cx="16" cy="16" r="15" stroke="#00368E" stroke-width="2"/>
    <path fill-rule="evenodd" clip-rule="evenodd" d="M26 10C26 9.44772 25.5523 9 25 9H8C7.44772 9 7 9.44771 7 10V20.3086V20.3095V23.7754C7 24.6663 8.07714 25.1125 8.70711 24.4825L12.5872 20.6024C12.7748 20.4149 13.0291 20.3095 13.2943 20.3095H25C25.5523 20.3095 26 19.8618 26 19.3095V10Z" fill="#00368E"/>
  </symbol>
  <symbol id="opened-eye" viewBox="0 0 18 13" fill="none">
    <path d="M8.81543 1.67913C11.5464 1.67913 14.0117 3.12484 15.4424 5.47311C15.7507 5.979 15.7506 6.61445 15.4426 7.12046C14.0131 9.46867 11.5535 10.9143 8.81543 10.9143C6.07731 10.9143 3.61778 9.46867 2.18827 7.12046C1.88023 6.61445 1.8802 5.979 2.18843 5.47311C3.61917 3.12484 6.08448 1.67913 8.81543 1.67913ZM8.81543 0C5.06477 0 1.82667 2.28765 0.290707 5.60295C0.0868419 6.04298 0.086842 6.55049 0.290707 6.99052C1.82667 10.3058 5.06477 12.5935 8.81543 12.5935C12.5661 12.5935 15.8042 10.3058 17.3402 6.99052C17.544 6.55049 17.544 6.04298 17.3402 5.60295C15.8042 2.28765 12.5661 0 8.81543 0ZM8.81543 4.19782C9.92137 4.19782 10.8189 5.13814 10.8189 6.29674C10.8189 7.45533 9.92137 8.39565 8.81543 8.39565C7.70949 8.39565 6.81192 7.45533 6.81192 6.29674C6.81192 5.13814 7.70949 4.19782 8.81543 4.19782ZM8.81543 2.51869C6.82795 2.51869 5.20912 4.21461 5.20912 6.29674C5.20912 8.37886 6.82795 10.0748 8.81543 10.0748C10.8029 10.0748 12.4217 8.37886 12.4217 6.29674C12.4217 4.21461 10.8029 2.51869 8.81543 2.51869Z" fill="#898989"/>
  </symbol>
  <symbol id="closed-eye" viewBox="0 0 18 13" >
    <path fill-rule="evenodd" clip-rule="evenodd" d="M8.67762 0C4.92696 0 1.68886 2.28765 0.152899 5.60295C-0.0509664 6.04298 -0.0509663 6.55049 0.152899 6.99052C1.68886 10.3058 4.92696 12.5935 8.67762 12.5935C12.4283 12.5935 15.6664 10.3058 17.2023 6.99052C17.4062 6.55049 17.4062 6.04298 17.2023 5.60295C15.6664 2.28765 12.4283 0 8.67762 0ZM8.67762 4.19782C9.78356 4.19782 10.6811 5.13814 10.6811 6.29674C10.6811 7.45533 9.78356 8.39565 8.67762 8.39565C7.57169 8.39565 6.67411 7.45533 6.67411 6.29674C6.67411 5.13814 7.57169 4.19782 8.67762 4.19782Z"/>
  </symbol>
  <symbol id="calendar" viewBox="0 0 19 19" fill="none">
    <path d="M15.0409 3.16683H13.4575V2.37516C13.4575 2.1652 13.3741 1.96384 13.2256 1.81537C13.0772 1.6669 12.8758 1.5835 12.6659 1.5835C12.4559 1.5835 12.2545 1.6669 12.1061 1.81537C11.9576 1.96384 11.8742 2.1652 11.8742 2.37516V3.16683H7.12419V2.37516C7.12419 2.1652 7.04078 1.96384 6.89231 1.81537C6.74385 1.6669 6.54248 1.5835 6.33252 1.5835C6.12256 1.5835 5.92119 1.6669 5.77273 1.81537C5.62426 1.96384 5.54085 2.1652 5.54085 2.37516V3.16683H3.95752C3.32763 3.16683 2.72354 3.41705 2.27814 3.86245C1.83274 4.30785 1.58252 4.91194 1.58252 5.54183V15.0418C1.58252 15.6717 1.83274 16.2758 2.27814 16.7212C2.72354 17.1666 3.32763 17.4168 3.95752 17.4168H15.0409C15.6707 17.4168 16.2748 17.1666 16.7202 16.7212C17.1656 16.2758 17.4159 15.6717 17.4159 15.0418V5.54183C17.4159 4.91194 17.1656 4.30785 16.7202 3.86245C16.2748 3.41705 15.6707 3.16683 15.0409 3.16683ZM15.8325 15.0418C15.8325 15.2518 15.7491 15.4532 15.6006 15.6016C15.4522 15.7501 15.2508 15.8335 15.0409 15.8335H3.95752C3.74756 15.8335 3.54619 15.7501 3.39773 15.6016C3.24926 15.4532 3.16585 15.2518 3.16585 15.0418V9.50016H15.8325V15.0418ZM15.8325 7.91683H3.16585V5.54183C3.16585 5.33187 3.24926 5.1305 3.39773 4.98204C3.54619 4.83357 3.74756 4.75016 3.95752 4.75016H5.54085V5.54183C5.54085 5.75179 5.62426 5.95316 5.77273 6.10162C5.92119 6.25009 6.12256 6.3335 6.33252 6.3335C6.54248 6.3335 6.74385 6.25009 6.89231 6.10162C7.04078 5.95316 7.12419 5.75179 7.12419 5.54183V4.75016H11.8742V5.54183C11.8742 5.75179 11.9576 5.95316 12.1061 6.10162C12.2545 6.25009 12.4559 6.3335 12.6659 6.3335C12.8758 6.3335 13.0772 6.25009 13.2256 6.10162C13.3741 5.95316 13.4575 5.75179 13.4575 5.54183V4.75016H15.0409C15.2508 4.75016 15.4522 4.83357 15.6006 4.98204C15.7491 5.1305 15.8325 5.33187 15.8325 5.54183V7.91683Z" fill="#898989"/>
  </symbol>
  <symbol id="ellipsis-vertical" viewBox="0 0 3 12" fill="none">
    <circle cx="1.7065" cy="1.79341" r="1.29341" fill="#898989"/>
    <circle cx="1.7065" cy="6.14107" r="1.29341" fill="#898989"/>
    <circle cx="1.7065" cy="10.4907" r="1.29341" fill="#898989"/>
  </symbol>
  <symbol id="left-arrow" viewBox="0 0 19 17" fill="none" xmlns="http://www.w3.org/2000/svg">
    <path fill-rule="evenodd" clip-rule="evenodd" d="M0.356659 7.50336C-0.118886 7.98925 -0.118886 8.76612 0.356659 9.25201L7.33262 16.3797C7.8155 16.8731 8.60691 16.8816 9.10028 16.3987C9.59366 15.9158 9.60218 15.1244 9.1193 14.631L4.22268 9.62793H17.3436C18.0339 9.62793 18.5936 9.06829 18.5936 8.37793C18.5936 7.68757 18.0339 7.12793 17.3436 7.12793H4.22221L9.1193 2.12432C9.60218 1.63095 9.59366 0.839535 9.10028 0.35666C8.6069 -0.126216 7.81549 -0.117702 7.33262 0.375676L0.356659 7.50336Z" fill="black"/>
  </symbol>
  <symbol id="middle-dot" viewBox="0 0 5 5" fill="none">
    <ellipse cx="2.49987" cy="2.50049" rx="1.5194" ry="1.52002" fill="#484848"/>
  </symbol>
  
  <!--  -->
  <symbol id="check-complete-star" viewBox="0 0 195 206" fill="none">
    <path d="M32.8458 68.1477C33.4305 51.2181 51.4896 40.7565 66.3941 48.7132L77.7738 54.7882C84.4796 58.3681 92.5204 58.3681 99.2262 54.7882L110.606 48.7132C125.51 40.7565 143.57 51.2181 144.154 68.1477L144.601 81.0736C144.864 88.6905 148.884 95.6776 155.327 99.7146L166.26 106.565C180.58 115.538 180.58 136.462 166.26 145.435L155.327 152.285C148.884 156.322 144.864 163.31 144.601 170.926L144.154 183.852C143.57 200.782 125.51 211.244 110.606 203.287L99.2262 197.212C92.5204 193.632 84.4796 193.632 77.7738 197.212L66.3941 203.287C51.4896 211.244 33.4305 200.782 32.8458 183.852L32.3993 170.926C32.1363 163.31 28.1158 156.322 21.6731 152.285L10.7399 145.435C-3.57996 136.462 -3.57995 115.538 10.7399 106.565L21.6732 99.7146C28.1158 95.6776 32.1363 88.6905 32.3993 81.0736L32.8458 68.1477Z" fill="url(#paint0_radial_1771_9854)"/>
    <path d="M64 125.138L82.697 144.5L113 109.5" stroke="white" stroke-width="6" stroke-linecap="round" stroke-linejoin="round"/>
    <path d="M154.586 6L140 33.8036M189 20.1102L159.63 46" stroke="url(#paint1_radial_1771_9854)" stroke-width="12" stroke-linecap="round" stroke-linejoin="round"/>
    <defs>
      <radialGradient id="paint0_radial_1771_9854" cx="0" cy="0" r="1" gradientUnits="userSpaceOnUse" gradientTransform="translate(137.777 140.207) rotate(92.571) scale(191.305 213.148)">
        <stop offset="0.29142" stop-color="#C5D2FF"/>
        <stop offset="1" stop-color="#82B5FF"/>
      </radialGradient>
      <radialGradient id="paint1_radial_1771_9854" cx="0" cy="0" r="1" gradientUnits="userSpaceOnUse" gradientTransform="translate(178.142 29.5519) rotate(92.8466) scale(47.8372 58.9936)">
        <stop offset="0.29142" stop-color="#C5D2FF"/>
        <stop offset="1" stop-color="#82B5FF"/>
      </radialGradient>
    </defs>
  </symbol>
  
  <symbol id="alert-star" viewBox="0 0 231 217" fill="none">
    <path d="M32.8458 79.1477C33.4305 62.2181 51.4896 51.7565 66.3941 59.7132L77.7738 65.7882C84.4796 69.3681 92.5204 69.3681 99.2262 65.7882L110.606 59.7132C125.51 51.7565 143.57 62.2181 144.154 79.1477L144.601 92.0736C144.864 99.6905 148.884 106.678 155.327 110.715L166.26 117.565C180.58 126.538 180.58 147.462 166.26 156.435L155.327 163.285C148.884 167.322 144.864 174.31 144.601 181.926L144.154 194.852C143.57 211.782 125.51 222.244 110.606 214.287L99.2262 208.212C92.5204 204.632 84.4796 204.632 77.7738 208.212L66.3941 214.287C51.4896 222.244 33.4305 211.782 32.8458 194.852L32.3993 181.926C32.1363 174.31 28.1158 167.322 21.6731 163.285L10.7399 156.435C-3.57996 147.462 -3.57995 126.538 10.7399 117.565L21.6732 110.715C28.1158 106.678 32.1363 99.6905 32.3993 92.0736L32.8458 79.1477Z" fill="url(#paint0_radial_1771_9900)"/>
    <path d="M176.433 34.4438C176.654 27.9894 183.49 24.0009 189.132 27.0344L193.44 29.3505C195.978 30.7153 199.022 30.7153 201.56 29.3505L205.868 27.0344C211.51 24.0009 218.346 27.9894 218.567 34.4438L218.736 39.3718C218.835 42.2758 220.357 44.9396 222.796 46.4787L226.935 49.0906C232.355 52.5115 232.355 60.4885 226.935 63.9094L222.796 66.5213C220.357 68.0604 218.835 70.7243 218.736 73.6282L218.567 78.5562C218.346 85.0106 211.51 88.9991 205.868 85.9656L201.56 83.6495C199.022 82.2847 195.978 82.2847 193.44 83.6495L189.132 85.9656C183.49 88.9991 176.654 85.0106 176.433 78.5562L176.264 73.6282C176.165 70.7243 174.643 68.0604 172.204 66.5213L168.065 63.9094C162.645 60.4885 162.645 52.5115 168.065 49.0906L172.204 46.4787C174.643 44.9396 176.165 42.2758 176.264 39.3718L176.433 34.4438Z" fill="url(#paint1_radial_1771_9900)"/>
    <path d="M130.608 5.12166C130.744 1.20668 134.927 -1.21257 138.379 0.62743L141.015 2.03228C142.569 2.86012 144.431 2.86012 145.985 2.03228L148.621 0.627428C152.073 -1.21257 156.256 1.20669 156.392 5.12167L156.495 8.11078C156.556 9.87218 157.487 11.4879 158.98 12.4215L161.512 14.0058C164.829 16.0807 164.829 20.9193 161.512 22.9942L158.98 24.5785C157.487 25.5121 156.556 27.1278 156.495 28.8892L156.392 31.8783C156.256 35.7933 152.073 38.2126 148.621 36.3726L145.985 34.9677C144.431 34.1399 142.569 34.1399 141.015 34.9677L138.379 36.3726C134.927 38.2126 130.744 35.7933 130.608 31.8783L130.505 28.8892C130.444 27.1278 129.513 25.5121 128.02 24.5785L125.488 22.9942C122.171 20.9192 122.171 16.0807 125.488 14.0058L128.02 12.4215C129.513 11.4879 130.444 9.87218 130.505 8.11077L130.608 5.12166Z" fill="url(#paint2_radial_1771_9900)"/>
    <path d="M84 145.025C84.0331 146.189 84.5218 147.295 85.3621 148.107C86.2024 148.919 87.3281 149.373 88.5 149.373C89.6719 149.373 90.7976 148.919 91.6379 148.107C92.4782 147.295 92.9669 146.189 93 145.025V116.349C92.9669 115.184 92.4782 114.078 91.6379 113.266C90.7976 112.454 89.6719 112 88.5 112C87.3281 112 86.2024 112.454 85.3621 113.266C84.5218 114.078 84.0331 115.184 84 116.349V145.025ZM84 157.527C84 159.987 86.025 162 88.5 162C90.975 162 93 159.987 93 157.527C93 155.066 90.975 153.053 88.5 153.053C87.308 153.058 86.1661 153.531 85.3233 154.369C84.4804 155.207 84.0047 156.342 84 157.527Z" fill="white"/>
    <defs>
      <radialGradient id="paint0_radial_1771_9900" cx="0" cy="0" r="1" gradientUnits="userSpaceOnUse" gradientTransform="translate(137.777 151.207) rotate(92.571) scale(191.305 213.148)">
        <stop offset="0.29142" stop-color="#C5D2FF"/>
        <stop offset="1" stop-color="#82B5FF"/>
      </radialGradient>
      <radialGradient id="paint1_radial_1771_9900" cx="0" cy="0" r="1" gradientUnits="userSpaceOnUse" gradientTransform="translate(216.153 61.9166) rotate(92.5527) scale(72.9341 80.6842)">
        <stop offset="0.29142" stop-color="#C5D2FF"/>
        <stop offset="1" stop-color="#82B5FF"/>
      </radialGradient>
      <radialGradient id="paint2_radial_1771_9900" cx="0" cy="0" r="1" gradientUnits="userSpaceOnUse" gradientTransform="translate(154.914 21.7855) rotate(92.5753) scale(44.2395 49.3731)">
        <stop offset="0.29142" stop-color="#C5D2FF"/>
        <stop offset="1" stop-color="#82B5FF"/>
      </radialGradient>
    </defs>
  </symbol>

  <symbol id="mail-delivery-success-star" viewBox="0 0 220 217" fill="none">
    <path d="M32.8458 79.1477C33.4305 62.2181 51.4896 51.7565 66.3941 59.7132L77.7738 65.7882C84.4796 69.3681 92.5204 69.3681 99.2262 65.7882L110.606 59.7132C125.51 51.7565 143.57 62.2181 144.154 79.1477L144.601 92.0736C144.864 99.6905 148.884 106.678 155.327 110.715L166.26 117.565C180.58 126.538 180.58 147.462 166.26 156.435L155.327 163.285C148.884 167.322 144.864 174.31 144.601 181.926L144.154 194.852C143.57 211.782 125.51 222.244 110.606 214.287L99.2262 208.212C92.5204 204.632 84.4796 204.632 77.7738 208.212L66.3941 214.287C51.4896 222.244 33.4305 211.782 32.8458 194.852L32.3993 181.926C32.1363 174.31 28.1158 167.322 21.6731 163.285L10.7399 156.435C-3.57996 147.462 -3.57995 126.538 10.7399 117.565L21.6732 110.715C28.1158 106.678 32.1363 99.6905 32.3993 92.0736L32.8458 79.1477Z" fill="url(#paint0_radial_1771_9934)"/>
    <path d="M64 135.638L82.697 155L113 120" stroke="white" stroke-width="6" stroke-linecap="round" stroke-linejoin="round"/>
    <path d="M130.608 5.12166C130.744 1.20668 134.927 -1.21257 138.379 0.62743L141.015 2.03228C142.569 2.86012 144.431 2.86012 145.985 2.03228L148.621 0.627428C152.073 -1.21257 156.256 1.20669 156.392 5.12167L156.495 8.11078C156.556 9.87218 157.487 11.4879 158.98 12.4215L161.512 14.0058C164.829 16.0807 164.829 20.9193 161.512 22.9942L158.98 24.5785C157.487 25.5121 156.556 27.1278 156.495 28.8892L156.392 31.8783C156.256 35.7933 152.073 38.2126 148.621 36.3726L145.985 34.9677C144.431 34.1399 142.569 34.1399 141.015 34.9677L138.379 36.3726C134.927 38.2126 130.744 35.7933 130.608 31.8783L130.505 28.8892C130.444 27.1278 129.513 25.5121 128.02 24.5785L125.488 22.9942C122.171 20.9192 122.171 16.0807 125.488 14.0058L128.02 12.4215C129.513 11.4879 130.444 9.87218 130.505 8.11077L130.608 5.12166Z" fill="url(#paint1_radial_1771_9934)"/>
    <path d="M170.714 39.7143L187.293 52.2326L187.299 52.238C189.139 53.587 190.059 54.2629 191.069 54.5234C191.961 54.7542 192.897 54.7542 193.788 54.5234C194.798 54.2629 195.721 53.587 197.567 52.2326C197.567 52.2326 208.199 44.0734 214.143 39.7143M168 66.3143V45.6857C168 42.6457 168 41.1257 168.592 39.964C169.113 38.9407 169.941 38.1129 170.964 37.5917C172.126 37 173.646 37 176.686 37H208.171C211.211 37 212.731 37 213.89 37.5917C214.914 38.1129 215.744 38.9407 216.265 39.964C216.857 41.123 216.857 42.643 216.857 45.6776V66.3251C216.857 69.3597 216.857 70.8743 216.265 72.036C215.744 73.0578 214.913 73.8883 213.89 74.4083C212.731 75 211.214 75 208.18 75H176.678C173.643 75 172.123 75 170.964 74.4083C169.943 73.8878 169.112 73.0574 168.592 72.036C168 70.8743 168 69.3543 168 66.3143Z" stroke="url(#paint2_radial_1771_9934)" stroke-width="5.42857" stroke-linecap="round" stroke-linejoin="round"/>
    <defs>
      <radialGradient id="paint0_radial_1771_9934" cx="0" cy="0" r="1" gradientUnits="userSpaceOnUse" gradientTransform="translate(137.777 151.207) rotate(92.571) scale(191.305 213.148)">
        <stop offset="0.29142" stop-color="#C5D2FF"/>
        <stop offset="1" stop-color="#82B5FF"/>
      </radialGradient>
      <radialGradient id="paint1_radial_1771_9934" cx="0" cy="0" r="1" gradientUnits="userSpaceOnUse" gradientTransform="translate(154.914 21.7855) rotate(92.5753) scale(44.2395 49.3731)">
        <stop offset="0.29142" stop-color="#C5D2FF"/>
        <stop offset="1" stop-color="#82B5FF"/>
      </radialGradient>
      <radialGradient id="paint2_radial_1771_9934" cx="0" cy="0" r="1" gradientUnits="userSpaceOnUse" gradientTransform="translate(206.03 59.3743) rotate(92.9874) scale(45.4511 58.8142)">
        <stop offset="0.29142" stop-color="#C5D2FF"/>
        <stop offset="1" stop-color="#82B5FF"/>
      </radialGradient>
    </defs>
  </symbol>
  
  <symbol id="no-post-star" viewBox="0 0 220 183" fill="none">
    <path d="M32.8458 45.1477C33.4305 28.2181 51.4896 17.7565 66.3941 25.7132L77.7738 31.7882C84.4796 35.3681 92.5204 35.3681 99.2262 31.7882L110.606 25.7132C125.51 17.7565 143.57 28.2181 144.154 45.1477L144.601 58.0736C144.864 65.6905 148.884 72.6776 155.327 76.7146L166.26 83.5655C180.58 92.5384 180.58 113.462 166.26 122.435L155.327 129.285C148.884 133.322 144.864 140.31 144.601 147.926L144.154 160.852C143.57 177.782 125.51 188.244 110.606 180.287L99.2262 174.212C92.5204 170.632 84.4796 170.632 77.7738 174.212L66.3941 180.287C51.4896 188.244 33.4305 177.782 32.8458 160.852L32.3993 147.926C32.1363 140.31 28.1158 133.322 21.6731 129.285L10.7399 122.435C-3.57996 113.462 -3.57995 92.5384 10.7399 83.5655L21.6732 76.7146C28.1158 72.6776 32.1363 65.6905 32.3993 58.0736L32.8458 45.1477Z" fill="url(#paint0_radial_1929_9992)"/>
    <path d="M62.5 87H114.5" stroke="white" stroke-width="6" stroke-linecap="round"/>
    <path fill-rule="evenodd" clip-rule="evenodd" d="M211.388 2.00353C213.341 0.050907 216.507 0.050907 218.459 2.00353C220.412 3.95615 220.412 7.12197 218.459 9.0746L204.533 23.001L218.459 36.9274C220.412 38.88 220.412 42.0458 218.459 43.9984C216.507 45.951 213.341 45.951 211.388 43.9984L197.462 30.072L183.536 43.9984C181.583 45.951 178.417 45.951 176.464 43.9984C174.512 42.0458 174.512 38.88 176.464 36.9274L190.391 23.001L176.464 9.0746C174.512 7.12197 174.512 3.95615 176.464 2.00353C178.417 0.050907 181.583 0.050907 183.536 2.00353L197.462 15.9299L211.388 2.00353Z" fill="url(#paint1_radial_1929_9992)"/>
    <path d="M62.5 103H114.5" stroke="white" stroke-width="6" stroke-linecap="round"/>
    <path d="M62.5 119H114.5" stroke="white" stroke-width="6" stroke-linecap="round"/>
    <defs>
      <radialGradient id="paint0_radial_1929_9992" cx="0" cy="0" r="1" gradientUnits="userSpaceOnUse" gradientTransform="translate(137.777 117.207) rotate(92.571) scale(191.305 213.148)">
        <stop offset="0.29142" stop-color="#C5D2FF"/>
        <stop offset="1" stop-color="#82B5FF"/>
      </radialGradient>
      <radialGradient id="paint1_radial_1929_9992" cx="0" cy="0" r="1" gradientUnits="userSpaceOnUse" gradientTransform="translate(209.969 26.9901) rotate(92.3244) scale(53.7037 54.1084)">
        <stop offset="0.29142" stop-color="#C5D2FF"/>
        <stop offset="1" stop-color="#82B5FF"/>
      </radialGradient>
    </defs>
  </symbol>

  <symbol id="no-comment-star" viewBox="0 0 220 183" fill="none">
    <path d="M32.8458 45.1477C33.4305 28.2181 51.4896 17.7565 66.3941 25.7132L77.7738 31.7882C84.4796 35.3681 92.5204 35.3681 99.2262 31.7882L110.606 25.7132C125.51 17.7565 143.57 28.2181 144.154 45.1477L144.601 58.0736C144.864 65.6905 148.884 72.6776 155.327 76.7146L166.26 83.5655C180.58 92.5384 180.58 113.462 166.26 122.435L155.327 129.285C148.884 133.322 144.864 140.31 144.601 147.926L144.154 160.852C143.57 177.782 125.51 188.244 110.606 180.287L99.2262 174.212C92.5204 170.632 84.4796 170.632 77.7738 174.212L66.3941 180.287C51.4896 188.244 33.4305 177.782 32.8458 160.852L32.3993 147.926C32.1363 140.31 28.1158 133.322 21.6731 129.285L10.7399 122.435C-3.57996 113.462 -3.57995 92.5384 10.7399 83.5655L21.6732 76.7146C28.1158 72.6776 32.1363 65.6905 32.3993 58.0736L32.8458 45.1477Z" fill="url(#paint0_radial_1929_9993)"/>
    <path d="M68.311 82.5H108.689C111.45 82.5 113.689 84.7386 113.689 87.5V109.34C113.689 110.691 113.143 111.984 112.174 112.925L96.2371 128.42C94.9693 129.652 92.843 128.754 92.843 126.986V116.452C92.843 113.691 90.6044 111.452 87.843 111.452H68.311C65.5496 111.452 63.311 109.214 63.311 106.452V87.5C63.311 84.7386 65.5496 82.5 68.311 82.5Z" fill="white"/>
    <path fill-rule="evenodd" clip-rule="evenodd" d="M211.388 2.00353C213.341 0.0509071 216.507 0.0509071 218.459 2.00353C220.412 3.95615 220.412 7.12197 218.459 9.0746L204.533 23.001L218.459 36.9274C220.412 38.88 220.412 42.0458 218.459 43.9984C216.507 45.951 213.341 45.951 211.388 43.9984L197.462 30.072L183.536 43.9984C181.583 45.951 178.417 45.951 176.464 43.9984C174.512 42.0458 174.512 38.88 176.464 36.9274L190.391 23.001L176.464 9.0746C174.512 7.12197 174.512 3.95615 176.464 2.00353C178.417 0.0509071 181.583 0.0509071 183.536 2.00353L197.462 15.9299L211.388 2.00353Z" fill="url(#paint1_radial_1929_9993)"/>
    <defs>
      <radialGradient id="paint0_radial_1929_9993" cx="0" cy="0" r="1" gradientUnits="userSpaceOnUse" gradientTransform="translate(137.777 117.207) rotate(92.571) scale(191.305 213.148)">
        <stop offset="0.29142" stop-color="#C5D2FF"/>
        <stop offset="1" stop-color="#82B5FF"/>
      </radialGradient>
      <radialGradient id="paint1_radial_1929_9993" cx="0" cy="0" r="1" gradientUnits="userSpaceOnUse" gradientTransform="translate(209.969 26.9901) rotate(92.3244) scale(53.7037 54.1084)">
        <stop offset="0.29142" stop-color="#C5D2FF"/>
        <stop offset="1" stop-color="#82B5FF"/>
      </radialGradient>
    </defs>
  </symbol>

  <symbol id="no-review-star" viewBox="0 0 220 183" fill="none">
    <path d="M32.8458 45.1477C33.4305 28.2181 51.4896 17.7565 66.3941 25.7132L77.7738 31.7882C84.4796 35.3681 92.5204 35.3681 99.2262 31.7882L110.606 25.7132C125.51 17.7565 143.57 28.2181 144.154 45.1477L144.601 58.0736C144.864 65.6905 148.884 72.6776 155.327 76.7146L166.26 83.5655C180.58 92.5384 180.58 113.462 166.26 122.435L155.327 129.285C148.884 133.322 144.864 140.31 144.601 147.926L144.154 160.852C143.57 177.782 125.51 188.244 110.606 180.287L99.2262 174.212C92.5204 170.632 84.4796 170.632 77.7738 174.212L66.3941 180.287C51.4896 188.244 33.4305 177.782 32.8458 160.852L32.3993 147.926C32.1363 140.31 28.1158 133.322 21.6731 129.285L10.7399 122.435C-3.57996 113.462 -3.57995 92.5384 10.7399 83.5655L21.6732 76.7146C28.1158 72.6776 32.1363 65.6905 32.3993 58.0736L32.8458 45.1477Z" fill="url(#paint0_radial_1924_9854)"/>
    <path fill-rule="evenodd" clip-rule="evenodd" d="M211.388 2.00353C213.341 0.050907 216.507 0.050907 218.459 2.00353C220.412 3.95615 220.412 7.12197 218.459 9.0746L204.533 23.001L218.459 36.9274C220.412 38.88 220.412 42.0458 218.459 43.9984C216.507 45.951 213.341 45.951 211.388 43.9984L197.462 30.072L183.536 43.9984C181.583 45.951 178.417 45.951 176.464 43.9984C174.512 42.0458 174.512 38.88 176.464 36.9274L190.391 23.001L176.464 9.0746C174.512 7.12197 174.512 3.95615 176.464 2.00353C178.417 0.050907 181.583 0.050907 183.536 2.00353L197.462 15.9299L211.388 2.00353Z" fill="url(#paint1_radial_1924_9854)"/>
    <rect width="25.0991" height="41.8318" rx="3" transform="matrix(-0.707107 -0.707107 0.701633 -0.712539 82.4722 126.602)" fill="white"/>
    <rect width="25.0991" height="8.36635" rx="3" transform="matrix(-0.707107 -0.707107 0.701633 -0.712539 116.112 92.7793)" fill="white"/>
    <path d="M65.5765 126.005C65.3449 125.98 65.1614 125.797 65.1348 125.564L63.8178 114.028C63.764 113.556 64.3292 113.28 64.6634 113.614L77.4374 126.388C77.7716 126.722 77.5016 127.294 77.0335 127.243L65.5765 126.005Z" fill="white"/>
    <defs>
      <radialGradient id="paint0_radial_1924_9854" cx="0" cy="0" r="1" gradientUnits="userSpaceOnUse" gradientTransform="translate(137.777 117.207) rotate(92.571) scale(191.305 213.148)">
        <stop offset="0.29142" stop-color="#C5D2FF"/>
        <stop offset="1" stop-color="#82B5FF"/>
      </radialGradient>
      <radialGradient id="paint1_radial_1924_9854" cx="0" cy="0" r="1" gradientUnits="userSpaceOnUse" gradientTransform="translate(209.969 26.9901) rotate(92.3244) scale(53.7037 54.1084)">
        <stop offset="0.29142" stop-color="#C5D2FF"/>
        <stop offset="1" stop-color="#82B5FF"/>
      </radialGradient>
    </defs>
  </symbol>
</svg>
