<svg xmlns="http://www.w3.org/2000/svg" xmlns:xlink="http://www.w3.org/1999/xlink">
  <!-- tapBar 부분만 희원언니가 따로 작업해줘야 함. (id를 다른 곳과 공유해서 쓰고 있는 상태!) -->
  <svg id="home" stroke="none" viewBox="0 0 25 24">
    <path d="M11.831 6.29207C12.2113 5.94979 12.7887 5.94979 13.169 6.29207L17.169 9.89207C17.3797 10.0817 17.5 10.3519 17.5 10.6354V17C17.5 17.5523 17.0523 18 16.5 18C15.9477 18 15.5 17.5523 15.5 17V13C15.5 12.4477 15.0523 12 14.5 12H10.5C9.94772 12 9.5 12.4477 9.5 13V17C9.5 17.5523 9.05228 18 8.5 18C7.94772 18 7.5 17.5523 7.5 17V10.6354C7.5 10.3519 7.62032 10.0817 7.83104 9.89207L11.831 6.29207ZM13.169 3.60207C12.7887 3.25979 12.2113 3.25979 11.831 3.60207L4.1115 10.5497C3.54475 11.0597 3.90557 12 4.66804 12C5.12752 12 5.5 12.3725 5.5 12.832V19C5.5 19.5523 5.94772 20 6.5 20H10.5C11.0523 20 11.5 19.5523 11.5 19V15C11.5 14.4477 11.9477 14 12.5 14C13.0523 14 13.5 14.4477 13.5 15V19C13.5 19.5523 13.9477 20 14.5 20H18.5C19.0523 20 19.5 19.5523 19.5 19V12.832C19.5 12.3725 19.8725 12 20.332 12C21.0944 12 21.4552 11.0597 20.8885 10.5497L13.169 3.60207Z" />
  </svg>
  <symbol id="board" stroke="none" viewBox="0 0 24 24">
    <path d="M6 22C5.45 22 4.97933 21.8043 4.588 21.413C4.19667 21.0217 4.00067 20.5507 4 20V4C4 3.45 4.196 2.97933 4.588 2.588C4.98 2.19667 5.45067 2.00067 6 2H14L20 8V20C20 20.55 19.8043 21.021 19.413 21.413C19.0217 21.805 18.5507 22.0007 18 22H6ZM13 9V4H6V20H18V9H13Z"/>
    <path fill-rule="evenodd" clip-rule="evenodd" d="M8.7619 11.7C8.7619 11.5143 8.82211 11.3363 8.92927 11.205C9.03644 11.0738 9.18178 11 9.33333 11H14.6667C14.8182 11 14.9636 11.0738 15.0707 11.205C15.1779 11.3363 15.2381 11.5143 15.2381 11.7C15.2381 11.8857 15.1779 12.0637 15.0707 12.195C14.9636 12.3263 14.8182 12.4 14.6667 12.4H9.33333C9.18178 12.4 9.03644 12.3263 8.92927 12.195C8.82211 12.0637 8.7619 11.8857 8.7619 11.7ZM8 14.5C8 14.3143 8.0602 14.1363 8.16737 14.005C8.27453 13.8738 8.41988 13.8 8.57143 13.8H15.4286C15.5801 13.8 15.7255 13.8738 15.8326 14.005C15.9398 14.1363 16 14.3143 16 14.5C16 14.6857 15.9398 14.8637 15.8326 14.995C15.7255 15.1263 15.5801 15.2 15.4286 15.2H8.57143C8.41988 15.2 8.27453 15.1263 8.16737 14.995C8.0602 14.8637 8 14.6857 8 14.5ZM8.7619 17.3C8.7619 17.1143 8.82211 16.9363 8.92927 16.805C9.03644 16.6738 9.18178 16.6 9.33333 16.6H14.6667C14.8182 16.6 14.9636 16.6738 15.0707 16.805C15.1779 16.9363 15.2381 17.1143 15.2381 17.3C15.2381 17.4857 15.1779 17.6637 15.0707 17.795C14.9636 17.9263 14.8182 18 14.6667 18H9.33333C9.18178 18 9.03644 17.9263 8.92927 17.795C8.82211 17.6637 8.7619 17.4857 8.7619 17.3Z" />
  </symbol>
  <symbol id="exam-review" fill="none" viewBox="0 0 25 24">
    <path d="M12.5 19.0007C11.1318 18.2108 9.57983 17.7949 8 17.7949C6.42017 17.7949 4.86817 18.2108 3.5 19.0007V6.00069C4.86817 5.21078 6.42017 4.79492 8 4.79492C9.57983 4.79492 11.1318 5.21078 12.5 6.00069M12.5 19.0007C13.8682 18.2108 15.4202 17.7949 17 17.7949C18.5798 17.7949 20.1318 18.2108 21.5 19.0007V6.00069C20.1318 5.21078 18.5798 4.79492 17 4.79492C15.4202 4.79492 13.8682 5.21078 12.5 6.00069M12.5 19.0007V6.00069" stroke-width="2" stroke-linecap="round" stroke-linejoin="round"/>
  </symbol>
  <symbol id="alert" fill="none" viewBox="0 0 25 24">
    <path d="M9.5 17V18C9.5 18.7956 9.81607 19.5587 10.3787 20.1213C10.9413 20.6839 11.7044 21 12.5 21C13.2956 21 14.0587 20.6839 14.6213 20.1213C15.1839 19.5587 15.5 18.7956 15.5 18V17M10.5 5C10.5 4.46957 10.7107 3.96086 11.0858 3.58579C11.4609 3.21071 11.9696 3 12.5 3C13.0304 3 13.5391 3.21071 13.9142 3.58579C14.2893 3.96086 14.5 4.46957 14.5 5C15.6484 5.54303 16.6274 6.38833 17.3321 7.4453C18.0367 8.50227 18.4404 9.73107 18.5 11V14C18.5753 14.6217 18.7954 15.2171 19.1428 15.7381C19.4902 16.2592 19.9551 16.6914 20.5 17H4.5C5.04494 16.6914 5.50981 16.2592 5.85719 15.7381C6.20457 15.2171 6.42474 14.6217 6.5 14V11C6.55956 9.73107 6.9633 8.50227 7.66795 7.4453C8.3726 6.38833 9.35159 5.54303 10.5 5Z" stroke-width="2" stroke-linecap="round" stroke-linejoin="round"/>
  </symbol>
  <symbol id="my-page" stroke="none" viewBox="0 0 25 24">
    <path d="M12.5 4C13.5609 4 14.5783 4.42143 15.3284 5.17157C16.0786 5.92172 16.5 6.93913 16.5 8C16.5 9.06087 16.0786 10.0783 15.3284 10.8284C14.5783 11.5786 13.5609 12 12.5 12C11.4391 12 10.4217 11.5786 9.67157 10.8284C8.92143 10.0783 8.5 9.06087 8.5 8C8.5 6.93913 8.92143 5.92172 9.67157 5.17157C10.4217 4.42143 11.4391 4 12.5 4ZM12.5 6C11.9696 6 11.4609 6.21071 11.0858 6.58579C10.7107 6.96086 10.5 7.46957 10.5 8C10.5 8.53043 10.7107 9.03914 11.0858 9.41421C11.4609 9.78929 11.9696 10 12.5 10C13.0304 10 13.5391 9.78929 13.9142 9.41421C14.2893 9.03914 14.5 8.53043 14.5 8C14.5 7.46957 14.2893 6.96086 13.9142 6.58579C13.5391 6.21071 13.0304 6 12.5 6ZM12.5 13C15.17 13 20.5 14.33 20.5 17V20H4.5V17C4.5 14.33 9.83 13 12.5 13ZM12.5 14.9C9.53 14.9 6.4 16.36 6.4 17V18.1H18.6V17C18.6 16.36 15.47 14.9 12.5 14.9Z" />
  </symbol>

  <!-- 아이콘 일괄 업데이트 -->
  <symbol id='logo' viewBox="0 0 109 20" fill="none">
    <path fill-rule="evenodd" clip-rule="evenodd" d="M92.5359 17.2872C90.8737 18.6317 88.7573 19.437 86.4529 19.437C81.1071 19.437 76.7734 15.1034 76.7734 9.75757C76.7734 4.41176 81.1071 0.078125 86.4529 0.078125C88.7573 0.078125 90.8737 0.883427 92.5359 2.22797C94.1981 0.883427 96.3144 0.078125 98.6189 0.078125C103.965 0.078125 108.298 4.41176 108.298 9.75757C108.298 15.1034 103.965 19.437 98.6189 19.437C96.3144 19.437 94.1981 18.6317 92.5359 17.2872Z" fill="url(#paint0_radial_946_7230)"/>
    <path d="M86.4104 16.5578C82.3302 16.5578 79.4531 13.6807 79.4531 9.75743C79.4531 5.83412 82.3302 2.95703 86.4104 2.95703C90.4907 2.95703 93.3155 5.83412 93.3155 9.75743V10.856H82.7225C83.141 12.7391 84.5796 13.733 86.4104 13.733C87.7967 13.733 88.8167 13.3407 89.4706 12.5037H92.7924C91.8246 14.9623 89.4706 16.5578 86.4104 16.5578ZM82.801 8.37119H90.0199C89.5229 6.64494 88.1105 5.78181 86.4104 5.78181C84.658 5.78181 83.298 6.67109 82.801 8.37119Z" fill="#00368E"/>
    <path d="M73.3778 16.5578C70.0822 16.5578 68.016 14.8054 67.9375 12.3991H71.0761C71.1023 13.2622 71.8608 13.8377 73.3778 13.8377C74.9733 13.8377 75.6533 13.1838 75.6533 12.3991C75.6533 11.4052 74.5025 11.2744 73.1163 11.0914C71.1285 10.8298 68.199 10.4898 68.199 7.32498C68.199 4.68329 70.213 2.95703 73.3255 2.95703C76.4903 2.95703 78.4258 4.7356 78.5043 7.01111H75.4179C75.3395 6.22645 74.6071 5.67719 73.3778 5.67719C72.0177 5.67719 71.3377 6.33107 71.3377 7.08958C71.3377 8.08348 72.5147 8.24042 73.9009 8.4235C75.6272 8.6589 78.792 8.99892 78.792 12.216C78.792 14.8316 76.6734 16.5578 73.3778 16.5578Z" fill="#00368E"/>
    <path d="M60.3128 16.5578C56.2326 16.5578 53.3555 13.6807 53.3555 9.75743C53.3555 5.83412 56.2326 2.95703 60.3128 2.95703C64.393 2.95703 67.2701 5.83412 67.2701 9.75743C67.2701 13.6807 64.393 16.5578 60.3128 16.5578ZM60.3128 13.6546C62.5883 13.6546 64.1053 12.0329 64.1053 9.75743C64.1053 7.48191 62.5883 5.86028 60.3128 5.86028C58.0373 5.86028 56.4941 7.48191 56.4941 9.75743C56.4941 12.0329 58.0373 13.6546 60.3128 13.6546Z" fill="#00368E"/>
    <path d="M41.749 16.2178V8.71121C41.749 4.81406 44.0507 2.95703 47.4247 2.95703C50.7988 2.95703 53.0743 4.81406 53.0743 8.76352V8.84199H49.988V8.71121C49.988 6.61878 48.9417 5.86028 47.4247 5.86028C45.9077 5.86028 44.8615 6.61878 44.8615 8.71121V16.2178H41.749Z" fill="#00368E"/>
    <path d="M33.6273 16.5578C29.547 16.5578 26.6699 13.6807 26.6699 9.75743C26.6699 5.83412 29.547 2.95703 33.6273 2.95703C37.7075 2.95703 40.5846 5.83412 40.5846 9.75743C40.5846 13.6807 37.7075 16.5578 33.6273 16.5578ZM33.6273 13.6546C35.9028 13.6546 37.4198 12.0329 37.4198 9.75743C37.4198 7.48191 35.9028 5.86028 33.6273 5.86028C31.3517 5.86028 29.8086 7.48191 29.8086 9.75743C29.8086 12.0329 31.3517 13.6546 33.6273 13.6546Z" fill="#00368E"/>
    <path d="M12.7393 16.2178V9.49588C12.7393 5.18024 15.3025 2.95703 19.1212 2.95703C22.9399 2.95703 25.5031 5.15408 25.5031 9.49588V16.2178H22.3906V9.49588C22.3906 7.03727 21.0828 5.86028 19.1212 5.86028C17.1595 5.86028 15.8517 7.03727 15.8517 9.49588V16.2178H12.7393Z" fill="#00368E"/>
    <path d="M6.14051 16.5578C2.84494 16.5578 0.778661 14.8054 0.700195 12.3991H3.83884C3.865 13.2622 4.6235 13.8377 6.14051 13.8377C7.73599 13.8377 8.41603 13.1838 8.41603 12.3991C8.41603 11.4052 7.26519 11.2744 5.87896 11.0914C3.89115 10.8298 0.961749 10.4898 0.961749 7.32498C0.961749 4.68329 2.97571 2.95703 6.0882 2.95703C9.253 2.95703 11.1885 4.7356 11.267 7.01111H8.18063C8.10217 6.22645 7.36982 5.67719 6.14051 5.67719C4.78043 5.67719 4.10039 6.33107 4.10039 7.08958C4.10039 8.08348 5.27739 8.24042 6.66362 8.4235C8.38987 8.6589 11.5547 8.99892 11.5547 12.216C11.5547 14.8316 9.43609 16.5578 6.14051 16.5578Z" fill="#00368E"/>
    <defs>
    <radialGradient id="paint0_radial_946_7230" cx="0" cy="0" r="1" gradientUnits="userSpaceOnUse" gradientTransform="translate(101.312 11.4766) rotate(93.7817) scale(23.1738 37.9186)">
    <stop offset="0.29142" stop-color="#C5D2FF"/>
    <stop offset="1" stop-color="#82B5FF"/>
    </radialGradient>
    </defs>
  </symbol>
  <symbol id="home" viewBox="0 0 24 24" fill="none">
    <path d="M11.331 6.29207C11.7113 5.94979 12.2887 5.94979 12.669 6.29207L16.669 9.89207C16.8797 10.0817 17 10.3519 17 10.6354V17C17 17.5523 16.5523 18 16 18C15.4477 18 15 17.5523 15 17V13C15 12.4477 14.5523 12 14 12H10C9.44772 12 9 12.4477 9 13V17C9 17.5523 8.55228 18 8 18C7.44772 18 7 17.5523 7 17V10.6354C7 10.3519 7.12032 10.0817 7.33104 9.89207L11.331 6.29207ZM12.669 3.60207C12.2887 3.25979 11.7113 3.25979 11.331 3.60207L3.6115 10.5497C3.04475 11.0597 3.40557 12 4.16804 12C4.62752 12 5 12.3725 5 12.832V19C5 19.5523 5.44772 20 6 20H10C10.5523 20 11 19.5523 11 19V15C11 14.4477 11.4477 14 12 14C12.5523 14 13 14.4477 13 15V19C13 19.5523 13.4477 20 14 20H18C18.5523 20 19 19.5523 19 19V12.832C19 12.3725 19.3725 12 19.832 12C20.5944 12 20.9552 11.0597 20.3885 10.5497L12.669 3.60207Z" fill="#BFD7EC"/>
  </symbol>
  <symbol id="home-fill" viewBox="0 0 24 24">
    <path d="M9 20C9.55228 20 10 19.5523 10 19V15C10 14.4477 10.4477 14 11 14H13C13.5523 14 14 14.4477 14 15V19C14 19.5523 14.4477 20 15 20H18C18.5523 20 19 19.5523 19 19V12.832C19 12.3725 19.3725 12 19.832 12C20.5944 12 20.9552 11.0597 20.3885 10.5497L12.669 3.60207C12.2887 3.25979 11.7113 3.25979 11.331 3.60207L3.6115 10.5497C3.04475 11.0597 3.40557 12 4.16804 12C4.62752 12 5 12.3725 5 12.832V19C5 19.5523 5.44772 20 6 20H9Z" fill="#00368E"/>
  </symbol>
  <symbol id="board" viewBox="0 0 24 24" fill="none">
    <path d="M6 22C5.45 22 4.97933 21.8043 4.588 21.413C4.19667 21.0217 4.00067 20.5507 4 20V4C4 3.45 4.196 2.97933 4.588 2.588C4.98 2.19667 5.45067 2.00067 6 2H14L20 8V20C20 20.55 19.8043 21.021 19.413 21.413C19.0217 21.805 18.5507 22.0007 18 22H6ZM13 9V4H6V20H18V9H13Z" fill="#BFD7EC"/>
    <path fill-rule="evenodd" clip-rule="evenodd" d="M8.7619 11.7C8.7619 11.5143 8.82211 11.3363 8.92927 11.205C9.03644 11.0738 9.18178 11 9.33333 11H14.6667C14.8182 11 14.9636 11.0738 15.0707 11.205C15.1779 11.3363 15.2381 11.5143 15.2381 11.7C15.2381 11.8857 15.1779 12.0637 15.0707 12.195C14.9636 12.3263 14.8182 12.4 14.6667 12.4H9.33333C9.18178 12.4 9.03644 12.3263 8.92927 12.195C8.82211 12.0637 8.7619 11.8857 8.7619 11.7ZM8 14.5C8 14.3143 8.0602 14.1363 8.16737 14.005C8.27453 13.8738 8.41988 13.8 8.57143 13.8H15.4286C15.5801 13.8 15.7255 13.8738 15.8326 14.005C15.9398 14.1363 16 14.3143 16 14.5C16 14.6857 15.9398 14.8637 15.8326 14.995C15.7255 15.1263 15.5801 15.2 15.4286 15.2H8.57143C8.41988 15.2 8.27453 15.1263 8.16737 14.995C8.0602 14.8637 8 14.6857 8 14.5ZM8.7619 17.3C8.7619 17.1143 8.82211 16.9363 8.92927 16.805C9.03644 16.6738 9.18178 16.6 9.33333 16.6H14.6667C14.8182 16.6 14.9636 16.6738 15.0707 16.805C15.1779 16.9363 15.2381 17.1143 15.2381 17.3C15.2381 17.4857 15.1779 17.6637 15.0707 17.795C14.9636 17.9263 14.8182 18 14.6667 18H9.33333C9.18178 18 9.03644 17.9263 8.92927 17.795C8.82211 17.6637 8.7619 17.4857 8.7619 17.3Z" fill="#BFD7EC"/>
  </symbol>
  <symbol id="board-fill" viewBox="0 0 24 24">
    <path fill-rule="evenodd" clip-rule="evenodd" d="M4.588 21.413C4.97933 21.8043 5.45 22 6 22H18C18.5507 22.0007 19.0217 21.805 19.413 21.413C19.8043 21.021 20 20.55 20 20V8L14 2H6C5.45067 2.00067 4.98 2.19667 4.588 2.588C4.196 2.97933 4 3.45 4 4V20C4.00067 20.5507 4.19667 21.0217 4.588 21.413ZM18 9H13V4L18 9ZM8.92927 11.205C8.82211 11.3363 8.7619 11.5143 8.7619 11.7C8.7619 11.8857 8.82211 12.0637 8.92927 12.195C9.03644 12.3263 9.18178 12.4 9.33333 12.4H14.6667C14.8182 12.4 14.9636 12.3263 15.0707 12.195C15.1779 12.0637 15.2381 11.8857 15.2381 11.7C15.2381 11.5143 15.1779 11.3363 15.0707 11.205C14.9636 11.0738 14.8182 11 14.6667 11H9.33333C9.18178 11 9.03644 11.0738 8.92927 11.205ZM8.16737 14.005C8.0602 14.1363 8 14.3143 8 14.5C8 14.6857 8.0602 14.8637 8.16737 14.995C8.27453 15.1263 8.41988 15.2 8.57143 15.2H15.4286C15.5801 15.2 15.7255 15.1263 15.8326 14.995C15.9398 14.8637 16 14.6857 16 14.5C16 14.3143 15.9398 14.1363 15.8326 14.005C15.7255 13.8738 15.5801 13.8 15.4286 13.8H8.57143C8.41988 13.8 8.27453 13.8738 8.16737 14.005ZM8.92927 16.805C8.82211 16.9363 8.7619 17.1143 8.7619 17.3C8.7619 17.4857 8.82211 17.6637 8.92927 17.795C9.03644 17.9263 9.18178 18 9.33333 18H14.6667C14.8182 18 14.9636 17.9263 15.0707 17.795C15.1779 17.6637 15.2381 17.4857 15.2381 17.3C15.2381 17.1143 15.1779 16.9363 15.0707 16.805C14.9636 16.6738 14.8182 16.6 14.6667 16.6H9.33333C9.18178 16.6 9.03644 16.6738 8.92927 16.805Z" fill="#00368E"/>
  </symbol>
  <symbol id="test" viewBox="0 0 20 17" fill="none">
    <path d="M10 16.0007C8.63183 15.2108 7.07983 14.7949 5.5 14.7949C3.92017 14.7949 2.36817 15.2108 1 16.0007V3.00069C2.36817 2.21078 3.92017 1.79492 5.5 1.79492C7.07983 1.79492 8.63183 2.21078 10 3.00069M10 16.0007C11.3682 15.2108 12.9202 14.7949 14.5 14.7949C16.0798 14.7949 17.6318 15.2108 19 16.0007V3.00069C17.6318 2.21078 16.0798 1.79492 14.5 1.79492C12.9202 1.79492 11.3682 2.21078 10 3.00069M10 16.0007V3.00069" stroke="#BFD7EC" stroke-width="2" stroke-linecap="round" stroke-linejoin="round"/>
  </symbol>
  <symbol id="test-fill" viewBox="0 0 20 17">
    <path d="M10.088 1.82076C11.562 1.09613 13.1917 0.745718 14.8333 0.800483C16.4748 0.855248 18.0776 1.3135 19.5 2.13476C19.6347 2.21252 19.7494 2.32062 19.8349 2.45046C19.9205 2.58031 19.9746 2.72833 19.993 2.88276L20 3.00076V16.0008C20 16.1763 19.9538 16.3487 19.866 16.5007C19.7782 16.6528 19.652 16.779 19.5 16.8668C19.348 16.9545 19.1755 17.0007 19 17.0007C18.8245 17.0007 18.652 16.9545 18.5 16.8668C17.2838 16.1646 15.9043 15.795 14.5 15.795C13.0957 15.795 11.7162 16.1646 10.5 16.8668C10.348 16.9545 10.1755 17.0007 10 17.0007C9.82446 17.0007 9.65202 16.9545 9.5 16.8668C8.32866 16.1904 7.00494 15.822 5.65257 15.7961C4.30021 15.7702 2.96337 16.0877 1.767 16.7188L1.44 16.8988L1.337 16.9428L1.288 16.9588L1.178 16.9848L1.117 16.9948L1 17.0008H0.958L0.848 16.9888L0.771 16.9748L0.663 16.9428L0.537 16.8868L0.442 16.8308L0.353 16.7638L0.293 16.7078L0.22 16.6258L0.156 16.5368L0.134 16.5008L0.102 16.4408L0.0580001 16.3378L0.0420001 16.2888L0.016 16.1788L0.00600004 16.1178L0.00200009 16.0688L0 16.0008V3.00076C4.45922e-06 2.82523 0.0462129 2.65279 0.133981 2.50077C0.221749 2.34876 0.347985 2.22252 0.5 2.13476C1.9224 1.3135 3.52518 0.855248 5.16672 0.800483C6.80827 0.745718 8.43803 1.09613 9.912 1.82076L10 1.86476L10.088 1.82076Z" fill="#00368E"/>
  </symbol>
  <symbol id="bell" viewBox="0 0 24 24" fill="none">
    <path d="M9 17V18C9 18.7956 9.31607 19.5587 9.87868 20.1213C10.4413 20.6839 11.2044 21 12 21C12.7956 21 13.5587 20.6839 14.1213 20.1213C14.6839 19.5587 15 18.7956 15 18V17M10 5C10 4.46957 10.2107 3.96086 10.5858 3.58579C10.9609 3.21071 11.4696 3 12 3C12.5304 3 13.0391 3.21071 13.4142 3.58579C13.7893 3.96086 14 4.46957 14 5C15.1484 5.54303 16.1274 6.38833 16.8321 7.4453C17.5367 8.50227 17.9404 9.73107 18 11V14C18.0753 14.6217 18.2954 15.2171 18.6428 15.7381C18.9902 16.2592 19.4551 16.6914 20 17H4C4.54494 16.6914 5.00981 16.2592 5.35719 15.7381C5.70457 15.2171 5.92474 14.6217 6 14V11C6.05956 9.73107 6.4633 8.50227 7.16795 7.4453C7.8726 6.38833 8.85159 5.54303 10 5Z" stroke="#BFD7EC" stroke-width="2" stroke-linecap="round" stroke-linejoin="round"/>
  </symbol>
  <symbol id="bell-fill" viewBox="0 0 18 20">
    <path d="M11.2345 17C12.0994 17 12.5563 18.024 11.9794 18.668C11.6043 19.0871 11.1451 19.4223 10.6317 19.6518C10.1183 19.8813 9.56235 20 9.00002 20C8.43769 20 7.88169 19.8813 7.36831 19.6518C6.85493 19.4223 6.39571 19.0871 6.02064 18.668C5.46876 18.052 5.86267 17.089 6.65451 17.007L6.76448 17.001L11.2345 17ZM9.00002 0C10.3577 0 11.5055 0.903 11.8744 2.141L11.9204 2.312L11.9284 2.355C13.0307 2.97671 13.97 3.85086 14.6694 4.9058C15.3687 5.96073 15.8081 7.16641 15.9516 8.424L15.9796 8.711L15.9986 9V11.931L16.0195 12.067C16.1564 12.8038 16.5641 13.4627 17.1623 13.914L17.3293 14.031L17.4912 14.13C18.3511 14.617 18.0511 15.896 17.1143 15.994L16.9983 16H1.00169C-0.0260941 16 -0.385019 14.636 0.508794 14.13C0.889744 13.9144 1.21889 13.618 1.47313 13.2616C1.72737 12.9052 1.90054 12.4974 1.98049 12.067L2.00148 11.924L2.00248 8.954C2.06344 7.64788 2.44355 6.37661 3.10953 5.25147C3.77552 4.12632 4.70708 3.18161 5.82268 2.5L6.07063 2.354L6.08063 2.311C6.22166 1.71283 6.54296 1.17241 7.00108 0.762846C7.4592 0.353278 8.03203 0.0943209 8.64209 0.0209999L8.82405 0.00399995L9.00002 0Z" fill="#00368E"/>
  </symbol>
  <symbol id="mypage" viewBox="0 0 16 16" fill="none">
    <path d="M8 0C9.06087 0 10.0783 0.421427 10.8284 1.17157C11.5786 1.92172 12 2.93913 12 4C12 5.06087 11.5786 6.07828 10.8284 6.82843C10.0783 7.57857 9.06087 8 8 8C6.93913 8 5.92172 7.57857 5.17157 6.82843C4.42143 6.07828 4 5.06087 4 4C4 2.93913 4.42143 1.92172 5.17157 1.17157C5.92172 0.421427 6.93913 0 8 0ZM8 2C7.46957 2 6.96086 2.21071 6.58579 2.58579C6.21071 2.96086 6 3.46957 6 4C6 4.53043 6.21071 5.03914 6.58579 5.41421C6.96086 5.78929 7.46957 6 8 6C8.53043 6 9.03914 5.78929 9.41421 5.41421C9.78929 5.03914 10 4.53043 10 4C10 3.46957 9.78929 2.96086 9.41421 2.58579C9.03914 2.21071 8.53043 2 8 2ZM8 9C10.67 9 16 10.33 16 13V16H0V13C0 10.33 5.33 9 8 9ZM8 10.9C5.03 10.9 1.9 12.36 1.9 13V14.1H14.1V13C14.1 12.36 10.97 10.9 8 10.9Z" fill="#BFD7EC"/>  
  </symbol>
  <symbol id="mypage-fill" viewBox="0 0 16 16">
    <path d="M8 8C6.9 8 5.95833 7.60833 5.175 6.825C4.39167 6.04167 4 5.1 4 4C4 2.9 4.39167 1.95833 5.175 1.175C5.95833 0.391667 6.9 0 8 0C9.1 0 10.0417 0.391667 10.825 1.175C11.6083 1.95833 12 2.9 12 4C12 5.1 11.6083 6.04167 10.825 6.825C10.0417 7.60833 9.1 8 8 8ZM0 16V13.2C0 12.6333 0.146 12.1127 0.438 11.638C0.73 11.1633 1.11733 10.8007 1.6 10.55C2.63333 10.0333 3.68333 9.646 4.75 9.388C5.81667 9.13 6.9 9.00067 8 9C9.1 8.99933 10.1833 9.12867 11.25 9.388C12.3167 9.64733 13.3667 10.0347 14.4 10.55C14.8833 10.8 15.271 11.1627 15.563 11.638C15.855 12.1133 16.0007 12.634 16 13.2V16H0Z" fill="#00368E"/>
  </symbol>
  <symbol id="check" viewBox="0 0 24 24">
    <path d="M7 12.9718L10.7471 17L18 8" stroke="#00368E" stroke-width="1.5" stroke-linecap="round" stroke-linejoin="round"/>
  </symbol>
  <symbol id="check-thick" viewBox="0 0 24 24">
    <path d="M3 13.2864L9.13167 20L21 5" stroke="#00368E" stroke-width="3" stroke-linecap="round" stroke-linejoin="round"/>
  </symbol>
  <symbol id="x" viewBox="0 0 22 22">
    <path d="M3.63037 18.8906L18.8912 3.62982" stroke-width="2.5" stroke-linecap="round"/>
    <path d="M3.63037 3.63086L18.8912 18.8917" stroke-width="2.5" stroke-linecap="round"/>
  </symbol>
  <symbol id="angle-down" viewBox="0 0 11 7">
    <path fill-rule="evenodd" clip-rule="evenodd" d="M5.10937 7C4.9691 7 4.83528 6.94108 4.74057 6.83762L0.131195 1.80246C-0.055265 1.59877 -0.0413022 1.2825 0.162382 1.09604C0.366066 0.909579 0.68234 0.923542 0.868801 1.12723L5.10937 5.75951L9.34994 1.12723C9.53641 0.923543 9.85268 0.90958 10.0564 1.09604C10.26 1.2825 10.274 1.59878 10.0876 1.80246L5.47817 6.83762C5.38346 6.94108 5.24964 7 5.10937 7Z" fill="#898989"/>
  </symbol>
  <symbol id="angle-right" viewBox="0 0 16 16">
    <path fill-rule="evenodd" clip-rule="evenodd" d="M11 8.10938C11 8.24965 10.9412 8.38347 10.8379 8.47818L5.81049 13.0876C5.60712 13.274 5.29134 13.2601 5.10517 13.0564C4.91899 12.8527 4.93293 12.5364 5.1363 12.3499L9.76143 8.10938L5.1363 3.86881C4.93293 3.68235 4.91899 3.36607 5.10517 3.16239C5.29134 2.9587 5.60712 2.94474 5.81049 3.1312L10.8379 7.74058C10.9412 7.83529 11 7.96911 11 8.10938Z" fill="#484848"/>
  </symbol>
  <symbol id="arrow-left" viewBox="0 0 19 17" fill="none" xmlns="http://www.w3.org/2000/svg">
    <path fill-rule="evenodd" clip-rule="evenodd" d="M0.356659 7.50336C-0.118886 7.98925 -0.118886 8.76612 0.356659 9.25201L7.33262 16.3797C7.8155 16.8731 8.60691 16.8816 9.10028 16.3987C9.59366 15.9158 9.60218 15.1244 9.1193 14.631L4.22268 9.62793H17.3436C18.0339 9.62793 18.5936 9.06829 18.5936 8.37793C18.5936 7.68757 18.0339 7.12793 17.3436 7.12793H4.22221L9.1193 2.12432C9.60218 1.63095 9.59366 0.839535 9.10028 0.35666C8.6069 -0.126216 7.81549 -0.117702 7.33262 0.375676L0.356659 7.50336Z" fill="black"/>
  </symbol>
  <symbol id="arrow-up-right" viewBox="0 0 32 32">
    <path fill-rule="evenodd" clip-rule="evenodd" d="M24.2787 7.99146C24.2766 7.30403 23.7199 6.74727 23.0325 6.74521L10.6148 6.70798C9.92444 6.70591 9.36312 7.26388 9.36105 7.95423C9.35898 8.64458 9.91695 9.2059 10.6073 9.20797L20.0205 9.23619L7.11178 22.1449C6.62363 22.6331 6.62363 23.4245 7.11178 23.9127C7.59994 24.4008 8.39139 24.4008 8.87955 23.9127L21.7877 11.0045L21.8159 20.4166C21.818 21.107 22.3793 21.6649 23.0697 21.6629C23.76 21.6608 24.318 21.0995 24.3159 20.4091L24.2787 7.99146Z" fill="#00368E"/>
  </symbol>
  <symbol id="trash" viewBox="0 0 12 16">
    <rect y="5" width="12" height="11" rx="1" fill="#FF849A"/>
    <path fill-rule="evenodd" clip-rule="evenodd" d="M8 0.5C8 0.223858 7.77614 0 7.5 0H5.5C5.22386 0 5 0.223858 5 0.5C5 0.776142 4.77614 1 4.5 1L1 1C0.447715 1 0 1.44772 0 2C0 2.55228 0.447715 3 1 3H11C11.5523 3 12 2.55228 12 2C12 1.44772 11.5523 1 11 1L8.5 1C8.22386 1 8 0.776142 8 0.5Z" fill="#FF849A"/>
  </symbol>
  <symbol id="instagram" viewBox="0 0 16 16">
    <path d="M7.99973 6.00268C6.89407 6.00268 6.00268 6.90264 6.00268 7.99973C6.00268 9.09683 6.90264 9.99679 7.99973 9.99679C9.09683 9.99679 9.99679 9.09683 9.99679 7.99973C9.99679 6.90264 9.09683 6.00268 7.99973 6.00268ZM13.9995 7.99973C13.9995 7.16834 13.9995 6.35409 13.9566 5.5227C13.9138 4.56274 13.6909 3.70564 12.9881 3.01138C12.2853 2.30856 11.4367 2.08571 10.4768 2.04286C9.64537 2 8.83112 2 7.99973 2C7.16834 2 6.35409 2 5.5227 2.04286C4.56274 2.08571 3.70564 2.30856 3.01138 3.01138C2.30856 3.71421 2.08571 4.56274 2.04286 5.5227C2 6.35409 2 7.16834 2 7.99973C2 8.83112 2 9.64537 2.04286 10.4768C2.08571 11.4367 2.30856 12.2938 3.01138 12.9881C3.71421 13.6909 4.56274 13.9138 5.5227 13.9566C6.35409 13.9995 7.16834 13.9995 7.99973 13.9995C8.83112 13.9995 9.64537 13.9995 10.4768 13.9566C11.4367 13.9138 12.2938 13.6909 12.9881 12.9881C13.6909 12.2853 13.9138 11.4367 13.9566 10.4768C14.008 9.65394 13.9995 8.83112 13.9995 7.99973ZM7.99973 11.0767C6.29409 11.0767 4.92273 9.70537 4.92273 7.99973C4.92273 6.29409 6.29409 4.92273 7.99973 4.92273C9.70537 4.92273 11.0767 6.29409 11.0767 7.99973C11.0767 9.70537 9.70537 11.0767 7.99973 11.0767ZM11.2053 5.51413C10.811 5.51413 10.4853 5.197 10.4853 4.79416C10.4853 4.39132 10.8025 4.07419 11.2053 4.07419C11.6081 4.07419 11.9253 4.39132 11.9253 4.79416C11.9274 4.88805 11.9103 4.98137 11.8749 5.06836C11.8395 5.15535 11.7867 5.23414 11.7196 5.29985C11.6539 5.36694 11.5751 5.41982 11.4881 5.4552C11.4011 5.49059 11.3078 5.50773 11.2139 5.50556L11.2053 5.51413Z" fill="#898989"/>  
  </symbol>
  <symbol id="point" viewBox="0 0 5 8">
    <path d="M2.23816 0.765625C2.60822 0.765625 2.95402 0.802025 3.27556 0.874824C3.59709 0.941558 3.87616 1.05682 4.11276 1.22062C4.34936 1.38442 4.53439 1.60282 4.66786 1.87582C4.80739 2.14276 4.87716 2.47642 4.87716 2.87682C4.87716 3.25902 4.80739 3.59269 4.66786 3.87782C4.53439 4.15689 4.34936 4.38742 4.11276 4.56942C3.88222 4.75142 3.60922 4.88792 3.29376 4.97892C2.97829 5.06386 2.63856 5.10632 2.27456 5.10632H1.37366V7.49962H0.0268555V0.765625H2.23816ZM2.18356 4.04162C3.09962 4.04162 3.55766 3.65336 3.55766 2.87682C3.55766 2.48249 3.43632 2.20949 3.19366 2.05782C2.95706 1.90616 2.60519 1.83032 2.13806 1.83032H1.37366V4.04162H2.18356Z" fill="#00368E"/>
  </symbol>
  <symbol id="pencil-underline" viewBox="0 0 20 20">
    <path d="M1 18.7578H9.87793H18.7559" stroke="#00368E" stroke-width="1.5" stroke-linecap="round" stroke-linejoin="round"/>
    <path d="M10.0973 3.79007L12.8874 1L17.77 5.88261L14.9799 8.67264M10.0973 3.79007L4.56675 9.32063C4.38176 9.50559 4.27783 9.75654 4.27783 10.0181V14.4921H8.75188C9.01349 14.4921 9.26434 14.3883 9.44939 14.2032L14.9799 8.67264M10.0973 3.79007L14.9799 8.67264" stroke="#00368E" stroke-width="1.5" stroke-linecap="round" stroke-linejoin="round"/>
  </symbol>
  <symbol id="pencil" viewBox="0 0 15 17">
    <rect width="6" height="10" rx="1" transform="matrix(-0.776331 -0.630326 0.62432 -0.781169 5.88184 14.3457)" fill="#898989"/>
    <rect width="6" height="2" rx="1" transform="matrix(-0.776331 -0.630326 0.62432 -0.781169 12.8823 5.34375)" fill="#898989"/>
    <path d="M2.73799 14.7733C2.27205 14.7713 1.86917 14.4442 1.76805 13.9857L1.24882 11.6317L5.13048 14.7834L2.73799 14.7733Z" fill="#898989"/>
  </symbol>
  <symbol id="toggle-off" viewBox="0 0 21 21">
    <rect width="21" height="21" rx="10.5" fill="#D9D9D9"/>
    <circle cx="10.5365" cy="10.4994" r="6.53655" fill="#fff"/>
  </symbol>
  <symbol id="toggle-on" viewBox="0 0 21 21">
    <rect width="21" height="21" rx="10.5" fill="#D9D9D9"/>
    <circle cx="10.5365" cy="10.4994" r="6.53655" fill="#00368E"/>
  </symbol>
  <symbol id="file" viewBox="0 0 10 14">
    <path d="M6.25 0H1.25C0.5625 0 0.00625014 0.63 0.00625014 1.4L0 12.6C0 13.37 0.55625 14 1.24375 14H8.75C9.4375 14 10 13.37 10 12.6V4.2L6.25 0ZM1.25 12.6V1.4H5.625V4.9H8.75V12.6H1.25Z" fill="#00368E"/>
  </symbol>
  <symbol id="triangle-exclamation-circle" viewBox="0 0 36 36">
    <circle cx="18" cy="18" r="15" stroke="#00368E" stroke-width="2"/>
    <path d="M11.2517 25H25.7483C27.1326 25 28 24.0312 28 22.811C28.0016 22.4331 27.8997 22.0616 27.7047 21.7347L20.4426 9.1035C20.0272 8.37664 19.2705 8 18.5047 8C17.748 8 16.9732 8.37664 16.5574 9.1035L9.30474 21.7435C9.10158 22.0841 9 22.4431 9 22.8114C9 24.0312 9.87681 25 11.2517 25ZM18.5047 18.8548C18.0157 18.8548 17.748 18.5857 17.7295 18.1015L17.6003 13.6699C17.5818 13.1853 17.9693 12.8262 18.4953 12.8262C19.0122 12.8262 19.4181 13.1941 19.3996 13.6787L19.2614 18.1015C19.2429 18.5949 18.9752 18.8548 18.5047 18.8548ZM18.5047 22.1653C17.9693 22.1653 17.4712 21.7526 17.4712 21.1961C17.4712 20.64 17.9602 20.2277 18.5047 20.2277C19.0492 20.2277 19.5382 20.6312 19.5382 21.1961C19.5382 21.7614 19.0398 22.1653 18.5047 22.1653Z" fill="#00368E"/>
  </symbol>
  <symbol id="notice-bell" viewBox="0 0 11 13">
    <path opacity="0.7" d="M1.01514 5.56137C1.01514 3.19321 2.93491 1.27344 5.30307 1.27344C7.67123 1.27344 9.59101 3.19321 9.59101 5.56137V8.41731C9.59101 8.81185 9.27117 9.13169 8.87662 9.13169H1.72952C1.33498 9.13169 1.01514 8.81185 1.01514 8.41731V5.56137Z" fill="#FF849A"/>
    <rect opacity="0.5" y="9.51953" width="10.6064" height="2.08275" rx="1.04138" fill="#FF849A"/>
    <rect x="4.29736" y="11.1562" width="2.01203" height="1.84367" rx="0.921834" fill="#FF849A"/>
    <rect x="4.29736" y="0.351562" width="2.01203" height="1.84367" rx="0.921834" fill="#FF849A"/>
  </symbol>
  <symbol id="hamburger-menu" viewBox="0 0 23 15">
    <rect x="0.107422" width="22" height="2.69993" rx="1" fill="#00368E"/>
    <rect x="0.107422" y="6.15039" width="22" height="2.69993" rx="1" fill="#00368E"/>
    <rect x="0.107422" y="12.3008" width="22" height="2.69993" rx="1" fill="#00368E"/>
  </symbol>
  <symbol id="check-circle" viewBox="0 0 15 15">
    <g clip-path="url(#clip0_1440_9507)">
    <path fill-rule="evenodd" clip-rule="evenodd" d="M7.5 13.6364C10.889 13.6364 13.6364 10.889 13.6364 7.5C13.6364 4.11098 10.889 1.36364 7.5 1.36364C4.11098 1.36364 1.36364 4.11098 1.36364 7.5C1.36364 10.889 4.11098 13.6364 7.5 13.6364ZM7.5 15C11.6421 15 15 11.6421 15 7.5C15 3.35786 11.6421 0 7.5 0C3.35786 0 0 3.35786 0 7.5C0 11.6421 3.35786 15 7.5 15Z" fill="#484848"/>
    <path fill-rule="evenodd" clip-rule="evenodd" d="M10.8078 5.20886C11.0641 5.48733 11.0641 5.93883 10.8078 6.2173L6.40625 11L4.19221 8.59423C3.93593 8.31576 3.93593 7.86426 4.19221 7.58579C4.44849 7.30731 4.86401 7.30731 5.12029 7.58579L6.40625 8.98311L9.87971 5.20886C10.136 4.93038 10.5515 4.93038 10.8078 5.20886Z" fill="#484848"/>
    </g>
    <defs>
    <clipPath id="clip0_1440_9507">
    <rect width="15" height="15" fill="white"/>
    </clipPath>
    </defs>
  </symbol>
  <symbol viewBox="0 0 33 33">
    <circle cx="16.5" cy="16.5" r="16.5" fill="#FEE9EB"/>
    <path d="M10 17L14 21L23 12" stroke="#FF4B6C" stroke-width="3" stroke-linecap="round"/>
  </symbol>
  <symbol id="clip-board-list" viewBox="0 0 18 19">
    <rect y="1" width="18" height="18" rx="2" fill="white"/>
    <rect x="3" y="6" width="12" height="1" fill="#5F86BF"/>
    <rect x="5" width="7" height="2" fill="#5F86BF"/>
    <rect x="3" y="9.5" width="12" height="1" fill="#5F86BF"/>
    <rect x="3" y="13" width="12" height="1" fill="#5F86BF"/>
  </symbol>
  <symbol id="clip-board-list-blue" viewBox="0 0 18 19">
    <rect y="1" width="18" height="18" rx="2" fill="#BFD7EC"/>
    <rect x="3" y="6" width="12" height="1" fill="#5F86BF"/>
    <rect x="5" width="7" height="2" fill="#5F86BF"/>
    <rect x="3" y="9.5" width="12" height="1" fill="#5F86BF"/>
    <rect x="3" y="13" width="12" height="1" fill="#5F86BF"/>
  </symbol>
  <symbol id="pencil-circle" viewBox="0 0 105 105">
    <g filter="url(#filter0_bd_1467_9360)">
      <circle cx="48.5" cy="48.5" r="32.5" fill="white" fill-opacity="0.7" shape-rendering="crispEdges"/>
    </g>
    <rect width="10" height="19" rx="1" transform="matrix(-0.778232 -0.627976 0.626674 -0.779282 46 60)" fill="#BFD7EC"/>
    <rect width="10" height="3" rx="1" transform="matrix(-0.778232 -0.627976 0.626674 -0.779282 59 44)" fill="#BFD7EC"/>
    <path d="M39.3846 61.1311C38.8787 61.1556 38.4343 60.7971 38.3505 60.2967L37.5021 55.2311L44.5062 60.8829L39.3846 61.1311Z" fill="#BFD7EC"/>
    <defs>
      <filter id="filter0_bd_1467_9360" x="0.9" y="0.9" width="103.2" height="103.2" filterUnits="userSpaceOnUse" color-interpolation-filters="sRGB">
        <feFlood flood-opacity="0" result="BackgroundImageFix"/>
        <feGaussianBlur in="BackgroundImageFix" stdDeviation="7.05"/>
        <feComposite in2="SourceAlpha" operator="in" result="effect1_backgroundBlur_1467_9360"/>
        <feColorMatrix in="SourceAlpha" type="matrix" values="0 0 0 0 0 0 0 0 0 0 0 0 0 0 0 0 0 0 127 0" result="hardAlpha"/>
        <feOffset dx="4" dy="4"/>
        <feGaussianBlur stdDeviation="9.55"/>
        <feComposite in2="hardAlpha" operator="out"/>
        <feColorMatrix type="matrix" values="0 0 0 0 0 0 0 0 0 0 0 0 0 0 0 0 0 0 0.15 0"/>
        <feBlend mode="normal" in2="effect1_backgroundBlur_1467_9360" result="effect2_dropShadow_1467_9360"/>
        <feBlend mode="normal" in="SourceGraphic" in2="effect2_dropShadow_1467_9360" result="shape"/>
      </filter>
    </defs>
  </symbol>
  <symbol id="abuse-comment" viewBox="0 0 25 20">
    <path fill-rule="evenodd" clip-rule="evenodd" d="M25 3.12061C25 2.6797 24.6426 2.32227 24.2017 2.32227H0.798344C0.357431 2.32227 0 2.6797 0 3.12061V16.2911C0 16.7321 0.357431 17.0895 0.798344 17.0895H19.0771C19.3821 17.0895 19.6604 17.2633 19.7943 17.5373L20.7827 19.5597C21.0745 20.1568 21.9255 20.1568 22.2173 19.5597L23.2057 17.5373C23.3396 17.2633 23.6179 17.0895 23.9229 17.0895H24.2017C24.6426 17.0895 25 16.7321 25 16.2911V3.12061Z" fill="#F0F0F0"/>
    <path d="M5 11.1839L11 8.23047" stroke="#898989" stroke-width="0.830319"/>
    <path d="M6.90645 7.63533L6.325 13.9915" stroke="#898989" stroke-width="0.830319"/>
    <path d="M5 12.1683L11 9.21484" stroke="#898989" stroke-width="0.830319"/>
    <path d="M9.90651 6.64919L9.32544 13.0051" stroke="#898989" stroke-width="0.830319"/>
    <path d="M14.1286 14.183H13.1622V12.529C13.9493 12.26 14.7564 11.9312 14.7564 11.0145C14.7564 10.4665 14.318 9.99818 13.7102 9.99818C13.0625 9.99818 12.644 10.4266 12.644 11.1141V11.1938H11.7373V11.154C11.7373 9.98822 12.654 9.18115 13.7102 9.18115C14.856 9.18115 15.6631 10.1177 15.6631 10.9846C15.6631 12.2301 14.8859 12.6984 14.1286 13.0471V14.183ZM14.1685 16.2754H13.1223V15.1196H14.1685V16.2754Z" fill="#898989"/>
    <path d="M17.5935 4.1818L18.2734 5.38557L20.4891 9.53325L19.4446 9.90447L17.0177 5.83186L16.3378 4.62809L17.5935 4.1818ZM21.8692 11.7773L20.6369 12.2152L19.9265 10.9572L21.1587 10.5193L21.8692 11.7773Z" fill="#898989"/>
  </symbol>
  <symbol id="dollar" viewBox="0 0 25 14">
    <rect width="25" height="14" rx="1" fill="#F0F0F0"/>
    <circle cx="12.5" cy="7.5" r="5.5" fill="#D9D9D9"/>
    <path d="M10.27 9.208L10.855 8.659C11.269 9.082 11.764 9.379 12.394 9.379C13.015 9.379 13.681 9.082 13.681 8.335C13.681 7.651 13.015 7.426 12.313 7.174C11.512 6.886 10.648 6.562 10.648 5.482C10.648 4.6 11.332 3.997 12.259 3.925V3.07H12.835V3.943C13.357 3.997 13.843 4.195 14.311 4.528L13.798 5.131C13.456 4.825 13.006 4.654 12.502 4.654C12.016 4.654 11.458 4.897 11.458 5.482C11.458 6.022 12.052 6.229 12.718 6.463C13.564 6.76 14.527 7.102 14.527 8.245C14.527 9.316 13.753 9.946 12.79 10.081V10.954H12.214V10.108C11.476 10.081 10.855 9.766 10.27 9.208Z" fill="#898989"/>
  </symbol>
  <symbol id="camera" viewBox="0 0 25 18">
    <path fill-rule="evenodd" clip-rule="evenodd" d="M16 1C16 0.447715 15.5523 0 15 0H10C9.44772 0 9 0.447715 9 1C9 1.55228 8.55229 2 8 2H1C0.447715 2 0 2.44772 0 3V17C0 17.5523 0.447716 18 1 18H24C24.5523 18 25 17.5523 25 17V3C25 2.44772 24.5523 2 24 2H17C16.4477 2 16 1.55228 16 1Z" fill="#F0F0F0"/>
    <circle cx="12.5" cy="10.5" r="5.5" fill="#D9D9D9"/>
    <circle cx="12.5" cy="10.5" r="3.5" fill="#898989"/>
  </symbol>
  <symbol id="ban" viewBox="0 0 18 18">
    <circle cx="9" cy="9" r="8" fill="#F0F0F0" stroke="#898989" stroke-width="2"/>
    <path d="M15 3L4 14" stroke="#898989" stroke-width="2"/>
  </symbol>
  <symbol id="flag" viewBox="0 0 23 22">
    <path d="M1 0V22" stroke="#898989" stroke-width="2"/>
    <rect x="2" y="1" width="21" height="14" fill="#F0F0F0"/>
  </symbol>
  <symbol id="adult" viewBox="0 0 18 18">
    <circle cx="9" cy="9" r="8" fill="#F0F0F0" stroke="#898989" stroke-width="2"/>
    <path d="M7.241 12H6.395V7.05C6.116 7.194 5.747 7.338 5.495 7.446V6.654C5.855 6.474 6.296 6.249 6.692 6.024H7.241V12ZM9.18159 12.333L8.83959 11.577C9.93759 11.082 10.8286 10.416 11.1436 9.255C10.7836 9.615 10.3336 9.804 9.79359 9.804C8.74059 9.804 8.03859 8.94 8.03859 7.878C8.03859 6.771 8.83959 5.916 9.93759 5.916C11.3146 5.916 12.1246 7.05 12.1246 8.301C12.1246 10.209 10.8016 11.676 9.18159 12.333ZM9.97359 9.048C10.5046 9.048 11.0176 8.76 11.2696 8.292C11.2696 7.464 10.9186 6.672 10.0096 6.672C9.32559 6.672 8.90259 7.212 8.90259 7.896C8.90259 8.562 9.30759 9.048 9.97359 9.048Z" fill="#898989"/>
  </symbol>
  <symbol id="search" viewBox="0 0 22 22">
    <path fill-rule="evenodd" clip-rule="evenodd" d="M5.42099 13.3228C3.20175 11.2487 3.05774 7.74405 5.09932 5.49488C7.1409 3.24572 10.595 3.10378 12.8142 5.17786C15.0335 7.25193 15.1775 10.7566 13.1359 13.0058C11.0943 15.2549 7.64023 15.3969 5.42099 13.3228ZM4.36872 4.81207C1.95594 7.47018 2.12615 11.6121 4.74888 14.0633C7.34832 16.4927 11.3813 16.3495 13.8018 13.7588L16.881 16.6366C17.0827 16.8251 17.3967 16.8122 17.5823 16.6078C17.7679 16.4033 17.7548 16.0847 17.5531 15.8961L14.4288 12.9762C16.2322 10.3346 15.8848 6.67901 13.4863 4.43741C10.8636 1.98622 6.7815 2.15397 4.36872 4.81207Z" fill="#949494"/>
  </symbol>
  <symbol id='search-thick' viewBox="0 0 20 20" fill='none'>
    <path d="M13.9163 13.8739L18 18M13.8026 4.01986C16.5272 6.73762 16.5553 11.1724 13.8655 13.9252C11.1757 16.678 6.78648 16.7065 4.06195 13.9887C1.33742 11.271 1.30928 6.83619 3.9991 4.08336C6.68892 1.33054 11.0781 1.30211 13.8026 4.01986Z" stroke="#00368E" stroke-width="2.5" stroke-linecap="round"/>
  </symbol>
  <symbol id="profile-basic-camera" viewBox="0 0 77 77" fill="none">
    <circle cx="38.3687" cy="38.3687" r="38.3687" fill="#DDEBF6"/>
    <path d="M27.3135 44.2212C28.724 45.6511 30.4075 46.7871 32.2655 47.5626C34.1235 48.3381 36.1187 48.7376 38.1341 48.7376C40.1494 48.7376 42.1446 48.3381 44.0026 47.5626C45.8606 46.7871 47.5442 45.6511 48.9546 44.2212" stroke="#00368E" stroke-width="5.5" stroke-linecap="round" stroke-linejoin="round"/>
    <path d="M24.7124 29.915H24.7557M50.6818 29.915H50.7251" stroke="#00368E" stroke-width="7" stroke-linecap="round" stroke-linejoin="round"/>
    <circle cx="65" cy="65" r="11.5" fill="#00368E" stroke="white"/>
    <path d="M60.2 61.1111H62L63.2 60H66.8L68 61.1111H69.8C70.1183 61.1111 70.4235 61.2282 70.6485 61.4365C70.8736 61.6449 71 61.9275 71 62.2222V68.8889C71 69.1836 70.8736 69.4662 70.6485 69.6746C70.4235 69.8829 70.1183 70 69.8 70H60.2C59.8817 70 59.5765 69.8829 59.3515 69.6746C59.1264 69.4662 59 69.1836 59 68.8889V62.2222C59 61.9275 59.1264 61.6449 59.3515 61.4365C59.5765 61.2282 59.8817 61.1111 60.2 61.1111ZM65 62.7778C64.2044 62.7778 63.4413 63.0704 62.8787 63.5914C62.3161 64.1123 62 64.8188 62 65.5556C62 66.2923 62.3161 66.9988 62.8787 67.5197C63.4413 68.0407 64.2044 68.3333 65 68.3333C65.7956 68.3333 66.5587 68.0407 67.1213 67.5197C67.6839 66.9988 68 66.2923 68 65.5556C68 64.8188 67.6839 64.1123 67.1213 63.5914C66.5587 63.0704 65.7956 62.7778 65 62.7778ZM65 63.8889C65.4774 63.8889 65.9352 64.0645 66.2728 64.377C66.6104 64.6896 66.8 65.1135 66.8 65.5556C66.8 65.9976 66.6104 66.4215 66.2728 66.7341C65.9352 67.0466 65.4774 67.2222 65 67.2222C64.5226 67.2222 64.0648 67.0466 63.7272 66.7341C63.3896 66.4215 63.2 65.9976 63.2 65.5556C63.2 65.1135 63.3896 64.6896 63.7272 64.377C64.0648 64.0645 64.5226 63.8889 65 63.8889Z" fill="#EAF5FD"/>
  </symbol>
  <symbol id="profile-basic" viewBox="0 0 77 77" fill="none">
    <g filter="url(#filter0_d_946_9006)">
      <circle cx="63" cy="59" r="59" fill="#DDEBF6"/>
      <path d="M46.999 71.3892C49.1679 73.588 51.7568 75.3348 54.6138 76.5273C57.4709 77.7198 60.5389 78.3341 63.638 78.3341C66.737 78.3341 69.805 77.7198 72.6621 76.5273C75.5192 75.3348 78.108 73.588 80.2769 71.3892" stroke="#00368E" stroke-width="5.5" stroke-linecap="round" stroke-linejoin="round"/>
      <path d="M43 49.3901H43.0666H43ZM82.9334 49.3901H83H82.9334Z" fill="url(#paint0_radial_946_9006)"/>
      <path d="M43 49.3901H43.0666M82.9334 49.3901H83" stroke="#00368E" stroke-width="9" stroke-linecap="round" stroke-linejoin="round"/>
    </g>
    <defs>
      <filter id="filter0_d_946_9006" x="0" y="0" width="126" height="126" filterUnits="userSpaceOnUse" color-interpolation-filters="sRGB">
        <feFlood flood-opacity="0" result="BackgroundImageFix"/>
        <feColorMatrix in="SourceAlpha" type="matrix" values="0 0 0 0 0 0 0 0 0 0 0 0 0 0 0 0 0 0 127 0" result="hardAlpha"/>
        <feOffset dy="4"/>
        <feGaussianBlur stdDeviation="2"/>
        <feComposite in2="hardAlpha" operator="out"/>
        <feColorMatrix type="matrix" values="0 0 0 0 0 0 0 0 0 0 0 0 0 0 0 0 0 0 0.15 0"/>
        <feBlend mode="normal" in2="BackgroundImageFix" result="effect1_dropShadow_946_9006"/>
        <feBlend mode="normal" in="SourceGraphic" in2="effect1_dropShadow_946_9006" result="shape"/>
      </filter>
      <radialGradient id="paint0_radial_946_9006" cx="0" cy="0" r="1" gradientUnits="userSpaceOnUse" gradientTransform="translate(49.1367 49.6357) rotate(1.64528) scale(30.2345 1.7522)">
        <stop stop-color="#00368E"/>
        <stop offset="1" stop-color="#EAF5FD"/>
      </radialGradient>
    </defs>  
  </symbol>
  <symbol id="heart-plus" viewBox="0 0 27 24" fill="none">
    <path fill-rule="evenodd" clip-rule="evenodd" d="M12.8571 2.38694C14.1961 0.877943 16.1723 0 18.399 0C20.3384 0.00234387 22.1977 0.772936 23.5691 2.14275C24.9405 3.51256 25.7119 5.36976 25.7143 7.30697C25.7143 15.3158 13.9866 21.715 13.4878 21.984C13.294 22.0883 13.0773 22.1429 12.8571 22.1429C12.637 22.1429 12.4203 22.0883 12.2265 21.984C11.7277 21.715 0 15.3158 0 7.30697C0.00234654 5.36976 0.773814 3.51256 2.14518 2.14275C3.51656 0.772936 5.37586 0.00234387 7.31527 0C9.542 0 11.5182 0.877943 12.8571 2.38694Z" fill="#00368E"/>
    <mask id="path-2-outside-1_946_9800" maskUnits="userSpaceOnUse" x="13" y="10" width="14" height="14" fill="black">
      <rect fill="white" x="13" y="10" width="14" height="14"/>
      <path fill-rule="evenodd" clip-rule="evenodd" d="M21 12C21 11.4477 20.5523 11 20 11C19.4477 11 19 11.4477 19 12V16H15C14.4477 16 14 16.4477 14 17C14 17.5523 14.4477 18 15 18H19V22C19 22.5523 19.4477 23 20 23C20.5523 23 21 22.5523 21 22V18H25C25.5523 18 26 17.5523 26 17C26 16.4477 25.5523 16 25 16H21V12Z"/>
    </mask>
    <path fill-rule="evenodd" clip-rule="evenodd" d="M21 12C21 11.4477 20.5523 11 20 11C19.4477 11 19 11.4477 19 12V16H15C14.4477 16 14 16.4477 14 17C14 17.5523 14.4477 18 15 18H19V22C19 22.5523 19.4477 23 20 23C20.5523 23 21 22.5523 21 22V18H25C25.5523 18 26 17.5523 26 17C26 16.4477 25.5523 16 25 16H21V12Z" fill="#00368E"/>
    <path d="M19 16V17H20V16H19ZM19 18H20V17H19V18ZM21 18V17H20V18H21ZM21 16H20V17H21V16ZM20 12H22C22 10.8954 21.1046 10 20 10V12ZM20 12V12V10C18.8954 10 18 10.8954 18 12H20ZM20 16V12H18V16H20ZM15 17H19V15H15V17ZM15 17V15C13.8954 15 13 15.8954 13 17H15ZM15 17H13C13 18.1046 13.8954 19 15 19V17ZM19 17H15V19H19V17ZM20 22V18H18V22H20ZM20 22H18C18 23.1046 18.8954 24 20 24V22ZM20 22V24C21.1046 24 22 23.1046 22 22H20ZM20 18V22H22V18H20ZM25 17H21V19H25V17ZM25 17V19C26.1046 19 27 18.1046 27 17H25ZM25 17H27C27 15.8954 26.1046 15 25 15V17ZM21 17H25V15H21V17ZM20 12V16H22V12H20Z" fill="#F4F4F4" mask="url(#path-2-outside-1_946_9800)"/>
  </symbol>
  <symbol id="heart-minus" viewBox="0 0 27 23" fill="none">
    <path fill-rule="evenodd" clip-rule="evenodd" d="M12.8571 2.38694C14.1961 0.877943 16.1723 0 18.399 0C20.3384 0.00234387 22.1977 0.772936 23.5691 2.14275C24.9405 3.51256 25.7119 5.36976 25.7143 7.30697C25.7143 15.3158 13.9866 21.715 13.4878 21.984C13.294 22.0883 13.0773 22.1429 12.8571 22.1429C12.637 22.1429 12.4203 22.0883 12.2265 21.984C11.7277 21.715 0 15.3158 0 7.30697C0.00234654 5.36976 0.773814 3.51256 2.14518 2.14275C3.51656 0.772936 5.37586 0.00234387 7.31527 0C9.542 0 11.5182 0.877943 12.8571 2.38694Z" fill="#FF4B6C"/>
    <path d="M15 14.5C14.1716 14.5 13.5 15.1716 13.5 16C13.5 16.8284 14.1716 17.5 15 17.5H25C25.8284 17.5 26.5 16.8284 26.5 16C26.5 15.1716 25.8284 14.5 25 14.5H15Z" fill="#FF4B6C" stroke="#F4F4F4" stroke-linecap="round"/>
  </symbol>
  <symbol id="cloud" viewBox="0 0 18 12" fill="none">
    <path fill-rule="evenodd" clip-rule="evenodd" d="M9 10.028C8.04906 10.8133 6.82963 11.2852 5.5 11.2852C2.46243 11.2852 0 8.82272 0 5.78516C0 2.74759 2.46243 0.285156 5.5 0.285156C6.82963 0.285156 8.04906 0.756974 9 1.54232C9.95094 0.756974 11.1704 0.285156 12.5 0.285156C15.5376 0.285156 18 2.74759 18 5.78516C18 8.82272 15.5376 11.2852 12.5 11.2852C11.1704 11.2852 9.95094 10.8133 9 10.028Z" fill="url(#paint0_radial_946_17410)"/>
    <defs>
      <radialGradient id="paint0_radial_946_17410" cx="0" cy="0" r="1" gradientUnits="userSpaceOnUse" gradientTransform="translate(14.0112 6.76192) rotate(93.8) scale(13.168 21.6502)">
        <stop offset="0.29142" stop-color="#C5D2FF"/>
        <stop offset="1" stop-color="#82B5FF"/>
      </radialGradient>
    </defs>
  </symbol>
  <symbol id="comment" viewBox="0 0 13 11">
    <path fill-rule="evenodd" clip-rule="evenodd" d="M12.9707 1.14062C12.9707 0.58834 12.523 0.140625 11.9707 0.140625H1.3877C0.835411 0.140625 0.387695 0.58834 0.387695 1.14062V7.65565V7.65589V9.14362C0.387695 10.0353 1.46652 10.4811 2.096 9.84953L3.98914 7.94998C4.17677 7.76171 4.43164 7.65589 4.69744 7.65589H11.9707C12.523 7.65589 12.9707 7.20817 12.9707 6.65589V1.14062Z" fill="#D9D9D9"/>
  </symbol>
  <symbol id="like" viewBox="0 0 12 10">
    <path d="M6.3263 9.53142C5.94436 9.8803 5.35939 9.8803 4.97745 9.53142L4.86351 9.42734C2.06344 6.87965 0.214844 5.19392 0.214844 3.13721C0.214844 1.45148 1.53061 0.136719 3.20521 0.136719C3.9498 0.136719 4.67082 0.410453 5.23307 0.864828C5.47187 1.05782 5.83188 1.05782 6.07069 0.864828C6.63293 0.410453 7.35395 0.136719 8.09854 0.136719C9.77315 0.136719 11.0889 1.45148 11.0889 3.13721C11.0889 5.19392 9.24032 6.87965 6.44025 9.42734L6.3263 9.53142Z" fill="#D9D9D9"/>
  </symbol>
  <symbol id="star-circle" viewBox="0 0 32 32">
    <path d="M26.4455 14.6109L22.0233 18.3866L23.3706 24.0332C23.4449 24.3397 23.4257 24.6612 23.3155 24.9569C23.2053 25.2527 23.009 25.5095 22.7514 25.6949C22.4937 25.8804 22.1863 25.9861 21.868 25.9987C21.5497 26.0114 21.2347 25.9304 20.9629 25.766L16.0002 22.7438L11.0345 25.766C10.7628 25.9294 10.4482 26.0096 10.1304 25.9965C9.81261 25.9834 9.50586 25.8776 9.24876 25.6923C8.99165 25.5071 8.7957 25.2507 8.68556 24.9554C8.57543 24.6602 8.55604 24.3393 8.62984 24.0332L9.98206 18.3866L5.55984 14.6109C5.31937 14.4052 5.14545 14.134 5.05982 13.8311C4.97418 13.5283 4.98062 13.2072 5.07833 12.9079C5.17603 12.6086 5.36068 12.3445 5.6092 12.1484C5.85773 11.9524 6.15911 11.8331 6.47573 11.8055L12.2737 11.3427L14.5104 5.98683C14.6315 5.69494 14.8375 5.44526 15.1024 5.26954C15.3672 5.09382 15.6789 5 15.9977 5C16.3166 5 16.6283 5.09382 16.8931 5.26954C17.158 5.44526 17.364 5.69494 17.4851 5.98683L19.7208 11.3427L25.5188 11.8055C25.836 11.8321 26.1383 11.9507 26.3877 12.1465C26.6371 12.3422 26.8226 12.6065 26.9209 12.9061C27.0193 13.2058 27.026 13.5274 26.9404 13.8309C26.8548 14.1343 26.6805 14.4059 26.4396 14.6118L26.4455 14.6109Z" fill="#00368E"/>
    <circle cx="16" cy="16" r="15" stroke="#00368E" stroke-width="2"/>
  </symbol>
  <symbol id="point-circle" viewBox="0 0 16 16">
    <path d="M8.25935 4.74805C8.63141 4.74805 8.97907 4.78464 9.30234 4.85783C9.6256 4.92493 9.90618 5.04082 10.1441 5.2055C10.3819 5.37018 10.568 5.58976 10.7021 5.86423C10.8424 6.1326 10.9126 6.46807 10.9126 6.87062C10.9126 7.25488 10.8424 7.59035 10.7021 7.87702C10.568 8.15759 10.3819 8.38936 10.1441 8.57234C9.91227 8.75532 9.6378 8.89256 9.32064 8.98405C9.00347 9.06944 8.66191 9.11214 8.29594 9.11214H7.39019V11.5183H6.03613V4.74805H8.25935ZM8.20445 8.0417C9.12546 8.0417 9.58596 7.65134 9.58596 6.87062C9.58596 6.47416 9.46397 6.19969 9.22 6.04721C8.98212 5.89473 8.62836 5.81848 8.15871 5.81848H7.39019V8.0417H8.20445Z" fill="#00368E"/>
    <path fill-rule="evenodd" clip-rule="evenodd" d="M8.01917 13.6298C11.1286 13.6298 13.6493 11.1091 13.6493 7.99963C13.6493 4.89017 11.1286 2.36946 8.01917 2.36946C4.9097 2.36946 2.38899 4.89017 2.38899 7.99963C2.38899 11.1091 4.9097 13.6298 8.01917 13.6298ZM8.01917 15.0374C11.906 15.0374 15.0569 11.8865 15.0569 7.99963C15.0569 4.11281 11.906 0.961914 8.01917 0.961914C4.13234 0.961914 0.981445 4.11281 0.981445 7.99963C0.981445 11.8865 4.13234 15.0374 8.01917 15.0374Z" fill="#00368E"/>
  </symbol>
  <symbol id="comment-circle" viewBox="0 0 32 32">
    <circle cx="16" cy="16" r="15" stroke="#00368E" stroke-width="2"/>
    <path fill-rule="evenodd" clip-rule="evenodd" d="M26 10C26 9.44772 25.5523 9 25 9H8C7.44772 9 7 9.44771 7 10V20.3086V20.3095V23.7754C7 24.6663 8.07714 25.1125 8.70711 24.4825L12.5872 20.6024C12.7748 20.4149 13.0291 20.3095 13.2943 20.3095H25C25.5523 20.3095 26 19.8618 26 19.3095V10Z" fill="#00368E"/>
  </symbol>
  <symbol id="snow-circle" viewBox="0 0 32 32">
    <circle cx="16" cy="16" r="15" stroke="#00368E" stroke-width="2"/>
    <path d="M26.4237 20.65L24.7753 19.668C25.0736 19.3511 25.4157 19.0815 25.7905 18.868C26.0356 18.7255 26.2161 18.489 26.2929 18.2099C26.3696 17.9308 26.3363 17.6317 26.2003 17.3778C26.0642 17.1239 25.8364 16.9356 25.5664 16.8541C25.2965 16.7726 25.0062 16.8044 24.7589 16.9425C24.0432 17.351 23.409 17.8956 22.8899 18.5475L18.6182 16L22.8889 13.457C23.408 14.109 24.0422 14.6536 24.7579 15.062C24.8806 15.1333 25.0157 15.1789 25.1556 15.1961C25.2954 15.2133 25.4372 15.2017 25.5727 15.1621C25.7082 15.1225 25.8347 15.0556 25.945 14.9652C26.0553 14.8749 26.1471 14.7629 26.2153 14.6358C26.2834 14.5087 26.3264 14.3689 26.3419 14.2245C26.3573 14.0802 26.3449 13.9341 26.3053 13.7947C26.2657 13.6553 26.1998 13.5254 26.1113 13.4124C26.0228 13.2994 25.9134 13.2057 25.7896 13.1365C25.4148 12.9228 25.0727 12.6533 24.7744 12.3365L26.4227 11.3545C26.5488 11.285 26.6601 11.19 26.7499 11.0753C26.8397 10.9605 26.9062 10.8283 26.9454 10.6866C26.9847 10.5448 26.9959 10.3963 26.9784 10.2499C26.961 10.1036 26.9151 9.96237 26.8437 9.83465C26.7722 9.70694 26.6766 9.59534 26.5625 9.5065C26.4484 9.41766 26.3181 9.35339 26.1794 9.31751C26.0407 9.28163 25.8965 9.27486 25.7552 9.29762C25.614 9.32038 25.4786 9.3722 25.3571 9.45L23.7088 10.4315C23.5913 10.0065 23.5355 9.56588 23.543 9.124C23.546 8.97929 23.5214 8.83537 23.4705 8.7005C23.4195 8.56563 23.3433 8.44245 23.2461 8.33803C23.1489 8.23362 23.0326 8.15001 22.9041 8.092C22.7755 8.03399 22.6371 8.00273 22.4967 8H22.4769C22.1974 7.99995 21.9291 8.11302 21.7296 8.3149C21.5301 8.51678 21.4155 8.79133 21.4103 9.0795C21.3952 9.92244 21.5351 10.7607 21.8224 11.55L17.5516 14.0945V9.009C18.3586 8.87146 19.1329 8.57744 19.8337 8.1425C20.076 7.99192 20.2504 7.74824 20.3184 7.46506C20.3865 7.18188 20.3428 6.8824 20.1968 6.6325C20.0508 6.3826 19.8145 6.20275 19.5399 6.13252C19.2653 6.06229 18.975 6.10742 18.7326 6.258C18.3653 6.48566 17.9673 6.656 17.5516 6.7635V5.1C17.5516 4.80826 17.4393 4.52847 17.2392 4.32218C17.0392 4.11589 16.7679 4 16.4851 4C16.2022 4 15.9309 4.11589 15.7309 4.32218C15.5308 4.52847 15.4185 4.80826 15.4185 5.1V6.7635C15.0028 6.656 14.6048 6.48566 14.2375 6.258C13.9952 6.10742 13.7048 6.06229 13.4302 6.13252C13.1556 6.20275 12.9193 6.3826 12.7733 6.6325C12.6273 6.8824 12.5836 7.18188 12.6517 7.46506C12.7198 7.74824 12.8941 7.99192 13.1365 8.1425C13.8372 8.57744 14.6115 8.87146 15.4185 9.009V14.0945L11.1478 11.55C11.4355 10.7605 11.5757 9.92184 11.5608 9.0785C11.5556 8.79033 11.4409 8.51578 11.2415 8.3139C11.042 8.11202 10.7737 7.99895 10.4942 7.999H10.4734C10.3333 8.00167 10.1951 8.03277 10.0667 8.09053C9.93829 8.14829 9.82216 8.23157 9.72496 8.33562C9.62776 8.43968 9.55139 8.56246 9.50021 8.69696C9.44903 8.83146 9.42404 8.97504 9.42667 9.1195C9.43452 9.56202 9.37881 10.0033 9.26135 10.429L7.61299 9.45C7.49161 9.37532 7.35704 9.32628 7.21711 9.3057C7.07719 9.28513 6.93469 9.29345 6.79791 9.33016C6.66113 9.36688 6.53279 9.43127 6.42035 9.5196C6.3079 9.60792 6.2136 9.7184 6.14293 9.84464C6.07225 9.97087 6.0266 10.1103 6.00865 10.2549C5.99069 10.3995 6.00077 10.5463 6.03831 10.6869C6.07585 10.8274 6.1401 10.9588 6.22733 11.0735C6.31455 11.1882 6.42301 11.2839 6.5464 11.355L8.19477 12.337C7.8964 12.6538 7.55431 12.9233 7.17957 13.137C7.05572 13.2062 6.94639 13.2999 6.85787 13.4129C6.76935 13.5259 6.7034 13.6558 6.66382 13.7952C6.62424 13.9346 6.61183 14.0807 6.62729 14.225C6.64274 14.3694 6.68577 14.5092 6.75389 14.6363C6.822 14.7634 6.91385 14.8754 7.02414 14.9657C7.13443 15.0561 7.26097 15.123 7.39647 15.1626C7.53196 15.2022 7.67372 15.2138 7.81356 15.1966C7.95341 15.1794 8.08857 15.1338 8.21125 15.0625C8.92691 14.654 9.56107 14.1094 10.0802 13.4575L14.3519 16L10.0812 18.543C9.56204 17.8911 8.92788 17.3465 8.21222 16.938C8.08954 16.8667 7.95438 16.8211 7.81453 16.8039C7.67469 16.7867 7.53293 16.7983 7.39744 16.8379C7.26194 16.8775 7.1354 16.9444 7.02511 17.0348C6.91482 17.1251 6.82297 17.2371 6.75486 17.3642C6.68674 17.4913 6.64371 17.6311 6.62825 17.7755C6.6128 17.9198 6.62521 18.0659 6.66479 18.2053C6.70436 18.3447 6.77032 18.4746 6.85884 18.5876C6.94736 18.7006 7.05669 18.7943 7.18054 18.8635C7.55528 19.0772 7.89737 19.3467 8.19573 19.6635L6.5464 20.65C6.42301 20.7211 6.31455 20.8168 6.22733 20.9315C6.1401 21.0462 6.07585 21.1776 6.03831 21.3181C6.00077 21.4587 5.99069 21.6055 6.00865 21.7501C6.0266 21.8947 6.07225 22.0341 6.14293 22.1604C6.2136 22.2866 6.3079 22.3971 6.42035 22.4854C6.53279 22.5737 6.66113 22.6381 6.79791 22.6748C6.93469 22.7116 7.07719 22.7199 7.21711 22.6993C7.35704 22.6787 7.49161 22.6297 7.61299 22.555L9.26135 21.5735C9.37878 21.9985 9.43465 22.4391 9.42716 22.881C9.42223 23.1724 9.52963 23.4539 9.72579 23.6637C9.92195 23.8735 10.1908 23.9945 10.4734 24H10.4933C10.7727 24 11.041 23.887 11.2405 23.6851C11.44 23.4832 11.5546 23.2087 11.5598 22.9205C11.5749 22.0776 11.4351 21.2393 11.1478 20.45L15.4185 17.9055V22.991C14.6115 23.1285 13.8372 23.4226 13.1365 23.8575C12.8941 24.0081 12.7198 24.2518 12.6517 24.5349C12.5836 24.8181 12.6273 25.1176 12.7733 25.3675C12.9193 25.6174 13.1556 25.7973 13.4302 25.8675C13.7048 25.9377 13.9952 25.8926 14.2375 25.742C14.6048 25.5143 15.0028 25.344 15.4185 25.2365V26.9C15.4185 27.1917 15.5308 27.4715 15.7309 27.6778C15.9309 27.8841 16.2022 28 16.4851 28C16.7679 28 17.0392 27.8841 17.2392 27.6778C17.4393 27.4715 17.5516 27.1917 17.5516 26.9V25.2365C17.9673 25.344 18.3653 25.5143 18.7326 25.742C18.975 25.8926 19.2653 25.9377 19.5399 25.8675C19.8145 25.7972 20.0508 25.6174 20.1968 25.3675C20.3428 25.1176 20.3865 24.8181 20.3184 24.5349C20.2504 24.2518 20.076 24.0081 19.8337 23.8575C19.1329 23.4226 18.3586 23.1285 17.5516 22.991V17.9055L21.8224 20.45C21.5346 21.2395 21.3945 22.0782 21.4093 22.9215C21.4145 23.2097 21.5292 23.4842 21.7286 23.6861C21.9281 23.888 22.1964 24.001 22.4759 24.001H22.4967C22.6368 23.9983 22.775 23.9672 22.9034 23.9095C23.0318 23.8517 23.148 23.7684 23.2452 23.6644C23.3424 23.5603 23.4187 23.4375 23.4699 23.303C23.5211 23.1685 23.5461 23.025 23.5434 22.8805C23.5356 22.438 23.5913 21.9967 23.7088 21.571L25.3571 22.5525C25.4785 22.6329 25.6144 22.687 25.7567 22.7117C25.8989 22.7363 26.0446 22.731 26.1847 22.6959C26.3249 22.6609 26.4568 22.5968 26.5723 22.5077C26.6878 22.4186 26.7846 22.3063 26.8568 22.1775C26.929 22.0487 26.9751 21.9061 26.9923 21.7584C27.0096 21.6107 26.9976 21.461 26.9571 21.3182C26.9167 21.1754 26.8485 21.0426 26.7568 20.9277C26.6651 20.8129 26.5518 20.7184 26.4237 20.65Z" fill="#00368E"/>
  </symbol>
  <symbol id="opened-eye" viewBox="0 0 18 13" fill="none">
    <path d="M8.81543 1.67913C11.5464 1.67913 14.0117 3.12484 15.4424 5.47311C15.7507 5.979 15.7506 6.61445 15.4426 7.12046C14.0131 9.46867 11.5535 10.9143 8.81543 10.9143C6.07731 10.9143 3.61778 9.46867 2.18827 7.12046C1.88023 6.61445 1.8802 5.979 2.18843 5.47311C3.61917 3.12484 6.08448 1.67913 8.81543 1.67913ZM8.81543 0C5.06477 0 1.82667 2.28765 0.290707 5.60295C0.0868419 6.04298 0.086842 6.55049 0.290707 6.99052C1.82667 10.3058 5.06477 12.5935 8.81543 12.5935C12.5661 12.5935 15.8042 10.3058 17.3402 6.99052C17.544 6.55049 17.544 6.04298 17.3402 5.60295C15.8042 2.28765 12.5661 0 8.81543 0ZM8.81543 4.19782C9.92137 4.19782 10.8189 5.13814 10.8189 6.29674C10.8189 7.45533 9.92137 8.39565 8.81543 8.39565C7.70949 8.39565 6.81192 7.45533 6.81192 6.29674C6.81192 5.13814 7.70949 4.19782 8.81543 4.19782ZM8.81543 2.51869C6.82795 2.51869 5.20912 4.21461 5.20912 6.29674C5.20912 8.37886 6.82795 10.0748 8.81543 10.0748C10.8029 10.0748 12.4217 8.37886 12.4217 6.29674C12.4217 4.21461 10.8029 2.51869 8.81543 2.51869Z" fill="#898989"/>
  </symbol>
  <symbol id="closed-eye" viewBox="0 0 18 13" fill="none">
    <path fill-rule="evenodd" clip-rule="evenodd" d="M8.67762 0C4.92696 0 1.68886 2.28765 0.152899 5.60295C-0.0509664 6.04298 -0.0509663 6.55049 0.152899 6.99052C1.68886 10.3058 4.92696 12.5935 8.67762 12.5935C12.4283 12.5935 15.6664 10.3058 17.2023 6.99052C17.4062 6.55049 17.4062 6.04298 17.2023 5.60295C15.6664 2.28765 12.4283 0 8.67762 0ZM8.67762 4.19782C9.78356 4.19782 10.6811 5.13814 10.6811 6.29674C10.6811 7.45533 9.78356 8.39565 8.67762 8.39565C7.57169 8.39565 6.67411 7.45533 6.67411 6.29674C6.67411 5.13814 7.57169 4.19782 8.67762 4.19782Z" fill="#898989"/>
  </symbol>
  <symbol id="calendar" viewBox="0 0 19 19" fill="none">
    <path d="M15.0409 3.16683H13.4575V2.37516C13.4575 2.1652 13.3741 1.96384 13.2256 1.81537C13.0772 1.6669 12.8758 1.5835 12.6659 1.5835C12.4559 1.5835 12.2545 1.6669 12.1061 1.81537C11.9576 1.96384 11.8742 2.1652 11.8742 2.37516V3.16683H7.12419V2.37516C7.12419 2.1652 7.04078 1.96384 6.89231 1.81537C6.74385 1.6669 6.54248 1.5835 6.33252 1.5835C6.12256 1.5835 5.92119 1.6669 5.77273 1.81537C5.62426 1.96384 5.54085 2.1652 5.54085 2.37516V3.16683H3.95752C3.32763 3.16683 2.72354 3.41705 2.27814 3.86245C1.83274 4.30785 1.58252 4.91194 1.58252 5.54183V15.0418C1.58252 15.6717 1.83274 16.2758 2.27814 16.7212C2.72354 17.1666 3.32763 17.4168 3.95752 17.4168H15.0409C15.6707 17.4168 16.2748 17.1666 16.7202 16.7212C17.1656 16.2758 17.4159 15.6717 17.4159 15.0418V5.54183C17.4159 4.91194 17.1656 4.30785 16.7202 3.86245C16.2748 3.41705 15.6707 3.16683 15.0409 3.16683ZM15.8325 15.0418C15.8325 15.2518 15.7491 15.4532 15.6006 15.6016C15.4522 15.7501 15.2508 15.8335 15.0409 15.8335H3.95752C3.74756 15.8335 3.54619 15.7501 3.39773 15.6016C3.24926 15.4532 3.16585 15.2518 3.16585 15.0418V9.50016H15.8325V15.0418ZM15.8325 7.91683H3.16585V5.54183C3.16585 5.33187 3.24926 5.1305 3.39773 4.98204C3.54619 4.83357 3.74756 4.75016 3.95752 4.75016H5.54085V5.54183C5.54085 5.75179 5.62426 5.95316 5.77273 6.10162C5.92119 6.25009 6.12256 6.3335 6.33252 6.3335C6.54248 6.3335 6.74385 6.25009 6.89231 6.10162C7.04078 5.95316 7.12419 5.75179 7.12419 5.54183V4.75016H11.8742V5.54183C11.8742 5.75179 11.9576 5.95316 12.1061 6.10162C12.2545 6.25009 12.4559 6.3335 12.6659 6.3335C12.8758 6.3335 13.0772 6.25009 13.2256 6.10162C13.3741 5.95316 13.4575 5.75179 13.4575 5.54183V4.75016H15.0409C15.2508 4.75016 15.4522 4.83357 15.6006 4.98204C15.7491 5.1305 15.8325 5.33187 15.8325 5.54183V7.91683Z" fill="#898989"/>
  </symbol>
  <symbol id="ellipsis-vertical" viewBox="0 0 3 12" fill="none">
    <circle cx="1.7065" cy="1.79341" r="1.29341" fill="#898989"/>
    <circle cx="1.7065" cy="6.14107" r="1.29341" fill="#898989"/>
    <circle cx="1.7065" cy="10.4907" r="1.29341" fill="#898989"/>
  </symbol>
  <symbol id="left-arrow" viewBox="0 0 19 17" fill="none" xmlns="http://www.w3.org/2000/svg">
  <path fill-rule="evenodd" clip-rule="evenodd" d="M0.356659 7.50336C-0.118886 7.98925 -0.118886 8.76612 0.356659 9.25201L7.33262 16.3797C7.8155 16.8731 8.60691 16.8816 9.10028 16.3987C9.59366 15.9158 9.60218 15.1244 9.1193 14.631L4.22268 9.62793H17.3436C18.0339 9.62793 18.5936 9.06829 18.5936 8.37793C18.5936 7.68757 18.0339 7.12793 17.3436 7.12793H4.22221L9.1193 2.12432C9.60218 1.63095 9.59366 0.839535 9.10028 0.35666C8.6069 -0.126216 7.81549 -0.117702 7.33262 0.375676L0.356659 7.50336Z" fill="black"/>
  </symbol>
</svg>
