<svg width="11" height="13" viewBox="0 0 11 13" fill="none" xmlns="http://www.w3.org/2000/svg">
<g id="Group">
<path id="Vector" d="M9.77778 1.22222H9.16667V0H7.94444V1.22222H3.05556V0H1.83333V1.22222H1.22222C0.543889 1.22222 0.00611111 1.77222 0.00611111 2.44444L0 11C0 11.6722 0.543889 12.2222 1.22222 12.2222H9.77778C10.45 12.2222 11 11.6722 11 11V2.44444C11 1.77222 10.45 1.22222 9.77778 1.22222ZM9.77778 11H1.22222V4.88889H9.77778V11ZM3.66667 7.33333H2.44444V6.11111H3.66667V7.33333ZM6.11111 7.33333H4.88889V6.11111H6.11111V7.33333ZM8.55556 7.33333H7.33333V6.11111H8.55556V7.33333ZM3.66667 9.77778H2.44444V8.55556H3.66667V9.77778ZM6.11111 9.77778H4.88889V8.55556H6.11111V9.77778ZM8.55556 9.77778H7.33333V8.55556H8.55556V9.77778Z" fill="#C7C7C7"/>
</g>
</svg>
