<svg xmlns="http://www.w3.org/2000/svg">
  <symbol id="home" viewBox="0 0 14 16">
    <path d="M7 0L0 5.33333V16H4.375V9.77778H9.625V16H14V5.33333L7 0Z" />
  </symbol>
  <symbol id="board" viewBox="0 0 18 14">
    <path d="M0 9H4V5H0V9ZM0 14H4V10H0V14ZM0 4H4V0H0V4ZM5 9H18V5H5V9ZM5 14H18V10H5V14ZM5 0V4H18V0H5Z" />
  </symbol>
  <symbol id="exam-review" viewBox="0 0 14 17">
    <path d="M7 7.90024C5.16444 6.08029 2.70667 4.9635 0 4.9635V14.0633C2.70667 14.0633 5.16444 15.18 7 17C8.83556 15.1883 11.2933 14.0633 14 14.0633V4.9635C11.2933 4.9635 8.83556 6.08029 7 7.90024ZM7 4.9635C8.29111 4.9635 9.33333 3.85499 9.33333 2.48175C9.33333 1.10852 8.29111 0 7 0C5.70889 0 4.66667 1.10852 4.66667 2.48175C4.66667 3.85499 5.70889 4.9635 7 4.9635Z" />
  </symbol>
  <symbol id="notification" viewBox="0 0 19 19">
    <path d="M9.50008 17.4166C10.3709 17.4166 11.0834 16.7041 11.0834 15.8333H7.91675C7.91675 16.7041 8.62133 17.4166 9.50008 17.4166ZM14.2501 12.6666V8.70829C14.2501 6.27788 12.9517 4.24329 10.6876 3.70496V3.16663C10.6876 2.50954 10.1572 1.97913 9.50008 1.97913C8.843 1.97913 8.31258 2.50954 8.31258 3.16663V3.70496C6.0405 4.24329 4.75008 6.26996 4.75008 8.70829V12.6666L3.16675 14.25V15.0416H15.8334V14.25L14.2501 12.6666Z" />
  </symbol>
  <symbol id="my-page" viewBox="0 0 17 17">
    <path d="M8.17442 0C3.66214 0 0 3.66214 0 8.17442C0 12.6867 3.66214 16.3488 8.17442 16.3488C12.6867 16.3488 16.3488 12.6867 16.3488 8.17442C16.3488 3.66214 12.6867 0 8.17442 0ZM8.17442 14.714C4.5695 14.714 1.63488 11.7793 1.63488 8.17442C1.63488 8.16624 1.63488 8.15807 1.63488 8.14989C3.52317 7.97006 4.43871 6.85016 5.18258 5.36242C5.32155 5.07631 5.59948 4.90465 5.91828 4.90465H10.4387C10.7494 4.90465 11.0273 5.07631 11.1663 5.35424C11.902 6.82564 12.793 7.96188 14.714 8.14172C14.714 8.14989 14.714 8.15807 14.714 8.16624C14.714 11.7793 11.7793 14.714 8.17442 14.714Z" />
    <path d="M5.722 10.0138C6.28632 10.0138 6.7438 9.55634 6.7438 8.99202C6.7438 8.42769 6.28632 7.97021 5.722 7.97021C5.15767 7.97021 4.7002 8.42769 4.7002 8.99202C4.7002 9.55634 5.15767 10.0138 5.722 10.0138Z" />
    <path d="M10.6268 10.0138C11.1911 10.0138 11.6486 9.55634 11.6486 8.99202C11.6486 8.42769 11.1911 7.97021 10.6268 7.97021C10.0625 7.97021 9.60498 8.42769 9.60498 8.99202C9.60498 9.55634 10.0625 10.0138 10.6268 10.0138Z" />
  </symbol>
  <symbol id="board-cloud"  viewBox="0 0 16 11">
    <path d="M12.9 4.1525C12.4467 1.78062 10.4267 0 8 0C6.07333 0 4.40667 1.1275 3.57333 2.7775C1.56667 2.9975 0 4.74375 0 6.875C0 9.15063 1.79333 11 4 11H12.6667C14.5067 11 16 9.46 16 7.5625C16 5.7475 14.6333 4.27625 12.9 4.1525ZM12.6667 9.625H4C2.52667 9.625 1.33333 8.39437 1.33333 6.875C1.33333 5.35563 2.52667 4.125 4 4.125C5.47333 4.125 6.66667 5.35563 6.66667 6.875H8C8 4.9775 6.76 3.3825 5.06667 2.90125C5.74 1.98 6.8 1.375 8 1.375C10.02 1.375 11.6667 3.07313 11.6667 5.15625V5.5H12.6667C13.7667 5.5 14.6667 6.42812 14.6667 7.5625C14.6667 8.69687 13.7667 9.625 12.6667 9.625Z" fill="#00368E"/>
  </symbol>
  <symbol id="board-snowy"  viewBox="0 0 16 14">
    <path d="M2.1 11.4286C2.1 11.8214 2.415 12.1429 2.8 12.1429C3.185 12.1429 3.5 11.8214 3.5 11.4286C3.5 11.0357 3.185 10.7143 2.8 10.7143C2.415 10.7143 2.1 11.0357 2.1 11.4286ZM10.5 11.4286C10.5 11.8214 10.815 12.1429 11.2 12.1429C11.585 12.1429 11.9 11.8214 11.9 11.4286C11.9 11.0357 11.585 10.7143 11.2 10.7143C10.815 10.7143 10.5 11.0357 10.5 11.4286ZM4.2 14.2857C4.2 14.6786 4.515 15 4.9 15C5.285 15 5.6 14.6786 5.6 14.2857C5.6 13.8929 5.285 13.5714 4.9 13.5714C4.515 13.5714 4.2 13.8929 4.2 14.2857ZM6.3 11.4286C6.3 11.8214 6.615 12.1429 7 12.1429C7.385 12.1429 7.7 11.8214 7.7 11.4286C7.7 11.0357 7.385 10.7143 7 10.7143C6.615 10.7143 6.3 11.0357 6.3 11.4286ZM8.4 14.2857C8.4 14.6786 8.715 15 9.1 15C9.485 15 9.8 14.6786 9.8 14.2857C9.8 13.8929 9.485 13.5714 9.1 13.5714C8.715 13.5714 8.4 13.8929 8.4 14.2857ZM10.85 10H3.85C1.729 10 0 8.23571 0 6.07143C0 4.1 1.463 2.43571 3.346 2.18571C4.081 0.842857 5.474 0 7 0C9.079 0 10.815 1.55714 11.144 3.58571C12.747 3.73571 14 5.11429 14 6.78571C14 8.55714 12.586 10 10.85 10Z" fill="#00368E"/>
  </symbol>
  <symbol id="board-sunny"  viewBox="0 0 16 15">
    <path d="M3.92727 2.93836L2.7 1.71233L1.73864 2.67808L2.95909 3.90411L3.92727 2.93836ZM2.04545 6.81507H0V8.18493H2.04545V6.81507ZM8.18182 0H6.81818V2.02055H8.18182V0ZM13.2614 2.67808L12.3 1.71233L11.0795 2.93836L12.0409 3.90411L13.2614 2.67808ZM11.0727 12.0616L12.2932 13.2945L13.2545 12.3288L12.0273 11.1027L11.0727 12.0616ZM12.9545 6.81507V8.18493H15V6.81507H12.9545ZM7.5 3.39041C5.24318 3.39041 3.40909 5.23288 3.40909 7.5C3.40909 9.76712 5.24318 11.6096 7.5 11.6096C9.75682 11.6096 11.5909 9.76712 11.5909 7.5C11.5909 5.23288 9.75682 3.39041 7.5 3.39041ZM6.81818 15H8.18182V12.9795H6.81818V15ZM1.73864 12.3219L2.7 13.2877L3.92045 12.0548L2.95909 11.089L1.73864 12.3219Z" fill="#00368E"/>
  </symbol>
  <symbol id="board-star"  viewBox="0 0 15 13">
    <path d="M5.01323 5.2H0L4.08069 8.0665L2.53307 13L6.61376 9.9515L10.7011 13L9.14682 8.0665L13.2275 5.2H8.21429L6.61376 0L5.01323 5.2ZM13.4656 13L12.2354 9.0935L15 7.15H12.7249L10.6878 8.58L11.6534 11.648L13.4656 13ZM10.582 3.9L9.37831 0L8.69048 2.2425L9.19973 3.9H10.582Z" fill="#00368E"/>
  </symbol>
  <symbol id="hamburger" viewBox="0 0 14 9">
    <path d="M0 9H14V7.5H0V9ZM0 5.25H14V3.75H0V5.25ZM0 0V1.5H14V0H0Z" fill="#00368E"/>
  </symbol>
  <symbol id="sponser"  viewBox="0 0 15 13">
    <path d="M5.01323 5.2H0L4.08069 8.0665L2.53307 13L6.61376 9.9515L10.7011 13L9.14682 8.0665L13.2275 5.2H8.21429L6.61376 0L5.01323 5.2ZM13.4656 13L12.2354 9.0935L15 7.15H12.7249L10.6878 8.58L11.6534 11.648L13.4656 13ZM10.582 3.9L9.37831 0L8.69048 2.2425L9.19973 3.9H10.582Z" fill="#00368E"/>
  </symbol>
  <symbol id="search"  viewBox="0 0 9 10">
    <path d="M6.43225 6.28931H6.02573L5.88165 6.13493C6.38594 5.48313 6.68954 4.63694 6.68954 3.71641C6.68954 1.66381 5.19211 0 3.34477 0C1.49743 0 0 1.66381 0 3.71641C0 5.76901 1.49743 7.43282 3.34477 7.43282C4.17324 7.43282 4.93482 7.09548 5.52144 6.53516L5.66038 6.69525V7.14694L8.23328 10L9 9.14808L6.43225 6.28931ZM3.34477 6.28931C2.06346 6.28931 1.02916 5.14008 1.02916 3.71641C1.02916 2.29274 2.06346 1.14351 3.34477 1.14351C4.62607 1.14351 5.66038 2.29274 5.66038 3.71641C5.66038 5.14008 4.62607 6.28931 3.34477 6.28931Z" fill="#6A6A6A"/>
  </symbol>
  <symbol id="circle"  viewBox="0 0 7 7" >
    <path d="M6.3 0H0.7C0.315 0 0 0.315 0 0.7V7L1.4 5.6H6.3C6.685 5.6 7 5.285 7 4.9V0.7C7 0.315 6.685 0 6.3 0ZM6.3 4.9H1.4L0.7 5.6V0.7H6.3V4.9Z" fill="#5F86BF"/>
  </symbol>
  <symbol id="pencil"  viewBox="0 0 24 24">
    <circle cx="12" cy="12" r="12" fill="#00368E"/>
    <path d="M7 14.7087V17H9.29135L16.0493 10.242L13.758 7.9507L7 14.7087ZM17.8213 8.47007C18.0596 8.23177 18.0596 7.84683 17.8213 7.60853L16.3915 6.17873C16.1532 5.94042 15.7682 5.94042 15.5299 6.17873L14.4117 7.2969L16.7031 9.58825L17.8213 8.47007Z" fill="white"/>
  </symbol>
  <symbol id="profile"  viewBox="0 0 9 10">
    <path d="M4.5 0C2.016 0 0 2.016 0 4.5C0 6.984 2.016 9 4.5 9C6.984 9 9 6.984 9 4.5C9 2.016 6.984 0 4.5 0ZM4.5 8.1C2.5155 8.1 0.9 6.4845 0.9 4.5C0.9 4.4955 0.9 4.491 0.9 4.4865C1.9395 4.3875 2.4435 3.771 2.853 2.952C2.9295 2.7945 3.0825 2.7 3.258 2.7H5.7465C5.9175 2.7 6.0705 2.7945 6.147 2.9475C6.552 3.7575 7.0425 4.383 8.1 4.482C8.1 4.4865 8.1 4.491 8.1 4.4955C8.1 6.4845 6.4845 8.1 4.5 8.1Z" fill="#00368E"/>
    <path d="M3.1499 5.5127C3.46056 5.5127 3.7124 5.26086 3.7124 4.9502C3.7124 4.63954 3.46056 4.3877 3.1499 4.3877C2.83924 4.3877 2.5874 4.63954 2.5874 4.9502C2.5874 5.26086 2.83924 5.5127 3.1499 5.5127Z" fill="#00368E"/>
    <path d="M5.8501 5.5127C6.16076 5.5127 6.4126 5.26086 6.4126 4.9502C6.4126 4.63954 6.16076 4.3877 5.8501 4.3877C5.53944 4.3877 5.2876 4.63954 5.2876 4.9502C5.2876 5.26086 5.53944 5.5127 5.8501 5.5127Z" fill="#00368E"/>
  </symbol>
  <symbol id="notification" viewBox="0 0 10 10">
  <g clip-path="url(#clip0_153_403)">
    <path d="M5.00011 9.16675C5.45845 9.16675 5.83345 8.79175 5.83345 8.33341H4.16678C4.16678 8.79175 4.54178 9.16675 5.00011 9.16675ZM7.50011 6.66675V4.58341C7.50011 3.30425 6.82095 2.23341 5.62511 1.95008V1.66675C5.62511 1.32091 5.34595 1.04175 5.00011 1.04175C4.65428 1.04175 4.37511 1.32091 4.37511 1.66675V1.95008C3.18345 2.23341 2.50011 3.30008 2.50011 4.58341V6.66675L1.66678 7.50008V7.91675H8.33345V7.50008L7.50011 6.66675ZM6.66678 7.08341H3.33345V4.58341C3.33345 3.55008 3.96261 2.70841 5.00011 2.70841C6.03761 2.70841 6.66678 3.55008 6.66678 4.58341V7.08341ZM3.15845 1.70008L2.56261 1.10425C1.56261 1.86675 0.904281 3.04175 0.845947 4.37508H1.67928C1.74178 3.27091 2.30845 2.30425 3.15845 1.70008ZM8.32095 4.37508H9.15428C9.09178 3.04175 8.43345 1.86675 7.43761 1.10425L6.84595 1.70008C7.68761 2.30425 8.25845 3.27091 8.32095 4.37508Z" fill="#FF4B6C"/>
  </g>
  <defs>
    <clipPath id="clip0_153_403">
      <rect width="10" height="10" fill="white"/>
    </clipPath>
  </defs>
  </symbol> 
  <symbol id="comment"  viewBox="0 0 7 7">
    <path d="M6.3 0H0.7C0.315 0 0 0.315 0 0.7V7L1.4 5.6H6.3C6.685 5.6 7 5.285 7 4.9V0.7C7 0.315 6.685 0 6.3 0ZM6.3 4.9H1.4L0.7 5.6V0.7H6.3V4.9Z" fill="#5F86BF"/> 
  </symbol>
  <symbol id="blank-heart"   viewBox="0 0 8 7" >
    <path d="M5.8 0C5.104 0 4.436 0.308992 4 0.797275C3.564 0.308992 2.896 0 2.2 0C0.968 0 0 0.923161 0 2.09809C0 3.54005 1.36 4.71499 3.42 6.50027L4 7L4.58 6.49646C6.64 4.71499 8 3.54005 8 2.09809C8 0.923161 7.032 0 5.8 0ZM4.04 5.93188L4 5.97003L3.96 5.93188C2.056 4.28774 0.8 3.20055 0.8 2.09809C0.8 1.33515 1.4 0.762943 2.2 0.762943C2.816 0.762943 3.416 1.1406 3.628 1.66322H4.376C4.584 1.1406 5.184 0.762943 5.8 0.762943C6.6 0.762943 7.2 1.33515 7.2 2.09809C7.2 3.20055 5.944 4.28774 4.04 5.93188Z" fill="#5F86BF"/>
  </symbol>
  <symbol id="filled-heart"  viewBox="0 0 8 7" >
    <path d="M4 7L3.42 6.49646C1.36 4.71499 0 3.54005 0 2.09809C0 0.923161 0.968 0 2.2 0C2.896 0 3.564 0.308992 4 0.797275C4.436 0.308992 5.104 0 5.8 0C7.032 0 8 0.923161 8 2.09809C8 3.54005 6.64 4.71499 4.58 6.50027L4 7Z" fill="#5F86BF"/>
  </symbol>
  <!-- <symbol id="refresh" viewBox="0 0 10 13" >
    <path d="M5 2.6V0L1.875 3.25L5 6.5V3.9C7.06875 3.9 8.75 5.6485 8.75 7.8C8.75 9.9515 7.06875 11.7 5 11.7C2.93125 11.7 1.25 9.9515 1.25 7.8H0C0 10.673 2.2375 13 5 13C7.7625 13 10 10.673 10 7.8C10 4.927 7.7625 2.6 5 2.6Z" fill="#00368E"/>
  </symbol> -->
  <symbol id="refresh" viewBox="0 0 30 30" >
    <g filter="url(#filter0_d_545_3)">
    <circle cx="15" cy="15" r="11" fill="white"/>
    </g>
    <path d="M15 10.6V8L11.875 11.25L15 14.5V11.9C17.0687 11.9 18.75 13.6485 18.75 15.8C18.75 17.9515 17.0687 19.7 15 19.7C12.9313 19.7 11.25 17.9515 11.25 15.8H10C10 18.673 12.2375 21 15 21C17.7625 21 20 18.673 20 15.8C20 12.927 17.7625 10.6 15 10.6Z" fill="#00368E"/>
    <defs>
    <filter id="filter0_d_545_3" x="0" y="0" width="30" height="30" filterUnits="userSpaceOnUse" color-interpolation-filters="sRGB">
    <feFlood flood-opacity="0" result="BackgroundImageFix"/>
    <feColorMatrix in="SourceAlpha" type="matrix" values="0 0 0 0 0 0 0 0 0 0 0 0 0 0 0 0 0 0 127 0" result="hardAlpha"/>
    <feOffset/>
    <feGaussianBlur stdDeviation="2"/>
    <feComposite in2="hardAlpha" operator="out"/>
    <feColorMatrix type="matrix" values="0 0 0 0 0 0 0 0 0 0 0 0 0 0 0 0 0 0 0.25 0"/>
    <feBlend mode="normal" in2="BackgroundImageFix" result="effect1_dropShadow_545_3"/>
    <feBlend mode="normal" in="SourceGraphic" in2="effect1_dropShadow_545_3" result="shape"/>
    </filter>
    </defs>
  </symbol>
  <symbol id="more-option" viewBox="0 0 2 8" >
    <path d="M2 7C2 7.55 1.55 8 1 8C0.45 8 -2.18748e-07 7.55 -1.94707e-07 7C-1.70666e-07 6.45 0.45 6 1 6C1.55 6 2 6.45 2 7ZM2 1C2 1.55 1.55 2 1 2C0.45 2 4.35199e-08 1.55 6.75611e-08 1C9.16024e-08 0.45 0.45 -6.77527e-08 1 -4.37114e-08C1.55 -1.96701e-08 2 0.45 2 1ZM2 4C2 4.55 1.55 5 1 5C0.45 5 -8.76143e-08 4.55 -6.3573e-08 4C-3.95318e-08 3.45 0.45 3 1 3C1.55 3 2 3.45 2 4Z" fill="black"/>
  </symbol>
</svg>
