<svg xmlns="http://www.w3.org/2000/svg">
  <symbol id="home" viewBox="0 0 14 16">
    <path d="M7 0L0 5.33333V16H4.375V9.77778H9.625V16H14V5.33333L7 0Z" />
  </symbol>
  <symbol id="board" viewBox="0 0 18 14">
    <path d="M0 9H4V5H0V9ZM0 14H4V10H0V14ZM0 4H4V0H0V4ZM5 9H18V5H5V9ZM5 14H18V10H5V14ZM5 0V4H18V0H5Z" />
  </symbol>
  <symbol id="exam-review" viewBox="0 0 14 17">
    <path d="M7 7.90024C5.16444 6.08029 2.70667 4.9635 0 4.9635V14.0633C2.70667 14.0633 5.16444 15.18 7 17C8.83556 15.1883 11.2933 14.0633 14 14.0633V4.9635C11.2933 4.9635 8.83556 6.08029 7 7.90024ZM7 4.9635C8.29111 4.9635 9.33333 3.85499 9.33333 2.48175C9.33333 1.10852 8.29111 0 7 0C5.70889 0 4.66667 1.10852 4.66667 2.48175C4.66667 3.85499 5.70889 4.9635 7 4.9635Z" />
  </symbol>
  <symbol id="alert" viewBox="0 0 19 19">
    <path d="M9.50008 17.4166C10.3709 17.4166 11.0834 16.7041 11.0834 15.8333H7.91675C7.91675 16.7041 8.62133 17.4166 9.50008 17.4166ZM14.2501 12.6666V8.70829C14.2501 6.27788 12.9517 4.24329 10.6876 3.70496V3.16663C10.6876 2.50954 10.1572 1.97913 9.50008 1.97913C8.843 1.97913 8.31258 2.50954 8.31258 3.16663V3.70496C6.0405 4.24329 4.75008 6.26996 4.75008 8.70829V12.6666L3.16675 14.25V15.0416H15.8334V14.25L14.2501 12.6666Z" />
  </symbol>
  <symbol id="my-page" viewBox="0 0 17 17">
    <path d="M8.17442 0C3.66214 0 0 3.66214 0 8.17442C0 12.6867 3.66214 16.3488 8.17442 16.3488C12.6867 16.3488 16.3488 12.6867 16.3488 8.17442C16.3488 3.66214 12.6867 0 8.17442 0ZM8.17442 14.714C4.5695 14.714 1.63488 11.7793 1.63488 8.17442C1.63488 8.16624 1.63488 8.15807 1.63488 8.14989C3.52317 7.97006 4.43871 6.85016 5.18258 5.36242C5.32155 5.07631 5.59948 4.90465 5.91828 4.90465H10.4387C10.7494 4.90465 11.0273 5.07631 11.1663 5.35424C11.902 6.82564 12.793 7.96188 14.714 8.14172C14.714 8.14989 14.714 8.15807 14.714 8.16624C14.714 11.7793 11.7793 14.714 8.17442 14.714Z" />
    <path d="M5.722 10.0138C6.28632 10.0138 6.7438 9.55634 6.7438 8.99202C6.7438 8.42769 6.28632 7.97021 5.722 7.97021C5.15767 7.97021 4.7002 8.42769 4.7002 8.99202C4.7002 9.55634 5.15767 10.0138 5.722 10.0138Z" />
    <path d="M10.6268 10.0138C11.1911 10.0138 11.6486 9.55634 11.6486 8.99202C11.6486 8.42769 11.1911 7.97021 10.6268 7.97021C10.0625 7.97021 9.60498 8.42769 9.60498 8.99202C9.60498 9.55634 10.0625 10.0138 10.6268 10.0138Z" />
  </symbol>
  <symbol id="hamburger" viewBox="0 0 14 9">
    <path d="M0 9H14V7.5H0V9ZM0 5.25H14V3.75H0V5.25ZM0 0V1.5H14V0H0Z" fill="#00368E"/>
  </symbol>
  <symbol id="sponser"  viewBox="0 0 15 13">
    <path d="M5.01323 5.2H0L4.08069 8.0665L2.53307 13L6.61376 9.9515L10.7011 13L9.14682 8.0665L13.2275 5.2H8.21429L6.61376 0L5.01323 5.2ZM13.4656 13L12.2354 9.0935L15 7.15H12.7249L10.6878 8.58L11.6534 11.648L13.4656 13ZM10.582 3.9L9.37831 0L8.69048 2.2425L9.19973 3.9H10.582Z" fill="#00368E"/>
  </symbol>
  <symbol id="search"  viewBox="0 0 14 15">
    <path fill-rule="evenodd" clip-rule="evenodd" d="M9.40833 2.98147C7.59566 1.17331 4.67868 1.1921 2.88893 3.02377C1.0948 4.85993 1.11369 7.82113 2.9308 9.63372C4.74347 11.4419 7.66045 11.4231 9.45019 9.59141C11.2443 7.75525 11.2254 4.79406 9.40833 2.98147ZM1.77633 1.93663C4.17074 -0.513865 8.08141 -0.539304 10.5069 1.88016C12.7308 4.09852 12.9329 7.60137 11.0986 10.053L13.775 12.7571C14.0772 13.0624 14.0747 13.5549 13.7693 13.8571C13.464 14.1592 12.9716 14.1567 12.6694 13.8514L10.019 11.1735C7.60893 13.1199 4.08181 12.979 1.83223 10.735C-0.588817 8.32 -0.613697 4.38265 1.77633 1.93663Z" fill="#898989"/>
  </symbol>
  <symbol id="circle"  viewBox="0 0 7 7" >
    <path d="M6.3 0H0.7C0.315 0 0 0.315 0 0.7V7L1.4 5.6H6.3C6.685 5.6 7 5.285 7 4.9V0.7C7 0.315 6.685 0 6.3 0ZM6.3 4.9H1.4L0.7 5.6V0.7H6.3V4.9Z" fill="#5F86BF"/>
  </symbol>
  <symbol id="pencil"  viewBox="0 0 24 24">
    <circle cx="12" cy="12" r="12" fill="#00368E"/>
    <path d="M7 14.7087V17H9.29135L16.0493 10.242L13.758 7.9507L7 14.7087ZM17.8213 8.47007C18.0596 8.23177 18.0596 7.84683 17.8213 7.60853L16.3915 6.17873C16.1532 5.94042 15.7682 5.94042 15.5299 6.17873L14.4117 7.2969L16.7031 9.58825L17.8213 8.47007Z" fill="white"/>
  </symbol>
  <symbol id="profile"  viewBox="0 0 9 10">
    <path d="M4.5 0C2.016 0 0 2.016 0 4.5C0 6.984 2.016 9 4.5 9C6.984 9 9 6.984 9 4.5C9 2.016 6.984 0 4.5 0ZM4.5 8.1C2.5155 8.1 0.9 6.4845 0.9 4.5C0.9 4.4955 0.9 4.491 0.9 4.4865C1.9395 4.3875 2.4435 3.771 2.853 2.952C2.9295 2.7945 3.0825 2.7 3.258 2.7H5.7465C5.9175 2.7 6.0705 2.7945 6.147 2.9475C6.552 3.7575 7.0425 4.383 8.1 4.482C8.1 4.4865 8.1 4.491 8.1 4.4955C8.1 6.4845 6.4845 8.1 4.5 8.1Z" fill="#00368E"/>
    <path d="M3.1499 5.5127C3.46056 5.5127 3.7124 5.26086 3.7124 4.9502C3.7124 4.63954 3.46056 4.3877 3.1499 4.3877C2.83924 4.3877 2.5874 4.63954 2.5874 4.9502C2.5874 5.26086 2.83924 5.5127 3.1499 5.5127Z" fill="#00368E"/>
    <path d="M5.8501 5.5127C6.16076 5.5127 6.4126 5.26086 6.4126 4.9502C6.4126 4.63954 6.16076 4.3877 5.8501 4.3877C5.53944 4.3877 5.2876 4.63954 5.2876 4.9502C5.2876 5.26086 5.53944 5.5127 5.8501 5.5127Z" fill="#00368E"/>
  </symbol>
  <symbol id="notification-red" viewBox="0 0 10 10">
  <g clip-path="url(#clip0_153_403)">
    <path d="M5.00011 9.16675C5.45845 9.16675 5.83345 8.79175 5.83345 8.33341H4.16678C4.16678 8.79175 4.54178 9.16675 5.00011 9.16675ZM7.50011 6.66675V4.58341C7.50011 3.30425 6.82095 2.23341 5.62511 1.95008V1.66675C5.62511 1.32091 5.34595 1.04175 5.00011 1.04175C4.65428 1.04175 4.37511 1.32091 4.37511 1.66675V1.95008C3.18345 2.23341 2.50011 3.30008 2.50011 4.58341V6.66675L1.66678 7.50008V7.91675H8.33345V7.50008L7.50011 6.66675ZM6.66678 7.08341H3.33345V4.58341C3.33345 3.55008 3.96261 2.70841 5.00011 2.70841C6.03761 2.70841 6.66678 3.55008 6.66678 4.58341V7.08341ZM3.15845 1.70008L2.56261 1.10425C1.56261 1.86675 0.904281 3.04175 0.845947 4.37508H1.67928C1.74178 3.27091 2.30845 2.30425 3.15845 1.70008ZM8.32095 4.37508H9.15428C9.09178 3.04175 8.43345 1.86675 7.43761 1.10425L6.84595 1.70008C7.68761 2.30425 8.25845 3.27091 8.32095 4.37508Z" fill="#FF4B6C"/>
  </g>
  <defs>
    <clipPath id="clip0_153_403">
      <rect width="10" height="10" fill="white"/>
    </clipPath>
  </defs>
  </symbol> 
  <symbol id="comment"  viewBox="0 0 7 7">
    <path d="M6.3 0H0.7C0.315 0 0 0.315 0 0.7V7L1.4 5.6H6.3C6.685 5.6 7 5.285 7 4.9V0.7C7 0.315 6.685 0 6.3 0ZM6.3 4.9H1.4L0.7 5.6V0.7H6.3V4.9Z" fill="#5F86BF"/> 
  </symbol>
  <symbol id="blank-heart"   viewBox="0 0 8 7" >
    <path d="M5.8 0C5.104 0 4.436 0.308992 4 0.797275C3.564 0.308992 2.896 0 2.2 0C0.968 0 0 0.923161 0 2.09809C0 3.54005 1.36 4.71499 3.42 6.50027L4 7L4.58 6.49646C6.64 4.71499 8 3.54005 8 2.09809C8 0.923161 7.032 0 5.8 0ZM4.04 5.93188L4 5.97003L3.96 5.93188C2.056 4.28774 0.8 3.20055 0.8 2.09809C0.8 1.33515 1.4 0.762943 2.2 0.762943C2.816 0.762943 3.416 1.1406 3.628 1.66322H4.376C4.584 1.1406 5.184 0.762943 5.8 0.762943C6.6 0.762943 7.2 1.33515 7.2 2.09809C7.2 3.20055 5.944 4.28774 4.04 5.93188Z" fill="#5F86BF"/>
  </symbol>
  <symbol id="filled-heart"  viewBox="0 0 8 7" >
    <path d="M4 7L3.42 6.49646C1.36 4.71499 0 3.54005 0 2.09809C0 0.923161 0.968 0 2.2 0C2.896 0 3.564 0.308992 4 0.797275C4.436 0.308992 5.104 0 5.8 0C7.032 0 8 0.923161 8 2.09809C8 3.54005 6.64 4.71499 4.58 6.50027L4 7Z" fill="#5F86BF"/>
  </symbol>
  <symbol id="refresh" viewBox="0 0 30 30" >
    <g filter="url(#filter0_d_545_3)">
    <circle cx="15" cy="15" r="11" fill="white"/>
    </g>
    <path d="M15 10.6V8L11.875 11.25L15 14.5V11.9C17.0687 11.9 18.75 13.6485 18.75 15.8C18.75 17.9515 17.0687 19.7 15 19.7C12.9313 19.7 11.25 17.9515 11.25 15.8H10C10 18.673 12.2375 21 15 21C17.7625 21 20 18.673 20 15.8C20 12.927 17.7625 10.6 15 10.6Z" fill="#00368E"/>
    <defs>
    <filter id="filter0_d_545_3" x="0" y="0" width="30" height="30" filterUnits="userSpaceOnUse" color-interpolation-filters="sRGB">
    <feFlood flood-opacity="0" result="BackgroundImageFix"/>
    <feColorMatrix in="SourceAlpha" type="matrix" values="0 0 0 0 0 0 0 0 0 0 0 0 0 0 0 0 0 0 127 0" result="hardAlpha"/>
    <feOffset/>
    <feGaussianBlur stdDeviation="2"/>
    <feComposite in2="hardAlpha" operator="out"/>
    <feColorMatrix type="matrix" values="0 0 0 0 0 0 0 0 0 0 0 0 0 0 0 0 0 0 0.25 0"/>
    <feBlend mode="normal" in2="BackgroundImageFix" result="effect1_dropShadow_545_3"/>
    <feBlend mode="normal" in="SourceGraphic" in2="effect1_dropShadow_545_3" result="shape"/>
    </filter>
    </defs>
  </symbol>
  <symbol id="more-option" viewBox="0 0 2 8" >
    <path d="M2 7C2 7.55 1.55 8 1 8C0.45 8 -2.18748e-07 7.55 -1.94707e-07 7C-1.70666e-07 6.45 0.45 6 1 6C1.55 6 2 6.45 2 7ZM2 1C2 1.55 1.55 2 1 2C0.45 2 4.35199e-08 1.55 6.75611e-08 1C9.16024e-08 0.45 0.45 -6.77527e-08 1 -4.37114e-08C1.55 -1.96701e-08 2 0.45 2 1ZM2 4C2 4.55 1.55 5 1 5C0.45 5 -8.76143e-08 4.55 -6.3573e-08 4C-3.95318e-08 3.45 0.45 3 1 3C1.55 3 2 3.45 2 4Z"/>
  </symbol>
  <symbol id="arrow-back" viewBox="0 0 9 14">
    <path id="Vector" d="M9 12.355L3.43725 7L9 1.645L7.28745 0L0 7L7.28745 14L9 12.355Z" fill="black"/>
  </symbol>
  <symbol id="visibility" viewBox="0 0 14 10">
    <path id="Vector" d="M7 1.33333C9.41182 1.33333 11.5627 2.75333 12.6127 5C11.5627 7.24667 9.41818 8.66667 7 8.66667C4.58182 8.66667 2.43727 7.24667 1.38727 5C2.43727 2.75333 4.58818 1.33333 7 1.33333ZM7 0C3.81818 0 1.10091 2.07333 0 5C1.10091 7.92667 3.81818 10 7 10C10.1818 10 12.8991 7.92667 14 5C12.8991 2.07333 10.1818 0 7 0ZM7 3.33333C7.87818 3.33333 8.59091 4.08 8.59091 5C8.59091 5.92 7.87818 6.66667 7 6.66667C6.12182 6.66667 5.40909 5.92 5.40909 5C5.40909 4.08 6.12182 3.33333 7 3.33333ZM7 2C5.42182 2 4.13636 3.34667 4.13636 5C4.13636 6.65333 5.42182 8 7 8C8.57818 8 9.86364 6.65333 9.86364 5C9.86364 3.34667 8.57818 2 7 2Z" fill="black"/>
  </symbol>
    <symbol id="arrow-back" viewBox="0 0 9 14">
    <path id="Vector" d="M9 12.355L3.43725 7L9 1.645L7.28745 0L0 7L7.28745 14L9 12.355Z" fill="black"/>
  </symbol>
  <symbol id="visibility" viewBox="0 0 14 10">
    <path id="Vector" d="M7 1.33333C9.41182 1.33333 11.5627 2.75333 12.6127 5C11.5627 7.24667 9.41818 8.66667 7 8.66667C4.58182 8.66667 2.43727 7.24667 1.38727 5C2.43727 2.75333 4.58818 1.33333 7 1.33333ZM7 0C3.81818 0 1.10091 2.07333 0 5C1.10091 7.92667 3.81818 10 7 10C10.1818 10 12.8991 7.92667 14 5C12.8991 2.07333 10.1818 0 7 0ZM7 3.33333C7.87818 3.33333 8.59091 4.08 8.59091 5C8.59091 5.92 7.87818 6.66667 7 6.66667C6.12182 6.66667 5.40909 5.92 5.40909 5C5.40909 4.08 6.12182 3.33333 7 3.33333ZM7 2C5.42182 2 4.13636 3.34667 4.13636 5C4.13636 6.65333 5.42182 8 7 8C8.57818 8 9.86364 6.65333 9.86364 5C9.86364 3.34667 8.57818 2 7 2Z" fill="black"/>
  </symbol>
  <symbol id="close" viewBox="0 0 10 10" >
    <path id="Vector" d="M10 1.00714L8.99286 0L5 3.99286L1.00714 0L0 1.00714L3.99286 5L0 8.99286L1.00714 10L5 6.00714L8.99286 10L10 8.99286L6.00714 5L10 1.00714Z" fill="black"/>
  </symbol>
  <symbol id="text-logo" viewBox="0 0 152 28" >
    <path fill-rule="evenodd" clip-rule="evenodd" d="M129.171 24.2056C126.833 26.0968 123.856 27.2295 120.615 27.2295C113.096 27.2295 107 21.134 107 13.6147C107 6.09553 113.096 0 120.615 0C123.856 0 126.833 1.13271 129.171 3.0239C131.509 1.13271 134.486 0 137.727 0C145.246 0 151.342 6.09553 151.342 13.6147C151.342 21.134 145.246 27.2295 137.727 27.2295C134.486 27.2295 131.509 26.0968 129.171 24.2056Z" fill="url(#paint0_radial_958_6230)"/>
    <path d="M120.554 23.1812C114.815 23.1812 110.769 19.1343 110.769 13.616C110.769 8.09759 114.815 4.05078 120.554 4.05078C126.294 4.05078 130.267 8.09759 130.267 13.616V15.1611H115.367C115.956 17.8099 117.979 19.2079 120.554 19.2079C122.504 19.2079 123.939 18.6561 124.859 17.4788H129.531C128.17 20.937 124.859 23.1812 120.554 23.1812ZM115.478 11.6661H125.631C124.932 9.23806 122.946 8.02401 120.554 8.02401C118.09 8.02401 116.177 9.27485 115.478 11.6661Z" fill="#00368E"/>
    <path d="M102.223 23.1812C97.588 23.1812 94.6817 20.7163 94.5713 17.3317H98.986C99.0228 18.5457 100.09 19.3551 102.223 19.3551C104.468 19.3551 105.424 18.4353 105.424 17.3317C105.424 15.9337 103.805 15.7497 101.856 15.4922C99.0596 15.1243 94.9392 14.6461 94.9392 10.1946C94.9392 6.47887 97.7719 4.05078 102.15 4.05078C106.601 4.05078 109.324 6.55245 109.434 9.7531H105.093C104.983 8.64943 103.953 7.87686 102.223 7.87686C100.31 7.87686 99.3539 8.79659 99.3539 9.86347C99.3539 11.2615 101.009 11.4822 102.959 11.7397C105.387 12.0708 109.839 12.5491 109.839 17.0742C109.839 20.7531 106.859 23.1812 102.223 23.1812Z" fill="#00368E"/>
    <path d="M83.8474 23.1812C78.1083 23.1812 74.0615 19.1343 74.0615 13.616C74.0615 8.09759 78.1083 4.05078 83.8474 4.05078C89.5866 4.05078 93.6334 8.09759 93.6334 13.616C93.6334 19.1343 89.5866 23.1812 83.8474 23.1812ZM83.8474 19.0976C87.0481 19.0976 89.1819 16.8166 89.1819 13.616C89.1819 10.4153 87.0481 8.13438 83.8474 8.13438C80.6468 8.13438 78.4762 10.4153 78.4762 13.616C78.4762 16.8166 80.6468 19.0976 83.8474 19.0976Z" fill="#00368E"/>
    <path d="M57.7363 22.7029V12.1444C57.7363 6.66281 60.9738 4.05078 65.7196 4.05078C70.4654 4.05078 73.666 6.66281 73.666 12.218V12.3283H69.3249V12.1444C69.3249 9.20127 67.8533 8.13438 65.7196 8.13438C63.5858 8.13438 62.1142 9.20127 62.1142 12.1444V22.7029H57.7363Z" fill="#00368E"/>
    <path d="M46.3133 23.1812C40.5742 23.1812 36.5273 19.1343 36.5273 13.616C36.5273 8.09759 40.5742 4.05078 46.3133 4.05078C52.0524 4.05078 56.0992 8.09759 56.0992 13.616C56.0992 19.1343 52.0524 23.1812 46.3133 23.1812ZM46.3133 19.0976C49.5139 19.0976 51.6477 16.8166 51.6477 13.616C51.6477 10.4153 49.5139 8.13438 46.3133 8.13438C43.1126 8.13438 40.942 10.4153 40.942 13.616C40.942 16.8166 43.1126 19.0976 46.3133 19.0976Z" fill="#00368E"/>
    <path d="M16.9326 22.7029V13.2481C16.9326 7.17786 20.538 4.05078 25.9092 4.05078C31.2804 4.05078 34.8857 7.14107 34.8857 13.2481V22.7029H30.5078V13.2481C30.5078 9.78989 28.6684 8.13438 25.9092 8.13438C23.15 8.13438 21.3105 9.78989 21.3105 13.2481V22.7029H16.9326Z" fill="#00368E"/>
    <path d="M7.65215 23.1812C3.01671 23.1812 0.110367 20.7163 0 17.3317H4.4147C4.45149 18.5457 5.51838 19.3551 7.65215 19.3551C9.89629 19.3551 10.8528 18.4353 10.8528 17.3317C10.8528 15.9337 9.23408 15.7497 7.28426 15.4922C4.48828 15.1243 0.367892 14.6461 0.367892 10.1946C0.367892 6.47887 3.20066 4.05078 7.57857 4.05078C12.0301 4.05078 14.7525 6.55245 14.8628 9.7531H10.5217C10.4113 8.64943 9.38124 7.87686 7.65215 7.87686C5.73911 7.87686 4.78259 8.79659 4.78259 9.86347C4.78259 11.2615 6.43811 11.4822 8.38793 11.7397C10.816 12.0708 15.2675 12.5491 15.2675 17.0742C15.2675 20.7531 12.2876 23.1812 7.65215 23.1812Z" fill="#00368E"/>
    <defs>
      <radialGradient id="paint0_radial_958_6230" cx="0" cy="0" r="1" gradientUnits="userSpaceOnUse" gradientTransform="translate(141.516 16.0326) rotate(93.7817) scale(32.5954 53.3349)">
        <stop offset="0.29142" stop-color="#C5D2FF"/>
        <stop offset="1" stop-color="#82B5FF"/>
      </radialGradient>
    </defs>
  </symbol>
  <symbol id="icon-logo" viewBox="0 0 31 19">
    <path fill-rule="evenodd" clip-rule="evenodd" d="M15.5 16.8658C13.8641 18.2 11.7755 19 9.5 19C4.25329 19 0 14.7467 0 9.5C0 4.25329 4.25329 0 9.5 0C11.7755 0 13.8641 0.800031 15.5 2.13416C17.1359 0.800031 19.2245 0 21.5 0C26.7467 0 31 4.25329 31 9.5C31 14.7467 26.7467 19 21.5 19C19.2245 19 17.1359 18.2 15.5 16.8658Z" fill="url(#paint0_radial_946_10050)"/>
    <defs>
    <radialGradient id="paint0_radial_946_10050" cx="0" cy="0" r="1" gradientUnits="userSpaceOnUse" gradientTransform="translate(24.1304 11.1871) rotate(93.7889) scale(22.7444 37.2869)">
    <stop offset="0.29142" stop-color="#C5D2FF"/>
    <stop offset="1" stop-color="#82B5FF"/>
    </radialGradient>
    </defs>
  </symbol>
  <symbol id="first-snow" viewBox="0 0 169 83" >
    <rect width="169" height="83" rx="6" fill="#F4F4F4"/>
    <ellipse cx="134.722" cy="34.3516" rx="2.95501" ry="2.95312" fill="white"/>
    <ellipse cx="98.5033" cy="49.9531" rx="2.95501" ry="2.95312" fill="white"/>
    <ellipse opacity="0.7" cx="117.339" cy="17.4551" rx="2.95501" ry="2.95312" fill="white"/>
    <ellipse opacity="0.4" cx="147.397" cy="5.9082" rx="2.95501" ry="2.95312" fill="white"/>
    <ellipse cx="140.632" cy="64.9531" rx="2.95501" ry="2.95312" fill="white"/>
    <ellipse cx="159.824" cy="52.9531" rx="2.95501" ry="2.95312" fill="white"/>
    <ellipse cx="156.822" cy="75.9531" rx="2.95501" ry="2.95312" fill="white"/>
    <ellipse cx="113.794" cy="72.8574" rx="2.95501" ry="2.95312" fill="white"/>
  </symbol>
  <symbol id="large-snow" viewBox="0 0 174 83" >
    <rect width="174" height="83" rx="6" fill="#F4F4F4"/>
    <ellipse cx="152.513" cy="38.0835" rx="5.89956" ry="5.91553" fill="white"/>
    <ellipse cx="164.312" cy="20.1694" rx="5.89956" ry="5.91553" fill="white" fill-opacity="0.65"/>
    <ellipse cx="144.608" cy="8.3374" rx="5.89956" ry="5.91553" fill="white" fill-opacity="0.5"/>
    <path fill-rule="evenodd" clip-rule="evenodd" d="M114.162 83C124.394 72.9238 150.687 52.0172 174 49V71C174 71.0285 174 71.057 174 71.0854V78.0868C174 80.8004 171.767 83.0001 169.013 83.0001H155.514L155.514 83H114.162Z" fill="url(#paint0_linear_946_10067)"/>
    <defs>
    <linearGradient id="paint0_linear_946_10067" x1="144.081" y1="49" x2="184.11" y2="101.396" gradientUnits="userSpaceOnUse">
    <stop stop-color="white"/>
    <stop offset="1" stop-color="#F0F0F0"/>
    </linearGradient>
    </defs>
  </symbol>
  <symbol id="permanent-snow" viewBox="0 0 169 83" >
    <rect width="169" height="83" rx="6" fill="#F4F4F4"/>
    <path d="M128.758 39.6657L102.958 83.0012H156.992C163.624 83.0012 169 77.6286 169 71.0012V19.6593C169 15.0187 162.419 14.1008 161.148 18.564L151.974 50.7687C151.066 53.9553 146.897 54.7206 144.915 52.0643L135.407 39.3201C133.701 37.0337 130.218 37.2148 128.758 39.6657Z" fill="url(#paint0_linear_946_10089)"/>
    <ellipse cx="111.841" cy="34.0835" rx="5.9193" ry="5.91553" fill="white"/>
    <ellipse cx="123.68" cy="16.1694" rx="5.9193" ry="5.91553" fill="white" fill-opacity="0.65"/>
    <circle cx="103.843" cy="5.91553" r="5.91553" fill="white" fill-opacity="0.5"/>
    <defs>
    <linearGradient id="paint0_linear_946_10089" x1="135.979" y1="16.2807" x2="187.108" y2="133.556" gradientUnits="userSpaceOnUse">
    <stop stop-color="white"/>
    <stop offset="1" stop-color="#F0F0F0"/>
    </linearGradient>
    </defs>
  </symbol>
  <symbol id="besookt" viewBox="0 0 174 83">
    <path fill-rule="evenodd" clip-rule="evenodd" d="M6 0C2.68629 0 0 2.68629 0 6V77C0 80.3137 2.68629 83 6 83H120.273C120.31 82.6431 120.386 82.2781 120.506 81.908L124.218 70.4529C124.885 68.3959 124.153 66.1435 122.406 64.8702L112.673 57.7801C108.761 54.93 110.777 48.7388 115.617 48.7388H127.618C129.786 48.7388 131.707 47.3421 132.375 45.2801L136.075 33.8627C137.569 29.2512 144.093 29.2511 145.588 33.8627L149.287 45.2801C149.956 47.3421 151.876 48.7388 154.044 48.7388H166.045C170.885 48.7388 172.902 54.93 168.989 57.7801L159.257 64.8702C157.509 66.1435 156.778 68.3959 157.445 70.4529L161.156 81.908C161.276 82.2781 161.353 82.6431 161.389 83H168C171.314 83 174 80.3137 174 77V6C174 2.68629 171.314 0 168 0H6ZM147.292 83L143.775 80.4383C142.021 79.1601 139.642 79.1601 137.887 80.4383L134.371 83H147.292Z" fill="#F4F4F4"/>
    <path d="M120.675 27.8631C122.168 23.2566 128.667 23.2566 130.16 27.8631L133.875 39.3277C134.543 41.3878 136.457 42.7826 138.618 42.7826H150.64C155.47 42.7826 157.479 48.9807 153.571 51.8277L143.845 58.9131C142.097 60.1863 141.366 62.4432 142.033 64.5033L145.748 75.9679C147.241 80.5744 141.983 84.405 138.075 81.558L128.349 74.4725C126.601 73.1993 124.234 73.1993 122.487 74.4725L112.761 81.558C108.853 84.405 103.595 80.5744 105.087 75.9678L108.802 64.5033C109.47 62.4432 108.738 60.1864 106.991 58.9131L97.2648 51.8277C93.3568 48.9806 95.3652 42.7826 100.196 42.7826H112.218C114.378 42.7826 116.293 41.3878 116.96 39.3277L120.675 27.8631Z" fill="white" fill-opacity="0.5"/>
    <path d="M121.366 36.0967L107.321 26.2227" stroke="white" stroke-width="2" stroke-linecap="round"/>
    <path d="M127.972 29.6788L118.384 16.4668" stroke="white" stroke-width="2" stroke-linecap="round"/>
    <path d="M138.045 26.8359L133.731 11.8828" stroke="white" stroke-width="2" stroke-linecap="round"/>
  </symbol>
</svg>



