<svg width="59" height="59" viewBox="0 0 59 59" fill="none" xmlns="http://www.w3.org/2000/svg">
<g id="Group 11">
<g id="Group 10">
<path id="Vector" d="M29.5 0C13.216 0 0 13.216 0 29.5C0 45.784 13.216 59 29.5 59C45.784 59 59 45.784 59 29.5C59 13.216 45.784 0 29.5 0ZM29.5 53.1C16.4905 53.1 5.9 42.5095 5.9 29.5C5.9 29.4705 5.9 29.441 5.9 29.4115C12.7145 28.7625 16.0185 24.721 18.703 19.352C19.2045 18.3195 20.2075 17.7 21.358 17.7H37.6715C38.7925 17.7 39.7955 18.3195 40.297 19.3225C42.952 24.6325 46.1675 28.733 53.1 29.382C53.1 29.4115 53.1 29.441 53.1 29.4705C53.1 42.5095 42.5095 53.1 29.5 53.1Z" fill="#00368E"/>
<path id="Vector_2" d="M20.6484 36.1377C22.685 36.1377 24.3359 34.4867 24.3359 32.4502C24.3359 30.4136 22.685 28.7627 20.6484 28.7627C18.6119 28.7627 16.9609 30.4136 16.9609 32.4502C16.9609 34.4867 18.6119 36.1377 20.6484 36.1377Z" fill="#00368E"/>
<path id="Vector_3" d="M38.3516 36.1377C40.3881 36.1377 42.0391 34.4867 42.0391 32.4502C42.0391 30.4136 40.3881 28.7627 38.3516 28.7627C36.315 28.7627 34.6641 30.4136 34.6641 32.4502C34.6641 34.4867 36.315 36.1377 38.3516 36.1377Z" fill="#00368E"/>
</g>
</g>
</svg>
