<svg width="14" height="9" viewBox="0 0 14 9" fill="none" xmlns="http://www.w3.org/2000/svg">
<path id="Vector" d="M7 0C3.81818 0 1.10091 1.866 0 4.5C1.10091 7.134 3.81818 9 7 9C10.1818 9 12.8991 7.134 14 4.5C12.8991 1.866 10.1818 0 7 0ZM7 7.5C5.24364 7.5 3.81818 6.156 3.81818 4.5C3.81818 2.844 5.24364 1.5 7 1.5C8.75636 1.5 10.1818 2.844 10.1818 4.5C10.1818 6.156 8.75636 7.5 7 7.5ZM7 2.7C5.94364 2.7 5.09091 3.504 5.09091 4.5C5.09091 5.496 5.94364 6.3 7 6.3C8.05636 6.3 8.90909 5.496 8.90909 4.5C8.90909 3.504 8.05636 2.7 7 2.7Z" fill="#C7C7C7"/>
</svg>
